<svg width="74" height="16" viewBox="0 0 74 16" fill="none" xmlns="http://www.w3.org/2000/svg">
<path d="M2.02675 9.664V11.376H9.99475V15.456H12.1388V9.664H2.02675ZM9.99475 0.639999V9.056H12.1388V0.639999H9.99475ZM0.666749 1.392V7.504H2.77875V1.392H0.666749ZM0.666749 6.544V8.288H1.94675C4.13875 8.288 6.53875 8.144 9.05075 7.648L8.79475 5.92C6.37875 6.4 4.05875 6.544 1.94675 6.544H0.666749ZM14.7775 2.016V10.624H16.8895V2.016H14.7775ZM14.7775 10.08V11.888H15.8175C17.7055 11.888 19.3055 11.824 21.0815 11.44L20.8095 9.664C19.0975 10.016 17.6095 10.08 15.8175 10.08H14.7775ZM24.9535 0.608V15.424H26.9855V0.608H24.9535ZM18.9055 5.28V6.992H22.2815V5.28H18.9055ZM21.8175 0.863999V14.768H23.8015V0.863999H21.8175ZM38.7923 0.624V8.992H40.9363V0.624H38.7923ZM31.0802 9.664V15.264H40.9363V9.664H31.0802ZM38.8403 11.328V13.584H33.1602V11.328H38.8403ZM32.8723 1.296C30.5682 1.296 28.8402 2.768 28.8402 4.848C28.8402 6.912 30.5682 8.4 32.8723 8.4C35.1762 8.4 36.8883 6.912 36.8883 4.848C36.8883 2.768 35.1762 1.296 32.8723 1.296ZM32.8723 3.056C33.9922 3.056 34.8082 3.712 34.8082 4.848C34.8082 5.968 33.9922 6.624 32.8723 6.624C31.7522 6.624 30.9202 5.968 30.9202 4.848C30.9202 3.712 31.7522 3.056 32.8723 3.056ZM56.8398 0.608V8.576H58.9838V0.608H56.8398ZM49.1278 9.216V15.264H58.9838V9.216H56.8718V10.592H51.2238V9.216H49.1278ZM51.2238 12.224H56.8718V13.568H51.2238V12.224ZM50.9198 1.216C48.6158 1.216 46.8878 2.672 46.8878 4.72C46.8878 6.768 48.6158 8.224 50.9198 8.224C53.2238 8.224 54.9358 6.768 54.9358 4.72C54.9358 2.672 53.2238 1.216 50.9198 1.216ZM50.9198 2.976C52.0398 2.976 52.8558 3.632 52.8558 4.72C52.8558 5.824 52.0398 6.464 50.9198 6.464C49.7838 6.464 48.9678 5.824 48.9678 4.72C48.9678 3.632 49.7838 2.976 50.9198 2.976ZM61.6225 7.664V9.36H62.7585C65.5905 9.36 67.1105 9.312 68.8385 8.992L68.6305 7.312C66.9505 7.616 65.5105 7.664 62.7585 7.664H61.6225ZM61.6065 1.456V3.136H66.0065V4.544H61.6225V8.784H63.7345V6.128H68.1185V1.456H61.6065ZM71.3345 0.624V9.744H73.4625V0.624H71.3345ZM68.9665 2.656V4.352H71.7185V2.656H68.9665ZM68.9665 5.808V7.504H71.7185V5.808H68.9665ZM63.3185 10.416V12.112H71.3345V15.44H73.4625V10.416H63.3185Z" fill="url(#paint0_linear_421_475)" fill-opacity="0.82"/>
<defs>
<linearGradient id="paint0_linear_421_475" x1="70.6494" y1="19.6891" x2="28.3097" y2="-30.3188" gradientUnits="userSpaceOnUse">
<stop stop-color="#4255FE"/>
<stop offset="0.21875" stop-color="#394DFF"/>
<stop offset="0.583333" stop-color="#6E4FFD"/>
<stop offset="0.734375" stop-color="#8355FF"/>
</linearGradient>
</defs>
</svg>
