<svg width="201" height="22" viewBox="0 0 201 22" fill="none" xmlns="http://www.w3.org/2000/svg">
<path d="M2.37869 13.038V15.392H13.3347V21.002H16.2827V13.038H2.37869ZM13.3347 0.629999V12.202H16.2827V0.629999H13.3347ZM0.508692 1.664V10.068H3.41269V1.664H0.508692ZM0.508692 8.748V11.146H2.26869C5.28269 11.146 8.58269 10.948 12.0367 10.266L11.6847 7.89C8.36269 8.55 5.17269 8.748 2.26869 8.748H0.508692ZM19.911 2.522V14.358H22.815V2.522H19.911ZM19.911 13.61V16.096H21.341C23.937 16.096 26.137 16.008 28.579 15.48L28.205 13.038C25.851 13.522 23.805 13.61 21.341 13.61H19.911ZM33.903 0.586V20.958H36.697V0.586H33.903ZM25.587 7.01V9.364H30.229V7.01H25.587ZM29.591 0.937999V20.056H32.319V0.937999H29.591ZM52.9313 0.607999V12.114H55.8793V0.607999H52.9313ZM42.3273 13.038V20.738H55.8793V13.038H42.3273ZM52.9973 15.326V18.428H45.1873V15.326H52.9973ZM44.7913 1.532C41.6233 1.532 39.2473 3.556 39.2473 6.416C39.2473 9.254 41.6233 11.3 44.7913 11.3C47.9593 11.3 50.3133 9.254 50.3133 6.416C50.3133 3.556 47.9593 1.532 44.7913 1.532ZM44.7913 3.952C46.3313 3.952 47.4533 4.854 47.4533 6.416C47.4533 7.956 46.3313 8.858 44.7913 8.858C43.2513 8.858 42.1073 7.956 42.1073 6.416C42.1073 4.854 43.2513 3.952 44.7913 3.952ZM67.9555 0.871999C63.2915 0.871999 60.5855 2.104 60.5855 4.348C60.5855 6.592 63.2915 7.824 67.9555 7.824C72.5975 7.824 75.3255 6.592 75.3255 4.348C75.3255 2.104 72.5975 0.871999 67.9555 0.871999ZM67.9555 3.006C70.9035 3.006 72.2895 3.446 72.2895 4.348C72.2895 5.294 70.9035 5.69 67.9555 5.69C65.0075 5.69 63.6215 5.294 63.6215 4.348C63.6215 3.446 65.0075 3.006 67.9555 3.006ZM58.7375 8.77V11.08H77.1515V8.77H58.7375ZM60.8495 12.224V14.402H72.0475V15.436H60.8715V19.264H63.7535V17.46H74.9295V12.224H60.8495ZM60.8715 18.626V20.826H75.4575V18.626H60.8715ZM97.1796 0.586V11.542H100.128V0.586H97.1796ZM86.5756 12.422V20.738H100.128V12.422H97.2236V14.314H89.4576V12.422H86.5756ZM89.4576 16.558H97.2236V18.406H89.4576V16.558ZM89.0396 1.422C85.8716 1.422 83.4956 3.424 83.4956 6.24C83.4956 9.056 85.8716 11.058 89.0396 11.058C92.2076 11.058 94.5616 9.056 94.5616 6.24C94.5616 3.424 92.2076 1.422 89.0396 1.422ZM89.0396 3.842C90.5796 3.842 91.7016 4.744 91.7016 6.24C91.7016 7.758 90.5796 8.638 89.0396 8.638C87.4776 8.638 86.3556 7.758 86.3556 6.24C86.3556 4.744 87.4776 3.842 89.0396 3.842ZM103.756 10.288V12.62H105.318C109.212 12.62 111.302 12.554 113.678 12.114L113.392 9.804C111.082 10.222 109.102 10.288 105.318 10.288H103.756ZM103.734 1.752V4.062H109.784V5.998H103.756V11.828H106.66V8.176H112.688V1.752H103.734ZM117.11 0.607999V13.148H120.036V0.607999H117.11ZM113.854 3.402V5.734H117.638V3.402H113.854ZM113.854 7.736V10.068H117.638V7.736H113.854ZM106.088 14.072V16.404H117.11V20.98H120.036V14.072H106.088ZM122.762 3.644V5.976H132.508V3.644H122.762ZM127.668 6.878C125.094 6.878 123.202 8.88 123.202 11.74C123.202 14.578 125.094 16.58 127.668 16.58C130.264 16.58 132.134 14.578 132.134 11.74C132.134 8.88 130.264 6.878 127.668 6.878ZM127.668 9.32C128.768 9.32 129.56 10.2 129.56 11.74C129.56 13.28 128.768 14.138 127.668 14.138C126.568 14.138 125.798 13.28 125.798 11.74C125.798 10.2 126.568 9.32 127.668 9.32ZM137.502 0.586V20.958H140.296V0.586H137.502ZM135.06 8.858V11.212H138.426V8.858H135.06ZM133.234 0.959999V20.1H135.962V0.959999H133.234ZM126.238 1.136V5.118H129.12V1.136H126.238ZM150.128 2.852V3.446C150.128 5.536 147.972 7.824 143.484 8.374L144.562 10.662C149.732 9.958 152.658 7.032 152.658 3.446V2.852H150.128ZM150.964 2.852V3.446C150.964 7.032 153.89 9.958 159.082 10.662L160.138 8.374C155.65 7.824 153.494 5.536 153.494 3.446V2.852H150.964ZM150.282 13.5V20.98H153.186V13.5H150.282ZM142.604 11.828V14.16H161.018V11.828H142.604ZM144.232 1.62V3.93H159.346V1.62H144.232ZM170.411 7.428V9.804H173.777V7.428H170.411ZM166.055 2.346V5.778C166.055 9.232 164.999 12.862 162.007 14.71L163.767 16.91C167.023 14.908 168.299 10.398 168.299 5.778V2.346H166.055ZM166.693 2.346V5.646C166.693 10.046 167.705 14.446 170.939 16.448L172.523 14.16C169.751 12.356 168.893 8.968 168.893 5.646V2.346H166.693ZM177.099 0.586V20.958H179.893V0.586H177.099ZM172.963 0.894V20.034H175.691V0.894H172.963ZM186.249 10.926V16.646H189.153V10.926H186.249ZM193.641 10.926V16.646H196.567V10.926H193.641ZM182.201 16.228V18.604H200.637V16.228H182.201ZM191.397 1.576C186.997 1.576 183.785 3.732 183.785 7.054C183.785 10.376 186.997 12.51 191.397 12.51C195.775 12.51 199.009 10.376 199.009 7.054C199.009 3.732 195.775 1.576 191.397 1.576ZM191.397 3.864C194.235 3.864 196.127 5.03 196.127 7.054C196.127 9.056 194.235 10.244 191.397 10.244C188.559 10.244 186.667 9.056 186.667 7.054C186.667 5.03 188.559 3.864 191.397 3.864Z" fill="url(#paint0_linear_421_474)"/>
<defs>
<linearGradient id="paint0_linear_421_474" x1="-7" y1="-5.32813" x2="55.1435" y2="111.073" gradientUnits="userSpaceOnUse">
<stop stop-color="#7373F6"/>
<stop offset="0.361458" stop-color="#8B70F7"/>
<stop offset="0.634552" stop-color="#956EF6"/>
<stop offset="1" stop-color="#A869F7"/>
</linearGradient>
</defs>
</svg>
