<svg width="222" height="22" viewBox="0 0 222 22" fill="none" xmlns="http://www.w3.org/2000/svg">
<path d="M5.11355 12.972V16.272H8.03955V12.972H5.11355ZM14.0236 0.586V20.958H16.9496V0.586H14.0236ZM0.405553 17.57C4.01355 17.57 8.74355 17.548 13.1656 16.734L12.9676 14.622C8.67755 15.194 3.74955 15.194 0.0535529 15.216L0.405553 17.57ZM0.449553 2.83V5.118H12.7036V2.83H0.449553ZM6.56555 5.932C3.59555 5.932 1.50555 7.472 1.50555 9.738C1.50555 12.026 3.59555 13.566 6.56555 13.566C9.57955 13.566 11.6696 12.026 11.6696 9.738C11.6696 7.472 9.57955 5.932 6.56555 5.932ZM6.56555 8.132C7.92955 8.132 8.87555 8.704 8.87555 9.738C8.87555 10.794 7.92955 11.366 6.56555 11.366C5.24555 11.366 4.29955 10.794 4.29955 9.738C4.29955 8.704 5.24555 8.132 6.56555 8.132ZM5.11355 0.673999V4.15H8.03955V0.673999H5.11355ZM25.0438 11.036V15.502H27.9698V11.036H25.0438ZM33.9758 0.586V16.008H36.9018V0.586H33.9758ZM22.2278 18.274V20.606H37.3418V18.274H22.2278ZM22.2278 14.556V18.89H25.1538V14.556H22.2278ZM20.0278 11.916C23.7018 11.916 28.4758 11.806 32.8098 11.08L32.6338 8.99C28.3658 9.54 23.3938 9.584 19.6758 9.584L20.0278 11.916ZM30.1258 12.422V14.424H34.6138V12.422H30.1258ZM26.2318 1.29C23.2398 1.29 21.1498 2.764 21.1498 4.92C21.1498 7.098 23.2398 8.55 26.2318 8.55C29.2018 8.55 31.2918 7.098 31.2918 4.92C31.2918 2.764 29.2018 1.29 26.2318 1.29ZM26.2318 3.424C27.5738 3.424 28.5198 3.93 28.5198 4.92C28.5198 5.91 27.5738 6.416 26.2318 6.416C24.8678 6.416 23.9218 5.91 23.9218 4.92C23.9218 3.93 24.8678 3.424 26.2318 3.424ZM52.5641 0.563999V20.936H55.5121V0.563999H52.5641ZM54.7421 8.352V10.75H58.3281V8.352H54.7421ZM47.2181 2.676V3.182C47.2181 8.704 44.6881 12.444 39.3421 15.216L40.9701 17.438C47.7461 14.028 50.0781 8.792 50.0781 2.676H47.2181ZM40.4641 2.676V5.03H48.7141V2.676H40.4641ZM73.3304 0.586V11.542H76.2784V0.586H73.3304ZM62.7264 12.422V20.738H76.2784V12.422H73.3744V14.314H65.6084V12.422H62.7264ZM65.6084 16.558H73.3744V18.406H65.6084V16.558ZM65.1904 1.422C62.0224 1.422 59.6464 3.424 59.6464 6.24C59.6464 9.056 62.0224 11.058 65.1904 11.058C68.3584 11.058 70.7124 9.056 70.7124 6.24C70.7124 3.424 68.3584 1.422 65.1904 1.422ZM65.1904 3.842C66.7304 3.842 67.8524 4.744 67.8524 6.24C67.8524 7.758 66.7304 8.638 65.1904 8.638C63.6284 8.638 62.5064 7.758 62.5064 6.24C62.5064 4.744 63.6284 3.842 65.1904 3.842ZM88.3547 0.871999C83.6907 0.871999 80.9847 2.104 80.9847 4.348C80.9847 6.592 83.6907 7.824 88.3547 7.824C92.9967 7.824 95.7247 6.592 95.7247 4.348C95.7247 2.104 92.9967 0.871999 88.3547 0.871999ZM88.3547 3.006C91.3027 3.006 92.6887 3.446 92.6887 4.348C92.6887 5.294 91.3027 5.69 88.3547 5.69C85.4067 5.69 84.0207 5.294 84.0207 4.348C84.0207 3.446 85.4067 3.006 88.3547 3.006ZM79.1367 8.77V11.08H97.5507V8.77H79.1367ZM81.2487 12.224V14.402H92.4467V15.436H81.2707V19.264H84.1527V17.46H95.3287V12.224H81.2487ZM81.2707 18.626V20.826H95.8567V18.626H81.2707ZM108.559 2.148V5.118C108.559 9.078 106.887 12.994 103.345 14.534L105.083 16.954C109.131 15.084 110.935 10.354 110.935 5.118V2.148H108.559ZM109.131 2.148V5.118C109.131 10.134 110.935 14.666 114.873 16.47L116.589 14.116C113.113 12.62 111.507 8.88 111.507 5.118V2.148H109.131ZM117.557 0.563999V21.002H120.505V0.563999H117.557ZM127.917 2.676V3.952C127.917 6.504 126.487 9.144 123.077 10.244L124.595 12.51C128.489 11.256 130.315 7.802 130.315 3.952V2.676H127.917ZM128.511 2.676V3.952C128.511 7.604 130.271 10.926 134.077 12.158L135.573 9.892C132.273 8.836 130.887 6.35 130.887 3.952V2.676H128.511ZM123.869 1.774V4.106H134.869V1.774H123.869ZM136.497 0.586V12.862H139.423V0.586H136.497ZM138.609 5.514V7.912H142.129V5.514H138.609ZM125.827 13.742V16.096H136.497V20.958H139.423V13.742H125.827ZM143.161 3.644V5.976H152.907V3.644H143.161ZM148.067 6.878C145.493 6.878 143.601 8.88 143.601 11.74C143.601 14.578 145.493 16.58 148.067 16.58C150.663 16.58 152.533 14.578 152.533 11.74C152.533 8.88 150.663 6.878 148.067 6.878ZM148.067 9.32C149.167 9.32 149.959 10.2 149.959 11.74C149.959 13.28 149.167 14.138 148.067 14.138C146.967 14.138 146.197 13.28 146.197 11.74C146.197 10.2 146.967 9.32 148.067 9.32ZM157.901 0.586V20.958H160.695V0.586H157.901ZM155.459 8.858V11.212H158.825V8.858H155.459ZM153.633 0.959999V20.1H156.361V0.959999H153.633ZM146.637 1.136V5.118H149.519V1.136H146.637ZM170.528 2.852V3.446C170.528 5.536 168.372 7.824 163.884 8.374L164.962 10.662C170.132 9.958 173.058 7.032 173.058 3.446V2.852H170.528ZM171.364 2.852V3.446C171.364 7.032 174.29 9.958 179.482 10.662L180.538 8.374C176.05 7.824 173.894 5.536 173.894 3.446V2.852H171.364ZM170.682 13.5V20.98H173.586V13.5H170.682ZM163.004 11.828V14.16H181.418V11.828H163.004ZM164.632 1.62V3.93H179.746V1.62H164.632ZM190.81 7.428V9.804H194.176V7.428H190.81ZM186.454 2.346V5.778C186.454 9.232 185.398 12.862 182.406 14.71L184.166 16.91C187.422 14.908 188.698 10.398 188.698 5.778V2.346H186.454ZM187.092 2.346V5.646C187.092 10.046 188.104 14.446 191.338 16.448L192.922 14.16C190.15 12.356 189.292 8.968 189.292 5.646V2.346H187.092ZM197.498 0.586V20.958H200.292V0.586H197.498ZM193.362 0.894V20.034H196.09V0.894H193.362ZM206.648 10.926V16.646H209.552V10.926H206.648ZM214.04 10.926V16.646H216.966V10.926H214.04ZM202.6 16.228V18.604H221.036V16.228H202.6ZM211.796 1.576C207.396 1.576 204.184 3.732 204.184 7.054C204.184 10.376 207.396 12.51 211.796 12.51C216.174 12.51 219.408 10.376 219.408 7.054C219.408 3.732 216.174 1.576 211.796 1.576ZM211.796 3.864C214.634 3.864 216.526 5.03 216.526 7.054C216.526 9.056 214.634 10.244 211.796 10.244C208.958 10.244 207.066 9.056 207.066 7.054C207.066 5.03 208.958 3.864 211.796 3.864Z" fill="url(#paint0_linear_421_425)"/>
<defs>
<linearGradient id="paint0_linear_421_425" x1="-31" y1="-5.32813" x2="20.9233" y2="123.288" gradientUnits="userSpaceOnUse">
<stop stop-color="#7373F6"/>
<stop offset="0.361458" stop-color="#8B70F7"/>
<stop offset="0.634552" stop-color="#956EF6"/>
<stop offset="1" stop-color="#A869F7"/>
</linearGradient>
</defs>
</svg>
