<svg width="208" height="14" viewBox="0 0 208 14" fill="none" xmlns="http://www.w3.org/2000/svg">
<path d="M3.29287 1.528V3.796C3.29287 6.106 1.85087 8.542 0.0168709 9.466L0.730871 10.39C2.73287 9.326 4.24487 6.596 4.24487 3.796V1.528H3.29287ZM3.50287 1.528V3.796C3.50287 6.512 4.97287 9.102 6.93287 10.152L7.64687 9.228C5.85487 8.332 4.44087 6.022 4.44087 3.796V1.528H3.50287ZM8.75287 0.436V13.092H9.92887V0.436H8.75287ZM9.64887 5.56V6.54H12.0009V5.56H9.64887ZM16.1578 1.822V3.11C16.1578 4.916 14.8698 6.554 12.9658 7.226L13.5678 8.15C15.6958 7.38 17.1238 5.434 17.1238 3.11V1.822H16.1578ZM16.3818 1.822V3.11C16.3818 5.336 17.8378 7.184 19.9378 7.898L20.5398 6.988C18.6638 6.358 17.3478 4.818 17.3478 3.11V1.822H16.3818ZM13.2738 1.486V2.424H20.2038V1.486H13.2738ZM21.9958 0.449999V9.704H23.1718V0.449999H21.9958ZM15.0378 11.86V12.812H23.5498V11.86H15.0378ZM15.0378 8.836V12.28H16.1858V8.836H15.0378ZM25.3827 7.086V8.038H36.8207V7.086H25.3827ZM26.8667 11.86V12.812H35.5607V11.86H26.8667ZM26.8667 9.144V12.154H28.0287V9.144H26.8667ZM31.1087 0.855999C28.3927 0.855999 26.6567 1.808 26.6567 3.39C26.6567 4.958 28.3927 5.91 31.1087 5.91C33.8107 5.91 35.5607 4.958 35.5607 3.39C35.5607 1.808 33.8107 0.855999 31.1087 0.855999ZM31.1087 1.808C33.0967 1.808 34.3707 2.396 34.3707 3.39C34.3707 4.384 33.0967 4.972 31.1087 4.972C29.1207 4.972 27.8467 4.384 27.8467 3.39C27.8467 2.396 29.1207 1.808 31.1087 1.808ZM45.0327 7.128V9.872H46.2087V7.128H45.0327ZM45.0327 2.676V2.956C45.0327 4.664 43.7447 6.078 41.8687 6.638L42.4007 7.548C44.5287 6.876 45.9707 5.168 45.9707 2.956V2.676H45.0327ZM45.2567 2.676V2.956C45.2567 5.098 46.7267 6.778 48.8547 7.408L49.3867 6.512C47.5247 5.966 46.1947 4.594 46.1947 2.956V2.676H45.2567ZM42.1627 2.088V3.026H49.1207V2.088H42.1627ZM45.0327 0.519999V2.494H46.2087V0.519999H45.0327ZM50.5627 0.422V13.106H51.7247V0.422H50.5627ZM41.6447 10.502C43.8987 10.488 46.9927 10.474 49.8347 9.942L49.7367 9.088C46.9787 9.508 43.7867 9.522 41.4767 9.522L41.6447 10.502ZM54.0196 10.488V11.454H65.4856V10.488H54.0196ZM59.1156 7.422V10.81H60.2636V7.422H59.1156ZM59.0876 1.276V2.256C59.0876 4.342 56.6936 6.204 54.4676 6.61L54.9576 7.576C57.5056 7.044 60.0956 4.958 60.0956 2.256V1.276H59.0876ZM59.2976 1.276V2.256C59.2976 4.958 61.8876 7.044 64.4356 7.576L64.9396 6.61C62.7136 6.204 60.3056 4.356 60.3056 2.256V1.276H59.2976ZM73.8677 12.1392C73.1849 12.1392 72.5751 12.0215 72.0382 11.7862C71.5045 11.5509 71.082 11.2244 70.7704 10.8068C70.4622 10.3859 70.2964 9.89867 70.2732 9.34517H71.8343C71.8542 9.64678 71.9553 9.90862 72.1376 10.1307C72.3232 10.3494 72.5652 10.5185 72.8634 10.6378C73.1617 10.7571 73.4932 10.8168 73.8578 10.8168C74.2588 10.8168 74.6134 10.7472 74.9217 10.608C75.2332 10.4687 75.4768 10.2749 75.6525 10.0263C75.8282 9.77438 75.916 9.48438 75.916 9.15625C75.916 8.81487 75.8282 8.51491 75.6525 8.25639C75.4802 7.99455 75.2266 7.78906 74.8919 7.63991C74.5604 7.49077 74.1594 7.41619 73.6887 7.41619H72.8286V6.16335H73.6887C74.0666 6.16335 74.398 6.09541 74.683 5.95952C74.9714 5.82363 75.1968 5.63471 75.3592 5.39276C75.5216 5.14749 75.6028 4.8608 75.6028 4.53267C75.6028 4.2178 75.5315 3.94437 75.389 3.71236C75.2498 3.47704 75.0509 3.29309 74.7924 3.16051C74.5372 3.02794 74.2356 2.96165 73.8876 2.96165C73.5562 2.96165 73.2463 3.02296 72.9579 3.1456C72.6729 3.26491 72.4409 3.43726 72.2619 3.66264C72.0829 3.88471 71.9868 4.15151 71.9735 4.46307H70.487C70.5036 3.91288 70.666 3.42898 70.9742 3.01136C71.2858 2.59375 71.6968 2.26728 72.2072 2.03196C72.7176 1.79664 73.2844 1.67898 73.9075 1.67898C74.5604 1.67898 75.1239 1.80658 75.5978 2.06179C76.0751 2.31368 76.443 2.65009 76.7015 3.07102C76.9634 3.49195 77.0926 3.95265 77.0893 4.45312C77.0926 5.0232 76.9335 5.5071 76.612 5.90483C76.2938 6.30256 75.8696 6.56937 75.3393 6.70526V6.7848C76.0154 6.88755 76.5391 7.15601 76.9103 7.5902C77.2848 8.02438 77.4705 8.56297 77.4671 9.20597C77.4705 9.7661 77.3147 10.2682 76.9998 10.7124C76.6883 11.1565 76.2624 11.5062 75.7221 11.7614C75.1819 12.0133 74.5637 12.1392 73.8677 12.1392ZM81.895 1.794V2.816C81.895 4.622 80.635 6.26 78.731 6.932L79.319 7.856C81.447 7.086 82.847 5.14 82.847 2.816V1.794H81.895ZM82.105 1.794V2.802C82.105 4.958 83.449 6.764 85.563 7.464L86.123 6.554C84.261 5.938 83.057 4.454 83.057 2.802V1.794H82.105ZM79.081 1.374V2.326H85.843V1.374H79.081ZM87.439 0.436V8.066H88.601V0.436H87.439ZM88.279 3.642V4.622H90.477V3.642H88.279ZM84.569 8.402C81.993 8.402 80.411 9.256 80.411 10.726C80.411 12.21 81.993 13.064 84.569 13.064C87.145 13.064 88.727 12.21 88.727 10.726C88.727 9.256 87.145 8.402 84.569 8.402ZM84.569 9.34C86.445 9.34 87.593 9.844 87.593 10.726C87.593 11.622 86.445 12.154 84.569 12.154C82.693 12.154 81.545 11.622 81.545 10.726C81.545 9.844 82.693 9.34 84.569 9.34ZM100.57 0.422V13.106H101.732V0.422H100.57ZM95.0539 1.402C93.1919 1.402 91.8479 3.124 91.8479 5.812C91.8479 8.514 93.1919 10.236 95.0539 10.236C96.9299 10.236 98.2739 8.514 98.2739 5.812C98.2739 3.124 96.9299 1.402 95.0539 1.402ZM95.0539 2.452C96.2999 2.452 97.1539 3.768 97.1539 5.812C97.1539 7.87 96.2999 9.214 95.0539 9.214C93.8219 9.214 92.9539 7.87 92.9539 5.812C92.9539 3.768 93.8219 2.452 95.0539 2.452ZM107.051 1.094V2.382C107.051 4.314 105.819 6.022 103.915 6.722L104.531 7.66C106.645 6.834 108.017 4.818 108.017 2.382V1.094H107.051ZM107.261 1.094V2.466C107.261 4.664 108.647 6.54 110.677 7.296L111.293 6.386C109.473 5.756 108.213 4.174 108.213 2.466V1.094H107.261ZM112.637 0.436V8.108H113.799V0.436H112.637ZM113.477 3.698V4.678H115.675V3.698H113.477ZM109.767 8.458C107.177 8.458 105.609 9.312 105.609 10.768C105.609 12.224 107.177 13.064 109.767 13.064C112.357 13.064 113.925 12.224 113.925 10.768C113.925 9.312 112.357 8.458 109.767 8.458ZM109.767 9.382C111.643 9.382 112.791 9.886 112.791 10.768C112.791 11.65 111.643 12.154 109.767 12.154C107.891 12.154 106.743 11.65 106.743 10.768C106.743 9.886 107.891 9.382 109.767 9.382ZM126.365 3.446V4.412H129.767V3.446H126.365ZM123.453 1.01C121.563 1.01 120.191 2.214 120.191 3.95C120.191 5.686 121.563 6.876 123.453 6.876C125.343 6.876 126.715 5.686 126.715 3.95C126.715 2.214 125.343 1.01 123.453 1.01ZM123.453 1.99C124.699 1.99 125.595 2.788 125.595 3.95C125.595 5.098 124.699 5.91 123.453 5.91C122.207 5.91 121.311 5.098 121.311 3.95C121.311 2.788 122.207 1.99 123.453 1.99ZM129.249 0.436V7.226H130.411V0.436H129.249ZM122.305 7.856V12.924H130.411V7.856H129.263V9.452H123.467V7.856H122.305ZM123.467 10.376H129.263V11.986H123.467V10.376ZM132.608 10.572V11.538H144.074V10.572H132.608ZM137.732 7.856V10.978H138.894V7.856H137.732ZM133.994 1.374V2.312H141.512V4.272H134.036V7.744H135.184V5.21H142.66V1.374H133.994ZM134.036 7.254V8.206H142.954V7.254H134.036ZM146.649 6.498V7.45H155.343V6.498H146.649ZM145.207 10.418V11.384H156.673V10.418H145.207ZM146.649 1.598V6.918H147.811V2.564H155.217V1.598H146.649ZM157.778 2.592V3.544H164.05V2.592H157.778ZM160.914 4.384C159.346 4.384 158.198 5.574 158.198 7.282C158.198 8.976 159.346 10.166 160.914 10.166C162.496 10.166 163.644 8.976 163.644 7.282C163.644 5.574 162.496 4.384 160.914 4.384ZM160.914 5.378C161.894 5.378 162.608 6.162 162.608 7.282C162.608 8.402 161.894 9.186 160.914 9.186C159.948 9.186 159.248 8.402 159.248 7.282C159.248 6.162 159.948 5.378 160.914 5.378ZM167.396 0.436V13.092H168.516V0.436H167.396ZM165.38 5.756V6.722H167.774V5.756H165.38ZM164.694 0.715999V12.476H165.786V0.715999H164.694ZM160.354 0.8V3.18H161.502V0.8H160.354ZM175.472 1.682V2.214C175.472 3.88 173.302 5.336 171.076 5.658L171.524 6.582C174.072 6.148 176.48 4.482 176.48 2.214V1.682H175.472ZM175.766 1.682V2.214C175.766 4.482 178.16 6.148 180.722 6.582L181.156 5.658C178.944 5.336 176.76 3.88 176.76 2.214V1.682H175.766ZM175.514 8.262V13.092H176.662V8.262H175.514ZM170.404 7.646V8.598H181.842V7.646H170.404ZM171.468 1.22V2.158H180.736V1.22H171.468ZM187.987 4.958V5.924H190.409V4.958H187.987ZM185.621 1.626V4.034C185.621 6.204 184.585 8.472 182.849 9.494L183.577 10.376C185.425 9.242 186.531 6.68 186.531 4.034V1.626H185.621ZM185.845 1.626V3.992C185.845 6.456 186.867 8.976 188.687 10.096L189.359 9.186C187.693 8.178 186.741 6.022 186.741 3.992V1.626H185.845ZM192.635 0.436V13.092H193.755V0.436H192.635ZM190.073 0.701999V12.462H191.165V0.701999H190.073ZM198.402 6.946V10.74H199.55V6.946H198.402ZM203.078 6.946V10.74H204.24V6.946H203.078ZM195.602 10.516V11.482H207.068V10.516H195.602ZM201.314 1.234C198.626 1.234 196.708 2.508 196.708 4.496C196.708 6.47 198.626 7.744 201.314 7.744C203.988 7.744 205.906 6.47 205.906 4.496C205.906 2.508 203.988 1.234 201.314 1.234ZM201.314 2.158C203.344 2.158 204.786 3.082 204.786 4.496C204.786 5.896 203.344 6.82 201.314 6.82C199.284 6.82 197.828 5.896 197.828 4.496C197.828 3.082 199.284 2.158 201.314 2.158Z" fill="url(#paint0_linear_421_521)" fill-opacity="0.6"/>
<defs>
<linearGradient id="paint0_linear_421_521" x1="-1" y1="-3.3125" x2="28.1422" y2="81.0962" gradientUnits="userSpaceOnUse">
<stop stop-color="#7373F6"/>
<stop offset="0.361458" stop-color="#8B70F7"/>
<stop offset="0.634552" stop-color="#956EF6"/>
<stop offset="1" stop-color="#A869F7"/>
</linearGradient>
</defs>
</svg>
