<svg width="246" height="21" viewBox="0 0 246 21" fill="none" xmlns="http://www.w3.org/2000/svg">
<path d="M0.240516 16.206V18.604H18.6765V16.206H0.240516ZM1.64852 2.346V4.678H17.1585V2.346H1.64852ZM1.73652 10.772V13.126H17.0925V10.772H1.73652ZM4.42052 4.502V10.992H7.34652V4.502H4.42052ZM11.4825 4.502V10.992H14.3865V4.502H11.4825ZM20.0388 16.338V18.714H38.4748V16.338H20.0388ZM27.7608 12.488V17.306H30.6868V12.488H27.7608ZM22.1068 1.906V4.216H33.5028V6.394H22.1508V12.114H25.0548V8.682H36.4068V1.906H22.1068ZM22.1508 10.948V13.302H36.8688V10.948H22.1508ZM53.8511 0.586V11.014H56.7991V0.586H53.8511ZM43.0051 11.828V14.072H53.8951V15.238H43.0491V19.792H45.9311V17.328H56.7991V11.828H43.0051ZM43.0491 18.56V20.826H57.3491V18.56H43.0491ZM40.6951 1.818V4.062H51.6731V1.818H40.6951ZM40.4531 10.662C43.9731 10.64 48.5491 10.552 52.5751 9.892L52.4211 7.802C48.4831 8.286 43.7311 8.352 40.1671 8.352L40.4531 10.662ZM42.3011 2.83V9.496H45.0951V2.83H42.3011ZM47.2291 2.83V9.496H50.0671V2.83H47.2291ZM68.8412 2.148V5.118C68.8412 8.902 67.2792 12.818 63.8472 14.424L65.6072 16.778C69.4572 14.886 71.2172 10.156 71.2172 5.118V2.148H68.8412ZM69.4352 2.148V5.118C69.4352 10.002 71.0412 14.534 74.7152 16.404L76.4752 14.072C73.2192 12.488 71.7672 8.77 71.7672 5.118V2.148H69.4352ZM77.2892 0.586V20.958H80.2372V0.586H77.2892ZM79.5772 8.418V10.86H83.1852V8.418H79.5772ZM89.0134 2.852V4.568C89.0134 7.142 87.5394 9.782 84.1514 10.882L85.6474 13.17C89.5634 11.894 91.4334 8.418 91.4334 4.568V2.852H89.0134ZM89.6074 2.852V4.568C89.6074 8.264 91.4554 11.586 95.2834 12.796L96.7794 10.53C93.4574 9.474 92.0054 6.988 92.0054 4.568V2.852H89.6074ZM84.9214 2.038V4.348H96.0094V2.038H84.9214ZM98.0554 0.607999V15.304H101.003V0.607999H98.0554ZM87.4294 18.274V20.606H101.509V18.274H87.4294ZM87.4294 13.984V19.44H90.3554V13.984H87.4294ZM113.08 0.871999C108.416 0.871999 105.71 2.104 105.71 4.348C105.71 6.592 108.416 7.824 113.08 7.824C117.722 7.824 120.45 6.592 120.45 4.348C120.45 2.104 117.722 0.871999 113.08 0.871999ZM113.08 3.006C116.028 3.006 117.414 3.446 117.414 4.348C117.414 5.294 116.028 5.69 113.08 5.69C110.132 5.69 108.746 5.294 108.746 4.348C108.746 3.446 110.132 3.006 113.08 3.006ZM103.862 8.77V11.08H122.276V8.77H103.862ZM105.974 12.224V14.402H117.172V15.436H105.996V19.264H108.878V17.46H120.054V12.224H105.974ZM105.996 18.626V20.826H120.582V18.626H105.996ZM128.334 9.892V12.268H146.77V9.892H128.334ZM130.556 6.174V8.484H144.68V6.174H130.556ZM130.556 1.136V7.318H133.46V3.468H144.57V1.136H130.556ZM137.486 13.478C133.086 13.478 130.402 14.82 130.402 17.218C130.402 19.616 133.086 20.958 137.486 20.958C141.886 20.958 144.548 19.616 144.548 17.218C144.548 14.82 141.886 13.478 137.486 13.478ZM137.486 15.678C140.214 15.678 141.6 16.184 141.6 17.218C141.6 18.274 140.214 18.736 137.486 18.736C134.758 18.736 133.372 18.274 133.372 17.218C133.372 16.184 134.758 15.678 137.486 15.678ZM148.11 11.498V13.83H166.568V11.498H148.11ZM150.376 0.981999V3.204H161.442V4.436H150.398V8.704H153.302V6.504H164.324V0.981999H150.376ZM150.398 7.824V10.046H164.72V7.824H150.398ZM155.876 8.902V12.774H158.802V8.902H155.876ZM150.156 14.974V17.284H161.53V20.892H164.456V14.974H150.156ZM167.886 3.644V5.976H177.632V3.644H167.886ZM172.792 6.878C170.218 6.878 168.326 8.88 168.326 11.74C168.326 14.578 170.218 16.58 172.792 16.58C175.388 16.58 177.258 14.578 177.258 11.74C177.258 8.88 175.388 6.878 172.792 6.878ZM172.792 9.32C173.892 9.32 174.684 10.2 174.684 11.74C174.684 13.28 173.892 14.138 172.792 14.138C171.692 14.138 170.922 13.28 170.922 11.74C170.922 10.2 171.692 9.32 172.792 9.32ZM182.626 0.586V20.958H185.42V0.586H182.626ZM180.184 8.858V11.212H183.55V8.858H180.184ZM178.358 0.959999V20.1H181.086V0.959999H178.358ZM171.362 1.136V5.118H174.244V1.136H171.362ZM195.253 2.852V3.446C195.253 5.536 193.097 7.824 188.609 8.374L189.687 10.662C194.857 9.958 197.783 7.032 197.783 3.446V2.852H195.253ZM196.089 2.852V3.446C196.089 7.032 199.015 9.958 204.207 10.662L205.263 8.374C200.775 7.824 198.619 5.536 198.619 3.446V2.852H196.089ZM195.407 13.5V20.98H198.311V13.5H195.407ZM187.729 11.828V14.16H206.143V11.828H187.729ZM189.357 1.62V3.93H204.471V1.62H189.357ZM215.535 7.428V9.804H218.901V7.428H215.535ZM211.179 2.346V5.778C211.179 9.232 210.123 12.862 207.131 14.71L208.891 16.91C212.147 14.908 213.423 10.398 213.423 5.778V2.346H211.179ZM211.817 2.346V5.646C211.817 10.046 212.829 14.446 216.063 16.448L217.647 14.16C214.875 12.356 214.017 8.968 214.017 5.646V2.346H211.817ZM222.223 0.586V20.958H225.017V0.586H222.223ZM218.087 0.894V20.034H220.815V0.894H218.087ZM231.373 10.926V16.646H234.277V10.926H231.373ZM238.765 10.926V16.646H241.691V10.926H238.765ZM227.325 16.228V18.604H245.761V16.228H227.325ZM236.521 1.576C232.121 1.576 228.909 3.732 228.909 7.054C228.909 10.376 232.121 12.51 236.521 12.51C240.899 12.51 244.133 10.376 244.133 7.054C244.133 3.732 240.899 1.576 236.521 1.576ZM236.521 3.864C239.359 3.864 241.251 5.03 241.251 7.054C241.251 9.056 239.359 10.244 236.521 10.244C233.683 10.244 231.791 9.056 231.791 7.054C231.791 5.03 233.683 3.864 236.521 3.864Z" fill="url(#paint0_linear_421_520)"/>
<defs>
<linearGradient id="paint0_linear_421_520" x1="-2" y1="-5.32813" x2="54.547" y2="118.408" gradientUnits="userSpaceOnUse">
<stop stop-color="#7373F6"/>
<stop offset="0.361458" stop-color="#8B70F7"/>
<stop offset="0.634552" stop-color="#956EF6"/>
<stop offset="1" stop-color="#A869F7"/>
</linearGradient>
</defs>
</svg>
