<svg width="208" height="14" viewBox="0 0 208 14" fill="none" xmlns="http://www.w3.org/2000/svg">
<path d="M4.01162 1.528V3.796C4.01162 6.106 2.56962 8.542 0.735621 9.466L1.44962 10.39C3.45162 9.326 4.96362 6.596 4.96362 3.796V1.528H4.01162ZM4.22162 1.528V3.796C4.22162 6.512 5.69162 9.102 7.65162 10.152L8.36562 9.228C6.57362 8.332 5.15962 6.022 5.15962 3.796V1.528H4.22162ZM9.47162 0.436V13.092H10.6476V0.436H9.47162ZM10.3676 5.56V6.54H12.7196V5.56H10.3676ZM16.8765 1.822V3.11C16.8765 4.916 15.5885 6.554 13.6845 7.226L14.2865 8.15C16.4145 7.38 17.8425 5.434 17.8425 3.11V1.822H16.8765ZM17.1005 1.822V3.11C17.1005 5.336 18.5565 7.184 20.6565 7.898L21.2585 6.988C19.3825 6.358 18.0665 4.818 18.0665 3.11V1.822H17.1005ZM13.9925 1.486V2.424H20.9225V1.486H13.9925ZM22.7145 0.449999V9.704H23.8905V0.449999H22.7145ZM15.7565 11.86V12.812H24.2685V11.86H15.7565ZM15.7565 8.836V12.28H16.9045V8.836H15.7565ZM26.1014 7.086V8.038H37.5394V7.086H26.1014ZM27.5854 11.86V12.812H36.2794V11.86H27.5854ZM27.5854 9.144V12.154H28.7474V9.144H27.5854ZM31.8274 0.855999C29.1114 0.855999 27.3754 1.808 27.3754 3.39C27.3754 4.958 29.1114 5.91 31.8274 5.91C34.5294 5.91 36.2794 4.958 36.2794 3.39C36.2794 1.808 34.5294 0.855999 31.8274 0.855999ZM31.8274 1.808C33.8154 1.808 35.0894 2.396 35.0894 3.39C35.0894 4.384 33.8154 4.972 31.8274 4.972C29.8394 4.972 28.5654 4.384 28.5654 3.39C28.5654 2.396 29.8394 1.808 31.8274 1.808ZM45.7514 7.128V9.872H46.9274V7.128H45.7514ZM45.7514 2.676V2.956C45.7514 4.664 44.4634 6.078 42.5874 6.638L43.1194 7.548C45.2474 6.876 46.6894 5.168 46.6894 2.956V2.676H45.7514ZM45.9754 2.676V2.956C45.9754 5.098 47.4454 6.778 49.5734 7.408L50.1054 6.512C48.2434 5.966 46.9134 4.594 46.9134 2.956V2.676H45.9754ZM42.8814 2.088V3.026H49.8394V2.088H42.8814ZM45.7514 0.519999V2.494H46.9274V0.519999H45.7514ZM51.2814 0.422V13.106H52.4434V0.422H51.2814ZM42.3634 10.502C44.6174 10.488 47.7114 10.474 50.5534 9.942L50.4554 9.088C47.6974 9.508 44.5054 9.522 42.1954 9.522L42.3634 10.502ZM54.7383 10.488V11.454H66.2043V10.488H54.7383ZM59.8343 7.422V10.81H60.9823V7.422H59.8343ZM59.8063 1.276V2.256C59.8063 4.342 57.4123 6.204 55.1863 6.61L55.6763 7.576C58.2243 7.044 60.8143 4.958 60.8143 2.256V1.276H59.8063ZM60.0163 1.276V2.256C60.0163 4.958 62.6063 7.044 65.1543 7.576L65.6583 6.61C63.4323 6.204 61.0243 4.356 61.0243 2.256V1.276H60.0163ZM71.0417 12V10.8864L74.487 7.31676C74.8549 6.92898 75.1582 6.58925 75.3968 6.29759C75.6388 6.0026 75.8194 5.72254 75.9387 5.45739C76.058 5.19223 76.1177 4.91051 76.1177 4.61222C76.1177 4.27415 76.0382 3.98248 75.8791 3.73722C75.72 3.48864 75.5029 3.29806 75.2278 3.16548C74.9527 3.02959 74.6428 2.96165 74.2981 2.96165C73.9335 2.96165 73.6153 3.03622 73.3436 3.18537C73.0718 3.33452 72.863 3.54498 72.7171 3.81676C72.5713 4.08854 72.4984 4.40672 72.4984 4.77131H71.0318C71.0318 4.15151 71.1743 3.60961 71.4593 3.1456C71.7444 2.68158 72.1355 2.32197 72.6326 2.06676C73.1298 1.80824 73.6949 1.67898 74.3279 1.67898C74.9676 1.67898 75.5311 1.80658 76.0183 2.06179C76.5088 2.31368 76.8916 2.65838 77.1667 3.09588C77.4418 3.53007 77.5794 4.0206 77.5794 4.56747C77.5794 4.94531 77.5081 5.31487 77.3656 5.67614C77.2264 6.0374 76.9828 6.4401 76.6348 6.88423C76.2867 7.32505 75.8028 7.86032 75.183 8.49006L73.1596 10.608V10.6825H77.7434V12H71.0417ZM82.1762 1.794V2.816C82.1762 4.622 80.9162 6.26 79.0122 6.932L79.6002 7.856C81.7282 7.086 83.1282 5.14 83.1282 2.816V1.794H82.1762ZM82.3862 1.794V2.802C82.3862 4.958 83.7302 6.764 85.8442 7.464L86.4042 6.554C84.5422 5.938 83.3382 4.454 83.3382 2.802V1.794H82.3862ZM79.3622 1.374V2.326H86.1242V1.374H79.3622ZM87.7202 0.436V8.066H88.8822V0.436H87.7202ZM88.5602 3.642V4.622H90.7582V3.642H88.5602ZM84.8502 8.402C82.2742 8.402 80.6922 9.256 80.6922 10.726C80.6922 12.21 82.2742 13.064 84.8502 13.064C87.4262 13.064 89.0082 12.21 89.0082 10.726C89.0082 9.256 87.4262 8.402 84.8502 8.402ZM84.8502 9.34C86.7262 9.34 87.8742 9.844 87.8742 10.726C87.8742 11.622 86.7262 12.154 84.8502 12.154C82.9742 12.154 81.8262 11.622 81.8262 10.726C81.8262 9.844 82.9742 9.34 84.8502 9.34ZM100.851 0.422V13.106H102.013V0.422H100.851ZM95.3352 1.402C93.4732 1.402 92.1292 3.124 92.1292 5.812C92.1292 8.514 93.4732 10.236 95.3352 10.236C97.2112 10.236 98.5552 8.514 98.5552 5.812C98.5552 3.124 97.2112 1.402 95.3352 1.402ZM95.3352 2.452C96.5812 2.452 97.4352 3.768 97.4352 5.812C97.4352 7.87 96.5812 9.214 95.3352 9.214C94.1032 9.214 93.2352 7.87 93.2352 5.812C93.2352 3.768 94.1032 2.452 95.3352 2.452ZM107.332 1.094V2.382C107.332 4.314 106.1 6.022 104.196 6.722L104.812 7.66C106.926 6.834 108.298 4.818 108.298 2.382V1.094H107.332ZM107.542 1.094V2.466C107.542 4.664 108.928 6.54 110.958 7.296L111.574 6.386C109.754 5.756 108.494 4.174 108.494 2.466V1.094H107.542ZM112.918 0.436V8.108H114.08V0.436H112.918ZM113.758 3.698V4.678H115.956V3.698H113.758ZM110.048 8.458C107.458 8.458 105.89 9.312 105.89 10.768C105.89 12.224 107.458 13.064 110.048 13.064C112.638 13.064 114.206 12.224 114.206 10.768C114.206 9.312 112.638 8.458 110.048 8.458ZM110.048 9.382C111.924 9.382 113.072 9.886 113.072 10.768C113.072 11.65 111.924 12.154 110.048 12.154C108.172 12.154 107.024 11.65 107.024 10.768C107.024 9.886 108.172 9.382 110.048 9.382ZM126.646 3.446V4.412H130.048V3.446H126.646ZM123.734 1.01C121.844 1.01 120.472 2.214 120.472 3.95C120.472 5.686 121.844 6.876 123.734 6.876C125.624 6.876 126.996 5.686 126.996 3.95C126.996 2.214 125.624 1.01 123.734 1.01ZM123.734 1.99C124.98 1.99 125.876 2.788 125.876 3.95C125.876 5.098 124.98 5.91 123.734 5.91C122.488 5.91 121.592 5.098 121.592 3.95C121.592 2.788 122.488 1.99 123.734 1.99ZM129.53 0.436V7.226H130.692V0.436H129.53ZM122.586 7.856V12.924H130.692V7.856H129.544V9.452H123.748V7.856H122.586ZM123.748 10.376H129.544V11.986H123.748V10.376ZM132.889 10.572V11.538H144.355V10.572H132.889ZM138.013 7.856V10.978H139.175V7.856H138.013ZM134.275 1.374V2.312H141.793V4.272H134.317V7.744H135.465V5.21H142.941V1.374H134.275ZM134.317 7.254V8.206H143.235V7.254H134.317ZM146.93 6.498V7.45H155.624V6.498H146.93ZM145.488 10.418V11.384H156.954V10.418H145.488ZM146.93 1.598V6.918H148.092V2.564H155.498V1.598H146.93ZM158.059 2.592V3.544H164.331V2.592H158.059ZM161.195 4.384C159.627 4.384 158.479 5.574 158.479 7.282C158.479 8.976 159.627 10.166 161.195 10.166C162.777 10.166 163.925 8.976 163.925 7.282C163.925 5.574 162.777 4.384 161.195 4.384ZM161.195 5.378C162.175 5.378 162.889 6.162 162.889 7.282C162.889 8.402 162.175 9.186 161.195 9.186C160.229 9.186 159.529 8.402 159.529 7.282C159.529 6.162 160.229 5.378 161.195 5.378ZM167.677 0.436V13.092H168.797V0.436H167.677ZM165.661 5.756V6.722H168.055V5.756H165.661ZM164.975 0.715999V12.476H166.067V0.715999H164.975ZM160.635 0.8V3.18H161.783V0.8H160.635ZM175.754 1.682V2.214C175.754 3.88 173.584 5.336 171.358 5.658L171.806 6.582C174.354 6.148 176.762 4.482 176.762 2.214V1.682H175.754ZM176.048 1.682V2.214C176.048 4.482 178.442 6.148 181.004 6.582L181.438 5.658C179.226 5.336 177.042 3.88 177.042 2.214V1.682H176.048ZM175.796 8.262V13.092H176.944V8.262H175.796ZM170.686 7.646V8.598H182.124V7.646H170.686ZM171.75 1.22V2.158H181.018V1.22H171.75ZM188.269 4.958V5.924H190.691V4.958H188.269ZM185.903 1.626V4.034C185.903 6.204 184.867 8.472 183.131 9.494L183.859 10.376C185.707 9.242 186.813 6.68 186.813 4.034V1.626H185.903ZM186.127 1.626V3.992C186.127 6.456 187.149 8.976 188.969 10.096L189.641 9.186C187.975 8.178 187.023 6.022 187.023 3.992V1.626H186.127ZM192.917 0.436V13.092H194.037V0.436H192.917ZM190.355 0.701999V12.462H191.447V0.701999H190.355ZM198.683 6.946V10.74H199.831V6.946H198.683ZM203.359 6.946V10.74H204.521V6.946H203.359ZM195.883 10.516V11.482H207.349V10.516H195.883ZM201.595 1.234C198.907 1.234 196.989 2.508 196.989 4.496C196.989 6.47 198.907 7.744 201.595 7.744C204.269 7.744 206.187 6.47 206.187 4.496C206.187 2.508 204.269 1.234 201.595 1.234ZM201.595 2.158C203.625 2.158 205.067 3.082 205.067 4.496C205.067 5.896 203.625 6.82 201.595 6.82C199.565 6.82 198.109 5.896 198.109 4.496C198.109 3.082 199.565 2.158 201.595 2.158Z" fill="url(#paint0_linear_427_109)" fill-opacity="0.6"/>
<defs>
<linearGradient id="paint0_linear_427_109" x1="4.78234e-07" y1="-3.3125" x2="29.2523" y2="81.0096" gradientUnits="userSpaceOnUse">
<stop stop-color="#7373F6"/>
<stop offset="0.361458" stop-color="#8B70F7"/>
<stop offset="0.634552" stop-color="#956EF6"/>
<stop offset="1" stop-color="#A869F7"/>
</linearGradient>
</defs>
</svg>
