<svg width="132" height="14" viewBox="0 0 132 14" fill="none" xmlns="http://www.w3.org/2000/svg">
<path d="M8.69439 0.422V13.092H9.87039V0.422H8.69439ZM9.54839 5.56V6.526H11.8864V5.56H9.54839ZM5.46039 1.794V1.976C5.46039 5.322 3.71039 8.024 0.210392 9.802L0.854392 10.698C4.94239 8.64 6.59439 5.392 6.59439 1.794H5.46039ZM0.798392 1.794V2.746H6.06239V1.794H0.798392ZM21.9373 0.436V7.226H23.1133V0.436H21.9373ZM14.9513 7.856V12.924H23.1133V7.856H21.9653V9.396H16.0993V7.856H14.9513ZM16.0993 10.32H21.9653V11.986H16.0993V10.32ZM16.3233 1.038C14.4053 1.038 13.0193 2.228 13.0193 3.95C13.0193 5.686 14.4053 6.876 16.3233 6.876C18.2413 6.876 19.6133 5.686 19.6133 3.95C19.6133 2.228 18.2413 1.038 16.3233 1.038ZM16.3233 2.004C17.5833 2.004 18.4933 2.802 18.4933 3.95C18.4933 5.098 17.5833 5.896 16.3233 5.896C15.0633 5.896 14.1533 5.098 14.1533 3.95C14.1533 2.802 15.0633 2.004 16.3233 2.004ZM25.9262 1.878V2.816H36.1042V1.878H25.9262ZM25.3382 8.64V9.592H36.8042V8.64H25.3382ZM30.4622 9.41V13.106H31.6242V9.41H30.4622ZM31.0502 3.544C28.4602 3.544 26.9342 4.3 26.9342 5.658C26.9342 7.002 28.4602 7.772 31.0502 7.772C33.6262 7.772 35.1522 7.002 35.1522 5.658C35.1522 4.3 33.6262 3.544 31.0502 3.544ZM31.0502 4.44C32.8982 4.44 33.9622 4.874 33.9622 5.658C33.9622 6.442 32.8982 6.876 31.0502 6.876C29.2022 6.876 28.1382 6.442 28.1382 5.658C28.1382 4.874 29.2022 4.44 31.0502 4.44ZM30.4622 0.366V2.508H31.6242V0.366H30.4622ZM41.3622 6.456V7.422H52.8002V6.456H41.3622ZM42.8042 4.314V5.252H51.4702V4.314H42.8042ZM42.8042 0.94V4.762H43.9522V1.892H51.3722V0.94H42.8042ZM47.0602 8.514C44.3582 8.514 42.7202 9.34 42.7202 10.796C42.7202 12.252 44.3582 13.064 47.0602 13.064C49.7622 13.064 51.4002 12.252 51.4002 10.796C51.4002 9.34 49.7622 8.514 47.0602 8.514ZM47.0602 9.41C49.0482 9.41 50.2242 9.914 50.2242 10.796C50.2242 11.664 49.0482 12.154 47.0602 12.154C45.0862 12.154 43.8962 11.664 43.8962 10.796C43.8962 9.914 45.0862 9.41 47.0602 9.41ZM53.9471 7.394V8.346H65.4271V7.394H53.9471ZM55.4031 0.758V1.668H62.8091V2.97H55.4311V5.532H56.5791V3.824H63.9431V0.758H55.4031ZM55.4311 5.154V6.064H64.2231V5.154H55.4311ZM59.0991 5.63V7.87H60.2611V5.63H59.0991ZM55.2211 9.312V10.264H62.8651V12.98H64.0271V9.312H55.2211ZM75.128 0.436V13.092H76.29V0.436H75.128ZM76.01 5.63V6.61H78.362V5.63H76.01ZM66.49 2.452V3.404H73.952V2.452H66.49ZM70.27 4.454C68.492 4.454 67.19 5.658 67.19 7.366C67.19 9.074 68.492 10.278 70.27 10.278C72.062 10.278 73.35 9.074 73.35 7.366C73.35 5.658 72.062 4.454 70.27 4.454ZM70.27 5.42C71.418 5.42 72.244 6.218 72.244 7.366C72.244 8.5 71.418 9.312 70.27 9.312C69.122 9.312 68.296 8.5 68.296 7.366C68.296 6.218 69.122 5.42 70.27 5.42ZM69.668 0.589999V2.886H70.83V0.589999H69.668ZM88.3989 0.422V13.106H89.5749V0.422H88.3989ZM85.6689 3.18V4.146H89.0289V3.18H85.6689ZM85.6689 6.33V7.31H89.0289V6.33H85.6689ZM82.4209 1.528V3.782C82.4209 6.134 80.9929 8.57 79.1309 9.494L79.8729 10.418C81.8749 9.34 83.3589 6.624 83.3589 3.782V1.528H82.4209ZM82.6449 1.528V3.782C82.6449 6.568 84.1149 9.186 86.1449 10.236L86.8449 9.298C85.0109 8.43 83.5829 6.106 83.5829 3.782V1.528H82.6449ZM93.1998 6.344V7.296H101.894V6.344H93.1998ZM91.7578 10.53V11.51H103.224V10.53H91.7578ZM96.8818 6.75V10.922H98.0438V6.75H96.8818ZM93.1998 1.444V6.764H94.3618V2.396H101.768V1.444H93.1998ZM110.47 6.61V9.578H111.576V6.61H110.47ZM107.782 10.362C109.504 10.362 112.178 10.306 114.25 9.956L114.18 9.088C112.178 9.34 109.392 9.396 107.628 9.396L107.782 10.362ZM117.344 0.436V13.092H118.464V0.436H117.344ZM115.426 5.7V6.652H117.708V5.7H115.426ZM114.74 0.701999V12.42H115.832V0.701999H114.74ZM108.272 5.882V6.834H113.746V5.882H108.272ZM108.272 1.724V6.19H109.42V2.676H113.62V1.724H108.272ZM123.181 6.946V10.74H124.329V6.946H123.181ZM127.857 6.946V10.74H129.019V6.946H127.857ZM120.381 10.516V11.482H131.847V10.516H120.381ZM126.093 1.234C123.405 1.234 121.487 2.508 121.487 4.496C121.487 6.47 123.405 7.744 126.093 7.744C128.767 7.744 130.685 6.47 130.685 4.496C130.685 2.508 128.767 1.234 126.093 1.234ZM126.093 2.158C128.123 2.158 129.565 3.082 129.565 4.496C129.565 5.896 128.123 6.82 126.093 6.82C124.063 6.82 122.607 5.896 122.607 4.496C122.607 3.082 124.063 2.158 126.093 2.158Z" fill="url(#paint0_linear_938_785)" fill-opacity="0.6"/>
<defs>
<linearGradient id="paint0_linear_938_785" x1="-1" y1="-3.3125" x2="38.4359" y2="69.9218" gradientUnits="userSpaceOnUse">
<stop stop-color="#7373F6"/>
<stop offset="0.361458" stop-color="#8B70F7"/>
<stop offset="0.634552" stop-color="#956EF6"/>
<stop offset="1" stop-color="#A869F7"/>
</linearGradient>
</defs>
</svg>
