<svg width="399" height="81" viewBox="0 0 399 81" fill="none" xmlns="http://www.w3.org/2000/svg">
<rect width="399" height="81" rx="25" fill="url(#paint0_linear_441_91)"/>
<path d="M192.442 31.24V49.82H195.122V31.24H192.442ZM194.522 38.1V40.28H197.802V38.1H194.522ZM181.322 43.16V45.36H182.882C186.102 45.36 188.642 45.28 191.442 44.78L191.182 42.58C188.462 43.06 186.002 43.16 182.882 43.16H181.322ZM181.322 32.96V44.22H183.962V35.1H189.962V32.96H181.322ZM206.98 31.6C202.9 31.6 200.28 32.98 200.28 35.22C200.28 37.46 202.9 38.82 206.98 38.82C211.06 38.82 213.68 37.46 213.68 35.22C213.68 32.98 211.06 31.6 206.98 31.6ZM206.98 33.66C209.5 33.66 210.94 34.16 210.94 35.22C210.94 36.26 209.5 36.78 206.98 36.78C204.44 36.78 203.02 36.26 203.02 35.22C203.02 34.16 204.44 33.66 206.98 33.66ZM200.54 43.26V49.58H213.34V43.26H200.54ZM210.74 45.36V47.48H203.16V45.36H210.74ZM198.6 39.88V41.98H215.34V39.88H198.6Z" fill="white"/>
<defs>
<linearGradient id="paint0_linear_441_91" x1="9.17382e-07" y1="5.69531" x2="141.784" y2="237.993" gradientUnits="userSpaceOnUse">
<stop stop-color="#7373F6"/>
<stop offset="0.361458" stop-color="#8B70F7"/>
<stop offset="0.634552" stop-color="#956EF6"/>
<stop offset="1" stop-color="#A869F7"/>
</linearGradient>
</defs>
</svg>
