<svg width="399" height="81" viewBox="0 0 399 81" fill="none" xmlns="http://www.w3.org/2000/svg">
<rect width="399" height="81" rx="25" fill="#F3F4F6"/>
<path d="M193.442 31.24V49.82H196.122V31.24H193.442ZM195.522 38.1V40.28H198.802V38.1H195.522ZM182.322 43.16V45.36H183.882C187.102 45.36 189.642 45.28 192.442 44.78L192.182 42.58C189.462 43.06 187.002 43.16 183.882 43.16H182.322ZM182.322 32.96V44.22H184.962V35.1H190.962V32.96H182.322ZM207.98 31.6C203.9 31.6 201.28 32.98 201.28 35.22C201.28 37.46 203.9 38.82 207.98 38.82C212.06 38.82 214.68 37.46 214.68 35.22C214.68 32.98 212.06 31.6 207.98 31.6ZM207.98 33.66C210.5 33.66 211.94 34.16 211.94 35.22C211.94 36.26 210.5 36.78 207.98 36.78C205.44 36.78 204.02 36.26 204.02 35.22C204.02 34.16 205.44 33.66 207.98 33.66ZM201.54 43.26V49.58H214.34V43.26H201.54ZM211.74 45.36V47.48H204.16V45.36H211.74ZM199.6 39.88V41.98H216.34V39.88H199.6Z" fill="white"/>
</svg>
