<svg width="329" height="89" viewBox="0 0 329 89" fill="none" xmlns="http://www.w3.org/2000/svg">
<rect x="0.5" y="0.5" width="328" height="88" rx="24.5" fill="white" stroke="url(#paint0_linear_421_651)"/>
<path d="M149.058 37.448V40.016H155.106V37.448H149.058ZM149.058 44.336V46.904H155.106V44.336H149.058ZM145.218 34.448C141.882 34.448 139.482 37.52 139.482 42.368C139.482 47.264 141.882 50.336 145.218 50.336C148.53 50.336 150.954 47.264 150.954 42.368C150.954 37.52 148.53 34.448 145.218 34.448ZM145.218 37.352C146.85 37.352 147.93 39.104 147.93 42.368C147.93 45.68 146.85 47.456 145.218 47.456C143.61 47.456 142.506 45.68 142.506 42.368C142.506 39.104 143.61 37.352 145.218 37.352ZM154.602 32.888V55.184H157.77V32.888H154.602ZM165.88 34.064V36.056C165.88 39.104 164.32 42.104 160.528 43.328L162.184 45.896C166.552 44.432 168.544 40.52 168.544 36.056V34.064H165.88ZM166.552 34.064V35.912C166.552 40.232 168.328 43.808 172.432 45.224L174.088 42.728C170.56 41.6 169.12 38.864 169.12 35.912V34.064H166.552ZM176.128 32.912V45.92H179.32V32.912H176.128ZM171.784 46.496C167.08 46.496 164.176 48.104 164.176 50.816C164.176 53.552 167.08 55.136 171.784 55.136C176.488 55.136 179.392 53.552 179.392 50.816C179.392 48.104 176.488 46.496 171.784 46.496ZM171.784 48.968C174.688 48.968 176.224 49.568 176.224 50.816C176.224 52.064 174.688 52.688 171.784 52.688C168.904 52.688 167.368 52.064 167.368 50.816C167.368 49.568 168.904 48.968 171.784 48.968ZM172.072 36.944V39.536H176.584V36.944H172.072Z" fill="url(#paint1_linear_421_651)" fill-opacity="0.6"/>
<defs>
<linearGradient id="paint0_linear_421_651" x1="91.9265" y1="-8.53225e-07" x2="100.83" y2="91.1997" gradientUnits="userSpaceOnUse">
<stop stop-color="#7373F6"/>
<stop offset="0.361458" stop-color="#8B70F7"/>
<stop offset="0.634552" stop-color="#956EF6"/>
<stop offset="1" stop-color="#A869F7"/>
</linearGradient>
<linearGradient id="paint1_linear_421_651" x1="138" y1="46.2759" x2="173.723" y2="29.0803" gradientUnits="userSpaceOnUse">
<stop stop-color="#7373F6"/>
<stop offset="0.361458" stop-color="#8B70F7"/>
<stop offset="0.634552" stop-color="#956EF6"/>
<stop offset="1" stop-color="#A869F7"/>
</linearGradient>
</defs>
</svg>
