<svg width="182" height="21" viewBox="0 0 182 21" fill="none" xmlns="http://www.w3.org/2000/svg">
<path d="M4.97184 1.642V3.468C4.97184 6.262 3.54184 9.012 0.0658393 10.134L1.58384 12.488C5.58784 11.146 7.41384 7.56 7.41384 3.468V1.642H4.97184ZM5.58784 1.642V3.336C5.58784 7.296 7.21584 10.574 10.9778 11.872L12.4958 9.584C9.26184 8.55 7.94184 6.042 7.94184 3.336V1.642H5.58784ZM14.3658 0.586V12.51H17.2918V0.586H14.3658ZM10.3838 13.038C6.07184 13.038 3.40984 14.512 3.40984 16.998C3.40984 19.506 6.07184 20.958 10.3838 20.958C14.6958 20.958 17.3578 19.506 17.3578 16.998C17.3578 14.512 14.6958 13.038 10.3838 13.038ZM10.3838 15.304C13.0458 15.304 14.4538 15.854 14.4538 16.998C14.4538 18.142 13.0458 18.714 10.3838 18.714C7.74384 18.714 6.33584 18.142 6.33584 16.998C6.33584 15.854 7.74384 15.304 10.3838 15.304ZM10.6478 4.282V6.658H14.7838V4.282H10.6478ZM29.8741 3.138V5.338H34.8021V3.138H29.8741ZM29.8741 6.856V9.056H34.8021V6.856H29.8741ZM34.1641 0.586V11.036H37.0901V0.586H34.1641ZM23.6261 11.828V14.072H34.1861V15.172H23.6481V19.858H26.5521V17.284H37.0901V11.828H23.6261ZM23.6481 18.472V20.738H37.6621V18.472H23.6481ZM20.8981 1.422V10.486H30.5341V1.422H27.6741V3.798H23.8021V1.422H20.8981ZM23.8021 5.998H27.6741V8.198H23.8021V5.998ZM49.0564 0.871999C44.3924 0.871999 41.6864 2.104 41.6864 4.348C41.6864 6.592 44.3924 7.824 49.0564 7.824C53.6984 7.824 56.4264 6.592 56.4264 4.348C56.4264 2.104 53.6984 0.871999 49.0564 0.871999ZM49.0564 3.006C52.0044 3.006 53.3904 3.446 53.3904 4.348C53.3904 5.294 52.0044 5.69 49.0564 5.69C46.1084 5.69 44.7224 5.294 44.7224 4.348C44.7224 3.446 46.1084 3.006 49.0564 3.006ZM39.8384 8.77V11.08H58.2524V8.77H39.8384ZM41.9504 12.224V14.402H53.1484V15.436H41.9724V19.264H44.8544V17.46H56.0304V12.224H41.9504ZM41.9724 18.626V20.826H56.5584V18.626H41.9724ZM74.6945 4.92V7.274H79.4245V4.92H74.6945ZM68.9525 1.84V4.04C68.9525 6.922 67.5445 9.738 64.1785 10.86L65.7185 13.148C69.5685 11.74 71.3065 8.198 71.3065 4.04V1.84H68.9525ZM69.5905 1.84V4.062C69.5905 7.912 71.2625 11.322 74.9145 12.642L76.4765 10.398C73.2645 9.298 71.9225 6.68 71.9225 4.062V1.84H69.5905ZM78.4125 0.607999V15.634H81.3385V0.607999H78.4125ZM67.8525 18.274V20.606H81.7785V18.274H67.8525ZM67.8525 14.116V19.572H70.8005V14.116H67.8525ZM84.7688 9.87V12.246H86.1768C89.2128 12.246 91.1928 12.18 93.5248 11.784L93.2608 9.452C91.0168 9.826 89.1248 9.87 86.1768 9.87H84.7688ZM84.7688 1.95V11.168H87.5848V4.282H92.7988V1.95H84.7688ZM86.7488 5.932V8.132H92.5788V5.932H86.7488ZM98.6728 0.586V13.016H101.445V0.586H98.6728ZM96.2308 5.58V7.912H99.4648V5.58H96.2308ZM94.3168 0.959999V12.884H97.0448V0.959999H94.3168ZM87.4528 13.896V16.228H98.5408V20.958H101.445V13.896H87.4528ZM103.863 3.644V5.976H113.609V3.644H103.863ZM108.769 6.878C106.195 6.878 104.303 8.88 104.303 11.74C104.303 14.578 106.195 16.58 108.769 16.58C111.365 16.58 113.235 14.578 113.235 11.74C113.235 8.88 111.365 6.878 108.769 6.878ZM108.769 9.32C109.869 9.32 110.661 10.2 110.661 11.74C110.661 13.28 109.869 14.138 108.769 14.138C107.669 14.138 106.899 13.28 106.899 11.74C106.899 10.2 107.669 9.32 108.769 9.32ZM118.603 0.586V20.958H121.397V0.586H118.603ZM116.161 8.858V11.212H119.527V8.858H116.161ZM114.335 0.959999V20.1H117.063V0.959999H114.335ZM107.339 1.136V5.118H110.221V1.136H107.339ZM131.229 2.852V3.446C131.229 5.536 129.073 7.824 124.585 8.374L125.663 10.662C130.833 9.958 133.759 7.032 133.759 3.446V2.852H131.229ZM132.065 2.852V3.446C132.065 7.032 134.991 9.958 140.183 10.662L141.239 8.374C136.751 7.824 134.595 5.536 134.595 3.446V2.852H132.065ZM131.383 13.5V20.98H134.287V13.5H131.383ZM123.705 11.828V14.16H142.119V11.828H123.705ZM125.333 1.62V3.93H140.447V1.62H125.333ZM151.512 7.428V9.804H154.878V7.428H151.512ZM147.156 2.346V5.778C147.156 9.232 146.1 12.862 143.108 14.71L144.868 16.91C148.124 14.908 149.4 10.398 149.4 5.778V2.346H147.156ZM147.794 2.346V5.646C147.794 10.046 148.806 14.446 152.04 16.448L153.624 14.16C150.852 12.356 149.994 8.968 149.994 5.646V2.346H147.794ZM158.2 0.586V20.958H160.994V0.586H158.2ZM154.064 0.894V20.034H156.792V0.894H154.064ZM167.35 10.926V16.646H170.254V10.926H167.35ZM174.742 10.926V16.646H177.668V10.926H174.742ZM163.302 16.228V18.604H181.738V16.228H163.302ZM172.498 1.576C168.098 1.576 164.886 3.732 164.886 7.054C164.886 10.376 168.098 12.51 172.498 12.51C176.876 12.51 180.11 10.376 180.11 7.054C180.11 3.732 176.876 1.576 172.498 1.576ZM172.498 3.864C175.336 3.864 177.228 5.03 177.228 7.054C177.228 9.056 175.336 10.244 172.498 10.244C169.66 10.244 167.768 9.056 167.768 7.054C167.768 5.03 169.66 3.864 172.498 3.864Z" fill="url(#paint0_linear_421_654)"/>
<defs>
<linearGradient id="paint0_linear_421_654" x1="-16" y1="-5.32813" x2="46.1435" y2="111.073" gradientUnits="userSpaceOnUse">
<stop stop-color="#7373F6"/>
<stop offset="0.361458" stop-color="#8B70F7"/>
<stop offset="0.634552" stop-color="#956EF6"/>
<stop offset="1" stop-color="#A869F7"/>
</linearGradient>
</defs>
</svg>
