<svg width="329" height="89" viewBox="0 0 329 89" fill="none" xmlns="http://www.w3.org/2000/svg">
<rect width="329" height="89" rx="25" fill="url(#paint0_linear_421_604)"/>
<path d="M153.426 37.912V50.44H156.618V37.912H153.426ZM155.754 42.592V45.184H159.57V42.592H155.754ZM142.146 51.448V59.896H156.618V51.448H142.146ZM153.498 53.944V57.376H145.29V53.944H153.498ZM140.01 38.968V48.064H143.202V38.968H140.01ZM140.01 46.696V49.312H141.882C145.026 49.312 148.434 49.12 152.058 48.376L151.698 45.808C148.194 46.48 144.906 46.696 141.882 46.696H140.01ZM165.88 39.064V41.056C165.88 44.104 164.32 47.104 160.528 48.328L162.184 50.896C166.552 49.432 168.544 45.52 168.544 41.056V39.064H165.88ZM166.552 39.064V40.912C166.552 45.232 168.328 48.808 172.432 50.224L174.088 47.728C170.56 46.6 169.12 43.864 169.12 40.912V39.064H166.552ZM176.128 37.912V50.92H179.32V37.912H176.128ZM171.784 51.496C167.08 51.496 164.176 53.104 164.176 55.816C164.176 58.552 167.08 60.136 171.784 60.136C176.488 60.136 179.392 58.552 179.392 55.816C179.392 53.104 176.488 51.496 171.784 51.496ZM171.784 53.968C174.688 53.968 176.224 54.568 176.224 55.816C176.224 57.064 174.688 57.688 171.784 57.688C168.904 57.688 167.368 57.064 167.368 55.816C167.368 54.568 168.904 53.968 171.784 53.968ZM172.072 41.944V44.536H176.584V41.944H172.072Z" fill="white"/>
<defs>
<linearGradient id="paint0_linear_421_604" x1="7.56438e-07" y1="6.25781" x2="171.489" y2="217.107" gradientUnits="userSpaceOnUse">
<stop stop-color="#7373F6"/>
<stop offset="0.361458" stop-color="#8B70F7"/>
<stop offset="0.634552" stop-color="#956EF6"/>
<stop offset="1" stop-color="#A869F7"/>
</linearGradient>
</defs>
</svg>
