<svg width="362" height="66" viewBox="0 0 362 66" fill="none" xmlns="http://www.w3.org/2000/svg">
<path d="M0 62C0 38.2518 19.2518 19 43 19H319C342.748 19 362 38.2518 362 62V62H0V62Z" fill="url(#paint0_linear_525_172)"/>
<path d="M112.332 35.824V42.976H119.388V35.824H112.332ZM117.292 37.504V41.296H114.428V37.504H117.292ZM121.436 34.608V45.408H123.564V34.608H121.436ZM122.956 38.88V40.624H125.532V38.88H122.956ZM114.012 47.472V49.168H124.092V47.472H114.012ZM114.012 44.352V48.32H116.14V44.352H114.012ZM137.267 40.208V41.952H139.875V40.208H137.267ZM135.683 34.592V49.408H137.827V34.592H135.683ZM126.659 36.016V45.216H128.787V36.016H126.659ZM126.659 44.032V45.792H127.939C130.115 45.792 132.499 45.664 134.947 45.152L134.723 43.408C132.339 43.888 130.051 44.032 127.939 44.032H126.659ZM150.73 34.608V49.424H152.874V34.608H150.73ZM146.362 36.144V36.528C146.362 40.496 144.826 43.184 140.57 45.232L141.674 46.928C146.938 44.384 148.474 40.672 148.474 36.144H146.362ZM141.354 36.144V37.824H147.37V36.144H141.354ZM166.329 38.432V40.144H169.785V38.432H166.329ZM168.665 34.624V45.424H170.793V34.624H168.665ZM161.017 47.472V49.168H171.129V47.472H161.017ZM161.017 44.512V48.48H163.145V44.512H161.017ZM161.817 36.56V37.488C161.817 39.36 160.761 41.296 158.313 42.096L159.385 43.792C162.233 42.848 163.545 40.272 163.545 37.488V36.56H161.817ZM162.265 36.56V37.488C162.265 40.128 163.529 42.592 166.281 43.504L167.321 41.84C164.985 41.056 163.977 39.216 163.977 37.488V36.56H162.265ZM158.889 35.616V37.296H166.857V35.616H158.889ZM184.297 38.192V39.92H187.113V38.192H184.297ZM186.537 34.608V43.408H188.665V34.608H186.537ZM183.641 43.728C180.505 43.728 178.569 44.8 178.569 46.592C178.569 48.4 180.505 49.44 183.641 49.44C186.777 49.44 188.713 48.4 188.713 46.592C188.713 44.8 186.777 43.728 183.641 43.728ZM183.641 45.344C185.577 45.344 186.601 45.744 186.601 46.592C186.601 47.424 185.577 47.824 183.641 47.824C181.721 47.824 180.697 47.424 180.697 46.592C180.697 45.744 181.721 45.344 183.641 45.344ZM179.689 36.096V37.024C179.689 38.928 178.633 40.896 176.185 41.728L177.273 43.408C180.105 42.448 181.417 39.856 181.417 37.024V36.096H179.689ZM180.137 36.096V37.024C180.137 39.664 181.401 42.128 184.153 43.04L185.193 41.36C182.857 40.576 181.849 38.768 181.849 37.024V36.096H180.137ZM176.761 35.504V37.2H184.729V35.504H176.761ZM190.592 45.984V47.712H204V45.984H190.592ZM196.208 42.816V46.4H198.336V42.816H196.208ZM192 35.552V43.264H202.544V35.552H200.432V37.824H194.112V35.552H192ZM194.112 39.488H200.432V41.568H194.112V39.488ZM217.983 34.608V42H220.111V34.608H217.983ZM219.247 37.44V39.184H222.063V37.44H219.247ZM210.319 42.592V44.224H218.015V45.12H210.351V48.416H212.463V46.656H220.111V42.592H210.319ZM210.351 47.6V49.264H220.543V47.6H210.351ZM212.495 35.04C210.239 35.04 208.543 36.432 208.543 38.4C208.543 40.352 210.239 41.76 212.495 41.76C214.767 41.76 216.447 40.352 216.447 38.4C216.447 36.432 214.767 35.04 212.495 35.04ZM212.495 36.752C213.599 36.752 214.399 37.36 214.399 38.4C214.399 39.44 213.599 40.064 212.495 40.064C211.407 40.064 210.607 39.44 210.607 38.4C210.607 37.36 211.407 36.752 212.495 36.752ZM232.966 34.592V49.456H235.094V34.592H232.966ZM223.558 44.272V46H224.87C227.574 46 229.75 45.92 232.15 45.488L231.942 43.776C229.59 44.176 227.494 44.272 224.87 44.272H223.558ZM223.542 35.856V37.552H228.358V39.904H223.558V44.912H225.718V41.584H230.534V35.856H223.542ZM247.277 34.608V49.424H249.421V34.608H247.277ZM242.909 36.144V36.528C242.909 40.496 241.373 43.184 237.117 45.232L238.221 46.928C243.485 44.384 245.021 40.672 245.021 36.144H242.909ZM237.901 36.144V37.824H243.917V36.144H237.901Z" fill="white"/>
<g filter="url(#filter0_d_525_172)">
<circle cx="36" cy="31" r="23" fill="url(#paint1_linear_525_172)"/>
</g>
<path d="M35.998 11.0647C33.3803 11.0647 30.7883 11.5803 28.3699 12.582C25.9514 13.5838 23.754 15.0521 21.903 16.903C18.1648 20.6413 16.0647 25.7114 16.0647 30.998C16.0647 36.2847 18.1648 41.3548 21.903 45.093C23.754 46.944 25.9514 48.4123 28.3699 49.414C30.7883 50.4158 33.3803 50.9314 35.998 50.9314C41.2847 50.9314 46.3548 48.8312 50.093 45.093C53.8312 41.3548 55.9314 36.2847 55.9314 30.998C55.9314 28.3803 55.4158 25.7883 54.414 23.3699C53.4123 20.9514 51.944 18.754 50.093 16.903C48.242 15.0521 46.0446 13.5838 43.6262 12.582C41.2078 11.5803 38.6157 11.0647 35.998 11.0647M35.998 15.0514C40.2273 15.0514 44.2834 16.7315 47.274 19.722C50.2646 22.7126 51.9447 26.7687 51.9447 30.998C51.9447 35.2273 50.2646 39.2834 47.274 42.274C44.2834 45.2646 40.2273 46.9447 35.998 46.9447C31.7687 46.9447 27.7126 45.2646 24.722 42.274C21.7315 39.2834 20.0514 35.2273 20.0514 30.998C20.0514 26.7687 21.7315 22.7126 24.722 19.722C27.7126 16.7315 31.7687 15.0514 35.998 15.0514M31.513 22.6659C28.4433 22.6659 26.0314 25.0778 26.0314 28.1476C26.0314 31.915 29.42 34.9847 34.5628 39.6491L35.998 40.9647L37.4332 39.6491C42.576 34.9847 45.9647 31.915 45.9647 28.1476C45.9647 25.0778 43.5528 22.6659 40.483 22.6659C38.7488 22.6659 37.0944 23.4832 35.998 24.7589C35.4426 24.1108 34.7551 23.5888 33.9816 23.2279C33.2082 22.8669 32.3665 22.6753 31.513 22.6659V22.6659Z" fill="white"/>
<defs>
<filter id="filter0_d_525_172" x="3.4" y="0.8" width="65.2" height="65.2" filterUnits="userSpaceOnUse" color-interpolation-filters="sRGB">
<feFlood flood-opacity="0" result="BackgroundImageFix"/>
<feColorMatrix in="SourceAlpha" type="matrix" values="0 0 0 0 0 0 0 0 0 0 0 0 0 0 0 0 0 0 127 0" result="hardAlpha"/>
<feOffset dy="2.4"/>
<feGaussianBlur stdDeviation="4.8"/>
<feComposite in2="hardAlpha" operator="out"/>
<feColorMatrix type="matrix" values="0 0 0 0 0.458333 0 0 0 0 0.458333 0 0 0 0 0.458333 0 0 0 0.42 0"/>
<feBlend mode="normal" in2="BackgroundImageFix" result="effect1_dropShadow_525_172"/>
<feBlend mode="normal" in="SourceGraphic" in2="effect1_dropShadow_525_172" result="shape"/>
</filter>
<linearGradient id="paint0_linear_525_172" x1="-5.12929e-06" y1="44.5776" x2="61.5033" y2="-91.3692" gradientUnits="userSpaceOnUse">
<stop stop-color="#7373F6"/>
<stop offset="0.361458" stop-color="#8B70F7"/>
<stop offset="0.634552" stop-color="#956EF6"/>
<stop offset="1" stop-color="#A869F7"/>
</linearGradient>
<linearGradient id="paint1_linear_525_172" x1="25.8529" y1="8" x2="41.0479" y2="50.1023" gradientUnits="userSpaceOnUse">
<stop stop-color="#7373F6"/>
<stop offset="0.361458" stop-color="#8B70F7"/>
<stop offset="0.634552" stop-color="#956EF6"/>
<stop offset="1" stop-color="#A869F7"/>
</linearGradient>
</defs>
</svg>
