<svg width="100" height="100" viewBox="0 0 100 100" fill="none" xmlns="http://www.w3.org/2000/svg">
<circle cx="50" cy="50" r="50" fill="#37375B"/>
<path d="M77.5957 46.3242C92.8062 75.4439 7.18307 75.4439 22.4152 48.0371" stroke="#DFE5F1" stroke-width="2.08333"/>
<path d="M50.0026 34.3697L47.3666 31.6601C41.1791 25.2999 29.8335 27.4947 25.738 35.491C23.8152 39.252 23.3814 44.6822 26.8924 51.6123C30.2747 58.2851 37.3115 66.2777 50.0026 74.9835C62.6937 66.2777 69.7268 58.2851 73.1128 51.6123C76.6238 44.6785 76.1937 39.252 74.2672 35.491C70.1717 27.4947 58.8261 25.2962 52.6386 31.6565L50.0026 34.3697ZM50.0026 79.4137C-6.36855 42.1638 32.646 13.0903 49.3555 28.469C49.5761 28.6712 49.793 28.8807 50.0026 29.0976C50.21 28.8809 50.4259 28.6724 50.6497 28.4726C67.3555 13.083 106.374 42.1601 50.0026 79.4137Z" fill="#DFE5F1"/>
<path d="M35.2971 29.779C32.4105 31.5062 29.5545 34.9675 27.9442 38.9702C26.334 34.9675 23.4783 31.5062 20.5913 29.779C23.4779 28.0519 26.334 24.5906 27.9442 20.5879C29.5545 24.5906 32.4101 28.0519 35.2971 29.779Z" fill="#DFE5F1"/>
<path d="M75.739 62.8699C72.8524 64.597 69.9963 68.0583 68.3861 72.061C66.7759 68.0583 63.9202 64.597 61.0332 62.8699C63.9198 61.1427 66.7759 57.6814 68.3861 53.6787C69.9963 57.6814 72.852 61.1427 75.739 62.8699Z" fill="#DFE5F1"/>
</svg>
