<svg width="428" height="254" viewBox="0 0 428 254" fill="none" xmlns="http://www.w3.org/2000/svg">
<path d="M0 0H428V184C428 222.66 396.66 254 358 254H70C31.3401 254 0 222.66 0 184V0Z" fill="url(#paint0_linear_783_674)"/>
<g filter="url(#filter0_d_783_674)">
<circle cx="212.5" cy="126.5" r="98.5" fill="url(#paint1_linear_783_674)" fill-opacity="0.4" shape-rendering="crispEdges"/>
</g>
<circle cx="212" cy="127" r="79.5349" fill="#37375B"/>
<path d="M180.345 91.4011V92.6193H182.167V91.4011H180.345ZM179.239 87.4781V97.8275H180.736V87.4781H179.239ZM172.935 88.4728V94.8993H174.422V88.4728H172.935ZM172.935 94.0722V95.3016H173.829C175.349 95.3016 177.015 95.2122 178.725 94.8546L178.568 93.6363C176.903 93.9716 175.305 94.0722 173.829 94.0722H172.935ZM186.011 88.1711C184.39 88.1711 183.15 89.2328 183.15 90.7193C183.15 92.2169 184.39 93.2787 186.011 93.2787C187.643 93.2787 188.861 92.2169 188.861 90.7193C188.861 89.2328 187.643 88.1711 186.011 88.1711ZM186.011 89.4452C186.804 89.4452 187.408 89.9146 187.408 90.7193C187.408 91.5352 186.804 92.0046 186.011 92.0046C185.217 92.0046 184.614 91.5352 184.614 90.7193C184.614 89.9146 185.217 89.4452 186.011 89.4452ZM189.833 87.4781V97.8611H191.32V87.4781H189.833ZM182.904 95.7599C184.692 95.7599 187.129 95.7375 189.375 95.2905L189.263 94.2175C187.084 94.5416 184.547 94.564 182.725 94.564L182.904 95.7599ZM198.64 87.9028C197.075 87.9028 195.935 88.8081 195.935 90.1158C195.935 91.4011 197.075 92.3287 198.64 92.3287C200.216 92.3287 201.356 91.4011 201.356 90.1158C201.356 88.8081 200.216 87.9028 198.64 87.9028ZM198.64 89.1099C199.4 89.1099 199.936 89.4675 199.936 90.1158C199.936 90.7528 199.4 91.1105 198.64 91.1105C197.891 91.1105 197.355 90.7528 197.355 90.1158C197.355 89.4675 197.891 89.1099 198.64 89.1099ZM197.947 93.3569V97.5258H199.433V93.3569H197.947ZM202.473 87.4893V97.8387H203.949V87.4893H202.473ZM195.499 94.1393C197.288 94.1281 199.735 94.1058 201.982 93.6587L201.881 92.5746C199.691 92.9099 197.131 92.9322 195.321 92.9322L195.499 94.1393ZM212.453 87.4893V97.8387H213.951V87.4893H212.453ZM207.893 90.1716V90.7081C207.893 92.2728 207.088 94.0275 205.39 94.7875L206.183 95.9275C208.094 95.1005 209.067 92.8987 209.067 90.7081V90.1716H207.893ZM208.217 90.1716V90.7081C208.217 92.8316 209.201 94.9663 211.112 95.7599L211.906 94.6199C210.196 93.8934 209.38 92.1946 209.38 90.7081V90.1716H208.217ZM205.736 89.1769V90.3505H211.492V89.1769H205.736ZM207.893 87.724V89.7805H209.38V87.724H207.893ZM220.254 93.1222V95.9052H221.74V93.1222H220.254ZM223.506 93.1334V95.9163H224.982V93.1334H223.506ZM217.963 95.5028V96.7099H227.329V95.5028H217.963ZM218.678 88.3052V89.4899H226.558V88.3052H218.678ZM218.723 92.3958V93.5693H226.524V92.3958H218.723ZM220.086 89.2887V92.5634H221.573V89.2887H220.086ZM223.674 89.2887V92.5634H225.149V89.2887H223.674ZM230.536 88.2828V89.7916C230.536 91.8034 229.686 93.7928 227.887 94.5752L228.77 95.8046C230.826 94.8546 231.743 92.4516 231.743 89.7916V88.2828H230.536ZM230.826 88.2828V89.7916C230.826 92.3399 231.743 94.6422 233.743 95.5587L234.615 94.3628C232.849 93.6028 232.033 91.7028 232.033 89.7916V88.2828H230.826ZM235.107 87.4781V97.8611H236.604V87.4781H235.107ZM244.706 87.4893V97.8387H246.182V87.4893H244.706ZM245.846 91.524V92.7646H247.679V91.524H245.846ZM238.023 89.0205V90.2052H244.047V89.0205H238.023ZM241.052 90.7863C239.543 90.7863 238.425 91.8146 238.425 93.2563C238.425 94.6981 239.543 95.7263 241.052 95.7263C242.561 95.7263 243.678 94.6981 243.678 93.2563C243.678 91.8146 242.561 90.7863 241.052 90.7863ZM241.052 91.9934C241.756 91.9934 242.259 92.4628 242.259 93.2563C242.259 94.0499 241.756 94.5193 241.052 94.5193C240.348 94.5193 239.845 94.0499 239.845 93.2563C239.845 92.4628 240.348 91.9934 241.052 91.9934ZM240.303 87.6569V89.4675H241.789V87.6569H240.303ZM255.256 87.4893V97.8387H256.754V87.4893H255.256ZM252.205 88.5622V88.8305C252.205 91.6022 251.132 93.4799 248.159 94.9105L248.93 96.0952C252.607 94.3181 253.68 91.7252 253.68 88.5622H252.205ZM248.707 88.5622V89.7358H252.909V88.5622H248.707Z" fill="white"/>
<path d="M192.316 132.769C191.224 132.765 190.284 132.496 189.497 131.962C188.714 131.429 188.111 130.656 187.687 129.645C187.268 128.633 187.061 127.416 187.065 125.993C187.065 124.575 187.274 123.366 187.694 122.367C188.117 121.368 188.72 120.608 189.503 120.087C190.291 119.562 191.228 119.3 192.316 119.3C193.405 119.3 194.34 119.562 195.123 120.087C195.911 120.612 196.516 121.374 196.939 122.374C197.363 123.368 197.572 124.575 197.568 125.993C197.568 127.42 197.356 128.639 196.933 129.651C196.514 130.663 195.913 131.435 195.13 131.969C194.346 132.502 193.409 132.769 192.316 132.769ZM192.316 130.489C193.062 130.489 193.656 130.115 194.101 129.365C194.545 128.616 194.766 127.492 194.761 125.993C194.761 125.007 194.66 124.185 194.457 123.529C194.258 122.873 193.974 122.38 193.606 122.05C193.242 121.719 192.812 121.554 192.316 121.554C191.576 121.554 190.983 121.925 190.538 122.666C190.094 123.407 189.87 124.516 189.865 125.993C189.865 126.992 189.965 127.826 190.164 128.495C190.367 129.16 190.653 129.659 191.021 129.994C191.389 130.324 191.821 130.489 192.316 130.489ZM203.978 132.661C203.03 132.661 202.185 132.498 201.445 132.172C200.708 131.842 200.126 131.389 199.698 130.813C199.275 130.233 199.057 129.564 199.044 128.806H201.813C201.83 129.124 201.934 129.403 202.124 129.645C202.319 129.882 202.577 130.066 202.899 130.197C203.221 130.328 203.582 130.394 203.985 130.394C204.404 130.394 204.774 130.32 205.096 130.172C205.418 130.023 205.67 129.818 205.852 129.556C206.034 129.293 206.125 128.991 206.125 128.648C206.125 128.3 206.027 127.994 205.833 127.727C205.642 127.456 205.367 127.244 205.007 127.092C204.651 126.939 204.228 126.863 203.737 126.863H202.524V124.844H203.737C204.152 124.844 204.518 124.772 204.836 124.628C205.157 124.484 205.407 124.285 205.585 124.031C205.763 123.773 205.852 123.472 205.852 123.129C205.852 122.803 205.773 122.517 205.617 122.272C205.464 122.022 205.248 121.827 204.969 121.688C204.694 121.548 204.372 121.478 204.004 121.478C203.631 121.478 203.29 121.546 202.981 121.681C202.672 121.813 202.425 122.001 202.238 122.247C202.052 122.492 201.953 122.78 201.94 123.11H199.305C199.317 122.361 199.531 121.7 199.946 121.129C200.361 120.557 200.92 120.111 201.622 119.789C202.329 119.463 203.127 119.3 204.016 119.3C204.914 119.3 205.699 119.463 206.372 119.789C207.045 120.115 207.568 120.555 207.941 121.11C208.318 121.66 208.504 122.278 208.5 122.964C208.504 123.692 208.277 124.3 207.82 124.787C207.367 125.273 206.777 125.583 206.049 125.714V125.815C207.005 125.938 207.733 126.27 208.233 126.812C208.737 127.35 208.987 128.023 208.982 128.832C208.987 129.573 208.773 130.231 208.341 130.807C207.913 131.382 207.323 131.835 206.569 132.166C205.816 132.496 204.952 132.661 203.978 132.661ZM212.208 130.972C211.789 130.972 211.429 130.824 211.128 130.527C210.832 130.231 210.684 129.871 210.684 129.448C210.684 129.033 210.832 128.677 211.128 128.381C211.429 128.085 211.789 127.936 212.208 127.936C212.614 127.936 212.97 128.085 213.275 128.381C213.579 128.677 213.732 129.033 213.732 129.448C213.732 129.727 213.66 129.983 213.516 130.216C213.376 130.445 213.192 130.629 212.964 130.769C212.735 130.904 212.483 130.972 212.208 130.972ZM212.208 124.59C211.789 124.59 211.429 124.442 211.128 124.145C210.832 123.849 210.684 123.489 210.684 123.066C210.684 122.651 210.832 122.297 211.128 122.005C211.429 121.709 211.789 121.561 212.208 121.561C212.614 121.561 212.97 121.709 213.275 122.005C213.579 122.297 213.732 122.651 213.732 123.066C213.732 123.349 213.66 123.608 213.516 123.84C213.376 124.069 213.192 124.251 212.964 124.387C212.735 124.522 212.483 124.59 212.208 124.59ZM220.669 132.769C219.577 132.765 218.637 132.496 217.85 131.962C217.066 131.429 216.463 130.656 216.04 129.645C215.621 128.633 215.413 127.416 215.417 125.993C215.417 124.575 215.627 123.366 216.046 122.367C216.469 121.368 217.073 120.608 217.856 120.087C218.643 119.562 219.581 119.3 220.669 119.3C221.757 119.3 222.693 119.562 223.476 120.087C224.263 120.612 224.869 121.374 225.292 122.374C225.715 123.368 225.925 124.575 225.921 125.993C225.921 127.42 225.709 128.639 225.286 129.651C224.867 130.663 224.265 131.435 223.482 131.969C222.699 132.502 221.761 132.769 220.669 132.769ZM220.669 130.489C221.414 130.489 222.009 130.115 222.454 129.365C222.898 128.616 223.118 127.492 223.114 125.993C223.114 125.007 223.012 124.185 222.809 123.529C222.61 122.873 222.327 122.38 221.958 122.05C221.594 121.719 221.164 121.554 220.669 121.554C219.928 121.554 219.336 121.925 218.891 122.666C218.447 123.407 218.222 124.516 218.218 125.993C218.218 126.992 218.317 127.826 218.516 128.495C218.72 129.16 219.005 129.659 219.374 129.994C219.742 130.324 220.174 130.489 220.669 130.489ZM232.623 132.769C231.531 132.765 230.591 132.496 229.804 131.962C229.02 131.429 228.417 130.656 227.994 129.645C227.575 128.633 227.367 127.416 227.371 125.993C227.371 124.575 227.581 123.366 228 122.367C228.423 121.368 229.027 120.608 229.81 120.087C230.597 119.562 231.535 119.3 232.623 119.3C233.711 119.3 234.647 119.562 235.43 120.087C236.217 120.612 236.823 121.374 237.246 122.374C237.669 123.368 237.879 124.575 237.875 125.993C237.875 127.42 237.663 128.639 237.24 129.651C236.821 130.663 236.219 131.435 235.436 131.969C234.653 132.502 233.715 132.769 232.623 132.769ZM232.623 130.489C233.368 130.489 233.963 130.115 234.407 129.365C234.852 128.616 235.072 127.492 235.068 125.993C235.068 125.007 234.966 124.185 234.763 123.529C234.564 122.873 234.28 122.38 233.912 122.05C233.548 121.719 233.118 121.554 232.623 121.554C231.882 121.554 231.289 121.925 230.845 122.666C230.4 123.407 230.176 124.516 230.172 125.993C230.172 126.992 230.271 127.826 230.47 128.495C230.674 129.16 230.959 129.659 231.328 129.994C231.696 130.324 232.128 130.489 232.623 130.489Z" fill="url(#paint2_linear_783_674)"/>
<path d="M212.022 52.205C254.202 52.205 288.395 85.5642 288.395 126.715C288.395 167.865 254.202 201.225 212.022 201.225C169.843 201.225 135.65 167.865 135.65 126.715C135.65 85.5642 169.843 52.205 212.022 52.205ZM212.022 195.559C250.994 195.559 282.587 164.736 282.587 126.715C282.587 88.6935 250.994 57.8711 212.022 57.8711C173.051 57.8711 141.458 88.6935 141.458 126.715C141.458 164.736 173.051 195.559 212.022 195.559Z" fill="url(#paint3_linear_783_674)"/>
<rect x="200.928" y="149.345" width="25.9593" height="25.9593" rx="11.1765" fill="url(#paint4_linear_783_674)"/>
<rect x="208.661" y="157.077" width="3.86628" height="10.4942" rx="1.93314" fill="white"/>
<rect x="215.288" y="157.077" width="3.86628" height="10.4942" rx="1.93314" fill="white"/>
<defs>
<filter id="filter0_d_783_674" x="102" y="19" width="221" height="221" filterUnits="userSpaceOnUse" color-interpolation-filters="sRGB">
<feFlood flood-opacity="0" result="BackgroundImageFix"/>
<feColorMatrix in="SourceAlpha" type="matrix" values="0 0 0 0 0 0 0 0 0 0 0 0 0 0 0 0 0 0 127 0" result="hardAlpha"/>
<feMorphology radius="1" operator="dilate" in="SourceAlpha" result="effect1_dropShadow_783_674"/>
<feOffset dy="3"/>
<feGaussianBlur stdDeviation="5.5"/>
<feComposite in2="hardAlpha" operator="out"/>
<feColorMatrix type="matrix" values="0 0 0 0 0.215686 0 0 0 0 0.215686 0 0 0 0 0.356863 0 0 0 0.1 0"/>
<feBlend mode="normal" in2="BackgroundImageFix" result="effect1_dropShadow_783_674"/>
<feBlend mode="normal" in="SourceGraphic" in2="effect1_dropShadow_783_674" result="shape"/>
</filter>
<linearGradient id="paint0_linear_783_674" x1="119.588" y1="-2.43505e-06" x2="173.398" y2="251.234" gradientUnits="userSpaceOnUse">
<stop stop-color="#7373F6"/>
<stop offset="0.361458" stop-color="#8B70F7"/>
<stop offset="0.634552" stop-color="#956EF6"/>
<stop offset="1" stop-color="#A869F7"/>
</linearGradient>
<linearGradient id="paint1_linear_783_674" x1="182.403" y1="39.6285" x2="212.5" y2="225" gradientUnits="userSpaceOnUse">
<stop stop-color="#E8EBF2"/>
<stop offset="1" stop-color="#E8EBF2" stop-opacity="0.85"/>
</linearGradient>
<linearGradient id="paint2_linear_783_674" x1="186.163" y1="118.303" x2="206.805" y2="151.258" gradientUnits="userSpaceOnUse">
<stop stop-color="#7373F6"/>
<stop offset="0.361458" stop-color="#8B70F7"/>
<stop offset="0.634552" stop-color="#956EF6"/>
<stop offset="1" stop-color="#A869F7"/>
</linearGradient>
<linearGradient id="paint3_linear_783_674" x1="146.39" y1="201.225" x2="203.667" y2="24.7114" gradientUnits="userSpaceOnUse">
<stop stop-color="#7373F6"/>
<stop offset="0.361458" stop-color="#8B70F7"/>
<stop offset="0.634552" stop-color="#956EF6"/>
<stop offset="1" stop-color="#A869F7"/>
</linearGradient>
<linearGradient id="paint4_linear_783_674" x1="200.928" y1="151.17" x2="231.529" y2="161.348" gradientUnits="userSpaceOnUse">
<stop stop-color="#7373F6"/>
<stop offset="0.361458" stop-color="#8B70F7"/>
<stop offset="0.634552" stop-color="#956EF6"/>
<stop offset="1" stop-color="#A869F7"/>
</linearGradient>
</defs>
</svg>
