<svg width="316" height="68" viewBox="0 0 316 68" fill="none" xmlns="http://www.w3.org/2000/svg">
<g filter="url(#filter0_d_630_2373)">
<path d="M9 30.5C9 21.9396 15.9396 15 24.5 15H292.079C300.639 15 307.579 21.9396 307.579 30.5C307.579 39.0604 300.639 46 292.079 46H24.5C15.9396 46 9 39.0604 9 30.5Z" fill="white" fill-opacity="0.02" shape-rendering="crispEdges"/>
</g>
<path d="M21.2363 30.5C21.2363 28.6978 22.6973 27.2368 24.4995 27.2368H287.184C288.986 27.2368 290.447 28.6978 290.447 30.5C290.447 32.3022 288.986 33.7631 287.184 33.7631H24.4995C22.6973 33.7631 21.2363 32.3022 21.2363 30.5Z" fill="url(#paint0_linear_630_2373)" fill-opacity="0.3"/>
<path d="M21.2363 30.5C21.2363 28.6978 22.6973 27.2368 24.4995 27.2368H197.973C199.775 27.2368 201.236 28.6978 201.236 30.5C201.236 32.3022 199.775 33.7631 197.973 33.7631H24.4995C22.6973 33.7631 21.2363 32.3022 21.2363 30.5Z" fill="url(#paint1_linear_630_2373)"/>
<g filter="url(#filter1_d_630_2373)">
<circle cx="199.631" cy="30.5001" r="8.97369" fill="url(#paint2_linear_630_2373)"/>
</g>
<defs>
<filter id="filter0_d_630_2373" x="0.842105" y="10.1053" width="314.895" height="47.3158" filterUnits="userSpaceOnUse" color-interpolation-filters="sRGB">
<feFlood flood-opacity="0" result="BackgroundImageFix"/>
<feColorMatrix in="SourceAlpha" type="matrix" values="0 0 0 0 0 0 0 0 0 0 0 0 0 0 0 0 0 0 127 0" result="hardAlpha"/>
<feOffset dy="3.26316"/>
<feGaussianBlur stdDeviation="4.07895"/>
<feComposite in2="hardAlpha" operator="out"/>
<feColorMatrix type="matrix" values="0 0 0 0 0 0 0 0 0 0 0 0 0 0 0 0 0 0 0.2 0"/>
<feBlend mode="normal" in2="BackgroundImageFix" result="effect1_dropShadow_630_2373"/>
<feBlend mode="normal" in="SourceGraphic" in2="effect1_dropShadow_630_2373" result="shape"/>
</filter>
<filter id="filter1_d_630_2373" x="166.184" y="0.315841" width="66.8946" height="66.8946" filterUnits="userSpaceOnUse" color-interpolation-filters="sRGB">
<feFlood flood-opacity="0" result="BackgroundImageFix"/>
<feColorMatrix in="SourceAlpha" type="matrix" values="0 0 0 0 0 0 0 0 0 0 0 0 0 0 0 0 0 0 127 0" result="hardAlpha"/>
<feMorphology radius="7.34211" operator="dilate" in="SourceAlpha" result="effect1_dropShadow_630_2373"/>
<feOffset dy="3.26316"/>
<feGaussianBlur stdDeviation="8.56579"/>
<feComposite in2="hardAlpha" operator="out"/>
<feColorMatrix type="matrix" values="0 0 0 0 1 0 0 0 0 1 0 0 0 0 1 0 0 0 0.05 0"/>
<feBlend mode="normal" in2="BackgroundImageFix" result="effect1_dropShadow_630_2373"/>
<feBlend mode="normal" in="SourceGraphic" in2="effect1_dropShadow_630_2373" result="shape"/>
</filter>
<linearGradient id="paint0_linear_630_2373" x1="21.2363" y1="28.8204" x2="47.5287" y2="109.34" gradientUnits="userSpaceOnUse">
<stop offset="0.0190364" stop-color="#2858F5"/>
<stop offset="0.359375" stop-color="#5A5BF4"/>
<stop offset="0.63799" stop-color="#895EF1"/>
<stop offset="0.8314" stop-color="#A760F0"/>
<stop offset="1" stop-color="#C362ED"/>
</linearGradient>
<linearGradient id="paint1_linear_630_2373" x1="21.2363" y1="30.5" x2="201.236" y2="30.4999" gradientUnits="userSpaceOnUse">
<stop stop-color="#502EF5"/>
<stop offset="0.213542" stop-color="#6E36E6"/>
<stop offset="0.479167" stop-color="#7F41DC"/>
<stop offset="0.776042" stop-color="#A258C8"/>
<stop offset="1" stop-color="#CA6CB0"/>
</linearGradient>
<linearGradient id="paint2_linear_630_2373" x1="190.657" y1="30.5001" x2="208.605" y2="30.5001" gradientUnits="userSpaceOnUse">
<stop stop-color="#502EF5"/>
<stop offset="0.213542" stop-color="#6E36E6"/>
<stop offset="0.479167" stop-color="#7F41DC"/>
<stop offset="0.776042" stop-color="#A258C8"/>
<stop offset="1" stop-color="#CA6CB0"/>
</linearGradient>
</defs>
</svg>
