<svg width="316" height="68" viewBox="0 0 316 68" fill="none" xmlns="http://www.w3.org/2000/svg">
<g filter="url(#filter0_d_630_2475)">
<path d="M9 32.5C9 23.9396 15.9396 17 24.5 17H292.079C300.639 17 307.579 23.9396 307.579 32.5C307.579 41.0604 300.639 48 292.079 48H24.5C15.9396 48 9 41.0604 9 32.5Z" fill="white" fill-opacity="0.02" shape-rendering="crispEdges"/>
</g>
<path d="M21.2363 32.5C21.2363 30.6978 22.6973 29.2368 24.4995 29.2368H287.184C288.986 29.2368 290.447 30.6978 290.447 32.5C290.447 34.3022 288.986 35.7631 287.184 35.7631H24.4995C22.6973 35.7631 21.2363 34.3022 21.2363 32.5Z" fill="url(#paint0_linear_630_2475)" fill-opacity="0.3"/>
<path d="M21.2363 32.5C21.2363 30.6978 22.6973 29.2368 24.4995 29.2368H161.973C163.775 29.2368 165.236 30.6978 165.236 32.5C165.236 34.3022 163.775 35.7631 161.973 35.7631H24.4995C22.6973 35.7631 21.2363 34.3022 21.2363 32.5Z" fill="url(#paint1_linear_630_2475)"/>
<g filter="url(#filter1_d_630_2475)">
<circle cx="162.974" cy="30.9737" r="8.97369" fill="url(#paint2_linear_630_2475)"/>
</g>
<defs>
<filter id="filter0_d_630_2475" x="0.842105" y="12.1053" width="314.895" height="47.3158" filterUnits="userSpaceOnUse" color-interpolation-filters="sRGB">
<feFlood flood-opacity="0" result="BackgroundImageFix"/>
<feColorMatrix in="SourceAlpha" type="matrix" values="0 0 0 0 0 0 0 0 0 0 0 0 0 0 0 0 0 0 127 0" result="hardAlpha"/>
<feOffset dy="3.26316"/>
<feGaussianBlur stdDeviation="4.07895"/>
<feComposite in2="hardAlpha" operator="out"/>
<feColorMatrix type="matrix" values="0 0 0 0 0 0 0 0 0 0 0 0 0 0 0 0 0 0 0.2 0"/>
<feBlend mode="normal" in2="BackgroundImageFix" result="effect1_dropShadow_630_2475"/>
<feBlend mode="normal" in="SourceGraphic" in2="effect1_dropShadow_630_2475" result="shape"/>
</filter>
<filter id="filter1_d_630_2475" x="129.526" y="0.789474" width="66.8946" height="66.8946" filterUnits="userSpaceOnUse" color-interpolation-filters="sRGB">
<feFlood flood-opacity="0" result="BackgroundImageFix"/>
<feColorMatrix in="SourceAlpha" type="matrix" values="0 0 0 0 0 0 0 0 0 0 0 0 0 0 0 0 0 0 127 0" result="hardAlpha"/>
<feMorphology radius="7.34211" operator="dilate" in="SourceAlpha" result="effect1_dropShadow_630_2475"/>
<feOffset dy="3.26316"/>
<feGaussianBlur stdDeviation="8.56579"/>
<feComposite in2="hardAlpha" operator="out"/>
<feColorMatrix type="matrix" values="0 0 0 0 1 0 0 0 0 1 0 0 0 0 1 0 0 0 0.05 0"/>
<feBlend mode="normal" in2="BackgroundImageFix" result="effect1_dropShadow_630_2475"/>
<feBlend mode="normal" in="SourceGraphic" in2="effect1_dropShadow_630_2475" result="shape"/>
</filter>
<linearGradient id="paint0_linear_630_2475" x1="21.2363" y1="30.8204" x2="47.5287" y2="111.34" gradientUnits="userSpaceOnUse">
<stop offset="0.0190364" stop-color="#2858F5"/>
<stop offset="0.359375" stop-color="#5A5BF4"/>
<stop offset="0.63799" stop-color="#895EF1"/>
<stop offset="0.8314" stop-color="#A760F0"/>
<stop offset="1" stop-color="#C362ED"/>
</linearGradient>
<linearGradient id="paint1_linear_630_2475" x1="21.2363" y1="32.5" x2="165.236" y2="32.5" gradientUnits="userSpaceOnUse">
<stop stop-color="#502EF5"/>
<stop offset="0.213542" stop-color="#6E36E6"/>
<stop offset="0.479167" stop-color="#7F41DC"/>
<stop offset="0.776042" stop-color="#A258C8"/>
<stop offset="1" stop-color="#CA6CB0"/>
</linearGradient>
<linearGradient id="paint2_linear_630_2475" x1="154" y1="30.9737" x2="171.947" y2="30.9737" gradientUnits="userSpaceOnUse">
<stop stop-color="#502EF5"/>
<stop offset="0.213542" stop-color="#6E36E6"/>
<stop offset="0.479167" stop-color="#7F41DC"/>
<stop offset="0.776042" stop-color="#A258C8"/>
<stop offset="1" stop-color="#CA6CB0"/>
</linearGradient>
</defs>
</svg>
