<svg width="322" height="68" viewBox="0 0 322 68" fill="none" xmlns="http://www.w3.org/2000/svg">
<g filter="url(#filter0_d_952_2792)">
<path d="M9 31.5C9 22.9396 15.9396 16 24.5 16H292.079C300.639 16 307.579 22.9396 307.579 31.5C307.579 40.0604 300.639 47 292.079 47H24.5C15.9396 47 9 40.0604 9 31.5Z" fill="white" fill-opacity="0.02" shape-rendering="crispEdges"/>
</g>
<path d="M21.2363 31.5C21.2363 29.6978 22.6973 28.2368 24.4995 28.2368H287.184C288.986 28.2368 290.447 29.6978 290.447 31.5C290.447 33.3022 288.986 34.7631 287.184 34.7631H24.4995C22.6973 34.7631 21.2363 33.3022 21.2363 31.5Z" fill="url(#paint0_linear_952_2792)" fill-opacity="0.3"/>
<path d="M21 31.5C21 29.567 22.567 28 24.5 28H287.5C289.433 28 291 29.567 291 31.5C291 33.433 289.433 35 287.5 35H24.5C22.567 35 21 33.433 21 31.5Z" fill="url(#paint1_linear_952_2792)"/>
<g filter="url(#filter1_d_952_2792)">
<circle cx="287.974" cy="30.9737" r="8.97369" fill="url(#paint2_linear_952_2792)"/>
</g>
<defs>
<filter id="filter0_d_952_2792" x="0.842105" y="11.1053" width="314.894" height="47.3158" filterUnits="userSpaceOnUse" color-interpolation-filters="sRGB">
<feFlood flood-opacity="0" result="BackgroundImageFix"/>
<feColorMatrix in="SourceAlpha" type="matrix" values="0 0 0 0 0 0 0 0 0 0 0 0 0 0 0 0 0 0 127 0" result="hardAlpha"/>
<feOffset dy="3.26316"/>
<feGaussianBlur stdDeviation="4.07895"/>
<feComposite in2="hardAlpha" operator="out"/>
<feColorMatrix type="matrix" values="0 0 0 0 0 0 0 0 0 0 0 0 0 0 0 0 0 0 0.2 0"/>
<feBlend mode="normal" in2="BackgroundImageFix" result="effect1_dropShadow_952_2792"/>
<feBlend mode="normal" in="SourceGraphic" in2="effect1_dropShadow_952_2792" result="shape"/>
</filter>
<filter id="filter1_d_952_2792" x="254.526" y="0.789474" width="66.8946" height="66.8946" filterUnits="userSpaceOnUse" color-interpolation-filters="sRGB">
<feFlood flood-opacity="0" result="BackgroundImageFix"/>
<feColorMatrix in="SourceAlpha" type="matrix" values="0 0 0 0 0 0 0 0 0 0 0 0 0 0 0 0 0 0 127 0" result="hardAlpha"/>
<feMorphology radius="7.34211" operator="dilate" in="SourceAlpha" result="effect1_dropShadow_952_2792"/>
<feOffset dy="3.26316"/>
<feGaussianBlur stdDeviation="8.56579"/>
<feComposite in2="hardAlpha" operator="out"/>
<feColorMatrix type="matrix" values="0 0 0 0 1 0 0 0 0 1 0 0 0 0 1 0 0 0 0.05 0"/>
<feBlend mode="normal" in2="BackgroundImageFix" result="effect1_dropShadow_952_2792"/>
<feBlend mode="normal" in="SourceGraphic" in2="effect1_dropShadow_952_2792" result="shape"/>
</filter>
<linearGradient id="paint0_linear_952_2792" x1="21.2363" y1="29.8204" x2="47.5287" y2="110.34" gradientUnits="userSpaceOnUse">
<stop offset="0.0190364" stop-color="#2858F5"/>
<stop offset="0.359375" stop-color="#5A5BF4"/>
<stop offset="0.63799" stop-color="#895EF1"/>
<stop offset="0.8314" stop-color="#A760F0"/>
<stop offset="1" stop-color="#C362ED"/>
</linearGradient>
<linearGradient id="paint1_linear_952_2792" x1="21" y1="31.5" x2="291" y2="31.4999" gradientUnits="userSpaceOnUse">
<stop stop-color="#502EF5"/>
<stop offset="0.213542" stop-color="#6E36E6"/>
<stop offset="0.479167" stop-color="#7F41DC"/>
<stop offset="0.776042" stop-color="#A258C8"/>
<stop offset="1" stop-color="#CA6CB0"/>
</linearGradient>
<linearGradient id="paint2_linear_952_2792" x1="279" y1="30.9737" x2="296.947" y2="30.9737" gradientUnits="userSpaceOnUse">
<stop stop-color="#502EF5"/>
<stop offset="0.213542" stop-color="#6E36E6"/>
<stop offset="0.479167" stop-color="#7F41DC"/>
<stop offset="0.776042" stop-color="#A258C8"/>
<stop offset="1" stop-color="#CA6CB0"/>
</linearGradient>
</defs>
</svg>
