<svg width="89" height="16" viewBox="0 0 89 16" fill="none" xmlns="http://www.w3.org/2000/svg">
<path d="M0.656 12.016V13.744H14.064V12.016H0.656ZM6.288 9.168V12.912H8.416V9.168H6.288ZM6.272 3.696V4.016C6.272 5.712 4.672 7.552 1.072 7.984L1.84 9.664C5.904 9.136 8.16 6.848 8.16 4.016V3.696H6.272ZM6.56 3.696V4.016C6.56 6.848 8.8 9.136 12.864 9.664L13.632 7.984C10.032 7.552 8.432 5.712 8.432 4.016V3.696H6.56ZM1.792 2.608V4.32H12.912V2.608H1.792ZM6.288 0.799999V3.312H8.416V0.799999H6.288ZM25.7428 0.608V15.424H27.7588V0.608H25.7428ZM23.7588 6.304V8.016H26.2228V6.304H23.7588ZM22.4308 0.863999V14.72H24.3988V0.863999H22.4308ZM15.4548 10.336V12.08H16.4948C18.3988 12.08 19.9668 12.032 21.7588 11.68L21.5988 9.952C19.8388 10.272 18.3188 10.336 16.4948 10.336H15.4548ZM15.4548 2.32V11.168H17.5668V4.032H20.9268V2.32H15.4548ZM30.9575 1.84V3.536H40.2855V1.84H30.9575ZM29.4375 12.016V13.728H42.8295V12.016H29.4375ZM39.4375 1.84V3.136C39.4375 4.848 39.4375 7.008 38.7655 10.016L40.8615 10.24C41.5495 7.024 41.5335 4.928 41.5335 3.136V1.84H39.4375ZM39.8215 5.408L30.4935 5.696L30.7815 7.504L39.8215 7.008V5.408ZM34.1895 8.464V12.64H36.3175V8.464H34.1895ZM45.4043 7.44V9.136H55.8203V7.44H45.4043ZM43.8523 11.904V13.648H57.2603V11.904H43.8523ZM45.4043 1.824V8.144H47.5163V3.552H55.7083V1.824H45.4043ZM72.0598 0.608V8.576H74.2038V0.608H72.0598ZM64.3478 9.216V15.264H74.2038V9.216H72.0918V10.592H66.4438V9.216H64.3478ZM66.4438 12.224H72.0918V13.568H66.4438V12.224ZM66.1398 1.216C63.8358 1.216 62.1078 2.672 62.1078 4.72C62.1078 6.768 63.8358 8.224 66.1398 8.224C68.4438 8.224 70.1558 6.768 70.1558 4.72C70.1558 2.672 68.4438 1.216 66.1398 1.216ZM66.1398 2.976C67.2598 2.976 68.0758 3.632 68.0758 4.72C68.0758 5.824 67.2598 6.464 66.1398 6.464C65.0038 6.464 64.1878 5.824 64.1878 4.72C64.1878 3.632 65.0038 2.976 66.1398 2.976ZM76.8425 7.664V9.36H77.9785C80.8105 9.36 82.3305 9.312 84.0585 8.992L83.8505 7.312C82.1705 7.616 80.7305 7.664 77.9785 7.664H76.8425ZM76.8265 1.456V3.136H81.2265V4.544H76.8425V8.784H78.9545V6.128H83.3385V1.456H76.8265ZM86.5545 0.624V9.744H88.6825V0.624H86.5545ZM84.1865 2.656V4.352H86.9385V2.656H84.1865ZM84.1865 5.808V7.504H86.9385V5.808H84.1865ZM78.5385 10.416V12.112H86.5545V15.44H88.6825V10.416H78.5385Z" fill="url(#paint0_linear_421_405)" fill-opacity="0.6"/>
<defs>
<linearGradient id="paint0_linear_421_405" x1="85.7907" y1="19.6891" x2="45.3183" y2="-37.548" gradientUnits="userSpaceOnUse">
<stop stop-color="#4255FE"/>
<stop offset="0.21875" stop-color="#394DFF"/>
<stop offset="0.583333" stop-color="#6E4FFD"/>
<stop offset="0.734375" stop-color="#8355FF"/>
</linearGradient>
</defs>
</svg>
