<svg width="26" height="14" viewBox="0 0 26 14" fill="none" xmlns="http://www.w3.org/2000/svg">
<path d="M3.65017 6.235V8.29H4.89517V6.235H3.65017ZM4.23517 1.225C2.28517 1.225 0.905172 2.305 0.905172 3.91C0.905172 5.515 2.28517 6.58 4.23517 6.58C6.20017 6.58 7.58017 5.515 7.58017 3.91C7.58017 2.305 6.20017 1.225 4.23517 1.225ZM4.23517 2.185C5.52517 2.185 6.41017 2.89 6.41017 3.91C6.41017 4.945 5.52517 5.635 4.23517 5.635C2.96017 5.635 2.07517 4.945 2.07517 3.91C2.07517 2.89 2.96017 2.185 4.23517 2.185ZM9.41017 0.624999V10.99H10.6552V0.624999H9.41017ZM10.1302 5.2V6.235H12.6352V5.2H10.1302ZM2.07517 12.835V13.87H11.1352V12.835H2.07517ZM2.07517 10.105V13.285H3.32017V10.105H2.07517ZM0.290172 8.98C2.61517 8.98 5.82517 8.95 8.66017 8.425L8.57017 7.51C5.81017 7.93 2.51017 7.96 0.125172 7.96L0.290172 8.98ZM16.966 8.56V11.89H18.196V8.56H16.966ZM21.301 8.53V11.875H22.516V8.53H21.301ZM13.546 11.47V12.505H25.831V11.47H13.546ZM15.031 1.615V2.62H23.086V4.72H15.076V8.44H16.306V5.71H24.316V1.615H15.031ZM15.076 7.885V8.905H24.631V7.885H15.076Z" fill="url(#paint0_linear_671_503)"/>
<defs>
<linearGradient id="paint0_linear_671_503" x1="-1" y1="10.0862" x2="24.1874" y2="1.66938" gradientUnits="userSpaceOnUse">
<stop stop-color="#7373F6"/>
<stop offset="0.361458" stop-color="#8B70F7"/>
<stop offset="0.634552" stop-color="#956EF6"/>
<stop offset="1" stop-color="#A869F7"/>
</linearGradient>
</defs>
</svg>
