<svg width="35" height="19" viewBox="0 0 35 19" fill="none" xmlns="http://www.w3.org/2000/svg">
<path d="M10.5656 2.96V5.08H15.1256V2.96H10.5656ZM13.9456 0.26V9.66H16.6056V0.26H13.9456ZM4.36556 10.44V12.48H13.9656V13.5H4.40556V17.74H7.02556V15.42H16.6056V10.44H4.36556ZM4.40556 16.52V18.58H17.1256V16.52H4.40556ZM5.34556 0.859999V2.18C5.34556 4.54 4.04556 6.8 0.965563 7.72L2.32556 9.82C5.86556 8.7 7.50556 5.68 7.50556 2.18V0.859999H5.34556ZM5.86556 0.859999V2.18C5.86556 5.5 7.44556 8.36 10.8256 9.46L12.1856 7.4C9.26556 6.52 8.02556 4.38 8.02556 2.18V0.859999H5.86556ZM29.136 4.74V6.9H32.656V4.74H29.136ZM31.936 0.26V11.26H34.596V0.26H31.936ZM28.316 11.66C24.396 11.66 21.976 13 21.976 15.24C21.976 17.5 24.396 18.8 28.316 18.8C32.236 18.8 34.656 17.5 34.656 15.24C34.656 13 32.236 11.66 28.316 11.66ZM28.316 13.68C30.736 13.68 32.016 14.18 32.016 15.24C32.016 16.28 30.736 16.78 28.316 16.78C25.916 16.78 24.636 16.28 24.636 15.24C24.636 14.18 25.916 13.68 28.316 13.68ZM23.376 2.12V3.28C23.376 5.66 22.056 8.12 18.996 9.16L20.356 11.26C23.896 10.06 25.536 6.82 25.536 3.28V2.12H23.376ZM23.936 2.12V3.28C23.936 6.58 25.516 9.66 28.956 10.8L30.256 8.7C27.336 7.72 26.076 5.46 26.076 3.28V2.12H23.936ZM19.716 1.38V3.5H29.676V1.38H19.716Z" fill="url(#paint0_linear_671_502)"/>
<defs>
<linearGradient id="paint0_linear_671_502" x1="-5.24264e-07" y1="12.0862" x2="30.9625" y2="-1.58623" gradientUnits="userSpaceOnUse">
<stop stop-color="#7373F6"/>
<stop offset="0.361458" stop-color="#8B70F7"/>
<stop offset="0.634552" stop-color="#956EF6"/>
<stop offset="1" stop-color="#A869F7"/>
</linearGradient>
</defs>
</svg>
