<svg width="32" height="34" viewBox="0 0 32 34" fill="none" xmlns="http://www.w3.org/2000/svg">
<circle cx="16" cy="16" r="16" fill="#37375B"/>
<circle cx="16" cy="16" r="16" stroke="black"/>
<g filter="url(#filter0_d_1086_6837)">
<path d="M22.813 11.2634C22.7507 11.19 22.6743 11.1306 22.5886 11.089C22.5029 11.0474 22.4099 11.0245 22.3152 11.0217C20.8448 10.9821 18.9841 9.36191 17.7539 8.72612C16.994 8.3346 16.4923 8.07645 16.1156 8.00845C16.0391 7.99697 15.9614 7.99719 15.8849 8.00911C15.5082 8.07712 15.0065 8.33526 14.2473 8.72678C13.0171 9.36191 11.1564 10.9821 9.68596 11.0217C9.59124 11.0247 9.49812 11.0477 9.41238 11.0892C9.32663 11.1308 9.25008 11.1901 9.18748 11.2634C9.05771 11.4146 8.99076 11.6124 9.00103 11.814C9.3169 18.4314 11.6203 22.5268 15.662 24.9069C15.767 24.9683 15.8837 25 15.9996 25C16.1156 25 16.2322 24.9683 16.3379 24.9069C20.3796 22.5268 22.6823 18.4314 22.9989 11.814C23.0097 11.6124 22.9429 11.4145 22.813 11.2634ZM19.5992 13.866L16.1886 19.052C16.0663 19.2382 15.874 19.3617 15.6837 19.3617C15.4928 19.3617 15.2807 19.2541 15.1468 19.1161L12.7428 16.6383C12.6644 16.5571 12.6203 16.4472 12.6203 16.3326C12.6203 16.218 12.6644 16.1081 12.7428 16.0269L13.3368 15.4135C13.4157 15.333 13.5223 15.2878 13.6334 15.2878C13.7445 15.2878 13.8512 15.333 13.9301 15.4135L15.4935 17.0245L18.2095 12.8935C18.2723 12.7989 18.3689 12.7339 18.4781 12.7125C18.5874 12.6911 18.7004 12.7151 18.7925 12.7792L19.4877 13.2652C19.5795 13.3298 19.6428 13.4293 19.6637 13.5419C19.6846 13.6544 19.6614 13.771 19.5992 13.866Z" fill="url(#paint0_linear_1086_6837)"/>
</g>
<defs>
<filter id="filter0_d_1086_6837" x="5" y="8" width="22" height="25.8333" filterUnits="userSpaceOnUse" color-interpolation-filters="sRGB">
<feFlood flood-opacity="0" result="BackgroundImageFix"/>
<feColorMatrix in="SourceAlpha" type="matrix" values="0 0 0 0 0 0 0 0 0 0 0 0 0 0 0 0 0 0 127 0" result="hardAlpha"/>
<feOffset dy="4.83333"/>
<feGaussianBlur stdDeviation="2"/>
<feComposite in2="hardAlpha" operator="out"/>
<feColorMatrix type="matrix" values="0 0 0 0 0 0 0 0 0 0 0 0 0 0 0 0 0 0 0.1 0"/>
<feBlend mode="normal" in2="BackgroundImageFix" result="effect1_dropShadow_1086_6837"/>
<feBlend mode="normal" in="SourceGraphic" in2="effect1_dropShadow_1086_6837" result="shape"/>
</filter>
<linearGradient id="paint0_linear_1086_6837" x1="15.9699" y1="8.70832" x2="16.0147" y2="25" gradientUnits="userSpaceOnUse">
<stop offset="0.0376576" stop-color="#BF55F7"/>
<stop offset="0.395833" stop-color="#764FDB"/>
<stop offset="0.647338" stop-color="#8B69F1"/>
<stop offset="1" stop-color="#734FDA"/>
</linearGradient>
</defs>
</svg>
