<svg width="52" height="51" viewBox="0 0 52 51" fill="none" xmlns="http://www.w3.org/2000/svg">
<g filter="url(#filter0_d_664_971)">
<circle cx="26" cy="22" r="16" fill="#37375B"/>
</g>
<g filter="url(#filter1_d_664_971)">
<path d="M32.813 17.2634C32.7507 17.19 32.6743 17.1306 32.5886 17.089C32.5029 17.0474 32.4099 17.0245 32.3152 17.0217C30.8448 16.9821 28.9841 15.3619 27.7539 14.7261C26.994 14.3346 26.4923 14.0765 26.1156 14.0085C26.0391 13.997 25.9614 13.9972 25.8849 14.0091C25.5082 14.0771 25.0065 14.3353 24.2473 14.7268C23.0171 15.3619 21.1564 16.9821 19.686 17.0217C19.5912 17.0247 19.4981 17.0477 19.4124 17.0892C19.3266 17.1308 19.2501 17.1901 19.1875 17.2634C19.0577 17.4146 18.9908 17.6124 19.001 17.814C19.3169 24.4314 21.6203 28.5268 25.662 30.9069C25.767 30.9683 25.8837 31 25.9996 31C26.1156 31 26.2322 30.9683 26.3379 30.9069C30.3796 28.5268 32.6823 24.4314 32.9989 17.814C33.0097 17.6124 32.9429 17.4145 32.813 17.2634ZM29.5992 19.866L26.1886 25.052C26.0663 25.2382 25.874 25.3617 25.6837 25.3617C25.4928 25.3617 25.2807 25.2541 25.1468 25.1161L22.7428 22.6383C22.6644 22.5571 22.6203 22.4472 22.6203 22.3326C22.6203 22.218 22.6644 22.1081 22.7428 22.0269L23.3368 21.4135C23.4157 21.333 23.5223 21.2878 23.6334 21.2878C23.7445 21.2878 23.8512 21.333 23.9301 21.4135L25.4935 23.0245L28.2095 18.8935C28.2723 18.7989 28.3689 18.7339 28.4781 18.7125C28.5874 18.6911 28.7004 18.7151 28.7925 18.7792L29.4877 19.2652C29.5795 19.3298 29.6428 19.4293 29.6637 19.5419C29.6846 19.6544 29.6614 19.771 29.5992 19.866Z" fill="url(#paint0_linear_664_971)"/>
</g>
<defs>
<filter id="filter0_d_664_971" x="0.857142" y="0.514285" width="50.2857" height="50.2857" filterUnits="userSpaceOnUse" color-interpolation-filters="sRGB">
<feFlood flood-opacity="0" result="BackgroundImageFix"/>
<feColorMatrix in="SourceAlpha" type="matrix" values="0 0 0 0 0 0 0 0 0 0 0 0 0 0 0 0 0 0 127 0" result="hardAlpha"/>
<feOffset dy="3.65714"/>
<feGaussianBlur stdDeviation="4.57143"/>
<feComposite in2="hardAlpha" operator="out"/>
<feColorMatrix type="matrix" values="0 0 0 0 0 0 0 0 0 0 0 0 0 0 0 0 0 0 0.24 0"/>
<feBlend mode="normal" in2="BackgroundImageFix" result="effect1_dropShadow_664_971"/>
<feBlend mode="normal" in="SourceGraphic" in2="effect1_dropShadow_664_971" result="shape"/>
</filter>
<filter id="filter1_d_664_971" x="15" y="14" width="22" height="25.8333" filterUnits="userSpaceOnUse" color-interpolation-filters="sRGB">
<feFlood flood-opacity="0" result="BackgroundImageFix"/>
<feColorMatrix in="SourceAlpha" type="matrix" values="0 0 0 0 0 0 0 0 0 0 0 0 0 0 0 0 0 0 127 0" result="hardAlpha"/>
<feOffset dy="4.83333"/>
<feGaussianBlur stdDeviation="2"/>
<feComposite in2="hardAlpha" operator="out"/>
<feColorMatrix type="matrix" values="0 0 0 0 0 0 0 0 0 0 0 0 0 0 0 0 0 0 0.1 0"/>
<feBlend mode="normal" in2="BackgroundImageFix" result="effect1_dropShadow_664_971"/>
<feBlend mode="normal" in="SourceGraphic" in2="effect1_dropShadow_664_971" result="shape"/>
</filter>
<linearGradient id="paint0_linear_664_971" x1="25.9699" y1="14.7083" x2="26.0147" y2="31" gradientUnits="userSpaceOnUse">
<stop offset="0.0376576" stop-color="#BF55F7"/>
<stop offset="0.395833" stop-color="#764FDB"/>
<stop offset="0.647338" stop-color="#8B69F1"/>
<stop offset="1" stop-color="#734FDA"/>
</linearGradient>
</defs>
</svg>
