<svg width="421" height="352" viewBox="0 0 421 352" fill="none" xmlns="http://www.w3.org/2000/svg">
<g filter="url(#filter0_d_664_813)">
<rect x="21" y="17" width="379" height="310" rx="20" fill="white"/>
<path d="M75.0179 282.784V297.248H76.2979V282.784H75.0179ZM72.5699 288.576V289.68H75.3539V288.576H72.5699ZM71.7379 283.104V296.512H72.9859V283.104H71.7379ZM64.5379 292.576V293.68H65.4819C67.6579 293.68 69.1139 293.616 70.8419 293.248L70.7139 292.144C69.0339 292.496 67.5939 292.576 65.4819 292.576H64.5379ZM64.5379 284.544V293.072H65.8499V285.632H69.9139V284.544H64.5379ZM82.0806 291.408V293.76H83.4086V291.408H82.0806ZM88.1606 282.784V297.248H89.4886V282.784H88.1606ZM89.0566 288.928V290.048H91.7286V288.928H89.0566ZM78.3526 294.496C80.8806 294.496 84.2726 294.48 87.3926 293.92L87.2806 292.928C84.2886 293.36 80.7526 293.392 78.1606 293.392L78.3526 294.496ZM78.4006 284.528V285.6H87.0566V284.528H78.4006ZM82.7366 286.448C80.7206 286.448 79.3446 287.504 79.3446 289.12C79.3446 290.752 80.7206 291.792 82.7366 291.792C84.7526 291.792 86.1446 290.752 86.1446 289.12C86.1446 287.504 84.7526 286.448 82.7366 286.448ZM82.7366 287.472C84.0326 287.472 84.8966 288.128 84.8966 289.12C84.8966 290.112 84.0326 290.768 82.7366 290.768C81.4406 290.768 80.5926 290.112 80.5926 289.12C80.5926 288.128 81.4406 287.472 82.7366 287.472ZM82.0806 282.8V285.248H83.4086V282.8H82.0806ZM99.2554 291.856C96.3114 291.856 94.5034 292.848 94.5034 294.544C94.5034 296.24 96.3114 297.232 99.2554 297.232C102.199 297.232 104.007 296.24 104.007 294.544C104.007 292.848 102.199 291.856 99.2554 291.856ZM99.2554 292.928C101.399 292.928 102.711 293.52 102.711 294.544C102.711 295.584 101.399 296.176 99.2554 296.176C97.1114 296.176 95.7994 295.584 95.7994 294.544C95.7994 293.52 97.1114 292.928 99.2554 292.928ZM102.535 282.784V291.472H103.863V282.784H102.535ZM103.495 286.416V287.536H106.007V286.416H103.495ZM93.2394 283.696V290.368H99.9274V283.696H98.6314V285.856H94.5514V283.696H93.2394ZM94.5514 286.912H98.6314V289.296H94.5514V286.912ZM113.486 283.024C110.286 283.024 108.398 283.92 108.398 285.536C108.398 287.152 110.286 288.048 113.486 288.048C116.67 288.048 118.574 287.152 118.574 285.536C118.574 283.92 116.67 283.024 113.486 283.024ZM113.486 284.032C115.838 284.032 117.198 284.576 117.198 285.536C117.198 286.496 115.838 287.04 113.486 287.04C111.118 287.04 109.758 286.496 109.758 285.536C109.758 284.576 111.118 284.032 113.486 284.032ZM106.942 289.008V290.08H120.014V289.008H106.942ZM108.526 291.312V292.336H117.038V293.616H108.558V296.336H109.87V294.576H118.35V291.312H108.526ZM108.558 296.048V297.088H118.782V296.048H108.558ZM131.217 287.664V289.616H132.529V287.664H131.217ZM126.737 291.344V292.336H130.129V293.664H126.769V296.592H128.017V294.608H131.377V291.344H126.737ZM132.289 291.344V297.088H136.929V291.344H132.289ZM135.793 292.32V296.112H133.425V292.32H135.793ZM126.769 296.096V297.088H127.537C129.569 297.088 130.561 297.088 131.857 296.832L131.745 295.84C130.513 296.08 129.521 296.096 127.537 296.096H126.769ZM125.345 289.136V290.208H138.417V289.136H125.345ZM131.889 282.96C128.689 282.96 126.801 283.856 126.801 285.504C126.801 287.152 128.689 288.064 131.889 288.064C135.073 288.064 136.977 287.152 136.977 285.504C136.977 283.856 135.073 282.96 131.889 282.96ZM131.889 283.968C134.241 283.968 135.601 284.528 135.601 285.504C135.601 286.48 134.241 287.04 131.889 287.04C129.537 287.04 128.161 286.48 128.161 285.504C128.161 284.528 129.537 283.968 131.889 283.968ZM145.64 284.336V284.56C145.64 288.368 143.768 291.44 139.672 293.472L140.376 294.512C145.144 292.16 146.936 288.464 146.936 284.336H145.64ZM140.296 284.336V285.424H146.296V284.336H140.296ZM150.232 282.768V297.232H151.56V282.768H150.232ZM146.408 286.736V287.808H150.504V286.736H146.408ZM146.248 290.624V291.712H150.344V290.624H146.248ZM158.794 292.576V293.696H159.898C162.65 293.696 164.394 293.6 166.474 293.216L166.33 292.128C164.314 292.512 162.586 292.576 159.898 292.576H158.794ZM158.794 284.16V292.992H160.106V285.248H165.37V284.16H158.794ZM168.666 282.784V297.28H169.994V282.784H168.666ZM164.522 288.016V289.12H169.21V288.016H164.522ZM186.669 282.784V297.248H187.981V282.784H186.669ZM187.229 288.432V289.536H189.901V288.432H187.229ZM176.733 284.128V293.744H180.733V284.128H179.629V287.84H177.869V284.128H176.733ZM177.869 288.896H179.629V292.656H177.869V288.896ZM181.501 284.128V293.744H185.453V284.128H184.333V287.84H182.621V284.128H181.501ZM182.621 288.896H184.333V292.656H182.621V288.896ZM190.788 294.32V295.44H203.892V294.32H190.788ZM192.372 283.888V284.976H200.964V287.216H192.42V291.168H193.732V288.272H202.276V283.888H192.372ZM192.42 290.608V291.696H202.612V290.608H192.42ZM216.107 282.784V297.248H217.387V282.784H216.107ZM209.835 288.688V289.76H213.483V288.688H209.835ZM213.099 283.152V296.512H214.347V283.152H213.099ZM210.011 284.608V284.848C210.011 288.256 208.491 291.136 205.083 293.184L205.867 294.128C209.771 291.808 211.291 288.4 211.291 284.608H210.011ZM205.723 284.608V285.696H210.507V284.608H205.723ZM224.093 284.08V290.784H230.733V284.08H224.093ZM229.437 285.152V289.712H225.389V285.152H229.437ZM233.389 282.768V293.376H234.717V282.768H233.389ZM234.301 287.184V288.288H236.861V287.184H234.301ZM225.709 295.84V296.928H235.373V295.84H225.709ZM225.709 292.368V296.304H227.037V292.368H225.709ZM247.7 282.784V290.08H249.028V282.784H247.7ZM248.66 285.776V286.88H251.172V285.776H248.66ZM238.5 283.408V288.96H239.828V283.408H238.5ZM238.5 288.256V289.376H239.636C241.78 289.376 243.94 289.232 246.372 288.736L246.212 287.632C243.86 288.112 241.7 288.256 239.636 288.256H238.5ZM239.844 290.768V291.84H247.716V293.312H239.876V296.528H241.188V294.336H249.028V290.768H239.844ZM239.876 295.984V297.056H249.556V295.984H239.876ZM262.055 283.296V284.096C262.055 286.16 259.511 287.888 256.871 288.288L257.399 289.36C260.407 288.848 263.223 286.864 263.223 284.096V283.296H262.055ZM262.295 283.296V284.096C262.295 286.832 265.127 288.848 268.103 289.36L268.631 288.288C266.023 287.888 263.447 286.112 263.447 284.096V283.296H262.295ZM262.055 291.744V297.248H263.367V291.744H262.055ZM256.215 290.928V292.032H269.287V290.928H256.215ZM278.218 291.68V292.464C278.218 293.856 277.13 295.408 275.306 296.064L275.978 297.056C278.058 296.256 279.242 294.352 279.242 292.464V291.68H278.218ZM278.506 291.68V292.464C278.506 294.384 279.45 296.368 281.53 297.184L282.09 296.176C280.362 295.472 279.498 293.92 279.498 292.464V291.68H278.506ZM283.562 291.68V292.464C283.562 293.712 282.682 295.392 280.97 296.176L281.53 297.184C283.594 296.304 284.554 294.16 284.554 292.464V291.68H283.562ZM283.834 291.68V292.464C283.834 294.464 284.986 296.288 287.098 297.056L287.77 296.064C285.93 295.44 284.858 293.952 284.858 292.464V291.68H283.834ZM285.13 282.8V291.056H286.474V282.8H285.13ZM278.714 283.632C276.522 283.632 274.938 285.008 274.938 287.008C274.938 289.008 276.522 290.368 278.714 290.368C280.906 290.368 282.474 289.008 282.474 287.008C282.474 285.008 280.906 283.632 278.714 283.632ZM278.714 284.736C280.154 284.736 281.194 285.664 281.194 287.008C281.194 288.352 280.154 289.264 278.714 289.264C277.274 289.264 276.234 288.352 276.234 287.008C276.234 285.664 277.274 284.736 278.714 284.736ZM290.576 289.536V290.624H300.512V289.536H290.576ZM288.928 294.32V295.44H302.032V294.32H288.928ZM294.784 290V294.768H296.112V290H294.784ZM290.576 283.936V290.016H291.904V285.024H300.368V283.936H290.576ZM303.223 290.736V291.824H316.343V290.736H303.223ZM304.887 283.152V284.192H313.351V285.68H304.919V288.608H306.231V286.656H314.647V283.152H304.887ZM304.919 288.176V289.216H314.967V288.176H304.919ZM309.111 288.72V291.28H310.439V288.72H309.111ZM304.679 292.928V294.016H313.415V297.12H314.743V292.928H304.679ZM331.434 282.784V297.248H332.762V282.784H331.434ZM332.442 288.72V289.84H335.13V288.72H332.442ZM321.562 285.088V286.176H330.09V285.088H321.562ZM325.882 287.376C323.85 287.376 322.362 288.752 322.362 290.704C322.362 292.656 323.85 294.032 325.882 294.032C327.93 294.032 329.402 292.656 329.402 290.704C329.402 288.752 327.93 287.376 325.882 287.376ZM325.882 288.48C327.194 288.48 328.138 289.392 328.138 290.704C328.138 292 327.194 292.928 325.882 292.928C324.57 292.928 323.626 292 323.626 290.704C323.626 289.392 324.57 288.48 325.882 288.48ZM325.194 282.96V285.584H326.522V282.96H325.194ZM341.649 287.952V289.056H344.417V287.952H341.649ZM338.945 284.144V286.896C338.945 289.376 337.761 291.968 335.777 293.136L336.609 294.144C338.721 292.848 339.985 289.92 339.985 286.896V284.144H338.945ZM339.201 284.144V286.848C339.201 289.664 340.369 292.544 342.449 293.824L343.217 292.784C341.313 291.632 340.225 289.168 340.225 286.848V284.144H339.201ZM346.961 282.784V297.248H348.241V282.784H346.961ZM344.033 283.088V296.528H345.281V283.088H344.033ZM353.463 290.224V294.56H354.775V290.224H353.463ZM358.807 290.224V294.56H360.135V290.224H358.807ZM350.263 294.304V295.408H363.367V294.304H350.263ZM356.791 283.696C353.719 283.696 351.527 285.152 351.527 287.424C351.527 289.68 353.719 291.136 356.791 291.136C359.847 291.136 362.039 289.68 362.039 287.424C362.039 285.152 359.847 283.696 356.791 283.696ZM356.791 284.752C359.111 284.752 360.759 285.808 360.759 287.424C360.759 289.024 359.111 290.08 356.791 290.08C354.471 290.08 352.807 289.024 352.807 287.424C352.807 285.808 354.471 284.752 356.791 284.752Z" fill="#956EF6" fill-opacity="0.7"/>
<path d="M168.001 237.88V240.6H170.641V237.88H168.001ZM160.961 236.38V238.48H177.701V236.38H160.961ZM162.821 240.06V242.16H173.021V245.76H175.681V240.06H162.821ZM168.001 227.28V230H170.641V227.28H168.001ZM167.841 230.2V230.58C167.841 232 166.121 233.46 161.661 233.74L162.461 235.72C167.501 235.36 170.181 233.4 170.181 230.58V230.2H167.841ZM168.461 230.2V230.58C168.461 233.4 171.121 235.36 176.182 235.72L176.981 233.74C172.521 233.46 170.801 232 170.801 230.58V230.2H168.461ZM162.561 228.94V231H176.102V228.94H162.561ZM190.832 227.26V245.78H193.472V227.26H190.832ZM192.872 234.48V236.7H196.152V234.48H192.872ZM178.872 230V232.12H189.652V230H178.872ZM184.292 233.16C181.592 233.16 179.592 235 179.592 237.58C179.592 240.16 181.592 242 184.292 242C186.992 242 188.992 240.16 188.992 237.58C188.992 235 186.992 233.16 184.292 233.16ZM184.292 235.32C185.552 235.32 186.452 236.16 186.452 237.58C186.452 239 185.552 239.84 184.292 239.84C183.032 239.84 182.132 239 182.132 237.58C182.132 236.16 183.032 235.32 184.292 235.32ZM182.952 227.56V230.8H185.612V227.56H182.952ZM208.862 227.26V238.1H211.522V227.26H208.862ZM210.462 231.7V233.9H213.982V231.7H210.462ZM199.482 238.82V245.58H211.522V238.82H208.882V240.22H202.102V238.82H199.482ZM202.102 242.22H208.882V243.5H202.102V242.22ZM196.942 228.86V230.96H207.842V228.86H196.942ZM202.402 231.46C199.702 231.46 197.842 232.78 197.842 234.74C197.842 236.7 199.702 238.02 202.402 238.02C205.082 238.02 206.942 236.7 206.942 234.74C206.942 232.78 205.082 231.46 202.402 231.46ZM202.402 233.4C203.582 233.4 204.402 233.88 204.402 234.74C204.402 235.62 203.582 236.08 202.402 236.08C201.202 236.08 200.402 235.62 200.402 234.74C200.402 233.88 201.202 233.4 202.402 233.4ZM201.062 227.12V230.04H203.722V227.12H201.062ZM227.753 227.26V245.78H230.413V227.26H227.753ZM215.913 229.02V240.52H218.553V229.02H215.913ZM215.913 238.96V241.22H217.553C220.373 241.22 223.433 241.02 226.613 240.36L226.313 238.16C223.253 238.76 220.253 238.96 217.553 238.96H215.913ZM244.763 227.24V245.82H247.443V227.24H244.763ZM246.843 234.1V236.28H250.123V234.1H246.843ZM233.643 239.16V241.36H235.203C238.423 241.36 240.963 241.28 243.763 240.78L243.503 238.58C240.783 239.06 238.323 239.16 235.203 239.16H233.643ZM233.643 228.96V240.22H236.283V231.1H242.283V228.96H233.643ZM254.581 229.455L254.347 239.724H252.06L251.832 229.455H254.581ZM253.203 244.156C252.772 244.156 252.403 244.005 252.095 243.702C251.792 243.399 251.641 243.029 251.641 242.594C251.641 242.168 251.792 241.803 252.095 241.5C252.403 241.197 252.772 241.045 253.203 241.045C253.625 241.045 253.989 241.197 254.297 241.5C254.609 241.803 254.766 242.168 254.766 242.594C254.766 242.883 254.692 243.145 254.545 243.382C254.403 243.619 254.214 243.808 253.977 243.95C253.745 244.088 253.487 244.156 253.203 244.156ZM134.126 262.58C130.266 262.58 127.846 263.92 127.846 266.18C127.846 268.46 130.266 269.8 134.126 269.8C137.966 269.8 140.386 268.46 140.386 266.18C140.386 263.92 137.966 262.58 134.126 262.58ZM134.126 264.66C136.486 264.66 137.746 265.14 137.746 266.18C137.746 267.24 136.486 267.74 134.126 267.74C131.766 267.74 130.486 267.24 130.486 266.18C130.486 265.14 131.766 264.66 134.126 264.66ZM137.506 251.26V262.16H140.166V251.26H137.506ZM139.426 255.56V257.76H142.626V255.56H139.426ZM126.126 252.44V261.14H135.026V252.44H132.386V254.72H128.766V252.44H126.126ZM128.766 256.78H132.386V259.06H128.766V256.78ZM156.277 251.24V269.82H158.957V251.24H156.277ZM148.977 252.54C146.177 252.54 144.117 255.1 144.117 259.14C144.117 263.22 146.177 265.78 148.977 265.78C151.777 265.78 153.837 263.22 153.837 259.14C153.837 255.1 151.777 252.54 148.977 252.54ZM148.977 254.96C150.357 254.96 151.277 256.42 151.277 259.14C151.277 261.9 150.357 263.38 148.977 263.38C147.597 263.38 146.657 261.9 146.657 259.14C146.657 256.42 147.597 254.96 148.977 254.96ZM169.46 252.38V254.52C169.46 256.6 168.44 258.88 165.86 260.02L167.26 262.08C170.28 260.8 171.54 257.66 171.54 254.52V252.38H169.46ZM169.94 252.38V254.52C169.94 257.54 171.16 260.34 174.04 261.48L175.46 259.46C173.02 258.5 172.02 256.5 172.02 254.52V252.38H169.94ZM179.38 251.28V262.58H181.9V251.28H179.38ZM177.16 255.76V257.9H180.1V255.76H177.16ZM175.46 251.62V262H177.94V251.62H175.46ZM175.62 262.84C171.72 262.84 169.26 264.14 169.26 266.32C169.26 268.48 171.72 269.78 175.62 269.78C179.5 269.78 182 268.48 182 266.32C182 264.14 179.5 262.84 175.62 262.84ZM175.62 264.84C178 264.84 179.32 265.34 179.32 266.32C179.32 267.3 178 267.78 175.62 267.78C173.24 267.78 171.9 267.3 171.9 266.32C171.9 265.34 173.24 264.84 175.62 264.84ZM188.41 252.22V253.88C188.41 256.42 187.11 258.92 183.95 259.94L185.33 262.08C188.97 260.86 190.63 257.6 190.63 253.88V252.22H188.41ZM188.97 252.22V253.76C188.97 257.36 190.45 260.34 193.87 261.52L195.25 259.44C192.31 258.5 191.11 256.22 191.11 253.76V252.22H188.97ZM196.95 251.26V262.1H199.61V251.26H196.95ZM193.33 262.58C189.41 262.58 186.99 263.92 186.99 266.18C186.99 268.46 189.41 269.78 193.33 269.78C197.25 269.78 199.67 268.46 199.67 266.18C199.67 263.92 197.25 262.58 193.33 262.58ZM193.33 264.64C195.75 264.64 197.03 265.14 197.03 266.18C197.03 267.22 195.75 267.74 193.33 267.74C190.93 267.74 189.65 267.22 189.65 266.18C189.65 265.14 190.93 264.64 193.33 264.64ZM193.57 254.62V256.78H197.33V254.62H193.57ZM207.914 258.76V260.88H217.594V258.76H207.914ZM211.394 260.48V264.38H214.074V260.48H211.394ZM207.914 252.9V259.42H210.574V255H217.474V252.9H207.914ZM219.454 251.24V269.82H222.114V251.24H219.454ZM207.054 266.16C210.494 266.18 214.634 266.14 218.634 265.52L218.434 263.58C214.634 264 210.274 264.02 206.734 264.02L207.054 266.16ZM229.024 262.34V263.04C229.024 264.88 228.024 266.76 225.604 267.6L226.904 269.54C229.804 268.48 231.044 265.88 231.044 263.04V262.34H229.024ZM229.704 262.34V263.04C229.704 265.8 230.764 268.62 233.704 269.72L234.804 267.78C232.504 266.82 231.624 264.88 231.624 263.04V262.34H229.704ZM235.784 262.34V263.04C235.784 264.7 234.884 266.72 232.604 267.78L233.704 269.72C236.604 268.56 237.684 265.62 237.684 263.04V262.34H235.784ZM236.404 262.34V263.04C236.404 266 237.604 268.52 240.524 269.54L241.864 267.6C239.384 266.82 238.404 265 238.404 263.04V262.34H236.404ZM233.664 255.54V257.7H238.044V255.54H233.664ZM229.764 252.2C226.984 252.2 224.884 254.06 224.884 256.64C224.884 259.22 226.984 261.08 229.764 261.08C232.524 261.08 234.644 259.22 234.644 256.64C234.644 254.06 232.524 252.2 229.764 252.2ZM229.764 254.4C231.104 254.4 232.104 255.24 232.104 256.64C232.104 258.04 231.104 258.88 229.764 258.88C228.404 258.88 227.424 258.04 227.424 256.64C227.424 255.24 228.404 254.4 229.764 254.4ZM237.484 251.26V261.62H240.144V251.26H237.484ZM244.595 262.36V269.58H257.275V262.36H254.635V263.92H247.215V262.36H244.595ZM247.215 265.9H254.635V267.5H247.215V265.9ZM242.635 259.34V261.44H259.375V259.34H242.635ZM249.655 251.46V252.02C249.655 253.9 247.635 255.96 243.455 256.46L244.395 258.52C249.175 257.9 251.935 255.24 251.935 252.02V251.46H249.655ZM250.095 251.46V252.02C250.095 255.22 252.835 257.9 257.615 258.52L258.555 256.46C254.395 255.96 252.375 253.88 252.375 252.02V251.46H250.095ZM273.445 251.26V269.78H276.105V251.26H273.445ZM261.605 253.02V264.52H264.245V253.02H261.605ZM261.605 262.96V265.22H263.245C266.065 265.22 269.125 265.02 272.305 264.36L272.005 262.16C268.945 262.76 265.945 262.96 263.245 262.96H261.605ZM290.455 251.24V269.82H293.135V251.24H290.455ZM292.535 258.1V260.28H295.815V258.1H292.535ZM279.335 263.16V265.36H280.895C284.115 265.36 286.655 265.28 289.455 264.78L289.195 262.58C286.475 263.06 284.015 263.16 280.895 263.16H279.335ZM279.335 252.96V264.22H281.975V255.1H287.975V252.96H279.335Z" fill="url(#paint0_linear_664_813)"/>
</g>
<path d="M21 37C21 25.9543 29.9543 17 41 17H380C391.046 17 400 25.9543 400 37V156H21V37Z" fill="url(#paint1_linear_664_813)"/>
<path d="M378 22.25C376.072 22.25 374.187 22.8218 372.583 23.8932C370.98 24.9645 369.73 26.4873 368.992 28.2688C368.254 30.0504 368.061 32.0108 368.437 33.9021C368.814 35.7934 369.742 37.5307 371.106 38.8943C372.469 40.2579 374.207 41.1865 376.098 41.5627C377.989 41.9389 379.95 41.7458 381.731 41.0078C383.513 40.2699 385.035 39.0202 386.107 37.4168C387.178 35.8134 387.75 33.9284 387.75 32C387.745 29.4157 386.716 26.9386 384.889 25.1112C383.061 23.2838 380.584 22.255 378 22.25ZM381.534 34.4656C381.675 34.6078 381.754 34.7999 381.754 35C381.754 35.2001 381.675 35.3922 381.534 35.5344C381.391 35.673 381.199 35.7505 381 35.7505C380.801 35.7505 380.609 35.673 380.466 35.5344L378 33.0594L375.534 35.5344C375.391 35.673 375.199 35.7505 375 35.7505C374.801 35.7505 374.609 35.673 374.466 35.5344C374.325 35.3922 374.246 35.2001 374.246 35C374.246 34.7999 374.325 34.6078 374.466 34.4656L376.941 32L374.466 29.5344C374.346 29.3887 374.285 29.2037 374.294 29.0154C374.303 28.8271 374.382 28.649 374.516 28.5157C374.649 28.3824 374.827 28.3034 375.015 28.2942C375.204 28.2849 375.389 28.346 375.534 28.4656L378 30.9406L380.466 28.4656C380.611 28.346 380.796 28.2849 380.985 28.2942C381.173 28.3034 381.351 28.3824 381.484 28.5157C381.618 28.649 381.697 28.8271 381.706 29.0154C381.715 29.2037 381.654 29.3887 381.534 29.5344L379.059 32L381.534 34.4656Z" fill="#37375B"/>
<path d="M218.472 113.214C214.615 111.887 206.778 107.297 205.658 96.0069C205.482 94.3288 204.002 93.0505 202.258 93.0066C189.194 92.6551 181.629 106.501 178.185 113.381C176.74 115.239 174.649 115.19 173.173 113.468C170.977 110.912 171.833 103.989 166.821 106.238C152.5 112.673 144 129.52 144 149.103C144 182.665 192.717 210.621 202.205 215.602C203.189 216.13 207.745 216.582 209.62 215.602C219.153 210.621 267 182.66 267 149.099C267 126.036 248.611 110.824 228.075 102.842C225.835 101.959 223.375 103.545 223.375 105.926L223.036 109.989C222.865 111.672 220.831 114.022 218.472 113.214Z" fill="url(#paint2_linear_664_813)"/>
<path d="M218.472 113.214C214.615 111.887 206.778 107.297 205.658 96.0069C205.482 94.3288 204.002 93.0505 202.258 93.0066C189.194 92.6551 181.629 106.501 178.185 113.381C176.74 115.239 174.649 115.19 173.173 113.468C170.977 110.912 171.833 103.989 166.821 106.238C152.5 112.673 144 129.52 144 149.103C144 182.665 192.717 210.621 202.205 215.602C203.189 216.13 207.745 216.582 209.62 215.602C219.153 210.621 267 182.66 267 149.099C267 126.036 248.611 110.824 228.075 102.842C225.835 101.959 223.375 103.545 223.375 105.926L223.036 109.989C222.865 111.672 220.831 114.022 218.472 113.214Z" fill="url(#paint3_linear_664_813)"/>
<path d="M218.472 113.214C214.615 111.887 206.778 107.297 205.658 96.0069C205.482 94.3288 204.002 93.0505 202.258 93.0066C189.194 92.6551 181.629 106.501 178.185 113.381C176.74 115.239 174.649 115.19 173.173 113.468C170.977 110.912 171.833 103.989 166.821 106.238C152.5 112.673 144 129.52 144 149.103C144 182.665 192.717 210.621 202.205 215.602C203.189 216.13 207.745 216.582 209.62 215.602C219.153 210.621 267 182.66 267 149.099C267 126.036 248.611 110.824 228.075 102.842C225.835 101.959 223.375 103.545 223.375 105.926L223.036 109.989C222.865 111.672 220.831 114.022 218.472 113.214Z" fill="url(#paint4_linear_664_813)"/>
<g filter="url(#filter1_f_664_813)">
<path d="M204.599 132.946C189.206 118.757 195.22 101.959 202.403 95.9143C202.653 95.7034 203.026 95.8572 203.092 96.1779C206.277 111.843 214.729 115.897 226.563 118.669C216.46 121.085 206.98 130.02 204.599 132.946Z" fill="url(#paint5_linear_664_813)"/>
</g>
<g filter="url(#filter2_f_664_813)">
<path d="M175.637 151.208C161.448 140.226 162.006 115.151 168.916 108.694C169.158 108.474 169.531 108.619 169.597 108.935C171.653 118.657 177.491 124.157 189.224 126.906C179.121 129.323 178.014 148.278 175.637 151.208Z" fill="url(#paint6_linear_664_813)" fill-opacity="0.5"/>
</g>
<g filter="url(#filter3_f_664_813)">
<path d="M202.13 97.1182C197.693 101.054 191.174 112.467 200.619 126.634" stroke="url(#paint7_linear_664_813)" stroke-width="0.25" stroke-linecap="round"/>
</g>
<g filter="url(#filter4_f_664_813)">
<path d="M168.358 109.475C164.514 116.196 165.612 132.397 173.3 142.693" stroke="url(#paint8_linear_664_813)" stroke-width="0.25" stroke-linecap="round"/>
</g>
<g filter="url(#filter5_f_664_813)">
<path d="M239.607 138.986C238.838 123.611 228.809 107.551 225.607 105.082C225.607 114.553 216.821 127.868 210.917 132.946L239.607 138.986Z" fill="url(#paint9_linear_664_813)"/>
</g>
<g filter="url(#filter6_f_664_813)">
<path d="M241.116 186.209L233.152 109.334C243.128 111.623 262.641 127.512 261.982 148.598C261.323 169.684 247.89 180.446 241.116 186.209Z" fill="url(#paint10_linear_664_813)"/>
</g>
<path d="M202.118 215.29C203.266 215.936 204.564 216.268 205.881 216.253C207.198 216.237 208.488 215.875 209.621 215.203C223.27 207.295 246.38 189.592 255.526 166.688C269.122 136.491 237.204 112.383 215.138 129.722C212.946 131.444 210.218 133.403 208.242 135.279C207.183 136.289 205.325 136.395 204.231 135.42C201.356 132.932 198.339 130.613 195.195 128.474C176.385 115.748 142.164 132.52 156.757 168.318C162.046 184.211 187.024 206.676 202.118 215.29Z" fill="url(#paint11_radial_664_813)"/>
<path d="M202.118 215.29C203.266 215.936 204.564 216.268 205.881 216.253C207.198 216.237 208.488 215.875 209.621 215.203C223.27 207.295 246.38 189.592 255.526 166.688C269.122 136.491 237.204 112.383 215.138 129.722C212.946 131.444 210.218 133.403 208.242 135.279C207.183 136.289 205.325 136.395 204.231 135.42C201.356 132.932 198.339 130.613 195.195 128.474C176.385 115.748 142.164 132.52 156.757 168.318C162.046 184.211 187.024 206.676 202.118 215.29Z" fill="url(#paint12_radial_664_813)"/>
<path d="M202.118 215.29C203.266 215.936 204.564 216.268 205.881 216.253C207.198 216.237 208.488 215.875 209.621 215.203C223.27 207.295 246.38 189.592 255.526 166.688C269.122 136.491 237.204 112.383 215.138 129.722C212.946 131.444 210.218 133.403 208.242 135.279C207.183 136.289 205.325 136.395 204.231 135.42C201.356 132.932 198.339 130.613 195.195 128.474C176.385 115.748 142.164 132.52 156.757 168.318C162.046 184.211 187.024 206.676 202.118 215.29Z" fill="url(#paint13_radial_664_813)"/>
<path d="M202.118 215.29C203.266 215.936 204.564 216.268 205.881 216.253C207.198 216.237 208.488 215.875 209.621 215.203C223.27 207.295 246.38 189.592 255.526 166.688C269.122 136.491 237.204 112.383 215.138 129.722C212.946 131.444 210.218 133.403 208.242 135.279C207.183 136.289 205.325 136.395 204.231 135.42C201.356 132.932 198.339 130.613 195.195 128.474C176.385 115.748 142.164 132.52 156.757 168.318C162.046 184.211 187.024 206.676 202.118 215.29Z" fill="url(#paint14_radial_664_813)"/>
<path d="M202.118 215.29C203.266 215.936 204.564 216.268 205.881 216.253C207.198 216.237 208.488 215.875 209.621 215.203C223.27 207.295 246.38 189.592 255.526 166.688C269.122 136.491 237.204 112.383 215.138 129.722C212.946 131.444 210.218 133.403 208.242 135.279C207.183 136.289 205.325 136.395 204.231 135.42C201.356 132.932 198.339 130.613 195.195 128.474C176.385 115.748 142.164 132.52 156.757 168.318C162.046 184.211 187.024 206.676 202.118 215.29Z" fill="url(#paint15_linear_664_813)"/>
<path d="M202.118 215.29C203.266 215.936 204.564 216.268 205.881 216.253C207.198 216.237 208.488 215.875 209.621 215.203C223.27 207.295 246.38 189.592 255.526 166.688C269.122 136.491 237.204 112.383 215.138 129.722C212.946 131.444 210.218 133.403 208.242 135.279C207.183 136.289 205.325 136.395 204.231 135.42C201.356 132.932 198.339 130.613 195.195 128.474C176.385 115.748 142.164 132.52 156.757 168.318C162.046 184.211 187.024 206.676 202.118 215.29Z" fill="url(#paint16_linear_664_813)"/>
<path d="M202.118 215.29C203.266 215.936 204.564 216.268 205.881 216.253C207.198 216.237 208.488 215.875 209.621 215.203C223.27 207.295 246.38 189.592 255.526 166.688C269.122 136.491 237.204 112.383 215.138 129.722C212.946 131.444 210.218 133.403 208.242 135.279C207.183 136.289 205.325 136.395 204.231 135.42C201.356 132.932 198.339 130.613 195.195 128.474C176.385 115.748 142.164 132.52 156.757 168.318C162.046 184.211 187.024 206.676 202.118 215.29Z" fill="url(#paint17_radial_664_813)" fill-opacity="0.6"/>
<g filter="url(#filter7_f_664_813)">
<path d="M208.246 145.423V169.395C208.246 173.366 213.056 175.246 215.472 172.087C221.626 164.035 226.19 154.516 220.524 146.675C218.318 143.622 214.154 141.623 210.648 142.084C209.089 142.291 208.246 143.846 208.246 145.423Z" fill="#FA1C56"/>
</g>
<g filter="url(#filter8_f_664_813)">
<path d="M246.682 155.209C252.925 149.14 254.601 140.737 250.424 136.44C246.247 132.143 237.799 133.58 231.556 139.649C225.312 145.718 223.637 154.122 227.814 158.419C231.991 162.716 240.439 161.279 246.682 155.209Z" fill="url(#paint18_radial_664_813)"/>
</g>
<g filter="url(#filter9_f_664_813)">
<path d="M204.278 148.449C197.988 140.669 189.486 137.113 185.288 140.506C181.09 143.9 182.787 152.959 189.077 160.739C195.367 168.52 203.87 172.076 208.068 168.682C212.265 165.288 210.569 156.23 204.278 148.449Z" fill="url(#paint19_radial_664_813)" fill-opacity="0.6"/>
</g>
<g filter="url(#filter10_f_664_813)">
<path d="M232.985 130.201C237.252 130.201 240.712 129.528 240.712 128.698C240.712 127.868 237.252 127.196 232.985 127.196C228.717 127.196 225.258 127.868 225.258 128.698C225.258 129.528 228.717 130.201 232.985 130.201Z" fill="#FF93BA"/>
</g>
<g filter="url(#filter11_f_664_813)">
<path d="M180.663 130.201C184.931 130.201 188.39 129.528 188.39 128.699C188.39 127.869 184.931 127.196 180.663 127.196C176.396 127.196 172.936 127.869 172.936 128.699C172.936 129.528 176.396 130.201 180.663 130.201Z" fill="#FF93BA" fill-opacity="0.5"/>
</g>
<path d="M72 56.1418C72 56.1418 70.8016 48.6364 70.8016 48.1135C70.8016 47.5906 71.3392 47.1657 72 47.1657C72.6608 47.1657 73.1984 47.5899 73.1984 48.1135C73.1984 48.6371 72 56.1418 72 56.1418ZM72 57.8939C72 57.8939 73.1984 65.3986 73.1984 65.9222C73.1984 66.4458 72.6608 66.87 72 66.87C71.3392 66.87 70.8016 66.4465 70.8016 65.9222C70.8016 65.3979 72 57.8939 72 57.8939ZM71.1236 57.0175C71.1236 57.0175 63.6189 58.2159 63.096 58.2159C62.5724 58.2159 62.1482 57.679 62.1482 57.0175C62.1482 56.3567 62.5724 55.8198 63.096 55.8198C63.6189 55.8198 71.1236 57.0175 71.1236 57.0175ZM72.8764 57.0175C72.8764 57.0175 80.3811 55.8198 80.9047 55.8198C81.4276 55.8198 81.8525 56.3567 81.8525 57.0175C81.8525 57.679 81.4283 58.2159 80.9047 58.2159C80.3811 58.2159 72.8764 57.0175 72.8764 57.0175ZM71.3798 56.3987C71.3798 56.3987 65.2261 51.9397 64.8572 51.5694C64.4869 51.1998 64.566 50.5201 65.0343 50.0525C65.5019 49.5849 66.1809 49.5058 66.5512 49.8754C66.9201 50.245 71.3798 56.3987 71.3798 56.3987ZM72.6202 57.6377C72.6202 57.6377 78.7739 62.0967 79.1428 62.467C79.5131 62.8373 79.434 63.5163 78.9657 63.9846C78.4981 64.4522 77.8191 64.5313 77.4488 64.161C77.0799 63.7907 72.6202 57.6377 72.6202 57.6377ZM71.3798 57.6377C71.3798 57.6377 66.9201 63.7907 66.5512 64.161C66.1809 64.5313 65.5019 64.4522 65.0343 63.9846C64.566 63.5163 64.4869 62.8373 64.8572 62.467C65.2261 62.0967 71.3798 57.6377 71.3798 57.6377ZM72.6202 56.3987C72.6202 56.3987 77.0799 50.245 77.4488 49.8754C77.8191 49.5058 78.4981 49.5849 78.9657 50.0525C79.434 50.5201 79.5131 51.1998 79.1428 51.5694C78.7739 51.9397 72.6202 56.3987 72.6202 56.3987ZM71.4092 55.5566C71.4092 55.5566 65.2387 43.4802 64.8859 42.6066C64.5331 41.733 64.7438 40.8244 65.357 40.5766C65.9709 40.3288 66.7535 40.8363 67.1063 41.7099C67.4591 42.5821 71.4092 55.5566 71.4092 55.5566ZM72.5908 58.4805C72.5908 58.4805 78.7613 70.5562 79.1141 71.4305C79.4669 72.3034 79.2562 73.212 78.643 73.4591C78.0291 73.7076 77.2465 73.2008 76.8937 72.3272C76.5409 71.4536 72.5908 58.4805 72.5908 58.4805ZM70.5377 57.609C70.5377 57.609 58.4613 63.7795 57.5877 64.1323C56.7141 64.4858 55.8055 64.2744 55.5577 63.6605C55.3099 63.048 55.8174 62.264 56.691 61.9112C57.5639 61.5584 70.5377 57.609 70.5377 57.609ZM73.4623 56.4274C73.4623 56.4274 85.5387 50.2569 86.4123 49.9041C87.2859 49.5506 88.1945 49.7627 88.4423 50.3759C88.6901 50.9891 88.1826 51.7724 87.309 52.1252C86.4361 52.4773 73.4623 56.4274 73.4623 56.4274ZM70.5482 56.4022C70.5482 56.4022 57.6451 52.2267 56.7785 51.8585C55.9119 51.491 55.4184 50.6993 55.6767 50.0896C55.935 49.4813 56.8485 49.286 57.7151 49.6542C58.5817 50.021 70.5482 56.4022 70.5482 56.4022ZM73.4518 57.6342C73.4518 57.6342 86.3549 61.8097 87.2215 62.1772C88.0881 62.5454 88.5816 63.3378 88.3233 63.9461C88.065 64.5558 87.1515 64.7511 86.2849 64.3822C85.4183 64.0147 73.4518 57.6342 73.4518 57.6342ZM71.384 58.47C71.384 58.47 67.2085 71.3731 66.8403 72.2404C66.4721 73.107 65.6804 73.6005 65.0714 73.3422C64.4624 73.0832 64.2678 72.1704 64.6346 71.3038C65.0035 70.4365 71.384 58.47 71.384 58.47ZM72.616 55.5664C72.616 55.5664 76.7915 42.6633 77.1597 41.7967C77.5279 40.9294 78.3196 40.4366 78.9286 40.6949C79.5376 40.9532 79.7329 41.8653 79.3654 42.7326C78.9965 43.5999 72.616 55.5664 72.616 55.5664ZM72.0042 67.5476C72.0042 67.5476 73.204 76.2864 73.204 76.8954C73.204 77.5044 72.6678 78 72.0063 78C71.3448 78 70.8086 77.5065 70.8086 76.8968C70.8086 76.2871 72.0042 67.5476 72.0042 67.5476ZM71.9965 45.7685C71.9965 45.7685 70.796 37.6009 70.796 37.0318C70.796 36.4627 71.3322 36 71.9937 36C72.6552 36 73.1914 36.4613 73.1914 37.0311C73.1914 37.6009 71.9965 45.7685 71.9965 45.7685ZM79.4613 64.455C79.4613 64.455 86.4893 69.7862 86.9191 70.2167C87.351 70.6479 87.3209 71.3759 86.8533 71.8442C86.3857 72.3118 85.657 72.3419 85.2265 71.9114C84.7953 71.4816 79.4613 64.455 79.4613 64.455ZM64.0557 49.0606C64.0557 49.0606 57.4316 44.134 57.0284 43.7315C56.6259 43.3283 56.6784 42.6227 57.146 42.1551C57.6136 41.6868 58.3199 41.6343 58.7224 42.0375C59.1256 42.4393 64.0557 49.0606 64.0557 49.0606ZM79.4613 49.5443C79.4613 49.5443 84.7953 42.5191 85.2265 42.0886C85.657 41.6574 86.3857 41.6875 86.8533 42.1558C87.3209 42.6234 87.351 43.3521 86.9191 43.7826C86.4893 44.2124 79.4613 49.5443 79.4613 49.5443ZM64.0557 64.9387C64.0557 64.9387 59.1256 71.5607 58.7224 71.9625C58.3199 72.3657 57.6136 72.3125 57.146 71.8449C56.6784 71.3766 56.6259 70.671 57.0284 70.2685C57.4316 69.866 64.0557 64.9387 64.0557 64.9387ZM82.5476 56.9958C82.5476 56.9958 91.2864 55.796 91.8961 55.796C92.5058 55.7953 93 56.3322 93 56.993C93.0007 57.6545 92.5072 58.1914 91.8975 58.1914C91.2878 58.1921 82.5476 56.9958 82.5476 56.9958ZM60.7692 57.0042C60.7692 57.0042 52.6002 58.2033 52.0318 58.204C51.4613 58.204 51 57.6671 51 57.0063C51 56.3448 51.4613 55.8079 52.0318 55.8079C52.6002 55.8079 60.7692 57.0042 60.7692 57.0042Z" fill="#CFC894"/>
<path d="M371.5 69.8257C371.5 69.8257 370.558 63.9286 370.558 63.5178C370.558 63.1069 370.981 62.7731 371.5 62.7731C372.019 62.7731 372.442 63.1063 372.442 63.5178C372.442 63.9292 371.5 69.8257 371.5 69.8257ZM371.5 71.2024C371.5 71.2024 372.442 77.0989 372.442 77.5103C372.442 77.9217 372.019 78.255 371.5 78.255C370.981 78.255 370.558 77.9222 370.558 77.5103C370.558 77.0984 371.5 71.2024 371.5 71.2024ZM370.811 70.5138C370.811 70.5138 364.915 71.4554 364.504 71.4554C364.093 71.4554 363.759 71.0335 363.759 70.5138C363.759 69.9946 364.093 69.5727 364.504 69.5727C364.915 69.5727 370.811 70.5138 370.811 70.5138ZM372.189 70.5138C372.189 70.5138 378.085 69.5727 378.497 69.5727C378.907 69.5727 379.241 69.9946 379.241 70.5138C379.241 71.0335 378.908 71.4554 378.497 71.4554C378.085 71.4554 372.189 70.5138 372.189 70.5138ZM371.013 70.0276C371.013 70.0276 366.178 66.5241 365.888 66.2331C365.597 65.9427 365.659 65.4087 366.027 65.0413C366.394 64.6739 366.928 64.6117 367.219 64.9021C367.509 65.1925 371.013 70.0276 371.013 70.0276ZM371.987 71.001C371.987 71.001 376.822 74.5046 377.112 74.7955C377.403 75.0865 377.341 75.62 376.973 75.9879C376.606 76.3553 376.072 76.4174 375.781 76.1265C375.491 75.8356 371.987 71.001 371.987 71.001ZM371.013 71.001C371.013 71.001 367.509 75.8356 367.219 76.1265C366.928 76.4174 366.394 76.3553 366.027 75.9879C365.659 75.62 365.597 75.0865 365.888 74.7955C366.178 74.5046 371.013 71.001 371.013 71.001ZM371.987 70.0276C371.987 70.0276 375.491 65.1925 375.781 64.9021C376.072 64.6117 376.606 64.6739 376.973 65.0413C377.341 65.4087 377.403 65.9427 377.112 66.2331C376.822 66.5241 371.987 70.0276 371.987 70.0276ZM371.036 69.3659C371.036 69.3659 366.188 59.8773 365.91 59.1909C365.633 58.5045 365.799 57.7906 366.281 57.5959C366.763 57.4012 367.378 57.7999 367.655 58.4864C367.932 59.1716 371.036 69.3659 371.036 69.3659ZM371.964 71.6633C371.964 71.6633 376.812 81.1513 377.09 81.8383C377.367 82.5241 377.201 83.238 376.72 83.4322C376.237 83.6274 375.622 83.2292 375.345 82.5428C375.068 81.8564 371.964 71.6633 371.964 71.6633ZM370.351 70.9785C370.351 70.9785 360.862 75.8267 360.176 76.104C359.49 76.3817 358.776 76.2156 358.581 75.7332C358.386 75.252 358.785 74.636 359.472 74.3588C360.157 74.0816 370.351 70.9785 370.351 70.9785ZM372.649 70.0501C372.649 70.0501 382.138 65.2019 382.824 64.9247C383.51 64.6469 384.224 64.8136 384.419 65.2954C384.614 65.7772 384.215 66.3926 383.528 66.6698C382.843 66.9465 372.649 70.0501 372.649 70.0501ZM370.359 70.0303C370.359 70.0303 360.221 66.7496 359.54 66.4603C358.859 66.1715 358.472 65.5494 358.675 65.0704C358.878 64.5925 359.595 64.439 360.276 64.7283C360.957 65.0165 370.359 70.0303 370.359 70.0303ZM372.641 70.9983C372.641 70.9983 382.779 74.2791 383.46 74.5678C384.141 74.8571 384.528 75.4797 384.325 75.9577C384.123 76.4367 383.405 76.5902 382.724 76.3003C382.043 76.0116 372.641 70.9983 372.641 70.9983ZM371.016 71.655C371.016 71.655 367.735 81.7931 367.446 82.4746C367.157 83.1555 366.535 83.5433 366.056 83.3403C365.578 83.1368 365.425 82.4196 365.713 81.7387C366.003 81.0572 371.016 71.655 371.016 71.655ZM371.984 69.3736C371.984 69.3736 375.265 59.2355 375.554 58.5546C375.843 57.8731 376.465 57.4859 376.944 57.6888C377.422 57.8918 377.576 58.6084 377.287 59.2899C376.997 59.9714 371.984 69.3736 371.984 69.3736ZM371.503 78.7874C371.503 78.7874 372.446 85.6536 372.446 86.1321C372.446 86.6106 372.025 87 371.505 87C370.985 87 370.564 86.6123 370.564 86.1332C370.564 85.6542 371.503 78.7874 371.503 78.7874ZM371.497 61.6753C371.497 61.6753 370.554 55.2579 370.554 54.8107C370.554 54.3635 370.975 54 371.495 54C372.015 54 372.436 54.3625 372.436 54.8102C372.436 55.2579 371.497 61.6753 371.497 61.6753ZM377.362 76.3575C377.362 76.3575 382.884 80.5463 383.222 80.8846C383.562 81.2234 383.538 81.7954 383.17 82.1633C382.803 82.5307 382.231 82.5543 381.892 82.2161C381.553 81.8784 377.362 76.3575 377.362 76.3575ZM365.258 64.2619C365.258 64.2619 360.053 60.391 359.737 60.0747C359.42 59.758 359.462 59.2036 359.829 58.8362C360.196 58.4682 360.751 58.4269 361.068 58.7438C361.384 59.0595 365.258 64.2619 365.258 64.2619ZM377.362 64.642C377.362 64.642 381.553 59.1221 381.892 58.7839C382.231 58.4451 382.803 58.4688 383.17 58.8367C383.538 59.2041 383.562 59.7766 383.222 60.1149C382.884 60.4526 377.362 64.642 377.362 64.642ZM365.258 76.7376C365.258 76.7376 361.384 81.9405 361.068 82.2563C360.751 82.5731 360.196 82.5313 359.829 82.1639C359.462 81.7959 359.42 81.2415 359.737 80.9253C360.053 80.609 365.258 76.7376 365.258 76.7376ZM379.787 70.4967C379.787 70.4967 386.654 69.554 387.133 69.554C387.612 69.5535 388 69.9753 388 70.4945C388.001 71.0142 387.613 71.4361 387.134 71.4361C386.655 71.4366 379.787 70.4967 379.787 70.4967ZM362.676 70.5033C362.676 70.5033 356.257 71.4455 355.811 71.446C355.362 71.446 355 71.0241 355 70.5049C355 69.9852 355.362 69.5634 355.811 69.5634C356.257 69.5634 362.676 70.5033 362.676 70.5033Z" fill="#C574B1"/>
<rect x="273" y="90.5391" width="8" height="8" transform="rotate(-18.5034 273 90.5391)" fill="#EAD959"/>
<rect x="120.525" y="128" width="8" height="8" transform="rotate(18.4045 120.525 128)" fill="#E6D778"/>
<rect x="130" y="91.2568" width="5.53337" height="5.53337" transform="rotate(-36.0572 130 91.2568)" fill="#DCCBF2"/>
<path d="M298.998 137.465L293 133.998L299.002 130.537L298.998 137.465Z" fill="#BB77B6"/>
<path d="M321.164 86.82L316.097 82.0952L322.722 80.0693L321.164 86.82Z" fill="#FFE940"/>
<path d="M122.164 49.82L117.097 45.0952L123.722 43.0693L122.164 49.82Z" fill="#FFE940"/>
<path d="M74.5844 125.665L69.0209 121.536L75.3783 118.782L74.5844 125.665Z" fill="#FFE940"/>
<circle cx="267.5" cy="44.5" r="3.5" stroke="#D5B8EF" stroke-width="1.90909"/>
<circle cx="339.5" cy="112.5" r="3.5" stroke="#D5B8EF" stroke-width="1.90909"/>
<circle cx="189" cy="54" r="3" stroke="#FECB5B" stroke-width="1.90909"/>
<defs>
<filter id="filter0_d_664_813" x="0" y="0" width="421" height="352" filterUnits="userSpaceOnUse" color-interpolation-filters="sRGB">
<feFlood flood-opacity="0" result="BackgroundImageFix"/>
<feColorMatrix in="SourceAlpha" type="matrix" values="0 0 0 0 0 0 0 0 0 0 0 0 0 0 0 0 0 0 127 0" result="hardAlpha"/>
<feOffset dy="4"/>
<feGaussianBlur stdDeviation="10.5"/>
<feComposite in2="hardAlpha" operator="out"/>
<feColorMatrix type="matrix" values="0 0 0 0 0.732537 0 0 0 0 0.625 0 0 0 0 1 0 0 0 0.3 0"/>
<feBlend mode="normal" in2="BackgroundImageFix" result="effect1_dropShadow_664_813"/>
<feBlend mode="normal" in="SourceGraphic" in2="effect1_dropShadow_664_813" result="shape"/>
</filter>
<filter id="filter1_f_664_813" x="193.976" y="94.8174" width="33.5869" height="39.1289" filterUnits="userSpaceOnUse" color-interpolation-filters="sRGB">
<feFlood flood-opacity="0" result="BackgroundImageFix"/>
<feBlend mode="normal" in="SourceGraphic" in2="BackgroundImageFix" result="shape"/>
<feGaussianBlur stdDeviation="0.5" result="effect1_foregroundBlur_664_813"/>
</filter>
<filter id="filter2_f_664_813" x="163.192" y="107.588" width="27.0317" height="44.6191" filterUnits="userSpaceOnUse" color-interpolation-filters="sRGB">
<feFlood flood-opacity="0" result="BackgroundImageFix"/>
<feBlend mode="normal" in="SourceGraphic" in2="BackgroundImageFix" result="shape"/>
<feGaussianBlur stdDeviation="0.5" result="effect1_foregroundBlur_664_813"/>
</filter>
<filter id="filter3_f_664_813" x="195.151" y="96.4932" width="7.60352" height="30.7656" filterUnits="userSpaceOnUse" color-interpolation-filters="sRGB">
<feFlood flood-opacity="0" result="BackgroundImageFix"/>
<feBlend mode="normal" in="SourceGraphic" in2="BackgroundImageFix" result="shape"/>
<feGaussianBlur stdDeviation="0.25" result="effect1_foregroundBlur_664_813"/>
</filter>
<filter id="filter4_f_664_813" x="165.579" y="108.85" width="8.3457" height="34.4688" filterUnits="userSpaceOnUse" color-interpolation-filters="sRGB">
<feFlood flood-opacity="0" result="BackgroundImageFix"/>
<feBlend mode="normal" in="SourceGraphic" in2="BackgroundImageFix" result="shape"/>
<feGaussianBlur stdDeviation="0.25" result="effect1_foregroundBlur_664_813"/>
</filter>
<filter id="filter5_f_664_813" x="209.667" y="103.832" width="31.1899" height="36.4043" filterUnits="userSpaceOnUse" color-interpolation-filters="sRGB">
<feFlood flood-opacity="0" result="BackgroundImageFix"/>
<feBlend mode="normal" in="SourceGraphic" in2="BackgroundImageFix" result="shape"/>
<feGaussianBlur stdDeviation="0.625" result="effect1_foregroundBlur_664_813"/>
</filter>
<filter id="filter6_f_664_813" x="232.152" y="108.334" width="30.8467" height="78.875" filterUnits="userSpaceOnUse" color-interpolation-filters="sRGB">
<feFlood flood-opacity="0" result="BackgroundImageFix"/>
<feBlend mode="normal" in="SourceGraphic" in2="BackgroundImageFix" result="shape"/>
<feGaussianBlur stdDeviation="0.5" result="effect1_foregroundBlur_664_813"/>
</filter>
<filter id="filter7_f_664_813" x="206.246" y="140.018" width="18.8584" height="35.6602" filterUnits="userSpaceOnUse" color-interpolation-filters="sRGB">
<feFlood flood-opacity="0" result="BackgroundImageFix"/>
<feBlend mode="normal" in="SourceGraphic" in2="BackgroundImageFix" result="shape"/>
<feGaussianBlur stdDeviation="1" result="effect1_foregroundBlur_664_813"/>
</filter>
<filter id="filter8_f_664_813" x="224.016" y="132.463" width="30.2056" height="29.9316" filterUnits="userSpaceOnUse" color-interpolation-filters="sRGB">
<feFlood flood-opacity="0" result="BackgroundImageFix"/>
<feBlend mode="normal" in="SourceGraphic" in2="BackgroundImageFix" result="shape"/>
<feGaussianBlur stdDeviation="0.75" result="effect1_foregroundBlur_664_813"/>
</filter>
<filter id="filter9_f_664_813" x="181.483" y="137.721" width="30.3887" height="33.7471" filterUnits="userSpaceOnUse" color-interpolation-filters="sRGB">
<feFlood flood-opacity="0" result="BackgroundImageFix"/>
<feBlend mode="normal" in="SourceGraphic" in2="BackgroundImageFix" result="shape"/>
<feGaussianBlur stdDeviation="0.75" result="effect1_foregroundBlur_664_813"/>
</filter>
<filter id="filter10_f_664_813" x="223.758" y="125.696" width="18.4541" height="6.00488" filterUnits="userSpaceOnUse" color-interpolation-filters="sRGB">
<feFlood flood-opacity="0" result="BackgroundImageFix"/>
<feBlend mode="normal" in="SourceGraphic" in2="BackgroundImageFix" result="shape"/>
<feGaussianBlur stdDeviation="0.75" result="effect1_foregroundBlur_664_813"/>
</filter>
<filter id="filter11_f_664_813" x="171.436" y="125.696" width="18.4541" height="6.00488" filterUnits="userSpaceOnUse" color-interpolation-filters="sRGB">
<feFlood flood-opacity="0" result="BackgroundImageFix"/>
<feBlend mode="normal" in="SourceGraphic" in2="BackgroundImageFix" result="shape"/>
<feGaussianBlur stdDeviation="0.75" result="effect1_foregroundBlur_664_813"/>
</filter>
<linearGradient id="paint0_linear_664_813" x1="152.044" y1="225" x2="155.144" y2="273.422" gradientUnits="userSpaceOnUse">
<stop stop-color="#7373F6"/>
<stop offset="0.361458" stop-color="#8B70F7"/>
<stop offset="0.634552" stop-color="#956EF6"/>
<stop offset="1" stop-color="#A869F7"/>
</linearGradient>
<linearGradient id="paint1_linear_664_813" x1="27.5" y1="17" x2="400" y2="17" gradientUnits="userSpaceOnUse">
<stop stop-color="#3929A9"/>
<stop offset="1" stop-color="#9059BF"/>
</linearGradient>
<linearGradient id="paint2_linear_664_813" x1="223.818" y1="154.59" x2="182.635" y2="87.6473" gradientUnits="userSpaceOnUse">
<stop stop-color="#F8EC1D"/>
<stop offset="0.721" stop-color="#F89C20"/>
<stop offset="1" stop-color="#F5891F"/>
</linearGradient>
<linearGradient id="paint3_linear_664_813" x1="179.068" y1="161.228" x2="153.533" y2="191.978" gradientUnits="userSpaceOnUse">
<stop stop-color="#F89C20" stop-opacity="0"/>
<stop offset="1" stop-color="#F5891F"/>
</linearGradient>
<linearGradient id="paint4_linear_664_813" x1="237.546" y1="148.049" x2="225.466" y2="216.182" gradientUnits="userSpaceOnUse">
<stop stop-color="#F89C20" stop-opacity="0"/>
<stop offset="1" stop-color="#F5891F"/>
</linearGradient>
<linearGradient id="paint5_linear_664_813" x1="200.206" y1="105.631" x2="219.425" y2="142.145" gradientUnits="userSpaceOnUse">
<stop stop-color="#FFD56C"/>
<stop offset="1" stop-color="#FFD56C" stop-opacity="0"/>
</linearGradient>
<linearGradient id="paint6_linear_664_813" x1="165.064" y1="121.622" x2="184.282" y2="158.14" gradientUnits="userSpaceOnUse">
<stop stop-color="#FFD56C"/>
<stop offset="1" stop-color="#FFD56C" stop-opacity="0"/>
</linearGradient>
<linearGradient id="paint7_linear_664_813" x1="198.954" y1="97.1182" x2="198.954" y2="111.874" gradientUnits="userSpaceOnUse">
<stop stop-color="#FFE39D"/>
<stop offset="1" stop-color="#FFDD89" stop-opacity="0"/>
</linearGradient>
<linearGradient id="paint8_linear_664_813" x1="165.182" y1="109.475" x2="165.182" y2="124.23" gradientUnits="userSpaceOnUse">
<stop stop-color="#FFE39D"/>
<stop offset="1" stop-color="#FFDD89" stop-opacity="0"/>
</linearGradient>
<linearGradient id="paint9_linear_664_813" x1="228.761" y1="106.18" x2="228.761" y2="132.81" gradientUnits="userSpaceOnUse">
<stop stop-color="#F89C20"/>
<stop offset="1" stop-color="#F89C20" stop-opacity="0"/>
</linearGradient>
<linearGradient id="paint10_linear_664_813" x1="262" y1="147.772" x2="214.689" y2="122.548" gradientUnits="userSpaceOnUse">
<stop stop-color="#FFE39E"/>
<stop offset="1" stop-color="#FFE39E" stop-opacity="0"/>
</linearGradient>
<radialGradient id="paint11_radial_664_813" cx="0" cy="0" r="1" gradientUnits="userSpaceOnUse" gradientTransform="translate(202.056 93.1383) rotate(88.548) scale(121.941 125.57)">
<stop stop-color="#F12E52"/>
<stop offset="0.677" stop-color="#FF3B79"/>
<stop offset="1" stop-color="#FF4EC6"/>
</radialGradient>
<radialGradient id="paint12_radial_664_813" cx="0" cy="0" r="1" gradientUnits="userSpaceOnUse" gradientTransform="translate(232.201 148.005) rotate(142.986) scale(99.3445 186.082)">
<stop offset="0.483" stop-color="#B91D43" stop-opacity="0"/>
<stop offset="0.834" stop-color="#B91D43"/>
</radialGradient>
<radialGradient id="paint13_radial_664_813" cx="0" cy="0" r="1" gradientUnits="userSpaceOnUse" gradientTransform="translate(220.734 172.344) rotate(-158.663) scale(86.1729 121.817)">
<stop offset="0.41" stop-color="#B91D43" stop-opacity="0"/>
<stop offset="0.834" stop-color="#B91D43"/>
</radialGradient>
<radialGradient id="paint14_radial_664_813" cx="0" cy="0" r="1" gradientUnits="userSpaceOnUse" gradientTransform="translate(203.928 157.296) rotate(90) scale(74.9988 74.9988)">
<stop offset="0.671" stop-color="#FF7AF2" stop-opacity="0"/>
<stop offset="0.934" stop-color="#FFBCE6"/>
</radialGradient>
<linearGradient id="paint15_linear_664_813" x1="212.208" y1="166.077" x2="242.559" y2="202.195" gradientUnits="userSpaceOnUse">
<stop offset="0.694" stop-color="#FF7AF2" stop-opacity="0"/>
<stop offset="0.934" stop-color="#FFBCE6"/>
</linearGradient>
<linearGradient id="paint16_linear_664_813" x1="208.444" y1="167.584" x2="172.826" y2="207.713" gradientUnits="userSpaceOnUse">
<stop offset="0.694" stop-color="#FF7AF2" stop-opacity="0"/>
<stop offset="0.934" stop-color="#FFBCE6"/>
</linearGradient>
<radialGradient id="paint17_radial_664_813" cx="0" cy="0" r="1" gradientUnits="userSpaceOnUse" gradientTransform="translate(214.484 153.816) rotate(164.618) scale(65.2085 68.8659)">
<stop offset="0.802" stop-color="#FF73A6" stop-opacity="0"/>
<stop offset="1" stop-color="#FF93BA"/>
</radialGradient>
<radialGradient id="paint18_radial_664_813" cx="0" cy="0" r="1" gradientUnits="userSpaceOnUse" gradientTransform="translate(252.82 138.76) rotate(139.035) scale(23.3169 15.7447)">
<stop stop-color="#FF93BA"/>
<stop offset="1" stop-color="#FF73A6" stop-opacity="0"/>
</radialGradient>
<radialGradient id="paint19_radial_664_813" cx="0" cy="0" r="1" gradientUnits="userSpaceOnUse" gradientTransform="translate(192.008 144.62) rotate(53.816) scale(23.6422 12.5214)">
<stop stop-color="#FFA7C7"/>
<stop offset="1" stop-color="#FFA7C7" stop-opacity="0"/>
</radialGradient>
</defs>
</svg>
