<svg width="259" height="14" viewBox="0 0 259 14" fill="none" xmlns="http://www.w3.org/2000/svg">
<path d="M9.618 0.436V13.092H10.766V0.436H9.618ZM10.108 5.378V6.344H12.446V5.378H10.108ZM0.924 1.612V10.026H4.424V1.612H3.458V4.86H1.918V1.612H0.924ZM1.918 5.784H3.458V9.074H1.918V5.784ZM5.096 1.612V10.026H8.554V1.612H7.574V4.86H6.076V1.612H5.096ZM6.076 5.784H7.574V9.074H6.076V5.784ZM13.2849 7.45V8.388H24.7649V7.45H13.2849ZM14.7969 11.86V12.812H23.5609V11.86H14.7969ZM14.7969 9.382V12.224H15.9589V9.382H14.7969ZM14.7409 0.855999V1.766H22.1469V3.138H14.7689V5.7H15.9169V3.992H23.2809V0.855999H14.7409ZM14.7689 5.392V6.302H23.5609V5.392H14.7689ZM35.5298 0.436V13.092H36.6498V0.436H35.5298ZM33.5278 5.448V6.4H35.9498V5.448H33.5278ZM32.7298 0.701999V12.462H33.8358V0.701999H32.7298ZM26.3458 1.892V9.704H31.1758V1.892H26.3458ZM30.0838 2.816V8.78H27.4378V2.816H30.0838ZM41.9267 2.522V3.068C41.9267 4.79 40.6247 6.33 38.7347 6.946L39.2947 7.842C41.4367 7.142 42.8787 5.294 42.8787 3.068V2.522H41.9267ZM42.1227 2.522V3.068C42.1227 5.182 43.6067 6.904 45.7627 7.548L46.2947 6.624C44.4187 6.092 43.0747 4.664 43.0747 3.068V2.522H42.1227ZM39.0427 1.99V2.928H45.9307V1.99H39.0427ZM41.9267 0.436V2.396H43.0747V0.436H41.9267ZM47.6947 0.449999V8.192H48.8707V0.449999H47.6947ZM44.6567 8.458C42.0107 8.458 40.4147 9.298 40.4147 10.754C40.4147 12.224 42.0107 13.064 44.6567 13.064C47.3027 13.064 48.9127 12.224 48.9127 10.754C48.9127 9.298 47.3027 8.458 44.6567 8.458ZM44.6567 9.382C46.5887 9.382 47.7507 9.886 47.7507 10.754C47.7507 11.65 46.5887 12.154 44.6567 12.154C42.7387 12.154 41.5767 11.65 41.5767 10.754C41.5767 9.886 42.7387 9.382 44.6567 9.382ZM56.8076 0.645999C54.0076 0.645999 52.3556 1.43 52.3556 2.844C52.3556 4.258 54.0076 5.042 56.8076 5.042C59.5936 5.042 61.2596 4.258 61.2596 2.844C61.2596 1.43 59.5936 0.645999 56.8076 0.645999ZM56.8076 1.528C58.8656 1.528 60.0556 2.004 60.0556 2.844C60.0556 3.684 58.8656 4.16 56.8076 4.16C54.7356 4.16 53.5456 3.684 53.5456 2.844C53.5456 2.004 54.7356 1.528 56.8076 1.528ZM51.0816 5.882V6.82H62.5196V5.882H51.0816ZM52.4676 7.898V8.794H59.9156V9.914H52.4956V12.294H53.6436V10.754H61.0636V7.898H52.4676ZM52.4956 12.042V12.952H61.4416V12.042H52.4956ZM71.482 1.024C69.606 1.024 68.262 2.074 68.262 3.628C68.262 5.168 69.606 6.246 71.482 6.246C73.372 6.246 74.716 5.168 74.716 3.628C74.716 2.074 73.372 1.024 71.482 1.024ZM71.482 1.99C72.714 1.99 73.596 2.662 73.596 3.628C73.596 4.608 72.714 5.266 71.482 5.266C70.25 5.266 69.368 4.608 69.368 3.628C69.368 2.662 70.25 1.99 71.482 1.99ZM70.964 7.646V12.7H72.126V7.646H70.964ZM76.564 0.436V13.106H77.712V0.436H76.564ZM67.478 8.276C69.788 8.276 72.896 8.234 75.752 7.716L75.668 6.848C72.882 7.268 69.676 7.296 67.324 7.296L67.478 8.276ZM79.9229 2.592V3.544H86.1949V2.592H79.9229ZM83.0589 4.384C81.4909 4.384 80.3429 5.574 80.3429 7.282C80.3429 8.976 81.4909 10.166 83.0589 10.166C84.6409 10.166 85.7889 8.976 85.7889 7.282C85.7889 5.574 84.6409 4.384 83.0589 4.384ZM83.0589 5.378C84.0389 5.378 84.7529 6.162 84.7529 7.282C84.7529 8.402 84.0389 9.186 83.0589 9.186C82.0929 9.186 81.3929 8.402 81.3929 7.282C81.3929 6.162 82.0929 5.378 83.0589 5.378ZM89.5409 0.436V13.092H90.6609V0.436H89.5409ZM87.5249 5.756V6.722H89.9189V5.756H87.5249ZM86.8389 0.715999V12.476H87.9309V0.715999H86.8389ZM82.4989 0.8V3.18H83.6469V0.8H82.4989ZM98.7833 3.67V4.328C98.7833 6.386 97.8033 8.584 96.0813 9.592L96.7813 10.474C98.6293 9.368 99.6793 6.834 99.6793 4.328V3.67H98.7833ZM98.9933 3.67V4.328C98.9933 6.764 100.085 9.158 101.947 10.194L102.605 9.326C100.911 8.402 99.8893 6.33 99.8893 4.328V3.67H98.9933ZM96.4033 2.788V3.74H102.269V2.788H96.4033ZM98.7833 0.884V3.502H99.9033V0.884H98.7833ZM105.881 0.436V13.092H106.987V0.436H105.881ZM103.879 5.532V6.512H106.315V5.532H103.879ZM103.123 0.701999V12.462H104.215V0.701999H103.123ZM109.534 6.442V7.38H110.556C113.314 7.38 114.854 7.338 116.688 7.016L116.562 6.092C114.784 6.386 113.286 6.442 110.556 6.442H109.534ZM109.534 1.36V6.918H110.682V2.298H115.554V1.36H109.534ZM110.304 3.866V4.79H115.204V3.866H110.304ZM118.004 0.449999V8.276H119.18V0.449999H118.004ZM114.994 8.458C112.348 8.458 110.738 9.298 110.738 10.754C110.738 12.224 112.348 13.064 114.994 13.064C117.626 13.064 119.236 12.224 119.236 10.754C119.236 9.298 117.626 8.458 114.994 8.458ZM114.994 9.382C116.912 9.382 118.074 9.886 118.074 10.754C118.074 11.65 116.912 12.154 114.994 12.154C113.062 12.154 111.9 11.65 111.9 10.754C111.9 9.886 113.062 9.382 114.994 9.382ZM121.391 7.086V8.038H132.829V7.086H121.391ZM122.875 11.86V12.812H131.569V11.86H122.875ZM122.875 9.144V12.154H124.037V9.144H122.875ZM127.117 0.855999C124.401 0.855999 122.665 1.808 122.665 3.39C122.665 4.958 124.401 5.91 127.117 5.91C129.819 5.91 131.569 4.958 131.569 3.39C131.569 1.808 129.819 0.855999 127.117 0.855999ZM127.117 1.808C129.105 1.808 130.379 2.396 130.379 3.39C130.379 4.384 129.105 4.972 127.117 4.972C125.129 4.972 123.855 4.384 123.855 3.39C123.855 2.396 125.129 1.808 127.117 1.808ZM141.595 1.81818V12H140.362V3.1108H140.302L137.817 4.76136V3.50852L140.362 1.81818H141.595ZM147.564 12.1392C146.815 12.1392 146.177 11.9354 145.65 11.5277C145.123 11.1167 144.721 10.5218 144.442 9.7429C144.164 8.9607 144.025 8.0161 144.025 6.90909C144.025 5.80871 144.164 4.86908 144.442 4.0902C144.724 3.308 145.128 2.71141 145.655 2.30043C146.186 1.88613 146.822 1.67898 147.564 1.67898C148.307 1.67898 148.942 1.88613 149.468 2.30043C149.999 2.71141 150.403 3.308 150.682 4.0902C150.963 4.86908 151.104 5.80871 151.104 6.90909C151.104 8.0161 150.965 8.9607 150.687 9.7429C150.408 10.5218 150.005 11.1167 149.478 11.5277C148.951 11.9354 148.313 12.1392 147.564 12.1392ZM147.564 11.0455C148.307 11.0455 148.884 10.6875 149.294 9.97159C149.705 9.25568 149.911 8.23485 149.911 6.90909C149.911 6.02746 149.817 5.27675 149.628 4.65696C149.442 4.03717 149.174 3.56487 148.822 3.24006C148.474 2.91525 148.055 2.75284 147.564 2.75284C146.829 2.75284 146.254 3.11577 145.839 3.84162C145.425 4.56416 145.218 5.58665 145.218 6.90909C145.218 7.79072 145.311 8.53977 145.496 9.15625C145.682 9.77273 145.949 10.2417 146.297 10.5632C146.648 10.8847 147.071 11.0455 147.564 11.0455ZM152.345 7.114V8.066H163.811V7.114H152.345ZM157.581 7.59V10.502H158.743V7.59H157.581ZM153.801 11.86V12.812H162.537V11.86H153.801ZM153.801 9.382V12.224H154.949V9.382H153.801ZM153.871 0.827999V5.896H162.299V0.827999H161.137V2.438H155.019V0.827999H153.871ZM155.019 3.348H161.137V4.958H155.019V3.348ZM170.67 1.234C168.038 1.234 166.064 2.634 166.064 4.734C166.064 6.848 168.038 8.234 170.67 8.234C173.302 8.234 175.262 6.848 175.262 4.734C175.262 2.634 173.302 1.234 170.67 1.234ZM170.67 2.186C172.672 2.186 174.156 3.208 174.156 4.734C174.156 6.246 172.672 7.282 170.67 7.282C168.668 7.282 167.184 6.246 167.184 4.734C167.184 3.208 168.668 2.186 170.67 2.186ZM164.958 10.446V11.426H176.424V10.446H164.958ZM177.557 10.572V11.538H189.023V10.572H177.557ZM182.681 7.856V10.978H183.843V7.856H182.681ZM178.943 1.374V2.312H186.461V4.272H178.985V7.744H180.133V5.21H187.609V1.374H178.943ZM178.985 7.254V8.206H187.903V7.254H178.985ZM203.432 0.436V13.092H204.552V0.436H203.432ZM198.826 4.972V5.938H201.248V4.972H198.826ZM200.898 0.729999V12.448H201.99V0.729999H200.898ZM196.39 2.396V4.006C196.39 6.33 195.41 8.64 193.646 9.704L194.36 10.572C196.222 9.396 197.286 6.778 197.286 4.006V2.396H196.39ZM196.628 2.396V4.006C196.628 6.652 197.65 9.144 199.498 10.264L200.212 9.41C198.476 8.402 197.524 6.204 197.524 4.006V2.396H196.628ZM193.996 1.906V2.872H199.778V1.906H193.996ZM215.064 0.449999V9.942H216.226V0.449999H215.064ZM215.862 4.594V5.574H218.102V4.594H215.862ZM206.44 1.976V2.914H213.916V1.976H206.44ZM210.178 3.614C208.372 3.614 207.14 4.552 207.14 5.98C207.14 7.394 208.372 8.332 210.178 8.332C211.97 8.332 213.202 7.394 213.202 5.98C213.202 4.552 211.97 3.614 210.178 3.614ZM210.178 4.524C211.312 4.524 212.096 5.098 212.096 5.98C212.096 6.848 211.312 7.422 210.178 7.422C209.03 7.422 208.246 6.848 208.246 5.98C208.246 5.098 209.03 4.524 210.178 4.524ZM209.59 0.436V2.466H210.752V0.436H209.59ZM208.344 11.86V12.812H216.8V11.86H208.344ZM208.344 9.186V12.266H209.506V9.186H208.344ZM227.663 0.436V7.786H228.825V0.436H227.663ZM228.321 3.656V4.636H230.701V3.656H228.321ZM220.873 8.346V12.924H228.825V8.346H227.677V9.69H222.007V8.346H220.873ZM222.007 10.586H227.677V11.986H222.007V10.586ZM219.039 1.724V2.676H226.515V1.724H219.039ZM222.777 3.25C220.957 3.25 219.739 4.132 219.739 5.476C219.739 6.82 220.957 7.702 222.777 7.702C224.583 7.702 225.801 6.82 225.801 5.476C225.801 4.132 224.583 3.25 222.777 3.25ZM222.777 4.132C223.911 4.132 224.695 4.664 224.695 5.476C224.695 6.288 223.911 6.82 222.777 6.82C221.615 6.82 220.845 6.288 220.845 5.476C220.845 4.664 221.615 4.132 222.777 4.132ZM222.189 0.309999V2.242H223.351V0.309999H222.189ZM240.808 0.436V13.092H241.97V0.436H240.808ZM232.408 1.668V9.508H233.556V1.668H232.408ZM232.408 8.822V9.83H233.444C235.446 9.83 237.448 9.676 239.646 9.228L239.506 8.234C237.364 8.682 235.362 8.822 233.444 8.822H232.408ZM252.763 0.422V13.106H253.939V0.422H252.763ZM253.659 5.42V6.4H256.011V5.42H253.659ZM244.741 8.976V9.956H245.735C248.115 9.956 249.781 9.886 251.727 9.522L251.601 8.542C249.711 8.892 248.073 8.976 245.735 8.976H244.741ZM244.741 1.654V9.41H245.889V2.606H250.621V1.654H244.741ZM258.037 12.0795C257.792 12.0795 257.581 11.9917 257.406 11.8161C257.23 11.6404 257.142 11.4299 257.142 11.1847C257.142 10.9394 257.23 10.7289 257.406 10.5533C257.581 10.3776 257.792 10.2898 258.037 10.2898C258.282 10.2898 258.493 10.3776 258.668 10.5533C258.844 10.7289 258.932 10.9394 258.932 11.1847C258.932 11.3471 258.891 11.4962 258.808 11.6321C258.728 11.768 258.62 11.8774 258.485 11.9602C258.352 12.0398 258.203 12.0795 258.037 12.0795Z" fill="white"/>
</svg>
