<svg width="235" height="28" viewBox="0 0 235 28" fill="none" xmlns="http://www.w3.org/2000/svg">
<path d="M2.808 2.86V3.424C2.808 5.188 1.968 7.072 0.492 7.936L1.092 8.692C2.676 7.744 3.576 5.572 3.576 3.424V2.86H2.808ZM2.988 2.86V3.424C2.988 5.512 3.924 7.564 5.52 8.452L6.084 7.708C4.632 6.916 3.756 5.14 3.756 3.424V2.86H2.988ZM0.768 2.104V2.92H5.796V2.104H0.768ZM2.808 0.472V2.716H3.768V0.472H2.808ZM8.892 0.0879996V10.936H9.84V0.0879996H8.892ZM7.176 4.456V5.296H9.264V4.456H7.176ZM6.528 0.316V10.396H7.464V0.316H6.528ZM12.0231 5.236V6.04H12.8991C15.2631 6.04 16.5831 6.004 18.1551 5.728L18.0471 4.936C16.5231 5.188 15.2391 5.236 12.8991 5.236H12.0231ZM12.0231 0.879999V5.644H13.0071V1.684H17.1831V0.879999H12.0231ZM12.6831 3.028V3.82H16.8831V3.028H12.6831ZM19.2831 0.0999994V6.808H20.2911V0.0999994H19.2831ZM16.7031 6.964C14.4351 6.964 13.0551 7.684 13.0551 8.932C13.0551 10.192 14.4351 10.912 16.7031 10.912C18.9591 10.912 20.3391 10.192 20.3391 8.932C20.3391 7.684 18.9591 6.964 16.7031 6.964ZM16.7031 7.756C18.3471 7.756 19.3431 8.188 19.3431 8.932C19.3431 9.7 18.3471 10.132 16.7031 10.132C15.0471 10.132 14.0511 9.7 14.0511 8.932C14.0511 8.188 15.0471 7.756 16.7031 7.756ZM27.0941 0.267999C24.6941 0.267999 23.2781 0.939999 23.2781 2.152C23.2781 3.364 24.6941 4.036 27.0941 4.036C29.4821 4.036 30.9101 3.364 30.9101 2.152C30.9101 0.939999 29.4821 0.267999 27.0941 0.267999ZM27.0941 1.024C28.8581 1.024 29.8781 1.432 29.8781 2.152C29.8781 2.872 28.8581 3.28 27.0941 3.28C25.3181 3.28 24.2981 2.872 24.2981 2.152C24.2981 1.432 25.3181 1.024 27.0941 1.024ZM22.1861 4.756V5.56H31.9901V4.756H22.1861ZM23.3741 6.484V7.252H29.7581V8.212H23.3981V10.252H24.3821V8.932H30.7421V6.484H23.3741ZM23.3981 10.036V10.816H31.0661V10.036H23.3981ZM38.9882 1.024V2.968C38.9882 5.02 37.6802 7.096 36.0722 7.864L36.6842 8.68C38.4602 7.78 39.8042 5.464 39.8042 2.968V1.024H38.9882ZM39.1562 1.024V2.968C39.1562 5.38 40.5122 7.612 42.2762 8.476L42.8762 7.684C41.2682 6.94 39.9722 4.948 39.9722 2.968V1.024H39.1562ZM44.0042 0.0759997V10.948H45.0002V0.0759997H44.0042ZM49.5952 1.204V2.08C49.5952 3.628 48.5152 5.02 46.8712 5.596L47.3992 6.376C49.2112 5.728 50.4112 4.072 50.4112 2.08V1.204H49.5952ZM49.7752 1.204V2.068C49.7752 3.94 50.9272 5.536 52.7152 6.16L53.2312 5.38C51.6352 4.84 50.5912 3.508 50.5912 2.068V1.204H49.7752ZM47.1832 0.844V1.66H52.9792V0.844H47.1832ZM54.3472 0.0879996V6.616H55.3432V0.0879996H54.3472ZM55.0672 2.944V3.772H56.9512V2.944H55.0672ZM48.2992 7.192V8.02H54.3472V10.936H55.3432V7.192H48.2992ZM65.0743 0.0879996V10.936H66.0703V0.0879996H65.0743ZM65.8303 4.54V5.38H67.8463V4.54H65.8303ZM57.6703 1.816V2.632H64.0663V1.816H57.6703ZM60.9103 3.532C59.3863 3.532 58.2703 4.564 58.2703 6.028C58.2703 7.492 59.3863 8.524 60.9103 8.524C62.4463 8.524 63.5503 7.492 63.5503 6.028C63.5503 4.564 62.4463 3.532 60.9103 3.532ZM60.9103 4.36C61.8943 4.36 62.6023 5.044 62.6023 6.028C62.6023 7 61.8943 7.696 60.9103 7.696C59.9263 7.696 59.2183 7 59.2183 6.028C59.2183 5.044 59.9263 4.36 60.9103 4.36ZM60.3943 0.219999V2.188H61.3903V0.219999H60.3943ZM69.8494 3.34V4.156H77.2174V3.34H69.8494ZM68.5174 5.608V6.424H78.3574V5.608H68.5174ZM69.8494 0.483999V3.748H70.8334V0.483999H69.8494ZM69.7774 9.856V10.672H77.2774V9.856H69.7774ZM69.7774 7.504V10.072H70.7614V7.504H69.7774ZM86.8554 0.364V0.891999C86.8554 2.344 84.9594 3.616 83.0394 3.904L83.4354 4.696C85.6314 4.312 87.7074 2.86 87.7074 0.891999V0.364H86.8554ZM87.0114 0.364V0.891999C87.0114 2.812 89.0994 4.3 91.2954 4.672L91.6674 3.892C89.7834 3.604 87.8634 2.308 87.8634 0.891999V0.364H87.0114ZM82.4514 5.608V6.424H92.2794V5.608H82.4514ZM86.9394 6.112V8.608H87.9354V6.112H86.9394ZM83.6994 9.88V10.696H91.1874V9.88H83.6994ZM83.6994 7.564V10.144H84.6834V7.564H83.6994ZM100.678 0.0879996V8.02H101.674V0.0879996H100.678ZM101.362 3.376V4.204H103.282V3.376H101.362ZM97.7145 0.927999V1.36C97.7145 3.448 95.9985 5.128 93.2625 5.968L93.6945 6.784C96.8025 5.788 98.7705 3.736 98.7705 0.927999H97.7145ZM93.7065 0.927999V1.744H98.2185V0.927999H93.7065ZM94.9065 9.88V10.696H102.154V9.88H94.9065ZM94.9065 7.216V10.204H95.9025V7.216H94.9065ZM108.097 0.483999V1.3H116.065V0.483999H108.097ZM108.145 3.64V4.444H116.017V3.64H108.145ZM109.741 0.856V4.096H110.737V0.856H109.741ZM113.437 0.856V4.096H114.421V0.856H113.437ZM107.185 5.752V6.556H116.989V5.752H107.185ZM111.601 4.204V6.076H112.585V4.204H111.601ZM108.277 7.636V8.44H114.781V10.936H115.777V7.636H108.277ZM118.488 5.668V6.472H119.316C121.536 6.472 122.784 6.424 124.26 6.16L124.152 5.356C122.712 5.62 121.5 5.668 119.316 5.668H118.488ZM118.488 0.952V5.932H119.472V1.768H123.444V0.952H118.488ZM119.16 3.268V4.06H123.24V3.268H119.16ZM125.412 0.0759997V8.128H126.408V0.0759997H125.412ZM126.096 3.46V4.288H128.016V3.46H126.096ZM119.652 9.88V10.696H126.9V9.88H119.652ZM119.652 7.408V10.324H120.648V7.408H119.652ZM132.311 0.868C130.619 0.868 129.395 1.912 129.395 3.424C129.395 4.948 130.619 5.992 132.311 5.992C134.003 5.992 135.215 4.948 135.215 3.424C135.215 1.912 134.003 0.868 132.311 0.868ZM132.311 1.732C133.427 1.732 134.243 2.416 134.243 3.424C134.243 4.432 133.427 5.128 132.311 5.128C131.183 5.128 130.367 4.432 130.367 3.424C130.367 2.416 131.183 1.732 132.311 1.732ZM136.631 0.0759997V10.948H137.627V0.0759997H136.631ZM128.987 8.572C130.919 8.572 133.571 8.56 136.007 8.092L135.923 7.36C133.559 7.732 130.823 7.744 128.843 7.744L128.987 8.572ZM145.585 1.024V2.968C145.585 5.02 144.277 7.096 142.669 7.864L143.281 8.68C145.057 7.78 146.401 5.464 146.401 2.968V1.024H145.585ZM145.753 1.024V2.968C145.753 5.38 147.109 7.612 148.873 8.476L149.473 7.684C147.865 6.94 146.569 4.948 146.569 2.968V1.024H145.753ZM150.601 0.0759997V10.948H151.597V0.0759997H150.601ZM160.944 0.0879996V8.02H161.94V0.0879996H160.944ZM161.628 3.376V4.204H163.548V3.376H161.628ZM157.98 0.927999V1.36C157.98 3.448 156.264 5.128 153.528 5.968L153.96 6.784C157.068 5.788 159.036 3.736 159.036 0.927999H157.98ZM153.972 0.927999V1.744H158.484V0.927999H153.972ZM155.172 9.88V10.696H162.42V9.88H155.172ZM155.172 7.216V10.204H156.168V7.216H155.172ZM172.199 0.0759997V10.948H173.195V0.0759997H172.199ZM167.471 0.916C165.875 0.916 164.723 2.392 164.723 4.696C164.723 7.012 165.875 8.488 167.471 8.488C169.079 8.488 170.231 7.012 170.231 4.696C170.231 2.392 169.079 0.916 167.471 0.916ZM167.471 1.816C168.539 1.816 169.271 2.944 169.271 4.696C169.271 6.46 168.539 7.612 167.471 7.612C166.415 7.612 165.671 6.46 165.671 4.696C165.671 2.944 166.415 1.816 167.471 1.816ZM182.653 5.188V6.856H183.649V5.188H182.653ZM178.249 4.612V5.416H188.053V4.612H178.249ZM179.437 6.484V7.24H185.821V8.26H179.461V10.252H180.445V8.98H186.805V6.484H179.437ZM179.461 10.048V10.816H187.129V10.048H179.461ZM182.581 0.76V1.096C182.581 2.26 180.781 3.148 178.777 3.316L179.101 4.084C181.417 3.856 183.457 2.764 183.457 1.096V0.76H182.581ZM182.869 0.76V1.096C182.869 2.764 184.909 3.856 187.213 4.084L187.537 3.316C185.533 3.148 183.733 2.26 183.733 1.096V0.76H182.869ZM179.149 0.447999V1.252H187.177V0.447999H179.149ZM191.952 0.916C190.368 0.916 189.252 2.392 189.252 4.696C189.252 7.012 190.368 8.488 191.952 8.488C193.524 8.488 194.652 7.012 194.652 4.696C194.652 2.392 193.524 0.916 191.952 0.916ZM191.952 1.816C192.996 1.816 193.704 2.944 193.704 4.696C193.704 6.46 192.996 7.612 191.952 7.612C190.908 7.612 190.2 6.46 190.2 4.696C190.2 2.944 190.908 1.816 191.952 1.816ZM197.004 0.0759997V10.948H197.988V0.0759997H197.004ZM194.328 4.216V5.032H197.436V4.216H194.328ZM199.859 4.984V5.8H209.663V4.984H199.859ZM201.095 3.076V3.892H208.535V3.076H201.095ZM201.095 0.424V3.592H202.091V1.24H208.439V0.424H201.095ZM201.119 6.64V10.78H208.403V6.64H207.419V7.828H202.103V6.64H201.119ZM202.103 8.62H207.419V9.964H202.103V8.62ZM218.542 0.0879996V10.936H219.538V0.0879996H218.542ZM211.342 1.144V7.864H212.326V1.144H211.342ZM211.342 7.276V8.14H212.23C213.946 8.14 215.662 8.008 217.546 7.624L217.426 6.772C215.59 7.156 213.874 7.276 212.23 7.276H211.342ZM228.789 0.0759997V10.948H229.797V0.0759997H228.789ZM229.557 4.36V5.2H231.573V4.36H229.557ZM221.913 7.408V8.248H222.765C224.805 8.248 226.233 8.188 227.901 7.876L227.793 7.036C226.173 7.336 224.769 7.408 222.765 7.408H221.913ZM221.913 1.132V7.78H222.897V1.948H226.953V1.132H221.913ZM233.31 10.0682C233.099 10.0682 232.919 9.9929 232.768 9.84233C232.618 9.69176 232.543 9.51136 232.543 9.30114C232.543 9.09091 232.618 8.91051 232.768 8.75994C232.919 8.60937 233.099 8.53409 233.31 8.53409C233.52 8.53409 233.7 8.60937 233.851 8.75994C234.001 8.91051 234.077 9.09091 234.077 9.30114C234.077 9.44034 234.041 9.56818 233.97 9.68466C233.902 9.80114 233.81 9.89489 233.693 9.96591C233.58 10.0341 233.452 10.0682 233.31 10.0682ZM6.858 20.704V21.508H16.662V20.704H6.858ZM11.274 19.372V21.076H12.258V19.372H11.274ZM11.274 15.052V16.564H12.258V15.052H11.274ZM11.226 16.66V16.84C11.226 18.076 9.534 18.94 7.434 19.12L7.734 19.888C10.11 19.648 12.102 18.616 12.102 16.84V16.66H11.226ZM11.43 16.66V16.84C11.43 18.616 13.422 19.648 15.798 19.888L16.098 19.12C13.998 18.94 12.306 18.076 12.306 16.84V16.66H11.43ZM7.866 16.144V16.936H15.666V16.144H7.866ZM11.754 22.324C9.414 22.324 8.034 22.96 8.034 24.124C8.034 25.288 9.414 25.912 11.754 25.912C14.094 25.912 15.474 25.288 15.474 24.124C15.474 22.96 14.094 22.324 11.754 22.324ZM11.754 23.08C13.47 23.08 14.466 23.44 14.466 24.124C14.466 24.784 13.47 25.156 11.754 25.156C10.038 25.156 9.042 24.784 9.042 24.124C9.042 23.44 10.038 23.08 11.754 23.08ZM24.1757 16.2727V25H23.1188V17.3807H23.0677L20.937 18.7955V17.7216L23.1188 16.2727H24.1757ZM29.2922 25.1193C28.6501 25.1193 28.1033 24.9446 27.6516 24.5952C27.1999 24.2429 26.8547 23.733 26.6161 23.0653C26.3774 22.3949 26.2581 21.5852 26.2581 20.6364C26.2581 19.6932 26.3774 18.8878 26.6161 18.2202C26.8575 17.5497 27.2041 17.0384 27.6558 16.6861C28.1104 16.331 28.6558 16.1534 29.2922 16.1534C29.9286 16.1534 30.4726 16.331 30.9243 16.6861C31.3788 17.0384 31.7254 17.5497 31.9641 18.2202C32.2055 18.8878 32.3263 19.6932 32.3263 20.6364C32.3263 21.5852 32.207 22.3949 31.9683 23.0653C31.7297 23.733 31.3845 24.2429 30.9328 24.5952C30.4811 24.9446 29.9342 25.1193 29.2922 25.1193ZM29.2922 24.1818C29.9286 24.1818 30.4229 23.875 30.7751 23.2614C31.1274 22.6477 31.3036 21.7727 31.3036 20.6364C31.3036 19.8807 31.2226 19.2372 31.0607 18.706C30.9016 18.1747 30.6714 17.7699 30.3703 17.4915C30.072 17.2131 29.7126 17.0739 29.2922 17.0739C28.6615 17.0739 28.1686 17.3849 27.8135 18.0071C27.4584 18.6264 27.2808 19.5028 27.2808 20.6364C27.2808 21.392 27.3604 22.0341 27.5195 22.5625C27.6786 23.0909 27.9072 23.4929 28.2055 23.7685C28.5067 24.044 28.8689 24.1818 29.2922 24.1818ZM33.3902 20.812V21.628H43.2182V20.812H33.3902ZM37.8782 21.22V23.716H38.8742V21.22H37.8782ZM34.6382 24.88V25.696H42.1262V24.88H34.6382ZM34.6382 22.756V25.192H35.6222V22.756H34.6382ZM34.6982 15.424V19.768H41.9222V15.424H40.9262V16.804H35.6822V15.424H34.6982ZM35.6822 17.584H40.9262V18.964H35.6822V17.584ZM52.0733 15.076V25.948H53.0693V15.076H52.0733ZM47.3452 15.916C45.7492 15.916 44.5972 17.392 44.5972 19.696C44.5972 22.012 45.7492 23.488 47.3452 23.488C48.9532 23.488 50.1053 22.012 50.1053 19.696C50.1053 17.392 48.9532 15.916 47.3452 15.916ZM47.3452 16.816C48.4132 16.816 49.1452 17.944 49.1452 19.696C49.1452 21.46 48.4132 22.612 47.3452 22.612C46.2892 22.612 45.5452 21.46 45.5452 19.696C45.5452 17.944 46.2892 16.816 47.3452 16.816ZM59.9803 17.68V18.496H63.3283V17.68H59.9803ZM59.9803 20.668V21.496H63.3283V20.668H59.9803ZM55.4323 16.144V23.2H60.3643V16.144H55.4323ZM59.3803 16.948V22.396H56.4043V16.948H59.3803ZM62.9443 15.076V25.948H63.9283V15.076H62.9443ZM67.6198 23.8068L67.5516 24.267C67.5033 24.5909 67.4295 24.9375 67.3301 25.3068C67.2335 25.6761 67.1326 26.0241 67.0275 26.3509C66.9224 26.6776 66.8357 26.9375 66.7676 27.1307H66.0005C66.0374 26.9489 66.0857 26.7088 66.1454 26.4105C66.2051 26.1122 66.2647 25.7784 66.3244 25.4091C66.3869 25.0426 66.438 24.6676 66.4778 24.2841L66.5289 23.8068H67.6198ZM75.4292 16.2727V25H74.3724V17.3807H74.3213L72.1906 18.7955V17.7216L74.3724 16.2727H75.4292ZM77.3838 20.812V21.628H87.2118V20.812H77.3838ZM81.8718 21.22V23.716H82.8678V21.22H81.8718ZM78.6318 24.88V25.696H86.1198V24.88H78.6318ZM78.6318 22.756V25.192H79.6158V22.756H78.6318ZM78.6918 15.424V19.768H85.9158V15.424H84.9198V16.804H79.6758V15.424H78.6918ZM79.6758 17.584H84.9198V18.964H79.6758V17.584ZM89.7908 22.024V22.828H96.1988V25.936H97.2068V22.024H89.7908ZM96.1988 15.088V21.448H97.2068V15.088H96.1988ZM89.7908 15.724V16.84C89.7908 17.932 89.3468 19.444 88.0988 20.2L88.6628 20.908C90.0428 20.08 90.5348 18.256 90.5348 16.84V15.724H89.7908ZM90.0308 15.724V16.84C90.0308 18.148 90.3668 20.128 91.7708 21.028L92.2748 20.272C91.0508 19.444 90.7508 17.848 90.7508 16.84V15.724H90.0308ZM92.8028 15.724V16.84C92.8028 17.908 92.5028 19.468 91.2908 20.272L91.7708 21.028C93.1988 20.14 93.5348 18.22 93.5348 16.84V15.724H92.8028ZM93.0188 15.724V16.84C93.0188 18.388 93.5108 20.116 94.8908 20.908L95.4428 20.2C94.1948 19.492 93.7508 18.052 93.7508 16.84V15.724H93.0188ZM106.521 20.188V21.856H107.517V20.188H106.521ZM102.117 19.612V20.416H111.921V19.612H102.117ZM103.305 21.484V22.24H109.689V23.26H103.329V25.252H104.313V23.98H110.673V21.484H103.305ZM103.329 25.048V25.816H110.997V25.048H103.329ZM106.449 15.76V16.096C106.449 17.26 104.649 18.148 102.645 18.316L102.969 19.084C105.285 18.856 107.325 17.764 107.325 16.096V15.76H106.449ZM106.737 15.76V16.096C106.737 17.764 108.777 18.856 111.081 19.084L111.405 18.316C109.401 18.148 107.601 17.26 107.601 16.096V15.76H106.737ZM103.017 15.448V16.252H111.045V15.448H103.017ZM115.82 15.916C114.236 15.916 113.12 17.392 113.12 19.696C113.12 22.012 114.236 23.488 115.82 23.488C117.392 23.488 118.52 22.012 118.52 19.696C118.52 17.392 117.392 15.916 115.82 15.916ZM115.82 16.816C116.864 16.816 117.572 17.944 117.572 19.696C117.572 21.46 116.864 22.612 115.82 22.612C114.776 22.612 114.068 21.46 114.068 19.696C114.068 17.944 114.776 16.816 115.82 16.816ZM120.872 15.076V25.948H121.856V15.076H120.872ZM118.196 19.216V20.032H121.304V19.216H118.196ZM124.963 20.284V21.1H132.415V20.284H124.963ZM123.727 23.644V24.472H133.555V23.644H123.727ZM124.963 16.084V20.644H125.959V16.912H132.307V16.084H124.963ZM135.846 18.34V19.156H143.214V18.34H135.846ZM134.514 20.608V21.424H144.354V20.608H134.514ZM135.846 15.484V18.748H136.83V15.484H135.846ZM135.774 24.856V25.672H143.274V24.856H135.774ZM135.774 22.504V25.072H136.758V22.504H135.774ZM151.316 16.024V17.968C151.316 20.02 150.008 22.096 148.4 22.864L149.012 23.68C150.788 22.78 152.132 20.464 152.132 17.968V16.024H151.316ZM151.484 16.024V17.968C151.484 20.38 152.84 22.612 154.604 23.476L155.204 22.684C153.596 21.94 152.3 19.948 152.3 17.968V16.024H151.484ZM156.332 15.076V25.948H157.328V15.076H156.332ZM163.603 15.832V16.66C163.603 18.508 161.563 20.164 159.655 20.524L160.099 21.352C162.271 20.86 164.467 19.024 164.467 16.66V15.832H163.603ZM163.783 15.832V16.66C163.783 19.036 165.991 20.86 168.151 21.352L168.595 20.524C166.699 20.164 164.647 18.52 164.647 16.66V15.832H163.783ZM159.259 23.656V24.472H169.087V23.656H159.259ZM174.714 17.812V18.628H176.562V17.812H174.714ZM170.55 20.152V20.956H171.234C172.962 20.956 173.982 20.92 175.23 20.668L175.134 19.876C173.934 20.116 172.926 20.152 171.234 20.152H170.55ZM170.55 15.796V20.632H171.51V16.6H174.642V15.796H170.55ZM171.21 17.92V18.712H174.21V17.92H171.21ZM178.242 15.088V21.616H179.19V15.088H178.242ZM176.154 15.268V21.508H177.09V15.268H176.154ZM172.074 22.132V25.792H179.19V22.132H172.074ZM178.23 22.924V24.988H173.046V22.924H178.23ZM188.741 15.088V20.908H189.749V15.088H188.741ZM182.753 21.448V25.792H189.749V21.448H188.765V22.768H183.737V21.448H182.753ZM183.737 23.56H188.765V24.988H183.737V23.56ZM183.929 15.604C182.285 15.604 181.097 16.624 181.097 18.1C181.097 19.588 182.285 20.608 183.929 20.608C185.573 20.608 186.749 19.588 186.749 18.1C186.749 16.624 185.573 15.604 183.929 15.604ZM183.929 16.432C185.009 16.432 185.789 17.116 185.789 18.1C185.789 19.084 185.009 19.768 183.929 19.768C182.849 19.768 182.069 19.084 182.069 18.1C182.069 17.116 182.849 16.432 183.929 16.432ZM199.54 15.088V25.936H200.536V15.088H199.54ZM192.34 16.144V22.864H193.324V16.144H192.34ZM192.34 22.276V23.14H193.228C194.944 23.14 196.66 23.008 198.544 22.624L198.424 21.772C196.588 22.156 194.872 22.276 193.228 22.276H192.34ZM209.787 15.076V25.948H210.795V15.076H209.787ZM210.555 19.36V20.2H212.571V19.36H210.555ZM202.911 22.408V23.248H203.763C205.803 23.248 207.231 23.188 208.899 22.876L208.791 22.036C207.171 22.336 205.767 22.408 203.763 22.408H202.911ZM202.911 16.132V22.78H203.895V16.948H207.951V16.132H202.911ZM214.308 25.0682C214.098 25.0682 213.917 24.9929 213.767 24.8423C213.616 24.6918 213.541 24.5114 213.541 24.3011C213.541 24.0909 213.616 23.9105 213.767 23.7599C213.917 23.6094 214.098 23.5341 214.308 23.5341C214.518 23.5341 214.699 23.6094 214.849 23.7599C215 23.9105 215.075 24.0909 215.075 24.3011C215.075 24.4403 215.039 24.5682 214.968 24.6847C214.9 24.8011 214.808 24.8949 214.691 24.9659C214.578 25.0341 214.45 25.0682 214.308 25.0682Z" fill="white" fill-opacity="0.5"/>
</svg>
