<svg width="74" height="74" viewBox="0 0 74 74" fill="none" xmlns="http://www.w3.org/2000/svg">
<circle cx="37" cy="37" r="36.2449" fill="#37375B" stroke="url(#paint0_linear_537_274)" stroke-width="1.5102"/>
<path d="M47.462 19.4361C47.9439 19.4361 48.4061 19.6275 48.7468 19.9683C49.0876 20.309 49.279 20.7712 49.279 21.2531V35.7888C49.279 36.2707 49.0876 36.7328 48.7468 37.0736C48.4061 37.4143 47.9439 37.6058 47.462 37.6058H42.9196C42.3555 37.6058 41.7991 37.7371 41.2945 37.9894C40.7899 38.2417 40.351 38.608 40.0125 39.0593L36.5603 43.6617L33.108 39.0593C32.7695 38.608 32.3306 38.2417 31.826 37.9894C31.3214 37.7371 30.765 37.6058 30.2009 37.6058H25.6585C25.1766 37.6058 24.7144 37.4143 24.3737 37.0736C24.0329 36.7328 23.8415 36.2707 23.8415 35.7888V21.2531C23.8415 20.7712 24.0329 20.309 24.3737 19.9683C24.7144 19.6275 25.1766 19.4361 25.6585 19.4361H47.462ZM25.6585 17.6191C24.6947 17.6191 23.7704 18.002 23.0889 18.6835C22.4074 19.365 22.0245 20.2893 22.0245 21.2531V35.7888C22.0245 36.7526 22.4074 37.6769 23.0889 38.3584C23.7704 39.0399 24.6947 39.4227 25.6585 39.4227H30.2009C30.483 39.4227 30.7612 39.4884 31.0134 39.6145C31.2657 39.7407 31.4852 39.9238 31.6544 40.1495L35.1067 44.7519C35.2759 44.9775 35.4954 45.1607 35.7477 45.2868C36 45.413 36.2782 45.4787 36.5603 45.4787C36.8423 45.4787 37.1205 45.413 37.3728 45.2868C37.6251 45.1607 37.8446 44.9775 38.0138 44.7519L41.4661 40.1495C41.6353 39.9238 41.8548 39.7407 42.1071 39.6145C42.3594 39.4884 42.6376 39.4227 42.9196 39.4227H47.462C48.4258 39.4227 49.3501 39.0399 50.0316 38.3584C50.7131 37.6769 51.096 36.7526 51.096 35.7888V21.2531C51.096 20.2893 50.7131 19.365 50.0316 18.6835C49.3501 18.002 48.4258 17.6191 47.462 17.6191H25.6585Z" fill="white"/>
<path d="M36.5599 24.8742C39.5834 21.7654 47.1437 27.2054 36.5599 34.1988C25.9761 27.2035 33.5365 21.7654 36.5599 24.8742Z" fill="white"/>
<path d="M24.0849 54.8057V55.2197C24.0849 56.5147 23.4682 57.8978 22.3846 58.5321L22.8251 59.0871C23.988 58.3912 24.6487 56.7966 24.6487 55.2197V54.8057H24.0849ZM24.217 54.8057V55.2197C24.217 56.7526 24.9042 58.259 26.0758 58.9109L26.4899 58.3647C25.4239 57.7833 24.7808 56.4795 24.7808 55.2197V54.8057H24.217ZM22.5872 54.2507V54.8497H26.2784V54.2507H22.5872ZM24.0849 53.0526V54.7H24.7896V53.0526H24.0849ZM28.5513 52.7707V60.7345H29.2472V52.7707H28.5513ZM27.2915 55.9774V56.594H28.8244V55.9774H27.2915ZM26.8158 52.9381V60.3381H27.503V52.9381H26.8158ZM30.8499 56.55V57.1402H31.493C33.2285 57.1402 34.1975 57.1138 35.3516 56.9112L35.2723 56.3297C34.1535 56.5147 33.2108 56.55 31.493 56.55H30.8499ZM30.8499 53.3521V56.8495H31.5723V53.9424H34.638V53.3521H30.8499ZM31.3344 54.929V55.5105H34.4177V54.929H31.3344ZM36.1797 52.7795V57.704H36.9197V52.7795H36.1797ZM34.2856 57.8186C32.6206 57.8186 31.6075 58.3471 31.6075 59.2633C31.6075 60.1883 32.6206 60.7169 34.2856 60.7169C35.9418 60.7169 36.9549 60.1883 36.9549 59.2633C36.9549 58.3471 35.9418 57.8186 34.2856 57.8186ZM34.2856 58.4C35.4925 58.4 36.2237 58.7171 36.2237 59.2633C36.2237 59.8271 35.4925 60.1443 34.2856 60.1443C33.0699 60.1443 32.3387 59.8271 32.3387 59.2633C32.3387 58.7171 33.0699 58.4 34.2856 58.4ZM43.7111 52.7707V60.7345H44.4423V52.7707H43.7111ZM44.2661 56.039V56.6557H45.7461V56.039H44.2661ZM38.2756 54.0393V54.6383H42.9711V54.0393H38.2756ZM40.6542 55.299C39.5354 55.299 38.7161 56.0566 38.7161 57.1314C38.7161 58.2062 39.5354 58.9638 40.6542 58.9638C41.7818 58.9638 42.5923 58.2062 42.5923 57.1314C42.5923 56.0566 41.7818 55.299 40.6542 55.299ZM40.6542 55.9069C41.3766 55.9069 41.8963 56.409 41.8963 57.1314C41.8963 57.845 41.3766 58.3559 40.6542 58.3559C39.9318 58.3559 39.4121 57.845 39.4121 57.1314C39.4121 56.409 39.9318 55.9069 40.6542 55.9069ZM40.2754 52.8676V54.3124H41.0066V52.8676H40.2754ZM52.0442 52.7707V60.7345H52.7754V52.7707H52.0442ZM49.7097 53.6252V53.7486C49.7097 55.8628 48.6438 57.5543 46.3445 58.6643L46.7321 59.2545C49.3926 57.9507 50.4321 55.9333 50.4321 53.6252H49.7097ZM46.7057 53.6252V54.2243H50.0268V53.6252H46.7057Z" fill="white"/>
<defs>
<linearGradient id="paint0_linear_537_274" x1="37" y1="0" x2="37" y2="74" gradientUnits="userSpaceOnUse">
<stop stop-color="#BF55F7"/>
<stop offset="0.21875" stop-color="#764FDB"/>
<stop offset="0.479167" stop-color="#8B69F1"/>
<stop offset="1" stop-color="#734FDA"/>
</linearGradient>
</defs>
</svg>
