<svg width="62" height="22" viewBox="0 0 62 22" fill="none" xmlns="http://www.w3.org/2000/svg">
<path d="M0.968 2.672V16.064H9.248V2.672H0.968ZM7.376 4.256V14.48H2.84V4.256H7.376ZM16.712 0.175999V21.872H18.632V0.175999H16.712ZM8.24 8.336V9.992H13.232V8.336H8.24ZM12.416 0.631999V20.792H14.312V0.631999H12.416ZM30.3421 7.928V9.584H34.4941V7.928H30.3421ZM26.2861 2.216V6.344C26.2861 10.064 24.5101 13.952 21.5341 15.704L22.7821 17.216C25.9501 15.272 27.8461 10.88 27.8461 6.344V2.216H26.2861ZM26.6701 2.216V6.272C26.6701 10.496 28.4221 14.816 31.5421 16.736L32.6941 15.176C29.8381 13.448 28.2061 9.752 28.2061 6.272V2.216H26.6701ZM38.3101 0.175999V21.872H40.2301V0.175999H38.3101ZM33.9181 0.631999V20.792H35.7901V0.631999H33.9181ZM49.1323 3.272V6.8C49.1323 10.544 46.5163 14.624 43.3723 16.112L44.5243 17.696C47.9803 15.992 50.7403 11.384 50.7403 6.8V3.272H49.1323ZM49.5163 3.272V6.8C49.5163 11.312 52.3003 15.536 55.8043 17.168L56.9323 15.584C53.7403 14.216 51.1243 10.472 51.1243 6.8V3.272H49.5163ZM44.0923 2.384V4.064H56.2123V2.384H44.0923ZM59.1403 0.175999V21.872H61.1323V0.175999H59.1403Z" fill="url(#paint0_linear_500_1288)"/>
<defs>
<linearGradient id="paint0_linear_500_1288" x1="-1" y1="13.0862" x2="39.7295" y2="-18.9958" gradientUnits="userSpaceOnUse">
<stop stop-color="#7373F6"/>
<stop offset="0.361458" stop-color="#8B70F7"/>
<stop offset="0.634552" stop-color="#956EF6"/>
<stop offset="1" stop-color="#A869F7"/>
</linearGradient>
</defs>
</svg>
