<svg width="329" height="22" viewBox="0 0 329 22" fill="none" xmlns="http://www.w3.org/2000/svg">
<path d="M0.085899 16.272V18.648H18.5219V16.272H0.085899ZM7.8299 12.356V17.504H10.7559V12.356H7.8299ZM7.8079 4.832V5.272C7.8079 7.604 5.6079 10.134 0.657899 10.728L1.7139 13.038C7.3019 12.312 10.4039 9.166 10.4039 5.272V4.832H7.8079ZM8.2039 4.832V5.272C8.2039 9.166 11.2839 12.312 16.8719 13.038L17.9279 10.728C12.9779 10.134 10.7779 7.604 10.7779 5.272V4.832H8.2039ZM1.6479 3.336V5.69H16.9379V3.336H1.6479ZM7.8299 0.849999V4.304H10.7559V0.849999H7.8299ZM34.5802 0.586V20.958H37.3522V0.586H34.5802ZM31.8522 8.418V10.772H35.2402V8.418H31.8522ZM30.0262 0.937999V19.99H32.7322V0.937999H30.0262ZM20.4342 13.962V16.36H21.8642C24.4822 16.36 26.6382 16.294 29.1022 15.81L28.8822 13.434C26.4622 13.874 24.3722 13.962 21.8642 13.962H20.4342ZM20.4342 2.94V15.106H23.3382V5.294H27.9582V2.94H20.4342ZM52.7725 0.586V12.466H55.6985V0.586H52.7725ZM54.8845 5.206V7.604H58.4045V5.206H54.8845ZM40.2545 1.774V11.476H50.0445V1.774H47.1405V4.348H43.1585V1.774H40.2545ZM43.1585 6.592H47.1405V9.188H43.1585V6.592ZM42.4545 13.368V20.056H45.3805V15.678H55.8085V13.368H42.4545ZM42.4545 18.406V20.716H56.2045V18.406H42.4545ZM59.4587 10.97V13.302H77.8727V10.97H59.4587ZM61.6807 18.274V20.606H75.8047V18.274H61.6807ZM61.6807 14.666V19.022H64.6067V14.666H61.6807ZM68.6767 1.18C64.2327 1.18 61.3067 2.786 61.3067 5.382C61.3067 7.978 64.2327 9.584 68.6767 9.584C73.0987 9.584 76.0467 7.978 76.0467 5.382C76.0467 2.786 73.0987 1.18 68.6767 1.18ZM68.6767 3.512C71.4267 3.512 73.0327 4.15 73.0327 5.382C73.0327 6.636 71.4267 7.252 68.6767 7.252C65.9267 7.252 64.3207 6.636 64.3207 5.382C64.3207 4.15 65.9267 3.512 68.6767 3.512ZM93.1796 5.998V8.33H98.4156V5.998H93.1796ZM97.6676 0.607999V15.634H100.594V0.607999H97.6676ZM87.1076 18.274V20.606H101.034V18.274H87.1076ZM87.1076 14.16V19.616H90.0556V14.16H87.1076ZM84.4016 1.928V12.444H94.0376V1.928H91.1776V5.03H87.3056V1.928H84.4016ZM87.3056 7.252H91.1776V10.134H87.3056V7.252ZM104.134 3.116V5.448H120.942V3.116H104.134ZM103.364 16.558V18.912H121.8V16.558H103.364ZM111.086 13.874V17.482H113.99V13.874H111.086ZM112.516 6.328C108.27 6.328 105.608 7.802 105.608 10.31C105.608 12.818 108.27 14.292 112.516 14.292C116.762 14.292 119.424 12.818 119.424 10.31C119.424 7.802 116.762 6.328 112.516 6.328ZM112.516 8.594C115.068 8.594 116.432 9.144 116.432 10.31C116.432 11.476 115.068 12.004 112.516 12.004C109.964 12.004 108.6 11.476 108.6 10.31C108.6 9.144 109.964 8.594 112.516 8.594ZM111.086 0.806V4.568H113.99V0.806H111.086ZM123.162 16.338V18.714H141.598V16.338H123.162ZM130.884 12.488V17.306H133.81V12.488H130.884ZM125.23 1.906V4.216H136.626V6.394H125.274V12.114H128.178V8.682H139.53V1.906H125.23ZM125.274 10.948V13.302H139.992V10.948H125.274ZM147.247 9.892V12.268H165.683V9.892H147.247ZM149.469 6.174V8.484H163.593V6.174H149.469ZM149.469 1.136V7.318H152.373V3.468H163.483V1.136H149.469ZM156.399 13.478C151.999 13.478 149.315 14.82 149.315 17.218C149.315 19.616 151.999 20.958 156.399 20.958C160.799 20.958 163.461 19.616 163.461 17.218C163.461 14.82 160.799 13.478 156.399 13.478ZM156.399 15.678C159.127 15.678 160.513 16.184 160.513 17.218C160.513 18.274 159.127 18.736 156.399 18.736C153.671 18.736 152.285 18.274 152.285 17.218C152.285 16.184 153.671 15.678 156.399 15.678ZM167.023 11.498V13.83H185.481V11.498H167.023ZM169.289 0.981999V3.204H180.355V4.436H169.311V8.704H172.215V6.504H183.237V0.981999H169.289ZM169.311 7.824V10.046H183.633V7.824H169.311ZM174.789 8.902V12.774H177.715V8.902H174.789ZM169.069 14.974V17.284H180.443V20.892H183.369V14.974H169.069ZM196.04 0.871999C191.376 0.871999 188.67 2.104 188.67 4.348C188.67 6.592 191.376 7.824 196.04 7.824C200.682 7.824 203.41 6.592 203.41 4.348C203.41 2.104 200.682 0.871999 196.04 0.871999ZM196.04 3.006C198.988 3.006 200.374 3.446 200.374 4.348C200.374 5.294 198.988 5.69 196.04 5.69C193.092 5.69 191.706 5.294 191.706 4.348C191.706 3.446 193.092 3.006 196.04 3.006ZM186.822 8.77V11.08H205.236V8.77H186.822ZM188.934 12.224V14.402H200.132V15.436H188.956V19.264H191.838V17.46H203.014V12.224H188.934ZM188.956 18.626V20.826H203.542V18.626H188.956ZM215.878 2.148V5.118C215.878 9.078 214.206 12.994 210.664 14.534L212.402 16.954C216.45 15.084 218.254 10.354 218.254 5.118V2.148H215.878ZM216.45 2.148V5.118C216.45 10.134 218.254 14.666 222.192 16.47L223.908 14.116C220.432 12.62 218.826 8.88 218.826 5.118V2.148H216.45ZM224.876 0.563999V21.002H227.824V0.563999H224.876ZM235.237 2.676V3.952C235.237 6.504 233.807 9.144 230.397 10.244L231.915 12.51C235.809 11.256 237.635 7.802 237.635 3.952V2.676H235.237ZM235.831 2.676V3.952C235.831 7.604 237.591 10.926 241.397 12.158L242.893 9.892C239.593 8.836 238.207 6.35 238.207 3.952V2.676H235.831ZM231.189 1.774V4.106H242.189V1.774H231.189ZM243.817 0.586V12.862H246.743V0.586H243.817ZM245.929 5.514V7.912H249.449V5.514H245.929ZM233.147 13.742V16.096H243.817V20.958H246.743V13.742H233.147ZM250.481 3.644V5.976H260.227V3.644H250.481ZM255.387 6.878C252.813 6.878 250.921 8.88 250.921 11.74C250.921 14.578 252.813 16.58 255.387 16.58C257.983 16.58 259.853 14.578 259.853 11.74C259.853 8.88 257.983 6.878 255.387 6.878ZM255.387 9.32C256.487 9.32 257.279 10.2 257.279 11.74C257.279 13.28 256.487 14.138 255.387 14.138C254.287 14.138 253.517 13.28 253.517 11.74C253.517 10.2 254.287 9.32 255.387 9.32ZM265.221 0.586V20.958H268.015V0.586H265.221ZM262.779 8.858V11.212H266.145V8.858H262.779ZM260.953 0.959999V20.1H263.681V0.959999H260.953ZM253.957 1.136V5.118H256.839V1.136H253.957ZM277.847 2.852V3.446C277.847 5.536 275.691 7.824 271.203 8.374L272.281 10.662C277.451 9.958 280.377 7.032 280.377 3.446V2.852H277.847ZM278.683 2.852V3.446C278.683 7.032 281.609 9.958 286.801 10.662L287.857 8.374C283.369 7.824 281.213 5.536 281.213 3.446V2.852H278.683ZM278.001 13.5V20.98H280.905V13.5H278.001ZM270.323 11.828V14.16H288.737V11.828H270.323ZM271.951 1.62V3.93H287.065V1.62H271.951ZM298.13 7.428V9.804H301.496V7.428H298.13ZM293.774 2.346V5.778C293.774 9.232 292.718 12.862 289.726 14.71L291.486 16.91C294.742 14.908 296.018 10.398 296.018 5.778V2.346H293.774ZM294.412 2.346V5.646C294.412 10.046 295.424 14.446 298.658 16.448L300.242 14.16C297.47 12.356 296.612 8.968 296.612 5.646V2.346H294.412ZM304.818 0.586V20.958H307.612V0.586H304.818ZM300.682 0.894V20.034H303.41V0.894H300.682ZM313.968 10.926V16.646H316.872V10.926H313.968ZM321.36 10.926V16.646H324.286V10.926H321.36ZM309.92 16.228V18.604H328.356V16.228H309.92ZM319.116 1.576C314.716 1.576 311.504 3.732 311.504 7.054C311.504 10.376 314.716 12.51 319.116 12.51C323.494 12.51 326.728 10.376 326.728 7.054C326.728 3.732 323.494 1.576 319.116 1.576ZM319.116 3.864C321.954 3.864 323.846 5.03 323.846 7.054C323.846 9.056 321.954 10.244 319.116 10.244C316.278 10.244 314.386 9.056 314.386 7.054C314.386 5.03 316.278 3.864 319.116 3.864Z" fill="url(#paint0_linear_421_397)"/>
<defs>
<linearGradient id="paint0_linear_421_397" x1="-6" y1="-5.32813" x2="39.1627" y2="129.074" gradientUnits="userSpaceOnUse">
<stop stop-color="#7373F6"/>
<stop offset="0.361458" stop-color="#8B70F7"/>
<stop offset="0.634552" stop-color="#956EF6"/>
<stop offset="1" stop-color="#A869F7"/>
</linearGradient>
</defs>
</svg>
