<svg width="145" height="145" viewBox="0 0 145 145" fill="none" xmlns="http://www.w3.org/2000/svg">
<circle cx="72.5" cy="72.5" r="71.6429" fill="black" stroke="url(#paint0_linear_519_165)" stroke-width="1.71429"/>
<g filter="url(#filter0_d_519_165)">
<path d="M69.335 106.169V116.788H71.2827V106.169H69.335ZM67.6037 110.234V111.888H69.876V110.234H67.6037ZM66.2742 106.431V116.51H68.1911V106.431H66.2742ZM61.6523 118.597V120.236H71.6537V118.597H61.6523ZM61.6523 115.799V119.215H63.7082V115.799H61.6523ZM59.6581 113.233V114.856H60.6475C62.7652 114.856 64.1565 114.81 65.7796 114.516L65.6095 112.893C64.0328 113.187 62.7034 113.233 60.6475 113.233H59.6581ZM59.6427 107.328V108.936H63.0899V110.296H59.6581V114.145H61.6523V111.795H65.0685V107.328H59.6427ZM73.7084 112.367V114.021H74.8214C77.6966 114.021 79.2579 113.944 80.9429 113.589L80.7574 111.965C79.0879 112.306 77.6193 112.367 74.8214 112.367H73.7084ZM73.7084 106.957V112.939H75.7334V108.58H80.139V106.957H73.7084ZM82.8597 106.169V114.439H84.9156V106.169H82.8597ZM79.4743 109.477V111.115H83.3852V109.477H79.4743ZM75.3779 115.042V120.328H84.9156V115.042H75.3779ZM82.906 116.649V118.705H77.4029V116.649H82.906Z" fill="url(#paint1_linear_519_165)"/>
<path d="M72.5129 34C71.7151 34 70.9171 34.1785 70.2991 34.5355L50.5661 45.9312C49.3298 46.6452 49.3298 47.7742 50.5661 48.4882L70.2991 59.884C71.5354 60.5979 73.4903 60.5979 74.7265 59.884L94.4595 48.4882C95.6958 47.7744 95.6958 46.6452 94.4595 45.9314L74.7265 34.5356C74.1083 34.1784 73.3106 34 72.5129 34ZM72.4065 40.8496C73.5708 40.8621 74.6177 41.1284 75.5469 41.6482C76.1825 42.0039 76.5988 42.4095 76.7956 42.8654C76.9859 43.3177 76.9971 43.9139 76.8292 44.6535L76.6225 45.3894C76.4855 45.916 76.4571 46.2948 76.5372 46.5257C76.6109 46.7532 76.7934 46.9484 77.0852 47.1117L77.5231 47.3565L73.2298 49.7579L72.7527 49.4913C72.2207 49.1939 71.8815 48.8578 71.7343 48.4828C71.5809 48.1043 71.6065 47.5022 71.8111 46.6766L72.0079 45.9352C72.1225 45.4938 72.1336 45.1318 72.0415 44.8496C71.9572 44.5627 71.7659 44.3359 71.4675 44.169C71.0134 43.9149 70.4694 43.8239 69.8359 43.8952C69.1956 43.963 68.5347 44.1877 67.8529 44.5691C67.2106 44.9282 66.6274 45.378 66.1025 45.9181C65.5713 46.4549 65.1155 47.069 64.7348 47.7608L61.6797 46.0517C62.3667 45.363 63.0416 44.7607 63.7047 44.2445C64.368 43.7286 65.0681 43.2643 65.8055 42.8516C67.7401 41.7695 69.5393 41.126 71.2028 40.9213C71.602 40.8701 72.0042 40.8461 72.4067 40.8495L72.4065 40.8496ZM78.9634 48.1622L82.4274 50.0998L78.1341 52.5012L74.6699 50.5637L78.9634 48.1623V48.1622ZM49.2484 50.6469C48.5052 50.6269 48 51.2061 48 52.2306V72.5686C48 73.994 48.9779 75.6849 50.2142 76.3978L69.195 87.3406C70.4313 88.0533 71.4092 87.4897 71.4092 86.0644V65.726C71.4092 64.3007 70.4313 62.6101 69.195 61.8972L50.2142 50.9545C49.8667 50.7539 49.5392 50.6544 49.2484 50.6466V50.6469ZM95.854 50.6472C95.5634 50.6549 95.2362 50.7542 94.8885 50.9547L75.9071 61.8974C74.6708 62.6103 73.6929 64.3012 73.6929 65.7265V86.0651C73.6929 87.4902 74.6708 88.0535 75.9071 87.3406L94.8886 76.3983C96.1249 75.6855 97.1025 73.9948 97.1025 72.5694V52.2309C97.1025 51.2066 96.5974 50.6275 95.854 50.6474V50.6472ZM54.316 58.8692C55.1625 59.0454 55.9357 59.261 56.6353 59.5158C57.3367 59.7714 58.0145 60.0875 58.6609 60.4605C60.3678 61.4445 61.6691 62.5658 62.5646 63.8242C63.4601 65.0753 63.9078 66.4096 63.9078 67.8275C63.9078 68.5549 63.7715 69.1293 63.4986 69.551C63.2257 69.9653 62.7604 70.3132 62.1029 70.5949L61.4311 70.8425C60.9555 71.0285 60.644 71.2201 60.4971 71.4177C60.3502 71.6076 60.2769 71.8694 60.2769 72.2034V72.7045L56.4886 70.5206V69.9751C56.4886 69.3663 56.6038 68.8948 56.8348 68.5603C57.0657 68.2182 57.552 67.8974 58.2935 67.5973L58.9653 67.3385C59.3641 67.1825 59.6543 66.9862 59.8362 66.7495C60.0248 66.517 60.1194 66.23 60.1194 65.8885C60.1194 65.3692 59.9515 64.8677 59.6156 64.3847C59.2797 63.8941 58.8112 63.4755 58.2094 63.1286C57.6427 62.802 57.0305 62.5753 56.3728 62.4487C55.7153 62.3145 55.0296 62.2869 54.316 62.3655V58.8691V58.8692ZM89.1359 59.9793C89.3325 59.9793 89.5147 60.0006 89.6826 60.0429C90.5781 60.2616 91.0258 61.0798 91.0258 62.4977C91.0258 63.2251 90.8894 63.9568 90.6166 64.6931C90.3437 65.4218 89.8784 66.3061 89.2209 67.3458L88.5491 68.3677C88.0735 69.1022 87.762 69.6526 87.6151 70.0194C87.4683 70.3786 87.3949 70.7253 87.3949 71.0593V71.5604L83.6066 73.7441V73.1985C83.6066 72.5898 83.7221 71.9849 83.9528 71.3843C84.1841 70.7762 84.67 69.8947 85.4116 68.7399L86.0833 67.7069C86.4821 67.0909 86.7724 66.5598 86.9543 66.1136C87.1429 65.6632 87.2374 65.2673 87.2374 64.9258C87.2374 64.4063 87.0695 64.0986 86.7339 64.0026C86.398 63.8994 85.9291 64.0209 85.3275 64.3676C84.7607 64.6943 84.1488 65.1737 83.4911 65.805C82.8336 66.4292 82.1479 67.1916 81.4343 68.0929V64.5965C82.2808 63.7969 83.0537 63.1211 83.7531 62.5694C84.4529 62.0176 85.1283 61.5544 85.7787 61.1795C87.1659 60.3799 88.2848 59.9798 89.1362 59.9791L89.1359 59.9793ZM56.4885 72.1688L60.2769 74.3523V78.3163L56.4886 76.1329V72.169L56.4885 72.1688ZM87.3949 73.2083V77.1722L83.6066 79.3557V75.3921L87.395 73.2083H87.3949Z" fill="url(#paint2_linear_519_165)"/>
</g>
<defs>
<filter id="filter0_d_519_165" x="44.3628" y="34" width="56.377" height="93.6028" filterUnits="userSpaceOnUse" color-interpolation-filters="sRGB">
<feFlood flood-opacity="0" result="BackgroundImageFix"/>
<feColorMatrix in="SourceAlpha" type="matrix" values="0 0 0 0 0 0 0 0 0 0 0 0 0 0 0 0 0 0 127 0" result="hardAlpha"/>
<feOffset dy="3.63722"/>
<feGaussianBlur stdDeviation="1.81861"/>
<feComposite in2="hardAlpha" operator="out"/>
<feColorMatrix type="matrix" values="0 0 0 0 0 0 0 0 0 0 0 0 0 0 0 0 0 0 0.25 0"/>
<feBlend mode="normal" in2="BackgroundImageFix" result="effect1_dropShadow_519_165"/>
<feBlend mode="normal" in="SourceGraphic" in2="effect1_dropShadow_519_165" result="shape"/>
</filter>
<linearGradient id="paint0_linear_519_165" x1="72.5" y1="0" x2="72.5" y2="145" gradientUnits="userSpaceOnUse">
<stop stop-color="#BF55F7"/>
<stop offset="0.21875" stop-color="#764FDB"/>
<stop offset="0.479167" stop-color="#8B69F1"/>
<stop offset="1" stop-color="#734FDA"/>
</linearGradient>
<linearGradient id="paint1_linear_519_165" x1="72.4403" y1="103.94" x2="72.4703" y2="123.107" gradientUnits="userSpaceOnUse">
<stop offset="0.0376576" stop-color="#BF55F7"/>
<stop offset="0.395833" stop-color="#764FDB"/>
<stop offset="0.647338" stop-color="#8B69F1"/>
<stop offset="1" stop-color="#734FDA"/>
</linearGradient>
<linearGradient id="paint2_linear_519_165" x1="72.4457" y1="36.2353" x2="72.5728" y2="87.6489" gradientUnits="userSpaceOnUse">
<stop offset="0.0376576" stop-color="#BF55F7"/>
<stop offset="0.395833" stop-color="#764FDB"/>
<stop offset="0.647338" stop-color="#8B69F1"/>
<stop offset="1" stop-color="#734FDA"/>
</linearGradient>
</defs>
</svg>
