<svg width="148" height="245" viewBox="0 0 148 245" fill="none" xmlns="http://www.w3.org/2000/svg">
<g filter="url(#filter0_d_510_482)">
<circle cx="74" cy="177" r="59.1429" fill="black" stroke="url(#paint0_linear_510_482)" stroke-width="1.71429"/>
<path d="M85.475 157.5C81.038 157.5 76.7795 159.62 74 162.918C71.2205 159.62 66.962 157.5 62.525 157.5C54.671 157.5 48.5 163.808 48.5 171.895C48.5 181.762 57.17 189.849 70.3025 202.071L74 205.5L77.6975 202.071C90.83 189.849 99.5 181.762 99.5 171.895C99.5 163.808 93.329 157.5 85.475 157.5ZM74 196.758V186.29H66.35L74 167.969V178.438H81.65" fill="url(#paint1_linear_510_482)"/>
</g>
<mask id="path-3-outside-1_510_482" maskUnits="userSpaceOnUse" x="0" y="103" width="148" height="75" fill="black">
<rect fill="white" y="103" width="148" height="75"/>
<path fill-rule="evenodd" clip-rule="evenodd" d="M1 176.641H2.00016C2.16697 167.518 4.01077 158.503 7.4401 150.065C11.0398 141.208 16.3159 133.16 22.9671 126.382C29.6184 119.603 37.5147 114.226 46.205 110.557C54.8953 106.888 64.2096 105 73.6159 105C83.0223 105 92.3365 106.888 101.027 110.557C109.717 114.226 117.613 119.603 124.265 126.382C130.916 133.16 136.192 141.208 139.792 150.065C143.221 158.503 145.065 167.518 145.232 176.641H146.232C146.065 167.389 144.196 158.246 140.718 149.688C137.07 140.711 131.722 132.554 124.979 125.681C118.235 118.809 110.229 113.356 101.416 109.636C92.6027 105.915 83.1563 104 73.6159 104C64.0756 104 54.6291 105.915 45.8161 109.636C37.0031 113.356 28.9966 118.809 22.2534 125.681C15.5101 132.554 10.1621 140.711 6.51369 149.688C3.03564 158.246 1.16691 167.389 1 176.641Z"/>
</mask>
<path fill-rule="evenodd" clip-rule="evenodd" d="M1 176.641H2.00016C2.16697 167.518 4.01077 158.503 7.4401 150.065C11.0398 141.208 16.3159 133.16 22.9671 126.382C29.6184 119.603 37.5147 114.226 46.205 110.557C54.8953 106.888 64.2096 105 73.6159 105C83.0223 105 92.3365 106.888 101.027 110.557C109.717 114.226 117.613 119.603 124.265 126.382C130.916 133.16 136.192 141.208 139.792 150.065C143.221 158.503 145.065 167.518 145.232 176.641H146.232C146.065 167.389 144.196 158.246 140.718 149.688C137.07 140.711 131.722 132.554 124.979 125.681C118.235 118.809 110.229 113.356 101.416 109.636C92.6027 105.915 83.1563 104 73.6159 104C64.0756 104 54.6291 105.915 45.8161 109.636C37.0031 113.356 28.9966 118.809 22.2534 125.681C15.5101 132.554 10.1621 140.711 6.51369 149.688C3.03564 158.246 1.16691 167.389 1 176.641Z" fill="url(#paint2_linear_510_482)"/>
<path d="M1 176.641L0.000162661 176.623C-0.00467741 176.891 0.0985163 177.15 0.286545 177.342C0.474573 177.533 0.731657 177.641 1 177.641V176.641ZM2.00016 176.641V177.641C2.54532 177.641 2.99003 177.204 3 176.659L2.00016 176.641ZM7.4401 150.065L8.36651 150.441L7.4401 150.065ZM22.9671 126.382L23.6809 127.082L22.9671 126.382ZM101.027 110.557L101.416 109.636V109.636L101.027 110.557ZM124.265 126.382L124.979 125.681L124.265 126.382ZM139.792 150.065L140.718 149.688L139.792 150.065ZM145.232 176.641L144.232 176.659C144.242 177.204 144.687 177.641 145.232 177.641V176.641ZM146.232 176.641V177.641C146.5 177.641 146.757 177.533 146.945 177.342C147.133 177.15 147.237 176.891 147.232 176.623L146.232 176.641ZM140.718 149.688L141.645 149.312L140.718 149.688ZM124.979 125.681L124.265 126.382L124.979 125.681ZM101.416 109.636L101.805 108.714V108.714L101.416 109.636ZM45.8161 109.636L46.205 110.557L45.8161 109.636ZM22.2534 125.681L22.9671 126.382L22.2534 125.681ZM6.51369 149.688L7.4401 150.065L6.51369 149.688ZM1 177.641H2.00016V175.641H1V177.641ZM3 176.659C3.16456 167.658 4.98361 158.765 8.36651 150.441L6.51369 149.688C3.03792 158.24 1.16937 167.377 1.00033 176.623L3 176.659ZM8.36651 150.441C11.9174 141.704 17.1216 133.767 23.6809 127.082L22.2534 125.681C15.5101 132.554 10.1621 140.711 6.51369 149.688L8.36651 150.441ZM23.6809 127.082C30.2403 120.397 38.0263 115.095 46.5939 111.478L45.8161 109.636C37.0031 113.356 28.9966 118.809 22.2534 125.681L23.6809 127.082ZM46.5939 111.478C55.1615 107.861 64.3436 106 73.6159 106V104C64.0756 104 54.6291 105.915 45.8161 109.636L46.5939 111.478ZM73.6159 106C82.8883 106 92.0703 107.861 100.638 111.478L101.416 109.636C92.6027 105.915 83.1563 104 73.6159 104V106ZM100.638 111.478C109.206 115.095 116.992 120.397 123.551 127.082L124.979 125.681C118.235 118.809 110.229 113.356 101.416 109.636L100.638 111.478ZM123.551 127.082C130.11 133.767 135.314 141.704 138.865 150.441L140.718 149.688C137.07 140.711 131.722 132.554 124.979 125.681L123.551 127.082ZM138.865 150.441C142.248 158.765 144.067 167.658 144.232 176.659L146.232 176.623C146.062 167.377 144.194 158.24 140.718 149.688L138.865 150.441ZM145.232 177.641H146.232V175.641H145.232V177.641ZM139.792 150.065C143.223 158.508 145.067 167.529 145.232 176.659L147.232 176.623C147.063 167.248 145.169 157.984 141.645 149.312L139.792 150.065ZM124.265 126.382C130.916 133.16 136.192 141.208 139.792 150.065L141.645 149.312C137.947 140.215 132.527 131.947 125.692 124.981L124.265 126.382ZM101.027 110.557C109.717 114.226 117.613 119.603 124.265 126.382L125.692 124.981C118.857 118.015 110.74 112.487 101.805 108.714L101.027 110.557ZM73.6159 105C83.0223 105 92.3365 106.888 101.027 110.557L101.805 108.714C92.8689 104.942 83.2903 103 73.6159 103V105ZM46.205 110.557C54.8953 106.888 64.2096 105 73.6159 105V103C63.9416 103 54.3629 104.942 45.4272 108.714L46.205 110.557ZM22.9671 126.382C29.6184 119.603 37.5147 114.226 46.205 110.557L45.4272 108.714C36.4915 112.487 28.3748 118.015 21.5396 124.981L22.9671 126.382ZM7.4401 150.065C11.0398 141.208 16.3159 133.16 22.9671 126.382L21.5396 124.981C14.7044 131.947 9.28443 140.215 5.58728 149.312L7.4401 150.065ZM1.99984 176.659C2.16454 167.529 4.00851 158.508 7.4401 150.065L5.58728 149.312C2.06276 157.984 0.169285 167.248 0.000162661 176.623L1.99984 176.659Z" fill="url(#paint3_linear_510_482)" mask="url(#path-3-outside-1_510_482)"/>
<line x1="72.5" y1="1.5" x2="72.5" y2="101.5" stroke="url(#paint4_linear_510_482)" stroke-width="3" stroke-linecap="round" stroke-dasharray="7 7"/>
<defs>
<filter id="filter0_d_510_482" x="10" y="117" width="128" height="128" filterUnits="userSpaceOnUse" color-interpolation-filters="sRGB">
<feFlood flood-opacity="0" result="BackgroundImageFix"/>
<feColorMatrix in="SourceAlpha" type="matrix" values="0 0 0 0 0 0 0 0 0 0 0 0 0 0 0 0 0 0 127 0" result="hardAlpha"/>
<feOffset dy="4"/>
<feGaussianBlur stdDeviation="2"/>
<feComposite in2="hardAlpha" operator="out"/>
<feColorMatrix type="matrix" values="0 0 0 0 0 0 0 0 0 0 0 0 0 0 0 0 0 0 0.25 0"/>
<feBlend mode="normal" in2="BackgroundImageFix" result="effect1_dropShadow_510_482"/>
<feBlend mode="normal" in="SourceGraphic" in2="effect1_dropShadow_510_482" result="shape"/>
</filter>
<linearGradient id="paint0_linear_510_482" x1="74" y1="117" x2="74" y2="237" gradientUnits="userSpaceOnUse">
<stop stop-color="#BF55F7"/>
<stop offset="0.21875" stop-color="#764FDB"/>
<stop offset="0.479167" stop-color="#8B69F1"/>
<stop offset="1" stop-color="#734FDA"/>
</linearGradient>
<linearGradient id="paint1_linear_510_482" x1="74" y1="157.5" x2="74" y2="205.5" gradientUnits="userSpaceOnUse">
<stop stop-color="#BF55F7"/>
<stop offset="0.21875" stop-color="#764FDB"/>
<stop offset="0.479167" stop-color="#8B69F1"/>
<stop offset="1" stop-color="#734FDA"/>
</linearGradient>
<linearGradient id="paint2_linear_510_482" x1="73.3037" y1="107.027" x2="73.3825" y2="176.641" gradientUnits="userSpaceOnUse">
<stop offset="0.0376576" stop-color="#BF55F7"/>
<stop offset="0.395833" stop-color="#764FDB"/>
<stop offset="0.647338" stop-color="#8B69F1"/>
<stop offset="1" stop-color="#734FDA"/>
</linearGradient>
<linearGradient id="paint3_linear_510_482" x1="73.3037" y1="107.027" x2="73.3825" y2="176.641" gradientUnits="userSpaceOnUse">
<stop offset="0.0376576" stop-color="#BF55F7"/>
<stop offset="0.395833" stop-color="#764FDB"/>
<stop offset="0.647338" stop-color="#8B69F1"/>
<stop offset="1" stop-color="#734FDA"/>
</linearGradient>
<linearGradient id="paint4_linear_510_482" x1="70.4052" y1="-1.43344e-06" x2="74.2086" y2="0.140638" gradientUnits="userSpaceOnUse">
<stop stop-color="#7373F6"/>
<stop offset="0.361458" stop-color="#8B70F7"/>
<stop offset="0.634552" stop-color="#956EF6"/>
<stop offset="1" stop-color="#A869F7"/>
</linearGradient>
</defs>
</svg>
