<svg width="145" height="145" viewBox="0 0 145 145" fill="none" xmlns="http://www.w3.org/2000/svg">
<circle cx="72.5" cy="72.5" r="71.6429" fill="black" stroke="url(#paint0_linear_519_166)" stroke-width="1.71429"/>
<g filter="url(#filter0_d_519_166)">
<path d="M60.7246 102.701C58.1306 102.701 56.1805 104.32 56.1805 106.601C56.1805 108.864 58.1306 110.483 60.7246 110.483C63.3187 110.483 65.2688 108.864 65.2688 106.601C65.2688 104.32 63.3187 102.701 60.7246 102.701ZM60.7246 104.688C61.9757 104.688 62.8955 105.387 62.8955 106.601C62.8955 107.815 61.9757 108.515 60.7246 108.515C59.4736 108.515 58.5354 107.815 58.5354 106.601C58.5354 105.387 59.4736 104.688 60.7246 104.688ZM67.6236 102.204V110.722H70.0888V102.204H67.6236ZM58.7193 111.421V113.316H67.6604V114.328H58.7561V118.155H61.1478V116.094H70.0888V111.421H58.7193ZM58.7561 117.161V119.056H70.512V117.161H58.7561ZM83.3702 102.223V114.751H85.8171V102.223H83.3702ZM85.118 107.006V109.011H88.0799V107.006H85.118ZM74.8339 116.996V118.946H86.4242V116.996H74.8339ZM74.8339 113.482V117.419H77.2807V113.482H74.8339ZM72.9022 103.418V112.065H81.089V103.418H78.6605V105.865H75.3306V103.418H72.9022ZM75.3306 107.723H78.6605V110.152H75.3306V107.723Z" fill="url(#paint1_linear_519_166)"/>
<g clip-path="url(#clip0_519_166)">
<path d="M91.3302 41.1664C92.17 41.1664 92.9753 41.5 93.5692 42.0939C94.163 42.6877 94.4966 43.4931 94.4966 44.3329V69.6644C94.4966 70.5042 94.163 71.3096 93.5692 71.9034C92.9753 72.4972 92.17 72.8308 91.3302 72.8308H83.4141C82.4309 72.8308 81.4613 73.0597 80.5819 73.4994C79.7026 73.9391 78.9376 74.5775 78.3478 75.364L72.3315 83.3846L66.3153 75.364C65.7254 74.5775 64.9605 73.9391 64.0811 73.4994C63.2018 73.0597 62.2321 72.8308 61.249 72.8308H53.3329C52.4931 72.8308 51.6877 72.4972 51.0939 71.9034C50.5 71.3096 50.1664 70.5042 50.1664 69.6644V44.3329C50.1664 43.4931 50.5 42.6877 51.0939 42.0939C51.6877 41.5 52.4931 41.1664 53.3329 41.1664H91.3302ZM53.3329 38C51.6533 38 50.0425 38.6672 48.8549 39.8549C47.6672 41.0425 47 42.6533 47 44.3329V69.6644C47 71.344 47.6672 72.9548 48.8549 74.1424C50.0425 75.3301 51.6533 75.9973 53.3329 75.9973H61.249C61.7406 75.9973 62.2254 76.1117 62.6651 76.3316C63.1047 76.5514 63.4872 76.8706 63.7821 77.2639L69.7984 85.2845C70.0933 85.6777 70.4758 85.9969 70.9154 86.2167C71.3551 86.4366 71.8399 86.551 72.3315 86.551C72.8231 86.551 73.3079 86.4366 73.7476 86.2167C74.1873 85.9969 74.5697 85.6777 74.8647 85.2845L80.8809 77.2639C81.1759 76.8706 81.5583 76.5514 81.998 76.3316C82.4377 76.1117 82.9225 75.9973 83.4141 75.9973H91.3302C93.0097 75.9973 94.6205 75.3301 95.8082 74.1424C96.9958 72.9548 97.663 71.344 97.663 69.6644V44.3329C97.663 42.6533 96.9958 41.0425 95.8082 39.8549C94.6205 38.6672 93.0097 38 91.3302 38H53.3329Z" fill="url(#paint2_linear_519_166)"/>
<path d="M72.332 50.6435C77.601 45.2258 90.7765 54.7061 72.332 66.8937C53.8875 54.7029 67.063 45.2258 72.332 50.6435Z" fill="url(#paint3_linear_519_166)"/>
</g>
</g>
<defs>
<filter id="filter0_d_519_166" x="42.6712" y="38" width="59.3206" height="89.7137" filterUnits="userSpaceOnUse" color-interpolation-filters="sRGB">
<feFlood flood-opacity="0" result="BackgroundImageFix"/>
<feColorMatrix in="SourceAlpha" type="matrix" values="0 0 0 0 0 0 0 0 0 0 0 0 0 0 0 0 0 0 127 0" result="hardAlpha"/>
<feOffset dy="4.32877"/>
<feGaussianBlur stdDeviation="2.16438"/>
<feComposite in2="hardAlpha" operator="out"/>
<feColorMatrix type="matrix" values="0 0 0 0 0 0 0 0 0 0 0 0 0 0 0 0 0 0 0.25 0"/>
<feBlend mode="normal" in2="BackgroundImageFix" result="effect1_dropShadow_519_166"/>
<feBlend mode="normal" in="SourceGraphic" in2="effect1_dropShadow_519_166" result="shape"/>
</filter>
<linearGradient id="paint0_linear_519_166" x1="72.5" y1="0" x2="72.5" y2="145" gradientUnits="userSpaceOnUse">
<stop stop-color="#BF55F7"/>
<stop offset="0.21875" stop-color="#764FDB"/>
<stop offset="0.479167" stop-color="#8B69F1"/>
<stop offset="1" stop-color="#734FDA"/>
</linearGradient>
<linearGradient id="paint1_linear_519_166" x1="71.8066" y1="99.3693" x2="71.8254" y2="117" gradientUnits="userSpaceOnUse">
<stop offset="0.0376576" stop-color="#BF55F7"/>
<stop offset="0.395833" stop-color="#764FDB"/>
<stop offset="0.647338" stop-color="#8B69F1"/>
<stop offset="1" stop-color="#734FDA"/>
</linearGradient>
<linearGradient id="paint2_linear_519_166" x1="72.2226" y1="40.0229" x2="72.3235" y2="86.551" gradientUnits="userSpaceOnUse">
<stop offset="0.0376576" stop-color="#BF55F7"/>
<stop offset="0.395833" stop-color="#764FDB"/>
<stop offset="0.647338" stop-color="#8B69F1"/>
<stop offset="1" stop-color="#734FDA"/>
</linearGradient>
<linearGradient id="paint3_linear_519_166" x1="72.2912" y1="49.8248" x2="72.3274" y2="66.8937" gradientUnits="userSpaceOnUse">
<stop offset="0.0376576" stop-color="#BF55F7"/>
<stop offset="0.395833" stop-color="#764FDB"/>
<stop offset="0.647338" stop-color="#8B69F1"/>
<stop offset="1" stop-color="#734FDA"/>
</linearGradient>
<clipPath id="clip0_519_166">
<rect width="50.663" height="50.663" fill="white" transform="translate(47 38)"/>
</clipPath>
</defs>
</svg>
