<svg width="103" height="103" viewBox="0 0 103 103" fill="none" xmlns="http://www.w3.org/2000/svg">
<g filter="url(#filter0_d_510_182)">
<circle cx="51.5" cy="47.5" r="46.6429" fill="black" stroke="url(#paint0_linear_510_182)" stroke-width="1.71429"/>
<path d="M52.0937 31.9136C52.0937 30.9975 51.9141 30.0905 51.565 29.2442C51.216 28.3979 50.7044 27.6289 50.0594 26.9811C49.4145 26.3334 48.6488 25.8196 47.8061 25.4691C46.9635 25.1185 46.0603 24.9381 45.1482 24.9381H38.3474C37.4279 24.9262 36.5151 25.0978 35.6622 25.443C34.8092 25.7882 34.0329 26.3001 33.3785 26.9489C32.7241 27.5978 32.2044 28.3707 31.8498 29.2229C31.4951 30.075 31.3125 30.9894 31.3125 31.913C31.3125 32.8366 31.4951 33.7509 31.8498 34.6031C32.2044 35.4552 32.7241 36.2281 33.3785 36.877C34.0329 37.5259 34.8092 38.0377 35.6622 38.3829C36.5151 38.7281 37.4279 38.8998 38.3474 38.8879H39.6786V42.2555C39.6786 42.2555 52.0937 40.5723 52.0937 31.9136ZM45.7712 50.337C45.7712 52.8885 43.7135 54.955 41.173 54.955C38.6325 54.955 36.5748 52.8885 36.5748 50.337C36.5748 47.7856 38.6325 45.719 41.173 45.719C43.7135 45.719 45.7712 47.7856 45.7712 50.337ZM41.173 57.264C37.9118 57.264 31.4019 58.9149 31.4019 62.1903V66.5H50.9442V62.1903C50.9442 58.9138 44.4343 57.264 41.173 57.264ZM63.0145 54.955C65.555 54.955 67.6127 52.8885 67.6127 50.337C67.6127 47.7856 65.555 45.719 63.0145 45.719C60.474 45.719 58.4163 47.7856 58.4163 50.337C58.4163 52.8885 60.474 54.955 63.0145 54.955ZM63.0145 57.264C59.7532 57.264 53.2433 58.9149 53.2433 62.1903V66.5H72.7856V62.1903C72.7856 58.9138 66.2757 57.264 63.0145 57.264ZM61.3384 26.0926C59.4963 26.0926 57.7297 26.8275 56.4272 28.1356C55.1246 29.4438 54.3928 31.218 54.3928 33.0681C54.3928 41.7268 65.4285 43.41 65.4285 43.41V40.0424H65.8401C66.7596 40.0543 67.6724 39.8826 68.5253 39.5374C69.3783 39.1922 70.1546 38.6804 70.809 38.0315C71.4634 37.3826 71.9831 36.6097 72.3377 35.7576C72.6924 34.9054 72.875 33.9911 72.875 33.0675C72.875 32.1439 72.6924 31.2295 72.3377 30.3774C71.9831 29.5252 71.4634 28.7523 70.809 28.1034C70.1546 27.4546 69.3783 26.9427 68.5253 26.5975C67.6724 26.2523 66.7596 26.0807 65.8401 26.0926H61.3384Z" fill="url(#paint1_linear_510_182)"/>
</g>
<defs>
<filter id="filter0_d_510_182" x="0" y="0" width="103" height="103" filterUnits="userSpaceOnUse" color-interpolation-filters="sRGB">
<feFlood flood-opacity="0" result="BackgroundImageFix"/>
<feColorMatrix in="SourceAlpha" type="matrix" values="0 0 0 0 0 0 0 0 0 0 0 0 0 0 0 0 0 0 127 0" result="hardAlpha"/>
<feOffset dy="4"/>
<feGaussianBlur stdDeviation="2"/>
<feComposite in2="hardAlpha" operator="out"/>
<feColorMatrix type="matrix" values="0 0 0 0 0 0 0 0 0 0 0 0 0 0 0 0 0 0 0.25 0"/>
<feBlend mode="normal" in2="BackgroundImageFix" result="effect1_dropShadow_510_182"/>
<feBlend mode="normal" in="SourceGraphic" in2="effect1_dropShadow_510_182" result="shape"/>
</filter>
<linearGradient id="paint0_linear_510_182" x1="51.5" y1="0" x2="51.5" y2="95" gradientUnits="userSpaceOnUse">
<stop stop-color="#BF55F7"/>
<stop offset="0.21875" stop-color="#764FDB"/>
<stop offset="0.479167" stop-color="#8B69F1"/>
<stop offset="1" stop-color="#734FDA"/>
</linearGradient>
<linearGradient id="paint1_linear_510_182" x1="52.0044" y1="26.6692" x2="52.0945" y2="66.5" gradientUnits="userSpaceOnUse">
<stop offset="0.0376576" stop-color="#BF55F7"/>
<stop offset="0.395833" stop-color="#764FDB"/>
<stop offset="0.647338" stop-color="#8B69F1"/>
<stop offset="1" stop-color="#734FDA"/>
</linearGradient>
</defs>
</svg>
