<svg width="168" height="169" viewBox="0 0 168 169" fill="none" xmlns="http://www.w3.org/2000/svg">
<g filter="url(#filter0_d_592_1632)">
<circle cx="84" cy="80.9688" r="71" fill="url(#paint0_linear_592_1632)"/>
</g>
<path d="M95.525 49C91.262 49 87.1705 50.9875 84.5 54.0791C81.8295 50.9875 77.738 49 73.475 49C65.929 49 60 54.9133 60 62.4951C60 71.7454 68.33 79.3272 80.9475 90.7857L84.5 94L88.0525 90.7857C100.67 79.3272 109 71.7454 109 62.4951C109 54.9133 103.071 49 95.525 49ZM84.5 85.8048V75.9902H77.15L84.5 58.8146V68.6292H91.85" fill="white"/>
<path d="M81.1183 107.771V123.513H83.2773V107.771H81.1183ZM79.2313 113.772V115.591H81.8323V113.772H79.2313ZM77.6673 108.009V122.799H79.7923V108.009H77.6673ZM70.1873 109.386V119.586H76.4093V109.386H70.1873ZM74.3013 111.154V117.818H72.2953V111.154H74.3013ZM88.818 110.423V111.001C88.818 112.786 87.696 114.622 85.112 115.353L86.166 117.104C89.226 116.254 90.671 113.772 90.671 111.001V110.423H88.818ZM89.243 110.423V111.001C89.243 113.636 90.722 115.982 93.782 116.781L94.802 115.013C92.235 114.35 91.079 112.65 91.079 111.001V110.423H89.243ZM85.639 109.42V111.188H94.241V109.42H85.639ZM88.818 107.805V110.202H91.079V107.805H88.818ZM95.788 107.788V117.257H98.066V107.788H95.788ZM92.728 117.529C89.396 117.529 87.356 118.634 87.356 120.521C87.356 122.425 89.396 123.513 92.728 123.513C96.06 123.513 98.134 122.425 98.134 120.521C98.134 118.634 96.06 117.529 92.728 117.529ZM92.728 119.263C94.785 119.263 95.873 119.671 95.873 120.521C95.873 121.388 94.785 121.796 92.728 121.796C90.688 121.796 89.617 121.388 89.617 120.521C89.617 119.671 90.688 119.263 92.728 119.263Z" fill="white"/>
<defs>
<filter id="filter0_d_592_1632" x="0" y="0.96875" width="168" height="168" filterUnits="userSpaceOnUse" color-interpolation-filters="sRGB">
<feFlood flood-opacity="0" result="BackgroundImageFix"/>
<feColorMatrix in="SourceAlpha" type="matrix" values="0 0 0 0 0 0 0 0 0 0 0 0 0 0 0 0 0 0 127 0" result="hardAlpha"/>
<feOffset dy="4"/>
<feGaussianBlur stdDeviation="6.5"/>
<feComposite in2="hardAlpha" operator="out"/>
<feColorMatrix type="matrix" values="0 0 0 0 0.2625 0 0 0 0 0.2625 0 0 0 0 0.2625 0 0 0 1 0"/>
<feBlend mode="normal" in2="BackgroundImageFix" result="effect1_dropShadow_592_1632"/>
<feBlend mode="normal" in="SourceGraphic" in2="effect1_dropShadow_592_1632" result="shape"/>
</filter>
<linearGradient id="paint0_linear_592_1632" x1="13" y1="94.4343" x2="145.842" y2="59.5551" gradientUnits="userSpaceOnUse">
<stop stop-color="#7373F6"/>
<stop offset="0.361458" stop-color="#8B70F7"/>
<stop offset="0.634552" stop-color="#956EF6"/>
<stop offset="1" stop-color="#A869F7"/>
</linearGradient>
</defs>
</svg>
