<svg width="103" height="103" viewBox="0 0 103 103" fill="none" xmlns="http://www.w3.org/2000/svg">
<g filter="url(#filter0_d_510_172)">
<circle cx="51.5" cy="47.5" r="46.6429" fill="black" stroke="url(#paint0_linear_510_172)" stroke-width="1.71429"/>
<path d="M60.5844 32.0625C57.0718 32.0625 53.7004 33.7408 51.5 36.3515C49.2996 33.7408 45.9283 32.0625 42.4156 32.0625C36.1979 32.0625 31.3125 37.056 31.3125 43.4584C31.3125 51.2697 38.1763 57.6721 48.5728 67.3482L51.5 70.0625L54.4272 67.3482C64.8238 57.6721 71.6875 51.2697 71.6875 43.4584C71.6875 37.056 66.8021 32.0625 60.5844 32.0625ZM51.5 63.1421V54.8542H45.4438L51.5 40.3504V48.6383H57.5563" fill="url(#paint1_linear_510_172)"/>
</g>
<defs>
<filter id="filter0_d_510_172" x="0" y="0" width="103" height="103" filterUnits="userSpaceOnUse" color-interpolation-filters="sRGB">
<feFlood flood-opacity="0" result="BackgroundImageFix"/>
<feColorMatrix in="SourceAlpha" type="matrix" values="0 0 0 0 0 0 0 0 0 0 0 0 0 0 0 0 0 0 127 0" result="hardAlpha"/>
<feOffset dy="4"/>
<feGaussianBlur stdDeviation="2"/>
<feComposite in2="hardAlpha" operator="out"/>
<feColorMatrix type="matrix" values="0 0 0 0 0 0 0 0 0 0 0 0 0 0 0 0 0 0 0.25 0"/>
<feBlend mode="normal" in2="BackgroundImageFix" result="effect1_dropShadow_510_172"/>
<feBlend mode="normal" in="SourceGraphic" in2="effect1_dropShadow_510_172" result="shape"/>
</filter>
<linearGradient id="paint0_linear_510_172" x1="51.5" y1="0" x2="51.5" y2="95" gradientUnits="userSpaceOnUse">
<stop stop-color="#BF55F7"/>
<stop offset="0.21875" stop-color="#764FDB"/>
<stop offset="0.479167" stop-color="#8B69F1"/>
<stop offset="1" stop-color="#734FDA"/>
</linearGradient>
<linearGradient id="paint1_linear_510_172" x1="51.5" y1="32.0625" x2="51.5" y2="70.0625" gradientUnits="userSpaceOnUse">
<stop stop-color="#BF55F7"/>
<stop offset="0.21875" stop-color="#764FDB"/>
<stop offset="0.479167" stop-color="#8B69F1"/>
<stop offset="1" stop-color="#734FDA"/>
</linearGradient>
</defs>
</svg>
