<svg width="150" height="150" viewBox="0 0 150 150" fill="none" xmlns="http://www.w3.org/2000/svg">
<g filter="url(#filter0_d_422_3500)">
<circle cx="75" cy="71" r="71" fill="#37375B"/>
<path d="M65.1823 104.23C62.7853 104.23 60.9833 105.726 60.9833 107.834C60.9833 109.925 62.7853 111.421 65.1823 111.421C67.5793 111.421 69.3813 109.925 69.3813 107.834C69.3813 105.726 67.5793 104.23 65.1823 104.23ZM65.1823 106.066C66.3383 106.066 67.1883 106.712 67.1883 107.834C67.1883 108.956 66.3383 109.602 65.1823 109.602C64.0263 109.602 63.1593 108.956 63.1593 107.834C63.1593 106.712 64.0263 106.066 65.1823 106.066ZM71.5573 103.771V111.642H73.8353V103.771H71.5573ZM63.3293 112.288V114.039H71.5913V114.974H63.3633V118.51H65.5733V116.606H73.8353V112.288H63.3293ZM63.3633 117.592V119.343H74.2263V117.592H63.3633ZM86.108 103.788V115.365H88.369V103.788H86.108ZM87.723 108.208V110.061H90.46V108.208H87.723ZM78.22 117.439V119.241H88.93V117.439H78.22ZM78.22 114.192V117.83H80.481V114.192H78.22ZM76.435 104.893V112.883H84V104.893H81.756V107.154H78.679V104.893H76.435ZM78.679 108.871H81.756V111.115H78.679V108.871Z" fill="white"/>
<path d="M97.625 34.6875C98.603 34.6875 99.5409 35.076 100.232 35.7675C100.924 36.4591 101.312 37.397 101.312 38.375V67.875C101.312 68.853 100.924 69.7909 100.232 70.4825C99.5409 71.174 98.603 71.5625 97.625 71.5625H88.4062C87.2613 71.5625 86.1321 71.8291 85.108 72.3411C84.084 72.8531 83.1932 73.5966 82.5062 74.5125L75.5 83.8529L68.4937 74.5125C67.8068 73.5966 66.916 72.8531 65.892 72.3411C64.8679 71.8291 63.7387 71.5625 62.5938 71.5625H53.375C52.397 71.5625 51.4591 71.174 50.7675 70.4825C50.076 69.7909 49.6875 68.853 49.6875 67.875V38.375C49.6875 37.397 50.076 36.4591 50.7675 35.7675C51.4591 35.076 52.397 34.6875 53.375 34.6875H97.625ZM53.375 31C51.419 31 49.5432 31.777 48.1601 33.1601C46.777 34.5432 46 36.419 46 38.375V67.875C46 69.831 46.777 71.7068 48.1601 73.0899C49.5432 74.473 51.419 75.25 53.375 75.25H62.5938C63.1662 75.25 63.7308 75.3833 64.2429 75.6393C64.7549 75.8953 65.2003 76.267 65.5438 76.725L72.55 86.0654C72.8935 86.5234 73.3389 86.8951 73.8509 87.1511C74.3629 87.4072 74.9275 87.5404 75.5 87.5404C76.0725 87.5404 76.6371 87.4072 77.1491 87.1511C77.6611 86.8951 78.1065 86.5234 78.45 86.0654L85.4562 76.725C85.7997 76.267 86.2451 75.8953 86.7572 75.6393C87.2692 75.3833 87.8338 75.25 88.4062 75.25H97.625C99.581 75.25 101.457 74.473 102.84 73.0899C104.223 71.7068 105 69.831 105 67.875V38.375C105 36.419 104.223 34.5432 102.84 33.1601C101.457 31.777 99.581 31 97.625 31H53.375Z" fill="white"/>
<path d="M75.499 45.724C81.635 39.4147 96.9787 50.4551 75.499 64.6482C54.0194 50.4514 69.363 39.4147 75.499 45.724Z" fill="white"/>
</g>
<defs>
<filter id="filter0_d_422_3500" x="0" y="0" width="150" height="150" filterUnits="userSpaceOnUse" color-interpolation-filters="sRGB">
<feFlood flood-opacity="0" result="BackgroundImageFix"/>
<feColorMatrix in="SourceAlpha" type="matrix" values="0 0 0 0 0 0 0 0 0 0 0 0 0 0 0 0 0 0 127 0" result="hardAlpha"/>
<feOffset dy="4"/>
<feGaussianBlur stdDeviation="2"/>
<feComposite in2="hardAlpha" operator="out"/>
<feColorMatrix type="matrix" values="0 0 0 0 0 0 0 0 0 0 0 0 0 0 0 0 0 0 0.25 0"/>
<feBlend mode="normal" in2="BackgroundImageFix" result="effect1_dropShadow_422_3500"/>
<feBlend mode="normal" in="SourceGraphic" in2="effect1_dropShadow_422_3500" result="shape"/>
</filter>
</defs>
</svg>
