<svg width="150" height="150" viewBox="0 0 150 150" fill="none" xmlns="http://www.w3.org/2000/svg">
<g filter="url(#filter0_d_510_158)">
<circle cx="75" cy="71" r="71" fill="black"/>
<path d="M71.0163 101.771V113.45H73.1583V101.771H71.0163ZM69.1123 106.242V108.061H71.6113V106.242H69.1123ZM67.6503 102.06V113.144H69.7583V102.06H67.6503ZM62.5673 115.439V117.241H73.5663V115.439H62.5673ZM62.5673 112.362V116.119H64.8283V112.362H62.5673ZM60.3743 109.54V111.325H61.4623C63.7913 111.325 65.3213 111.274 67.1063 110.951L66.9193 109.166C65.1853 109.489 63.7233 109.54 61.4623 109.54H60.3743ZM60.3573 103.046V104.814H64.1483V106.31H60.3743V110.543H62.5673V107.959H66.3243V103.046H60.3573ZM75.826 108.588V110.407H77.05C80.212 110.407 81.929 110.322 83.782 109.931L83.578 108.146C81.742 108.52 80.127 108.588 77.05 108.588H75.826ZM75.826 102.638V109.217H78.053V104.423H82.898V102.638H75.826ZM85.89 101.771V110.866H88.151V101.771H85.89ZM82.167 105.409V107.211H86.468V105.409H82.167ZM77.662 111.529V117.343H88.151V111.529H77.662ZM85.941 113.297V115.558H79.889V113.297H85.941Z" fill="white"/>
<path d="M74.9579 23C74.0805 23 73.2029 23.1963 72.5233 23.5889L50.822 36.1213C49.4624 36.9065 49.4624 38.1481 50.822 38.9333L72.5233 51.4657C73.8829 52.2508 76.0328 52.2508 77.3922 51.4657L99.0934 38.9333C100.453 38.1482 100.453 36.9065 99.0934 36.1214L77.3922 23.589C76.7124 23.1962 75.8351 23 74.9579 23ZM74.8408 30.5328C76.1213 30.5465 77.2726 30.8394 78.2945 31.411C78.9934 31.8022 79.4513 32.2482 79.6677 32.7496C79.877 33.247 79.8893 33.9027 79.7046 34.7161L79.4773 35.5254C79.3267 36.1045 79.2955 36.5211 79.3836 36.775C79.4645 37.0252 79.6653 37.2399 79.9862 37.4195L80.4678 37.6887L75.7462 40.3296L75.2216 40.0364C74.6365 39.7094 74.2635 39.3398 74.1016 38.9273C73.9329 38.511 73.961 37.849 74.186 36.9409L74.4025 36.1257C74.5285 35.6402 74.5408 35.2421 74.4395 34.9317C74.3467 34.6163 74.1363 34.3668 73.8081 34.1833C73.3088 33.9039 72.7105 33.8037 72.0138 33.8822C71.3097 33.9568 70.5829 34.2038 69.8331 34.6232C69.1267 35.0182 68.4853 35.5128 67.9081 36.1068C67.3239 36.6971 66.8227 37.3725 66.404 38.1333L63.0441 36.2538C63.7996 35.4964 64.5419 34.834 65.2711 34.2662C66.0005 33.6989 66.7705 33.1883 67.5814 32.7344C69.709 31.5445 71.6876 30.8367 73.517 30.6116C73.9561 30.5553 74.3985 30.5289 74.8411 30.5326L74.8408 30.5328ZM82.0517 38.5747L85.8613 40.7056L81.1397 43.3466L77.33 41.2158L82.0517 38.5749V38.5747ZM49.3729 41.3073C48.5556 41.2853 48 41.9223 48 43.049V65.4155C48 66.9831 49.0755 68.8427 50.435 69.6266L71.309 81.6608C72.6686 82.4446 73.7441 81.8248 73.7441 80.2574V57.8904C73.7441 56.3229 72.6686 54.4637 71.309 53.6797L50.435 41.6455C50.0529 41.425 49.6927 41.3155 49.3729 41.307V41.3073ZM100.627 41.3076C100.307 41.3161 99.9475 41.4253 99.5652 41.6458L78.6906 53.68C77.331 54.4639 76.2555 56.3235 76.2555 57.891V80.2581C76.2555 81.8254 77.331 82.4449 78.6906 81.6608L99.5654 69.6271C100.925 68.8432 102 66.9839 102 65.4164V43.0493C102 41.9228 101.445 41.286 100.627 41.3078V41.3076ZM54.946 50.3497C55.8769 50.5435 56.7272 50.7806 57.4966 51.0607C58.268 51.3418 59.0133 51.6895 59.7243 52.0997C61.6014 53.1818 63.0324 54.4149 64.0173 55.799C65.0021 57.1747 65.4945 58.6421 65.4945 60.2015C65.4945 61.0014 65.3446 61.6331 65.0444 62.0969C64.7444 62.5525 64.2326 62.9352 63.5095 63.2449L62.7708 63.5172C62.2477 63.7218 61.9051 63.9325 61.7436 64.1498C61.5821 64.3586 61.5014 64.6465 61.5014 65.0139V65.5649L57.3353 63.1632V62.5633C57.3353 61.8938 57.462 61.3753 57.716 61.0074C57.9699 60.6312 58.5048 60.2783 59.3202 59.9483L60.059 59.6638C60.4975 59.4921 60.8168 59.2763 61.0168 59.016C61.2242 58.7603 61.3282 58.4447 61.3282 58.0691C61.3282 57.498 61.1435 56.9465 60.7741 56.4154C60.4048 55.8758 59.8895 55.4154 59.2277 55.0339C58.6045 54.6748 57.9312 54.4254 57.208 54.2862C56.4848 54.1386 55.7307 54.1083 54.946 54.1947V50.3496V50.3497ZM93.2388 51.5705C93.4551 51.5705 93.6554 51.5939 93.8401 51.6404C94.8249 51.8809 95.3173 52.7807 95.3173 54.3401C95.3173 55.14 95.1673 55.9448 94.8672 56.7545C94.5672 57.5558 94.0554 58.5284 93.3323 59.6717L92.5936 60.7956C92.0705 61.6033 91.7279 62.2087 91.5664 62.6121C91.4049 63.0071 91.3242 63.3883 91.3242 63.7557V64.3067L87.1581 66.7082V66.1082C87.1581 65.4388 87.2851 64.7736 87.5388 64.1131C87.7931 63.4443 88.3276 62.4749 89.143 61.2049L89.8818 60.0688C90.3203 59.3914 90.6396 58.8074 90.8396 58.3166C91.047 57.8214 91.151 57.3859 91.151 57.0103C91.151 56.439 90.9663 56.1006 90.5972 55.9951C90.2279 55.8816 89.7122 56.0152 89.0505 56.3965C88.4273 56.7558 87.7543 57.283 87.0311 57.9772C86.3079 58.6637 85.5538 59.5022 84.7691 60.4934V56.6483C85.7 55.7689 86.55 55.0257 87.3192 54.4189C88.0887 53.8121 88.8315 53.3027 89.5468 52.8904C91.0723 52.011 92.3029 51.571 93.2391 51.5703L93.2388 51.5705ZM57.3351 64.9758L61.5014 67.3771V71.7365L57.3353 69.3352V64.976L57.3351 64.9758ZM91.3242 66.119V70.4783L87.1581 72.8795V68.5205L91.3243 66.119H91.3242Z" fill="white"/>
</g>
<defs>
<filter id="filter0_d_510_158" x="0" y="0" width="150" height="150" filterUnits="userSpaceOnUse" color-interpolation-filters="sRGB">
<feFlood flood-opacity="0" result="BackgroundImageFix"/>
<feColorMatrix in="SourceAlpha" type="matrix" values="0 0 0 0 0 0 0 0 0 0 0 0 0 0 0 0 0 0 127 0" result="hardAlpha"/>
<feOffset dy="4"/>
<feGaussianBlur stdDeviation="2"/>
<feComposite in2="hardAlpha" operator="out"/>
<feColorMatrix type="matrix" values="0 0 0 0 0 0 0 0 0 0 0 0 0 0 0 0 0 0 0.25 0"/>
<feBlend mode="normal" in2="BackgroundImageFix" result="effect1_dropShadow_510_158"/>
<feBlend mode="normal" in="SourceGraphic" in2="effect1_dropShadow_510_158" result="shape"/>
</filter>
</defs>
</svg>
