<svg width="643" height="1390" viewBox="0 0 643 1390" fill="none" xmlns="http://www.w3.org/2000/svg">
<g clip-path="url(#clip0_1334_768)">
<rect width="642" height="1389" transform="translate(0.780273 0.400391)" fill="#22124F"/>
<path d="M208.984 165.564H205.316V163.432H208.984V165.564ZM208.984 170.111H205.316V167.92H208.984V170.111ZM206.089 173.006H203.487V160.549H206.089V173.006ZM199.175 173.264C200.597 173.264 201.847 173.436 202.925 173.779C204.003 174.115 204.831 174.604 205.409 175.244C205.995 175.885 206.288 176.635 206.288 177.494C206.288 178.361 205.995 179.111 205.409 179.744C204.831 180.385 204.007 180.877 202.937 181.221C201.866 181.564 200.612 181.74 199.175 181.748C197.73 181.74 196.464 181.564 195.378 181.221C194.3 180.877 193.468 180.385 192.882 179.744C192.296 179.111 192.003 178.361 192.003 177.494C192.003 176.635 192.296 175.885 192.882 175.244C193.468 174.604 194.3 174.115 195.378 173.779C196.464 173.436 197.73 173.264 199.175 173.264ZM199.175 175.361C198.206 175.369 197.378 175.455 196.691 175.619C196.003 175.775 195.476 176.014 195.109 176.334C194.741 176.654 194.562 177.041 194.569 177.494C194.562 177.947 194.741 178.334 195.109 178.654C195.476 178.975 196.003 179.225 196.691 179.404C197.378 179.576 198.206 179.662 199.175 179.662C200.112 179.662 200.921 179.576 201.601 179.404C202.288 179.225 202.812 178.975 203.171 178.654C203.538 178.334 203.722 177.947 203.722 177.494C203.722 177.041 203.538 176.654 203.171 176.334C202.812 176.014 202.292 175.775 201.612 175.619C200.933 175.455 200.12 175.369 199.175 175.361ZM192.905 170.404H190.292V161.791H192.905V170.404ZM192.062 169.35C193.679 169.35 195.269 169.283 196.831 169.15C198.394 169.018 199.976 168.791 201.577 168.471L201.894 170.58C200.222 170.916 198.573 171.154 196.948 171.295C195.323 171.436 193.694 171.502 192.062 171.494H190.292V169.35H192.062ZM227.91 181.713H225.402V160.549H227.91V181.713ZM222.121 170.545H216.964V168.412H222.121V170.545ZM223.48 180.717H221.031V160.971H223.48V180.717ZM211.761 174.717C213.496 174.717 214.902 174.678 215.98 174.6C217.066 174.521 218.168 174.361 219.285 174.119L219.496 176.287C218.347 176.514 217.199 176.67 216.05 176.756C214.902 176.834 213.472 176.873 211.761 176.873H210.343V174.717H211.761ZM218.406 165.119H212.886V175.607H210.343V163.021H218.406V165.119ZM249.25 174.951H229.891V172.889H249.25V174.951ZM240.789 181.713H238.223V173.873H240.789V181.713ZM234.789 163.982H244.27V161.393H246.883V170.662H232.223V161.393H234.789V163.982ZM244.27 168.564V166.057H234.789V168.564H244.27ZM255.169 179.65L261.146 162.682H264.907L270.884 179.65H267.626L263.091 166.15H262.95L258.415 179.65H255.169ZM267.485 172.994V175.443H258.544V172.994H267.485ZM275.49 179.65H272.443V162.682H275.49V179.65ZM293.889 181.701H291.287V160.549H293.889V181.701ZM297.029 170.99H293.221V168.834H297.029V170.99ZM288.299 162.764C288.291 164.92 287.967 166.928 287.326 168.787C286.686 170.639 285.65 172.342 284.221 173.896C282.791 175.451 280.939 176.791 278.666 177.916L277.201 175.9C279.107 174.939 280.693 173.838 281.959 172.596C283.225 171.346 284.17 169.947 284.795 168.4C285.42 166.846 285.732 165.119 285.732 163.221V162.764H288.299ZM287.057 164.908H278.303V162.764H287.057V164.908ZM309.886 165.635C309.878 167.338 309.644 168.959 309.183 170.498C308.729 172.029 308.058 173.393 307.167 174.588C306.284 175.783 305.229 176.693 304.003 177.318L302.386 175.209C303.495 174.686 304.452 173.924 305.257 172.924C306.069 171.916 306.687 170.783 307.108 169.525C307.538 168.268 307.757 166.971 307.765 165.635V162.248H309.886V165.635ZM310.354 165.635C310.354 166.924 310.558 168.17 310.964 169.373C311.378 170.576 311.972 171.658 312.745 172.619C313.526 173.58 314.448 174.318 315.511 174.834L313.94 176.908C312.745 176.307 311.722 175.432 310.87 174.283C310.019 173.135 309.37 171.822 308.925 170.346C308.487 168.861 308.272 167.291 308.28 165.635V162.248H310.354V165.635ZM319.39 181.713H316.788V160.549H319.39V181.713ZM322.659 171.072H318.804V168.857H322.659V171.072ZM330.171 171.6H327.558V167.686H330.171V171.6ZM337.8 171.6H335.199V167.686H337.8V171.6ZM342.359 172.842H323.07V170.732H342.359V172.842ZM332.691 174.107C334.207 174.107 335.515 174.252 336.617 174.541C337.726 174.83 338.57 175.26 339.148 175.83C339.734 176.4 340.027 177.088 340.027 177.893C340.027 178.705 339.734 179.393 339.148 179.955C338.57 180.518 337.73 180.947 336.628 181.244C335.527 181.541 334.214 181.689 332.691 181.689C331.144 181.689 329.82 181.541 328.718 181.244C327.617 180.947 326.773 180.518 326.187 179.955C325.601 179.393 325.308 178.705 325.308 177.893C325.308 177.088 325.601 176.4 326.187 175.83C326.773 175.26 327.617 174.83 328.718 174.541C329.82 174.252 331.144 174.107 332.691 174.107ZM332.691 176.076C331.66 176.084 330.792 176.154 330.089 176.287C329.394 176.42 328.863 176.623 328.496 176.896C328.136 177.17 327.96 177.502 327.968 177.893C327.96 178.291 328.136 178.627 328.496 178.9C328.863 179.166 329.394 179.373 330.089 179.521C330.792 179.662 331.66 179.732 332.691 179.732C333.699 179.732 334.554 179.662 335.257 179.521C335.96 179.373 336.496 179.166 336.863 178.9C337.23 178.627 337.414 178.291 337.414 177.893C337.414 177.502 337.23 177.17 336.863 176.896C336.496 176.623 335.96 176.42 335.257 176.287C334.562 176.154 333.707 176.084 332.691 176.076ZM332.714 160.889C334.253 160.889 335.597 161.053 336.746 161.381C337.894 161.701 338.777 162.166 339.394 162.775C340.011 163.377 340.32 164.092 340.32 164.92C340.32 165.748 340.011 166.463 339.394 167.064C338.777 167.658 337.894 168.111 336.746 168.424C335.605 168.736 334.261 168.893 332.714 168.893C331.152 168.893 329.796 168.736 328.648 168.424C327.499 168.111 326.613 167.658 325.988 167.064C325.371 166.463 325.062 165.748 325.062 164.92C325.062 164.092 325.371 163.377 325.988 162.775C326.613 162.166 327.499 161.701 328.648 161.381C329.796 161.053 331.152 160.889 332.714 160.889ZM332.714 162.904C331.66 162.904 330.761 162.986 330.019 163.15C329.285 163.307 328.726 163.537 328.343 163.842C327.96 164.139 327.769 164.498 327.769 164.92C327.769 165.35 327.96 165.713 328.343 166.01C328.726 166.307 329.285 166.533 330.019 166.689C330.761 166.838 331.66 166.912 332.714 166.912C333.753 166.912 334.64 166.838 335.374 166.689C336.109 166.533 336.671 166.307 337.062 166.01C337.453 165.713 337.648 165.35 337.648 164.92C337.648 164.498 337.453 164.139 337.062 163.842C336.671 163.537 336.105 163.307 335.363 163.15C334.628 162.986 333.746 162.904 332.714 162.904ZM350.387 166.549C350.387 168.119 350.141 169.646 349.648 171.131C349.164 172.615 348.469 173.939 347.562 175.104C346.656 176.268 345.605 177.135 344.41 177.705L342.875 175.654C343.961 175.139 344.918 174.393 345.746 173.416C346.574 172.432 347.207 171.342 347.644 170.146C348.09 168.951 348.316 167.752 348.324 166.549V163.76H350.387V166.549ZM350.926 166.549C350.918 167.674 351.125 168.799 351.547 169.924C351.969 171.041 352.578 172.061 353.375 172.982C354.18 173.904 355.125 174.619 356.211 175.127L354.746 177.178C353.551 176.615 352.508 175.783 351.617 174.682C350.727 173.572 350.043 172.311 349.566 170.896C349.09 169.482 348.852 168.033 348.852 166.549V163.76H350.926V166.549ZM355.355 164.779H343.695V162.646H355.355V164.779ZM359.914 181.713H357.312V160.549H359.914V181.713ZM363.184 170.99H359.328V168.799H363.184V170.99ZM370.461 162.002C371.563 162.002 372.555 162.221 373.438 162.658C374.329 163.096 375.024 163.705 375.524 164.486C376.024 165.268 376.274 166.15 376.274 167.135C376.274 168.127 376.024 169.014 375.524 169.795C375.024 170.568 374.329 171.174 373.438 171.611C372.555 172.049 371.563 172.268 370.461 172.268C369.36 172.268 368.364 172.049 367.473 171.611C366.59 171.174 365.895 170.568 365.387 169.795C364.887 169.014 364.637 168.127 364.637 167.135C364.637 166.15 364.887 165.268 365.387 164.486C365.895 163.705 366.59 163.096 367.473 162.658C368.364 162.221 369.36 162.002 370.461 162.002ZM370.461 164.264C369.844 164.271 369.289 164.393 368.797 164.627C368.305 164.854 367.918 165.186 367.637 165.623C367.356 166.061 367.215 166.564 367.215 167.135C367.215 167.713 367.356 168.217 367.637 168.646C367.918 169.076 368.305 169.408 368.797 169.643C369.289 169.877 369.844 169.998 370.461 170.006C371.086 169.998 371.645 169.877 372.137 169.643C372.637 169.408 373.024 169.076 373.297 168.646C373.579 168.217 373.719 167.713 373.719 167.135C373.719 166.564 373.579 166.061 373.297 165.623C373.024 165.186 372.637 164.854 372.137 164.627C371.645 164.393 371.086 164.271 370.461 164.264ZM381.219 181.771H378.641V160.549H381.219V181.771ZM363.676 175.197C366.247 175.197 368.664 175.154 370.93 175.068C373.196 174.975 375.34 174.783 377.364 174.494L377.563 176.393C376.102 176.666 374.582 176.873 373.004 177.014C371.426 177.146 369.942 177.232 368.551 177.271C367.168 177.311 365.653 177.33 364.004 177.33L363.676 175.197ZM406.814 171.201H404.224V160.549H406.814V171.201ZM405.255 167.064H399.619V164.943H405.255V167.064ZM394.966 161.205C396.013 161.205 396.958 161.408 397.802 161.814C398.646 162.221 399.306 162.791 399.783 163.525C400.267 164.252 400.513 165.08 400.521 166.01C400.513 166.955 400.267 167.799 399.783 168.541C399.306 169.275 398.646 169.85 397.802 170.264C396.958 170.678 396.013 170.885 394.966 170.885C393.904 170.885 392.943 170.678 392.083 170.264C391.232 169.85 390.568 169.275 390.091 168.541C389.615 167.799 389.376 166.955 389.376 166.01C389.376 165.08 389.615 164.252 390.091 163.525C390.576 162.791 391.244 162.221 392.095 161.814C392.947 161.408 393.904 161.205 394.966 161.205ZM394.966 163.326C394.357 163.318 393.818 163.428 393.349 163.654C392.88 163.873 392.513 164.189 392.247 164.604C391.982 165.01 391.849 165.479 391.849 166.01C391.849 166.564 391.982 167.053 392.247 167.475C392.513 167.889 392.88 168.209 393.349 168.436C393.818 168.662 394.357 168.775 394.966 168.775C395.552 168.775 396.076 168.662 396.536 168.436C397.005 168.209 397.369 167.889 397.626 167.475C397.892 167.053 398.025 166.564 398.025 166.01C398.025 165.479 397.892 165.01 397.626 164.604C397.369 164.189 397.005 163.873 396.536 163.654C396.076 163.428 395.552 163.318 394.966 163.326ZM406.814 177.717H395.494V180.506H392.88V175.783H404.224V174.236H392.845V172.209H406.814V177.717ZM407.505 181.467H392.88V179.416H407.505V181.467ZM425.353 163.455H411.736V161.393H425.353V163.455ZM428.717 170.006H409.357V167.99H428.717V170.006ZM420.267 173.217H417.701V169.01H420.267V173.217ZM426.338 162.811C426.338 163.881 426.307 164.869 426.244 165.775C426.182 166.674 426.025 167.662 425.775 168.74L423.197 168.506C423.432 167.451 423.58 166.521 423.642 165.717C423.705 164.904 423.736 163.994 423.736 162.986V162.811V161.393H426.338V162.811ZM426.303 177.74H414.197V180.271H411.584V175.947H423.724V174.307H411.572V172.268H426.303V177.74ZM426.865 181.537H411.584V179.498H426.865V181.537ZM439.264 160.889C440.858 160.889 442.225 161.025 443.366 161.299C444.514 161.572 445.385 161.982 445.979 162.529C446.573 163.068 446.87 163.725 446.87 164.498C446.87 165.287 446.573 165.955 445.979 166.502C445.385 167.049 444.518 167.463 443.377 167.744C442.237 168.018 440.866 168.158 439.264 168.166C437.647 168.158 436.268 168.018 435.127 167.744C433.987 167.463 433.116 167.049 432.514 166.502C431.912 165.955 431.612 165.287 431.612 164.498C431.612 163.725 431.912 163.068 432.514 162.529C433.116 161.982 433.987 161.572 435.127 161.299C436.276 161.025 437.655 160.889 439.264 160.889ZM439.264 162.799C438.178 162.799 437.268 162.865 436.534 162.998C435.807 163.131 435.256 163.326 434.881 163.584C434.514 163.834 434.334 164.139 434.342 164.498C434.334 164.889 434.514 165.213 434.881 165.471C435.256 165.721 435.799 165.908 436.51 166.033C437.229 166.158 438.147 166.221 439.264 166.221C440.373 166.221 441.287 166.158 442.006 166.033C442.733 165.908 443.28 165.721 443.647 165.471C444.014 165.213 444.198 164.889 444.198 164.498C444.198 164.139 444.014 163.834 443.647 163.584C443.28 163.326 442.725 163.131 441.983 162.998C441.248 162.865 440.342 162.799 439.264 162.799ZM448.909 171.389H429.62V169.303H448.909V171.389ZM446.518 177.986H434.471V180.107H431.893V176.146H443.94V174.729H431.881V172.807H446.518V177.986ZM447.092 181.549H431.893V179.557H447.092V181.549ZM275.156 197.592H255.796V195.529H275.156V197.592ZM266.976 201.248H264.398V196.607H266.976V201.248ZM273.011 205.338H258.128V203.205H273.011V205.338ZM260.718 204.084H258.128V199.49H260.718V204.084ZM260.882 187.619H270.023V185.229H272.613V193.854H258.316V185.229H260.882V187.619ZM270.023 191.779V189.564H260.882V191.779H270.023ZM291.621 190.807H286.992V188.662H291.621V190.807ZM283.277 187.748C283.277 189.139 283.051 190.432 282.597 191.627C282.144 192.822 281.476 193.865 280.594 194.756C279.711 195.639 278.644 196.311 277.394 196.771L275.976 194.662C277.094 194.295 278.039 193.764 278.812 193.068C279.594 192.365 280.176 191.561 280.558 190.654C280.941 189.74 281.137 188.771 281.144 187.748V185.65H283.277V187.748ZM283.758 187.889C283.758 188.818 283.945 189.701 284.32 190.537C284.703 191.373 285.265 192.123 286.008 192.787C286.758 193.443 287.66 193.943 288.715 194.287L287.332 196.361C286.121 195.932 285.094 195.299 284.25 194.463C283.406 193.627 282.762 192.646 282.316 191.521C281.879 190.396 281.664 189.186 281.672 187.889V185.65H283.758V187.889ZM293.812 205.713H291.211V200.229H279.375V198.154H293.812V205.713ZM293.812 197.135H291.211V184.549H293.812V197.135ZM307.254 198.881H304.688V195.143H307.254V198.881ZM315.633 196.361H296.344V194.264H315.633V196.361ZM305.965 198.131C307.489 198.131 308.801 198.275 309.903 198.564C311.004 198.854 311.844 199.287 312.422 199.865C313.008 200.436 313.301 201.123 313.301 201.928C313.301 202.732 313.008 203.416 312.422 203.979C311.844 204.541 311 204.967 309.891 205.256C308.789 205.553 307.481 205.701 305.965 205.701C304.418 205.701 303.094 205.553 301.992 205.256C300.899 204.967 300.055 204.541 299.461 203.979C298.875 203.416 298.582 202.732 298.582 201.928C298.582 201.123 298.875 200.436 299.461 199.865C300.047 199.287 300.891 198.854 301.992 198.564C303.094 198.275 304.418 198.131 305.965 198.131ZM305.965 200.111C304.934 200.119 304.067 200.193 303.364 200.334C302.668 200.467 302.137 200.67 301.77 200.943C301.41 201.209 301.235 201.537 301.242 201.928C301.235 202.311 301.41 202.639 301.77 202.912C302.137 203.186 302.672 203.393 303.375 203.533C304.078 203.666 304.942 203.732 305.965 203.732C306.973 203.732 307.828 203.662 308.532 203.521C309.235 203.381 309.77 203.178 310.137 202.912C310.504 202.639 310.688 202.311 310.688 201.928C310.688 201.537 310.508 201.209 310.149 200.943C309.789 200.67 309.254 200.467 308.543 200.334C307.84 200.193 306.981 200.119 305.965 200.111ZM306.516 187.033C306.516 188.111 306.172 189.096 305.485 189.986C304.805 190.869 303.832 191.6 302.567 192.178C301.301 192.756 299.828 193.131 298.149 193.303L297.27 191.252C298.66 191.119 299.883 190.846 300.938 190.432C301.992 190.01 302.801 189.502 303.364 188.908C303.926 188.314 304.207 187.689 304.207 187.033V186.447H306.516V187.033ZM307.735 187.033C307.735 187.689 308.012 188.318 308.567 188.92C309.129 189.514 309.942 190.018 311.004 190.432C312.067 190.846 313.309 191.119 314.731 191.252L313.805 193.303C312.133 193.131 310.66 192.756 309.387 192.178C308.121 191.6 307.141 190.869 306.446 189.986C305.758 189.096 305.41 188.111 305.403 187.033V186.447H307.735V187.033ZM313.899 187.561H298.09V185.486H313.899V187.561ZM339.47 195.928H336.857V184.549H339.47V195.928ZM328.032 199.068H336.868V196.9H339.47V205.467H325.466V196.9H328.032V199.068ZM336.868 203.357V201.107H328.032V203.357H336.868ZM327.927 185.486C329.005 185.479 329.978 185.686 330.845 186.107C331.712 186.529 332.392 187.119 332.884 187.877C333.384 188.635 333.634 189.494 333.634 190.455C333.634 191.4 333.384 192.248 332.884 192.998C332.392 193.74 331.712 194.326 330.845 194.756C329.978 195.178 329.005 195.389 327.927 195.389C326.841 195.389 325.865 195.178 324.997 194.756C324.138 194.326 323.458 193.74 322.958 192.998C322.466 192.248 322.22 191.4 322.22 190.455C322.22 189.486 322.466 188.627 322.958 187.877C323.458 187.119 324.138 186.529 324.997 186.107C325.865 185.686 326.841 185.479 327.927 185.486ZM327.927 187.666C327.31 187.666 326.763 187.779 326.286 188.006C325.81 188.232 325.435 188.561 325.161 188.99C324.896 189.412 324.763 189.9 324.763 190.455C324.763 191.01 324.896 191.498 325.161 191.92C325.435 192.334 325.81 192.658 326.286 192.893C326.763 193.127 327.31 193.244 327.927 193.244C328.536 193.244 329.079 193.127 329.556 192.893C330.032 192.658 330.4 192.334 330.657 191.92C330.923 191.498 331.056 191.01 331.056 190.455C331.056 189.9 330.923 189.412 330.657 188.99C330.4 188.561 330.032 188.232 329.556 188.006C329.079 187.779 328.536 187.666 327.927 187.666ZM359.779 205.713H357.189V184.549H359.779V205.713ZM345.892 199.725H343.314V186.6H345.892V199.725ZM345.131 198.201C346.834 198.193 348.529 198.115 350.217 197.967C351.904 197.818 353.592 197.576 355.279 197.24L355.619 199.408C353.845 199.775 352.095 200.037 350.369 200.193C348.65 200.35 346.904 200.424 345.131 200.416H343.314V198.201H345.131ZM378.951 205.771H376.35V184.549H378.951V205.771ZM382.221 194.732H378.365V192.588H382.221V194.732ZM364.971 198.412C366.94 198.412 368.666 198.365 370.151 198.271C371.635 198.17 373.135 197.982 374.651 197.709L374.944 199.912C373.397 200.186 371.873 200.365 370.373 200.451C368.873 200.537 367.072 200.576 364.971 200.568H363.225V198.412H364.971ZM373.139 188.674H365.826V199.467H363.225V186.553H373.139V188.674ZM385.198 203.838C384.862 203.838 384.553 203.756 384.272 203.592C383.999 203.428 383.78 203.205 383.616 202.924C383.452 202.643 383.374 202.338 383.382 202.01C383.374 201.689 383.452 201.393 383.616 201.119C383.78 200.838 383.999 200.619 384.272 200.463C384.553 200.299 384.862 200.217 385.198 200.217C385.518 200.217 385.815 200.299 386.089 200.463C386.37 200.619 386.592 200.838 386.757 201.119C386.921 201.393 387.003 201.689 387.003 202.01C387.003 202.338 386.921 202.643 386.757 202.924C386.592 203.205 386.37 203.428 386.089 203.592C385.815 203.756 385.518 203.838 385.198 203.838Z" fill="white"/>
<path d="M221.268 279.664H218.493V278.775H221.268V279.664ZM222.02 282.85H220.94V275.604H222.02V282.85ZM217.987 283.232C218.826 283.232 219.55 283.321 220.161 283.499C220.772 283.677 221.241 283.934 221.569 284.271C221.897 284.609 222.061 285.014 222.061 285.488C222.061 285.962 221.897 286.368 221.569 286.705C221.241 287.042 220.772 287.3 220.161 287.478C219.55 287.66 218.826 287.753 217.987 287.758C217.144 287.753 216.417 287.66 215.807 287.478C215.2 287.3 214.733 287.042 214.405 286.705C214.077 286.368 213.913 285.962 213.913 285.488C213.913 285.014 214.077 284.609 214.405 284.271C214.733 283.934 215.203 283.677 215.813 283.499C216.424 283.321 217.149 283.232 217.987 283.232ZM217.987 284.066C217.367 284.066 216.832 284.123 216.381 284.237C215.93 284.351 215.583 284.515 215.342 284.729C215.1 284.944 214.979 285.197 214.979 285.488C214.979 285.78 215.1 286.031 215.342 286.24C215.583 286.45 215.93 286.612 216.381 286.726C216.832 286.84 217.367 286.896 217.987 286.896C218.602 286.896 219.136 286.84 219.587 286.726C220.043 286.612 220.391 286.45 220.633 286.24C220.874 286.031 220.995 285.78 220.995 285.488C220.995 285.197 220.874 284.944 220.633 284.729C220.391 284.515 220.043 284.351 219.587 284.237C219.136 284.123 218.602 284.066 217.987 284.066ZM215.977 277.846C215.977 278.575 215.834 279.265 215.547 279.917C215.26 280.569 214.856 281.138 214.337 281.626C213.822 282.114 213.229 282.485 212.559 282.74L211.999 281.879C212.596 281.665 213.127 281.35 213.592 280.936C214.061 280.516 214.428 280.04 214.692 279.507C214.957 278.969 215.089 278.415 215.089 277.846V276.834H215.977V277.846ZM216.169 277.832C216.169 278.356 216.294 278.864 216.545 279.356C216.795 279.844 217.149 280.279 217.604 280.662C218.06 281.045 218.58 281.337 219.163 281.537L218.602 282.398C217.951 282.161 217.374 281.813 216.873 281.353C216.376 280.892 215.989 280.359 215.711 279.753C215.433 279.142 215.294 278.502 215.294 277.832V276.834H216.169V277.832ZM218.89 277.395H212.341V276.492H218.89V277.395ZM230.108 281.236H224.406V276.287H230.108V281.236ZM225.459 280.389H229.055V277.162H225.459V280.389ZM233.785 281.879H232.733V275.604H233.785V281.879ZM233.785 285.379H226.977V287.129H225.91V284.586H232.733V283.342H225.897V282.48H233.785V285.379ZM234.223 287.621H225.91V286.746H234.223V287.621ZM245.085 284.723H244.019V275.617H245.085V284.723ZM246.917 280.525H244.744V279.623H246.917V280.525ZM242.857 277.982H235.611V277.107H242.857V277.982ZM239.234 278.652C239.808 278.652 240.316 278.746 240.758 278.933C241.2 279.119 241.542 279.384 241.784 279.726C242.03 280.067 242.155 280.466 242.16 280.922C242.155 281.373 242.03 281.77 241.784 282.111C241.542 282.449 241.2 282.708 240.758 282.891C240.316 283.073 239.808 283.164 239.234 283.164C238.651 283.164 238.138 283.073 237.696 282.891C237.254 282.708 236.912 282.449 236.67 282.111C236.429 281.77 236.308 281.373 236.308 280.922C236.308 280.466 236.429 280.067 236.67 279.726C236.912 279.384 237.254 279.119 237.696 278.933C238.138 278.746 238.651 278.652 239.234 278.652ZM239.234 279.5C238.856 279.5 238.521 279.557 238.229 279.671C237.942 279.785 237.721 279.951 237.566 280.17C237.411 280.384 237.333 280.635 237.333 280.922C237.333 281.204 237.411 281.451 237.566 281.66C237.721 281.87 237.942 282.034 238.229 282.152C238.521 282.266 238.856 282.321 239.234 282.316C239.608 282.321 239.94 282.266 240.232 282.152C240.524 282.034 240.747 281.87 240.902 281.66C241.061 281.451 241.143 281.204 241.148 280.922C241.143 280.635 241.061 280.384 240.902 280.17C240.747 279.951 240.524 279.785 240.232 279.671C239.94 279.557 239.608 279.5 239.234 279.5ZM239.767 277.559H238.701V275.617H239.767V277.559ZM245.646 287.498H237.484V286.596H245.646V287.498ZM238.537 286.965H237.484V283.998H238.537V286.965ZM261.752 282.918H250.623V282.043H261.752V282.918ZM256.803 285.297H255.736V282.467H256.803V285.297ZM260.508 287.498H252.045V286.596H260.508V287.498ZM253.111 286.938H252.045V284.176H253.111V286.938ZM253.18 277.559H259.195V276H260.262V280.854H252.113V276H253.18V277.559ZM259.195 279.979V278.379H253.18V279.979H259.195ZM271.685 279.062H268.745V278.16H271.685V279.062ZM266.421 277.518C266.421 278.283 266.282 278.999 266.004 279.664C265.726 280.329 265.332 280.908 264.822 281.4C264.316 281.893 263.728 282.271 263.058 282.535L262.47 281.646C263.081 281.432 263.618 281.12 264.083 280.71C264.548 280.295 264.906 279.814 265.157 279.268C265.412 278.716 265.542 278.133 265.546 277.518V276.232H266.421V277.518ZM266.599 277.559C266.599 278.11 266.727 278.641 266.982 279.151C267.237 279.657 267.592 280.106 268.048 280.498C268.504 280.89 269.023 281.186 269.607 281.387L269.019 282.248C268.372 282.007 267.802 281.653 267.31 281.188C266.818 280.719 266.433 280.172 266.155 279.548C265.877 278.924 265.738 278.26 265.738 277.559V276.232H266.599V277.559ZM272.533 287.758H271.452V284.326H264.357V283.465H272.533V287.758ZM272.533 282.795H271.452V275.604H272.533V282.795ZM279.813 275.822C280.711 275.822 281.481 275.902 282.124 276.062C282.771 276.221 283.263 276.458 283.6 276.772C283.937 277.087 284.106 277.467 284.106 277.914C284.106 278.37 283.937 278.757 283.6 279.076C283.263 279.395 282.773 279.637 282.13 279.801C281.488 279.96 280.715 280.042 279.813 280.047C278.906 280.042 278.131 279.96 277.489 279.801C276.851 279.637 276.361 279.395 276.019 279.076C275.677 278.757 275.506 278.37 275.506 277.914C275.506 277.467 275.677 277.087 276.019 276.772C276.361 276.458 276.853 276.221 277.496 276.062C278.138 275.902 278.911 275.822 279.813 275.822ZM279.813 276.629C279.143 276.629 278.569 276.681 278.09 276.786C277.616 276.891 277.252 277.039 276.997 277.23C276.746 277.422 276.623 277.65 276.628 277.914C276.623 278.192 276.746 278.431 276.997 278.632C277.252 278.828 277.616 278.976 278.09 279.076C278.569 279.176 279.143 279.227 279.813 279.227C280.483 279.227 281.057 279.176 281.536 279.076C282.019 278.976 282.386 278.828 282.636 278.632C282.887 278.436 283.012 278.197 283.012 277.914C283.012 277.65 282.887 277.422 282.636 277.23C282.386 277.039 282.019 276.891 281.536 276.786C281.053 276.681 280.478 276.629 279.813 276.629ZM285.35 281.742H274.276V280.867H285.35V281.742ZM283.928 285.516H276.71V286.992H275.643V284.723H282.876V283.615H275.616V282.795H283.928V285.516ZM284.297 287.621H275.643V286.773H284.297V287.621ZM293.335 276.205C293.937 276.201 294.474 276.303 294.948 276.513C295.422 276.718 295.791 277.009 296.056 277.388C296.32 277.761 296.452 278.192 296.452 278.68C296.452 279.167 296.32 279.6 296.056 279.979C295.791 280.352 295.422 280.644 294.948 280.854C294.474 281.063 293.937 281.168 293.335 281.168C292.734 281.168 292.198 281.063 291.729 280.854C291.259 280.644 290.89 280.352 290.621 279.979C290.352 279.6 290.218 279.167 290.218 278.68C290.218 278.192 290.352 277.761 290.621 277.388C290.89 277.009 291.259 276.718 291.729 276.513C292.198 276.303 292.734 276.201 293.335 276.205ZM293.335 277.08C292.939 277.076 292.581 277.142 292.262 277.278C291.947 277.41 291.701 277.6 291.524 277.846C291.35 278.092 291.266 278.37 291.271 278.68C291.266 278.99 291.35 279.265 291.524 279.507C291.701 279.748 291.947 279.938 292.262 280.074C292.576 280.211 292.934 280.279 293.335 280.279C293.741 280.279 294.101 280.211 294.415 280.074C294.734 279.938 294.983 279.751 295.16 279.514C295.338 279.272 295.427 278.994 295.427 278.68C295.427 278.37 295.338 278.092 295.16 277.846C294.983 277.6 294.734 277.41 294.415 277.278C294.096 277.142 293.736 277.076 293.335 277.08ZM293.937 287.389H292.87V282.535H293.937V287.389ZM299.351 287.771H298.298V275.617H299.351V287.771ZM289.302 282.207C290.756 282.212 292.168 282.184 293.54 282.125C294.912 282.066 296.202 281.947 297.409 281.77L297.478 282.576C296.671 282.727 295.833 282.84 294.962 282.918C294.096 282.991 293.262 283.043 292.46 283.075C291.663 283.103 290.806 283.118 289.89 283.123C289.79 283.123 289.714 283.123 289.664 283.123C289.619 283.123 289.548 283.123 289.452 283.123L289.302 282.207ZM307.219 278.584H301.122V277.709H307.219V278.584ZM304.17 279.404C304.676 279.404 305.127 279.523 305.524 279.76C305.925 279.997 306.237 280.325 306.46 280.744C306.688 281.159 306.804 281.633 306.809 282.166C306.804 282.704 306.688 283.182 306.46 283.602C306.237 284.021 305.925 284.351 305.524 284.593C305.127 284.834 304.676 284.955 304.17 284.955C303.674 284.955 303.225 284.834 302.824 284.593C302.427 284.351 302.117 284.021 301.894 283.602C301.671 283.182 301.559 282.704 301.559 282.166C301.559 281.637 301.673 281.163 301.901 280.744C302.129 280.325 302.439 279.997 302.831 279.76C303.227 279.523 303.674 279.404 304.17 279.404ZM304.17 280.307C303.851 280.311 303.567 280.396 303.316 280.56C303.065 280.719 302.869 280.94 302.728 281.223C302.587 281.501 302.516 281.815 302.516 282.166C302.516 282.521 302.587 282.838 302.728 283.116C302.869 283.394 303.065 283.613 303.316 283.772C303.567 283.932 303.851 284.012 304.17 284.012C304.489 284.012 304.776 283.932 305.032 283.772C305.287 283.613 305.487 283.394 305.633 283.116C305.779 282.838 305.852 282.521 305.852 282.166C305.852 281.815 305.779 281.501 305.633 281.223C305.487 280.94 305.287 280.719 305.032 280.56C304.776 280.396 304.489 280.311 304.17 280.307ZM311.498 287.758H310.473V275.604H311.498V287.758ZM310.815 281.619H308.491V280.73H310.815V281.619ZM308.86 287.156H307.848V275.904H308.86V287.156ZM304.717 278.242H303.651V275.973H304.717V278.242ZM325.608 287.785H324.542V275.604H325.608V287.785ZM327.646 281.318H325.362V280.416H327.646V281.318ZM317.692 283.834C318.886 283.829 319.91 283.798 320.762 283.738C321.614 283.674 322.482 283.561 323.366 283.396L323.503 284.326C322.601 284.49 321.716 284.6 320.851 284.654C319.989 284.709 318.937 284.736 317.692 284.736H316.735V283.834H317.692ZM322.409 277.682H317.802V284.244H316.735V276.793H322.409V277.682ZM339.151 286.172H328.022V285.283H339.151V286.172ZM334.051 285.584H332.998V282.303H334.051V285.584ZM333.901 277.367C333.901 278.197 333.661 278.967 333.183 279.678C332.704 280.389 332.085 280.983 331.324 281.462C330.562 281.94 329.767 282.266 328.938 282.439L328.459 281.551C329.179 281.428 329.888 281.161 330.585 280.751C331.283 280.336 331.852 279.833 332.294 279.24C332.736 278.643 332.957 278.019 332.957 277.367V276.438H333.901V277.367ZM334.078 277.367C334.078 278.014 334.304 278.636 334.755 279.233C335.206 279.83 335.781 280.336 336.478 280.751C337.18 281.161 337.888 281.428 338.604 281.551L338.125 282.439C337.296 282.266 336.501 281.94 335.74 281.462C334.978 280.983 334.356 280.389 333.873 279.678C333.395 278.967 333.158 278.197 333.162 277.367V276.438H334.078V277.367ZM347.218 278.871C347.218 279.773 347.063 280.648 346.753 281.496C346.443 282.344 346.019 283.096 345.481 283.752C344.944 284.404 344.347 284.896 343.69 285.229L343.007 284.326C343.608 284.053 344.162 283.631 344.668 283.062C345.174 282.492 345.575 281.84 345.871 281.106C346.172 280.368 346.324 279.623 346.329 278.871V276.656H347.218V278.871ZM347.395 278.871C347.395 279.591 347.543 280.304 347.84 281.011C348.136 281.717 348.535 282.348 349.036 282.904C349.542 283.456 350.093 283.866 350.69 284.135L350.034 284.982C349.378 284.663 348.781 284.192 348.243 283.567C347.705 282.943 347.279 282.223 346.965 281.407C346.65 280.591 346.493 279.746 346.493 278.871V276.656H347.395V278.871ZM353.097 287.785H352.016V275.604H353.097V287.785ZM364.397 284.504H363.317V275.604H364.397V284.504ZM366.229 280.211H364.055V279.309H366.229V280.211ZM361.115 276.547C361.115 277.572 360.883 278.513 360.418 279.37C359.953 280.222 359.29 280.965 358.429 281.599C357.568 282.228 356.549 282.727 355.373 283.096L354.908 282.234C355.947 281.911 356.845 281.492 357.602 280.977C358.358 280.457 358.942 279.862 359.352 279.192C359.762 278.518 359.967 277.796 359.967 277.025V276.547H361.115ZM360.527 277.449H355.414V276.547H360.527V277.449ZM364.957 287.498H356.781V286.596H364.957V287.498ZM357.848 286.951H356.781V283.602H357.848V286.951ZM376.736 287.785H375.656V275.604H376.736V287.785ZM370.269 276.547C370.871 276.547 371.406 276.72 371.875 277.066C372.345 277.413 372.712 277.907 372.976 278.55C373.24 279.192 373.372 279.938 373.372 280.785C373.372 281.633 373.24 282.376 372.976 283.014C372.712 283.652 372.345 284.144 371.875 284.49C371.406 284.837 370.871 285.01 370.269 285.01C369.667 285.01 369.132 284.837 368.663 284.49C368.193 284.144 367.826 283.652 367.562 283.014C367.298 282.376 367.165 281.633 367.165 280.785C367.165 279.938 367.298 279.192 367.562 278.55C367.826 277.907 368.193 277.413 368.663 277.066C369.132 276.72 369.667 276.547 370.269 276.547ZM370.269 277.504C369.868 277.504 369.51 277.641 369.196 277.914C368.881 278.188 368.637 278.573 368.464 279.069C368.291 279.566 368.204 280.138 368.204 280.785C368.204 281.437 368.291 282.011 368.464 282.508C368.637 283 368.881 283.381 369.196 283.649C369.51 283.918 369.868 284.053 370.269 284.053C370.675 284.053 371.032 283.918 371.342 283.649C371.657 283.381 371.9 283 372.074 282.508C372.247 282.011 372.333 281.437 372.333 280.785C372.333 280.133 372.247 279.562 372.074 279.069C371.9 278.573 371.657 278.188 371.342 277.914C371.032 277.641 370.675 277.504 370.269 277.504ZM391.844 281.852H390.764V275.604H391.844V281.852ZM390.941 279.432H388.07V278.543H390.941V279.432ZM387.975 276.205C387.975 277.199 387.751 278.085 387.305 278.864C386.858 279.644 386.213 280.307 385.37 280.854C384.532 281.396 383.522 281.815 382.342 282.111L381.959 281.223C382.993 280.972 383.875 280.63 384.604 280.197C385.338 279.76 385.896 279.245 386.279 278.652C386.662 278.06 386.853 277.408 386.853 276.697V276.205H387.975ZM387.715 277.094H382.588V276.205H387.715V277.094ZM391.844 285.338H385.062V287.307H383.996V284.518H390.764V283.246H383.969V282.371H391.844V285.338ZM392.254 287.648H383.996V286.76H392.254V287.648ZM403.622 282.289H402.556V275.617H403.622V282.289ZM395.214 281.141C396.044 281.136 396.761 281.125 397.367 281.106C397.974 281.084 398.577 281.047 399.179 280.997C399.781 280.942 400.4 280.863 401.038 280.758L401.161 281.646C400.204 281.797 399.284 281.899 398.4 281.954C397.516 282.004 396.454 282.034 395.214 282.043H394.23V281.141H395.214ZM399.753 279.486H395.269V281.729H394.23V278.639H398.687V277.094H394.202V276.205H399.753V279.486ZM396.8 284.354H402.556V282.904H403.622V287.594H395.72V282.904H396.8V284.354ZM402.556 286.719V285.215H396.8V286.719H402.556ZM415.428 287.758H414.362V275.604H415.428V287.758ZM407.252 284.326H406.2V276.807H407.252V284.326ZM407.184 283.697C408.196 283.693 409.182 283.647 410.144 283.561C411.11 283.469 412.083 283.319 413.063 283.109L413.213 284.025C412.179 284.24 411.172 284.395 410.192 284.49C409.217 284.581 408.214 284.627 407.184 284.627H406.2V283.697H407.184ZM426.633 287.785H425.566V275.604H426.633V287.785ZM428.67 281.318H426.387V280.416H428.67V281.318ZM418.717 283.834C419.911 283.829 420.934 283.798 421.786 283.738C422.638 283.674 423.506 283.561 424.39 283.396L424.527 284.326C423.625 284.49 422.741 284.6 421.875 284.654C421.013 284.709 419.961 284.736 418.717 284.736H417.76V283.834H418.717ZM423.433 277.682H418.826V284.244H417.76V276.793H423.433V277.682ZM430.331 286.732C430.172 286.732 430.023 286.691 429.887 286.609C429.755 286.527 429.648 286.42 429.565 286.288C429.488 286.151 429.452 286.003 429.456 285.844C429.452 285.689 429.488 285.543 429.565 285.406C429.648 285.27 429.755 285.162 429.887 285.085C430.023 285.007 430.172 284.969 430.331 284.969C430.491 284.969 430.636 285.007 430.769 285.085C430.905 285.162 431.012 285.27 431.09 285.406C431.167 285.543 431.206 285.689 431.206 285.844C431.206 286.003 431.167 286.151 431.09 286.288C431.012 286.42 430.905 286.527 430.769 286.609C430.636 286.691 430.491 286.732 430.331 286.732ZM244.18 303.445H241.746V302.557H244.18V303.445ZM244.18 307.15H241.746V306.248H244.18V307.15ZM247.283 311.758H246.244V299.604H247.283V311.758ZM244.863 311.143H243.838V299.863H244.863V311.143ZM239.627 300.629C240.151 300.629 240.609 300.802 241.001 301.148C241.398 301.495 241.705 301.987 241.924 302.625C242.143 303.258 242.252 304.001 242.252 304.854C242.252 305.706 242.143 306.451 241.924 307.089C241.705 307.722 241.398 308.212 241.001 308.559C240.609 308.905 240.151 309.078 239.627 309.078C239.103 309.078 238.645 308.905 238.253 308.559C237.866 308.212 237.563 307.722 237.344 307.089C237.125 306.451 237.016 305.706 237.016 304.854C237.016 304.001 237.125 303.258 237.344 302.625C237.563 301.987 237.866 301.495 238.253 301.148C238.645 300.802 239.103 300.629 239.627 300.629ZM239.627 301.641C239.299 301.641 239.014 301.771 238.773 302.03C238.531 302.29 238.344 302.664 238.212 303.151C238.08 303.634 238.014 304.202 238.014 304.854C238.014 305.505 238.08 306.073 238.212 306.556C238.344 307.034 238.531 307.406 238.773 307.67C239.014 307.93 239.299 308.057 239.627 308.053C239.955 308.057 240.242 307.93 240.488 307.67C240.734 307.406 240.924 307.034 241.056 306.556C241.188 306.073 241.254 305.505 241.254 304.854C241.254 304.202 241.188 303.634 241.056 303.151C240.924 302.664 240.734 302.29 240.488 302.03C240.242 301.771 239.955 301.641 239.627 301.641ZM252.581 301.49C252.581 302.26 252.442 302.983 252.164 303.657C251.886 304.327 251.492 304.91 250.982 305.407C250.476 305.899 249.888 306.275 249.218 306.535L248.644 305.674C249.246 305.451 249.776 305.129 250.237 304.71C250.697 304.286 251.055 303.799 251.31 303.247C251.565 302.696 251.693 302.11 251.693 301.49V300.232H252.581V301.49ZM252.746 301.572C252.746 302.115 252.875 302.639 253.135 303.145C253.395 303.646 253.753 304.088 254.208 304.471C254.664 304.854 255.184 305.145 255.767 305.346L255.179 306.193C254.532 305.956 253.96 305.608 253.463 305.147C252.967 304.687 252.577 304.149 252.294 303.534C252.012 302.919 251.871 302.265 251.871 301.572V300.232H252.746V301.572ZM258.187 307H257.121V299.604H258.187V307ZM260.019 303.678H257.886V302.775H260.019V303.678ZM254.29 307.314C255.12 307.314 255.835 307.401 256.437 307.574C257.038 307.747 257.499 308 257.818 308.333C258.137 308.661 258.296 309.055 258.296 309.516C258.296 309.985 258.137 310.384 257.818 310.712C257.499 311.045 257.038 311.298 256.437 311.471C255.835 311.644 255.12 311.73 254.29 311.73C253.456 311.73 252.736 311.644 252.13 311.471C251.529 311.298 251.066 311.045 250.743 310.712C250.419 310.379 250.257 309.98 250.257 309.516C250.257 309.055 250.419 308.661 250.743 308.333C251.066 308 251.531 307.747 252.137 307.574C252.743 307.401 253.461 307.314 254.29 307.314ZM254.29 308.176C253.684 308.176 253.158 308.23 252.711 308.34C252.269 308.449 251.927 308.604 251.686 308.805C251.449 309.005 251.333 309.242 251.337 309.516C251.333 309.798 251.449 310.042 251.686 310.247C251.927 310.452 252.269 310.609 252.711 310.719C253.153 310.828 253.68 310.883 254.29 310.883C254.901 310.883 255.43 310.828 255.876 310.719C256.323 310.609 256.665 310.452 256.902 310.247C257.139 310.042 257.257 309.798 257.257 309.516C257.257 309.242 257.139 309.003 256.902 308.798C256.665 308.593 256.321 308.438 255.87 308.333C255.423 308.228 254.897 308.176 254.29 308.176ZM270.895 311.758H269.87V299.604H270.895V311.758ZM270.143 305.387H267.764V304.498H270.143V305.387ZM268.079 311.129H267.094V299.877H268.079V311.129ZM261.735 307.834C262.724 307.834 263.547 307.811 264.203 307.766C264.864 307.72 265.531 307.629 266.206 307.492L266.301 308.395C265.618 308.536 264.943 308.629 264.278 308.675C263.613 308.72 262.765 308.745 261.735 308.75H260.956V307.834H261.735ZM265.508 301.982H262.022V308.258H260.956V301.094H265.508V301.982ZM282.373 311.758H281.293V299.604H282.373V311.758ZM278.777 300.93C278.773 302.133 278.572 303.258 278.176 304.307C277.784 305.355 277.164 306.321 276.316 307.205C275.469 308.085 274.384 308.841 273.062 309.475L272.475 308.6C273.646 308.044 274.619 307.387 275.394 306.631C276.173 305.874 276.752 305.036 277.13 304.115C277.513 303.19 277.706 302.183 277.711 301.094V300.93H278.777ZM278.148 301.805H273.035V300.93H278.148V301.805ZM288.286 302.871C288.286 303.773 288.131 304.648 287.822 305.496C287.512 306.344 287.088 307.096 286.55 307.752C286.012 308.404 285.415 308.896 284.759 309.229L284.075 308.326C284.677 308.053 285.231 307.631 285.737 307.062C286.242 306.492 286.643 305.84 286.94 305.106C287.24 304.368 287.393 303.623 287.398 302.871V300.656H288.286V302.871ZM288.464 302.871C288.464 303.591 288.612 304.304 288.908 305.011C289.205 305.717 289.603 306.348 290.105 306.904C290.611 307.456 291.162 307.866 291.759 308.135L291.103 308.982C290.447 308.663 289.85 308.192 289.312 307.567C288.774 306.943 288.348 306.223 288.033 305.407C287.719 304.591 287.562 303.746 287.562 302.871V300.656H288.464V302.871ZM294.165 311.785H293.085V299.604H294.165V311.785ZM305.465 308.504H304.385V299.604H305.465V308.504ZM307.297 304.211H305.124V303.309H307.297V304.211ZM302.184 300.547C302.184 301.572 301.952 302.513 301.487 303.37C301.022 304.222 300.359 304.965 299.498 305.599C298.636 306.228 297.618 306.727 296.442 307.096L295.977 306.234C297.016 305.911 297.914 305.492 298.67 304.977C299.427 304.457 300.01 303.862 300.42 303.192C300.831 302.518 301.036 301.796 301.036 301.025V300.547H302.184ZM301.596 301.449H296.483V300.547H301.596V301.449ZM306.026 311.498H297.85V310.596H306.026V311.498ZM298.917 310.951H297.85V307.602H298.917V310.951ZM309.068 310.732C308.909 310.732 308.761 310.691 308.624 310.609C308.492 310.527 308.385 310.42 308.303 310.288C308.225 310.151 308.189 310.003 308.193 309.844C308.189 309.689 308.225 309.543 308.303 309.406C308.385 309.27 308.492 309.162 308.624 309.085C308.761 309.007 308.909 308.969 309.068 308.969C309.228 308.969 309.373 309.007 309.506 309.085C309.642 309.162 309.749 309.27 309.827 309.406C309.904 309.543 309.943 309.689 309.943 309.844C309.943 310.003 309.904 310.151 309.827 310.288C309.749 310.42 309.642 310.527 309.506 310.609C309.373 310.691 309.228 310.732 309.068 310.732ZM309.068 305.236C308.909 305.236 308.761 305.195 308.624 305.113C308.492 305.031 308.385 304.924 308.303 304.792C308.225 304.655 308.189 304.507 308.193 304.348C308.189 304.193 308.225 304.047 308.303 303.91C308.385 303.773 308.492 303.666 308.624 303.589C308.761 303.511 308.909 303.473 309.068 303.473C309.228 303.473 309.373 303.511 309.506 303.589C309.642 303.666 309.749 303.773 309.827 303.91C309.904 304.047 309.943 304.193 309.943 304.348C309.943 304.507 309.904 304.655 309.827 304.792C309.749 304.924 309.642 305.031 309.506 305.113C309.373 305.195 309.228 305.236 309.068 305.236ZM318.147 310.787C317.495 310.787 316.912 310.678 316.397 310.459C315.886 310.24 315.481 309.933 315.18 309.536C314.879 309.135 314.72 308.677 314.702 308.162H315.946C315.968 308.472 316.078 308.741 316.274 308.969C316.474 309.197 316.734 309.374 317.053 309.502C317.377 309.63 317.737 309.693 318.133 309.693C318.566 309.693 318.953 309.62 319.295 309.475C319.642 309.329 319.911 309.124 320.102 308.859C320.293 308.595 320.389 308.294 320.389 307.957C320.384 307.597 320.289 307.278 320.102 307C319.92 306.717 319.646 306.499 319.282 306.344C318.917 306.189 318.484 306.111 317.983 306.111H317.176V305.031H317.983C318.379 305.031 318.732 304.961 319.042 304.819C319.357 304.678 319.598 304.48 319.767 304.225C319.936 303.965 320.02 303.669 320.02 303.336C320.02 303.008 319.945 302.718 319.794 302.468C319.644 302.217 319.43 302.023 319.152 301.887C318.874 301.75 318.548 301.682 318.174 301.682C317.819 301.686 317.486 301.752 317.176 301.88C316.866 302.003 316.613 302.183 316.417 302.42C316.221 302.652 316.114 302.926 316.096 303.24H314.907C314.925 302.73 315.084 302.274 315.385 301.873C315.686 301.472 316.082 301.162 316.575 300.943C317.067 300.725 317.605 300.615 318.188 300.615C318.799 300.615 319.334 300.736 319.794 300.978C320.255 301.219 320.605 301.543 320.847 301.948C321.093 302.354 321.214 302.794 321.209 303.268C321.214 303.637 321.148 303.974 321.011 304.279C320.879 304.58 320.685 304.835 320.43 305.045C320.175 305.255 319.874 305.41 319.528 305.51V305.578C319.952 305.642 320.318 305.781 320.628 305.995C320.943 306.209 321.182 306.485 321.346 306.822C321.51 307.16 321.592 307.538 321.592 307.957C321.592 308.49 321.444 308.973 321.148 309.406C320.852 309.835 320.439 310.172 319.911 310.418C319.386 310.664 318.799 310.787 318.147 310.787ZM326.33 310.787C325.601 310.787 324.978 310.589 324.464 310.192C323.949 309.796 323.554 309.217 323.281 308.456C323.007 307.695 322.871 306.777 322.871 305.701C322.871 304.639 323.007 303.728 323.281 302.967C323.554 302.201 323.949 301.618 324.464 301.217C324.983 300.816 325.605 300.615 326.33 300.615C327.05 300.615 327.67 300.816 328.189 301.217C328.709 301.618 329.105 302.201 329.379 302.967C329.652 303.728 329.789 304.639 329.789 305.701C329.789 306.777 329.654 307.695 329.385 308.456C329.117 309.217 328.722 309.796 328.203 310.192C327.683 310.589 327.059 310.787 326.33 310.787ZM326.33 309.693C326.804 309.693 327.212 309.538 327.553 309.229C327.895 308.919 328.153 308.465 328.326 307.868C328.499 307.271 328.586 306.549 328.586 305.701C328.586 304.854 328.497 304.129 328.319 303.527C328.141 302.926 327.884 302.468 327.547 302.153C327.209 301.839 326.804 301.682 326.33 301.682C325.856 301.682 325.45 301.839 325.113 302.153C324.776 302.468 324.516 302.926 324.334 303.527C324.151 304.129 324.06 304.854 324.06 305.701C324.06 306.549 324.151 307.271 324.334 307.868C324.516 308.465 324.773 308.919 325.106 309.229C325.443 309.538 325.851 309.693 326.33 309.693ZM341.827 306.918H330.698V306.043H341.827V306.918ZM336.878 309.297H335.811V306.467H336.878V309.297ZM340.583 311.498H332.12V310.596H340.583V311.498ZM333.186 310.938H332.12V308.176H333.186V310.938ZM333.255 301.559H339.27V300H340.337V304.854H332.188V300H333.255V301.559ZM339.27 303.979V302.379H333.255V303.979H339.27ZM343.365 306.59C343.589 306.335 343.833 306.143 344.097 306.016C344.366 305.883 344.651 305.815 344.951 305.811C345.179 305.811 345.403 305.845 345.621 305.913C345.84 305.977 346.123 306.075 346.469 306.207C346.793 306.339 347.061 306.439 347.276 306.508C347.494 306.572 347.713 306.604 347.932 306.604C348.242 306.599 348.527 306.526 348.786 306.385C349.051 306.239 349.285 306.025 349.49 305.742V306.877C349.263 307.132 349.016 307.326 348.752 307.458C348.488 307.59 348.205 307.656 347.904 307.656C347.677 307.656 347.456 307.624 347.241 307.561C347.027 307.497 346.738 307.396 346.373 307.26C346.045 307.128 345.774 307.03 345.56 306.966C345.35 306.897 345.134 306.863 344.91 306.863C344.295 306.872 343.78 307.16 343.365 307.725V306.59ZM354.966 310.65H353.722V302.037H353.667L351.261 303.637V302.393L353.722 300.752H354.966V310.65ZM361.03 302.871C361.03 303.773 360.875 304.648 360.565 305.496C360.255 306.344 359.831 307.096 359.294 307.752C358.756 308.404 358.159 308.896 357.503 309.229L356.819 308.326C357.421 308.053 357.974 307.631 358.48 307.062C358.986 306.492 359.387 305.84 359.683 305.106C359.984 304.368 360.137 303.623 360.141 302.871V300.656H361.03V302.871ZM361.208 302.871C361.208 303.591 361.356 304.304 361.652 305.011C361.948 305.717 362.347 306.348 362.848 306.904C363.354 307.456 363.906 307.866 364.503 308.135L363.846 308.982C363.19 308.663 362.593 308.192 362.055 307.567C361.518 306.943 361.092 306.223 360.777 305.407C360.463 304.591 360.305 303.746 360.305 302.871V300.656H361.208V302.871ZM366.909 311.785H365.829V299.604H366.909V311.785ZM378.209 308.504H377.129V299.604H378.209V308.504ZM380.041 304.211H377.867V303.309H380.041V304.211ZM374.928 300.547C374.928 301.572 374.695 302.513 374.23 303.37C373.766 304.222 373.103 304.965 372.241 305.599C371.38 306.228 370.361 306.727 369.186 307.096L368.721 306.234C369.76 305.911 370.658 305.492 371.414 304.977C372.171 304.457 372.754 303.862 373.164 303.192C373.574 302.518 373.779 301.796 373.779 301.025V300.547H374.928ZM374.34 301.449H369.227V300.547H374.34V301.449ZM378.77 311.498H370.594V310.596H378.77V311.498ZM371.66 310.951H370.594V307.602H371.66V310.951ZM394.889 310.172H383.76V309.283H394.889V310.172ZM389.79 309.584H388.737V306.303H389.79V309.584ZM389.639 301.367C389.639 302.197 389.4 302.967 388.921 303.678C388.443 304.389 387.823 304.983 387.062 305.462C386.301 305.94 385.506 306.266 384.676 306.439L384.198 305.551C384.918 305.428 385.627 305.161 386.324 304.751C387.021 304.336 387.591 303.833 388.033 303.24C388.475 302.643 388.696 302.019 388.696 301.367V300.438H389.639V301.367ZM389.817 301.367C389.817 302.014 390.043 302.636 390.494 303.233C390.945 303.83 391.519 304.336 392.216 304.751C392.918 305.161 393.627 305.428 394.342 305.551L393.864 306.439C393.034 306.266 392.239 305.94 391.478 305.462C390.717 304.983 390.095 304.389 389.612 303.678C389.133 302.967 388.896 302.197 388.901 301.367V300.438H389.817V301.367ZM399.394 309.516H398.342V305.879H399.394V309.516ZM403.947 309.516H402.867V305.879H403.947V309.516ZM406.709 310.199H395.58V309.297H406.709V310.199ZM401.117 300.369C401.978 300.374 402.744 300.506 403.414 300.766C404.088 301.021 404.615 301.388 404.993 301.866C405.371 302.34 405.56 302.885 405.56 303.5C405.56 304.12 405.371 304.664 404.993 305.134C404.615 305.603 404.088 305.968 403.414 306.228C402.744 306.487 401.978 306.617 401.117 306.617C400.256 306.617 399.488 306.487 398.813 306.228C398.143 305.968 397.619 305.603 397.241 305.134C396.863 304.664 396.674 304.12 396.674 303.5C396.674 302.885 396.863 302.34 397.241 301.866C397.619 301.388 398.143 301.021 398.813 300.766C399.488 300.506 400.256 300.374 401.117 300.369ZM401.117 301.258C400.456 301.253 399.866 301.344 399.347 301.531C398.832 301.714 398.431 301.976 398.143 302.317C397.856 302.659 397.713 303.053 397.713 303.5C397.713 303.947 397.856 304.341 398.143 304.683C398.431 305.024 398.832 305.291 399.347 305.482C399.866 305.674 400.456 305.77 401.117 305.77C401.773 305.77 402.359 305.674 402.874 305.482C403.389 305.291 403.792 305.024 404.084 304.683C404.376 304.341 404.521 303.947 404.521 303.5C404.521 303.053 404.376 302.659 404.084 302.317C403.792 301.976 403.389 301.714 402.874 301.531C402.359 301.344 401.773 301.253 401.117 301.258Z" fill="#DFE5F1"/>
<g clip-path="url(#clip1_1334_768)">
<path opacity="0.18" d="M576.733 749.981C574.448 773.763 555.409 792.534 535.347 805.489C522.739 813.668 508.948 820.54 494.213 823.707C473.441 828.152 451.881 825.031 430.652 825.882C378.832 827.963 329.487 853.667 277.668 851.587C242.759 850.169 209.457 836.111 179.545 818.065C166.826 810.39 154.045 801.407 147.252 788.121C142.981 779.799 141.389 770.359 137.685 761.77C123.375 728.673 80.6808 713.733 69.3965 679.502C62.5723 658.808 69.1916 636.177 77.6548 616.098C86.6697 594.664 98.1431 573.656 115.81 558.495C120.878 554.219 126.245 550.311 131.87 546.801C148.513 536.115 166.542 527.211 178.63 511.734C192.909 493.452 196.376 469.087 206.999 448.426C226.384 410.491 271.962 387.891 313.916 395.377C324.349 397.236 335.05 393.044 345.641 392.619C384 392.723 422.306 395.493 460.281 400.909C490.525 405.211 523.921 413.406 540.232 439.222C549.216 453.406 551.406 470.837 552.257 487.637C553.93 521.065 551.137 554.567 543.952 587.257C543.432 589.668 542.88 592.08 542.376 594.491C538.278 612.237 533.944 630.282 537.128 648.076C543.637 684.466 580.263 713.15 576.733 749.981Z" fill="#A869F7"/>
<path opacity="0.16" d="M333.979 823.172C408.599 823.172 469.091 805.694 469.091 784.134C469.091 762.574 408.599 745.096 333.979 745.096C259.358 745.096 198.866 762.574 198.866 784.134C198.866 805.694 259.358 823.172 333.979 823.172Z" fill="#282328"/>
<path d="M314.467 687.728H307.627C303.154 687.73 298.723 686.851 294.589 685.14C290.455 683.43 286.699 680.921 283.535 677.759C280.371 674.596 277.861 670.841 276.148 666.708C274.435 662.574 273.554 658.144 273.554 653.671V614.774H323.797L314.467 687.728Z" fill="#A869F7"/>
<path d="M323.28 610.9L310.446 687.4H301.052C294.908 687.4 288.824 686.476 283.148 684.68C277.472 682.885 272.315 680.252 267.972 676.934C263.628 673.616 260.184 669.677 257.834 665.343C255.485 661.008 254.277 656.362 254.28 651.671V610.9H323.28Z" fill="url(#paint0_linear_1334_768)"/>
<path d="M301.875 502.72H348.415V558.59H256.817V547.778C256.817 541.861 257.982 536.002 260.247 530.535C262.511 525.068 265.83 520.101 270.014 515.917C274.198 511.733 279.165 508.414 284.632 506.15C290.099 503.885 295.958 502.72 301.875 502.72Z" fill="#A869F7"/>
<path d="M304.385 652.382C310.61 657.073 317.987 657.073 324.212 652.382C325.71 651.256 323.953 647.354 322.339 648.667C318.189 651.857 311.993 652.983 306.23 648.667C304.731 647.541 302.772 651.069 304.385 652.382Z" fill="#313A5B"/>
<path d="M348.78 502.9V558.4H252.78V547.66C252.78 541.781 254.002 535.959 256.376 530.528C258.75 525.096 262.229 520.161 266.615 516.005C271.001 511.848 276.208 508.552 281.939 506.303C287.669 504.055 293.811 502.898 300.012 502.9H348.78Z" fill="url(#paint1_linear_1334_768)"/>
<path d="M322.627 617.4C320.653 614.25 314.486 613.9 312.759 613.9C311.032 613.9 304.865 614.25 302.891 617.4C301.411 619.85 302.644 625.45 306.345 630.7C308.812 633.85 311.032 634.9 312.759 634.9C314.486 634.9 316.953 633.85 319.173 630.7C323.12 625.45 324.107 619.5 322.627 617.4Z" fill="#313A5B"/>
<path d="M381.561 563.327C381.561 563.327 379.732 659.732 357.778 675.902C335.824 692.072 314.28 688.085 314.28 688.085V534.423C314.28 534.423 372.325 532.532 381.561 563.327Z" fill="#FFBBAB"/>
<path d="M378.359 588.014C378.359 588.014 387.39 577.218 395.554 581.079C403.717 584.941 391.472 604.152 390.826 610.898C390.179 617.643 381.921 626.973 375.585 623.506C369.25 620.039 378.359 588.014 378.359 588.014Z" fill="#FFBBAB"/>
<path d="M388.341 524.743C386.764 524.586 385.488 526.319 385.456 527.895C385.613 529.507 386.153 531.058 387.032 532.419C391.099 540.756 392.249 550.133 391.981 559.305C391.729 567.784 388.971 576.642 389.727 585.026C389.932 587.374 390.405 589.896 389.286 591.976C388.37 593.322 387.229 594.5 385.913 595.459C381.422 599.51 379.341 605.53 377.434 611.219C376.773 606.98 377.576 602.662 378.175 598.422C378.774 594.183 379.184 589.896 379.373 585.625C379.483 583.229 380.807 575.507 379.373 573.616C377.639 571.283 373.825 574.183 371.304 575.034C370.453 575.318 360.902 577.745 360.87 577.477L359.956 564.317L335.749 569.597C335.891 566.902 335.749 563.561 333.243 562.41C331.87 561.968 330.392 561.968 329.019 562.41L314.141 565.294C315.844 560.283 311.762 551.599 311.383 546.382C310.674 536.642 313.858 530.133 313.732 520.378C313.732 515.193 311.1 498.928 316.506 496.233C321.911 493.538 334.913 498.124 340.366 499.543C348.668 501.725 356.714 504.784 364.369 508.668C372.985 513.03 381.035 518.428 388.341 524.743Z" fill="#42202E"/>
<path d="M314.468 556.824H270.481V571.844H314.468V556.824Z" fill="#A869F7"/>
<path d="M314.28 556.9H252.78V571.9H314.28V556.9Z" fill="url(#paint2_linear_1334_768)"/>
<path d="M260.237 564.326H314.468V614.759H260.237C257.95 614.759 255.758 613.851 254.141 612.234C252.524 610.617 251.616 608.424 251.616 606.138V572.947C251.616 570.661 252.524 568.468 254.141 566.851C255.758 565.234 257.95 564.326 260.237 564.326Z" fill="#A869F7"/>
<path d="M314.468 564.326V614.759H260.237C259.103 614.759 257.981 614.535 256.934 614.101C255.887 613.667 254.936 613.03 254.135 612.228C253.335 611.426 252.7 610.474 252.268 609.426C251.835 608.378 251.614 607.256 251.616 606.122V572.947C251.616 570.661 252.524 568.468 254.141 566.851C255.758 565.234 257.95 564.326 260.237 564.326H314.468Z" fill="url(#paint3_linear_1334_768)"/>
<path d="M334.026 599.156C335.384 600.201 337.04 600.786 338.754 600.827C345.172 601.609 351.655 601.699 358.092 601.095" stroke="#42202E" stroke-width="1.57602" stroke-miterlimit="10"/>
<path d="M366.791 579.314C362.284 579.913 357.777 580.606 353.301 581.426C349.68 581.971 346.133 582.923 342.726 584.263C340.645 585.161 336.185 588.739 333.884 587.84C331.583 586.942 333.017 583.916 334.609 583.112C337.399 581.536 341.354 581.174 344.428 580.591C347.866 579.956 351.34 579.524 354.829 579.298C358.812 579.02 362.809 579.025 366.791 579.314Z" fill="#42202E"/>
<path d="M314.468 652.71C320.523 652.548 326.547 651.782 332.45 650.424" stroke="#42202E" stroke-width="1.57602" stroke-linecap="round" stroke-linejoin="round"/>
<path d="M321.418 616.414L322.284 622.292C322.521 623.452 322.521 624.647 322.284 625.807C321.934 626.946 321.267 627.962 320.362 628.738C318.798 630.171 316.836 631.095 314.735 631.386" stroke="#42202E" stroke-width="1.57602" stroke-linecap="round" stroke-linejoin="round"/>
<path d="M291.158 601.961C297.477 601.961 302.6 596.839 302.6 590.52C302.6 584.2 297.477 579.078 291.158 579.078C284.839 579.078 279.716 584.2 279.716 590.52C279.716 596.839 284.839 601.961 291.158 601.961Z" fill="url(#paint4_linear_1334_768)"/>
<path d="M291.158 597.502C295.014 597.502 298.14 594.376 298.14 590.52C298.14 586.664 295.014 583.538 291.158 583.538C287.302 583.538 284.177 586.664 284.177 590.52C284.177 594.376 287.302 597.502 291.158 597.502Z" fill="#A869F7"/>
<path d="M387.248 590.472C387.638 589.953 388.149 589.537 388.737 589.263C389.326 588.988 389.972 588.862 390.621 588.896C391.138 589.025 391.611 589.291 391.991 589.665C392.371 590.039 392.643 590.508 392.78 591.024C393.046 592.054 393.083 593.13 392.89 594.176C392.047 599.069 390.586 603.835 388.54 608.36C386.838 612.536 385.01 616.918 381.448 619.692C380.093 620.732 378.17 621.504 376.72 620.574C372.37 617.737 375.05 608.896 377.918 605.98C379.983 603.9 381.953 602.97 383.072 600.117C384.459 596.571 384.537 593.404 387.248 590.472Z" fill="#E0A194"/>
<path d="M333.979 792.896C401.061 792.896 455.443 780.068 455.443 764.244C455.443 748.42 401.061 735.592 333.979 735.592C266.896 735.592 212.515 748.42 212.515 764.244C212.515 780.068 266.896 792.896 333.979 792.896Z" fill="#A869F7"/>
<path opacity="0.82" d="M522.612 514.161C522.622 518.865 520.965 523.421 517.936 527.019C514.906 530.618 510.701 533.028 506.064 533.821C501.427 534.614 496.66 533.74 492.606 531.353C488.553 528.966 485.476 525.22 483.921 520.781C483.166 518.656 482.782 516.417 482.786 514.161C482.932 508.977 485.094 504.054 488.813 500.439C492.531 496.823 497.513 494.801 502.699 494.801C507.886 494.801 512.868 496.823 516.586 500.439C520.305 504.054 522.467 508.977 522.612 514.161Z" fill="#A869F7"/>
<path opacity="0.55" d="M516.608 505.525C516.607 509.312 515.526 513.021 513.491 516.215C511.457 519.41 508.553 521.957 505.121 523.559C501.689 525.161 497.872 525.75 494.117 525.258C490.361 524.766 486.824 523.213 483.921 520.781C483.166 518.656 482.782 516.417 482.786 514.162C482.79 510.376 483.873 506.669 485.908 503.477C487.943 500.284 490.845 497.737 494.275 496.135C497.705 494.532 501.52 493.94 505.275 494.428C509.029 494.916 512.567 496.464 515.473 498.89C516.229 501.02 516.613 503.265 516.608 505.525Z" fill="white"/>
<path opacity="0.82" d="M472.716 540.607C472.726 542.961 471.901 545.243 470.387 547.046C468.873 548.849 466.769 550.056 464.449 550.453C462.128 550.85 459.742 550.411 457.715 549.214C455.688 548.018 454.151 546.14 453.378 543.917C452.997 542.855 452.805 541.735 452.811 540.607C452.757 539.267 452.975 537.929 453.451 536.675C453.927 535.421 454.652 534.276 455.581 533.309C456.511 532.342 457.626 531.573 458.86 531.047C460.094 530.521 461.422 530.25 462.763 530.25C464.105 530.25 465.432 530.521 466.666 531.047C467.9 531.573 469.016 532.342 469.945 533.309C470.874 534.276 471.599 535.421 472.075 536.675C472.551 537.929 472.769 539.267 472.716 540.607Z" fill="#A869F7"/>
<path opacity="0.55" d="M469.753 536.289C469.749 538.181 469.207 540.033 468.189 541.628C467.171 543.223 465.72 544.496 464.005 545.296C462.29 546.096 460.383 546.392 458.507 546.147C456.63 545.903 454.862 545.129 453.409 543.917C453.029 542.855 452.837 541.735 452.842 540.607C452.843 538.713 453.383 536.859 454.4 535.262C455.416 533.664 456.868 532.39 458.583 531.587C460.298 530.785 462.207 530.489 464.084 530.732C465.962 530.976 467.732 531.75 469.185 532.963C469.56 534.032 469.752 535.156 469.753 536.289Z" fill="white"/>
<path opacity="0.82" d="M284.76 451.357C284.742 454.602 283.62 457.745 281.577 460.267C279.535 462.79 276.694 464.541 273.523 465.232C270.352 465.924 267.04 465.514 264.133 464.071C261.226 462.628 258.897 460.238 257.53 457.294C256.163 454.35 255.84 451.029 256.614 447.877C257.388 444.725 259.212 441.931 261.787 439.954C264.362 437.978 267.532 436.938 270.777 437.006C274.022 437.073 277.147 438.244 279.638 440.325C281.251 441.673 282.547 443.361 283.432 445.268C284.318 447.175 284.771 449.254 284.76 451.357Z" fill="#A869F7"/>
<path opacity="0.55" d="M280.441 445.163C280.438 447.877 279.661 450.534 278.201 452.822C276.742 455.111 274.661 456.936 272.201 458.083C269.742 459.231 267.006 459.654 264.315 459.303C261.624 458.952 259.088 457.841 257.006 456.101C256.251 453.947 256.023 451.644 256.34 449.384C256.658 447.123 257.512 444.972 258.831 443.11C260.15 441.248 261.896 439.728 263.923 438.679C265.95 437.629 268.198 437.081 270.481 437.078C273.83 437.071 277.073 438.249 279.637 440.404C280.179 441.931 280.451 443.542 280.441 445.163Z" fill="white"/>
<path opacity="0.82" d="M465.671 631.386C465.671 633.413 465.07 635.394 463.943 637.079C462.817 638.764 461.216 640.077 459.343 640.852C457.471 641.626 455.41 641.828 453.422 641.432C451.435 641.035 449.61 640.058 448.177 638.624C446.745 637.19 445.771 635.363 445.378 633.375C444.984 631.386 445.189 629.326 445.967 627.455C446.745 625.583 448.06 623.984 449.747 622.86C451.434 621.737 453.416 621.138 455.443 621.142C458.155 621.15 460.755 622.232 462.671 624.152C464.588 626.072 465.667 628.673 465.671 631.386Z" fill="#A869F7"/>
<path opacity="0.55" d="M462.582 626.942C462.583 628.889 462.03 630.797 460.986 632.441C459.942 634.085 458.451 635.398 456.688 636.225C454.925 637.052 452.962 637.359 451.03 637.111C449.099 636.862 447.278 636.068 445.781 634.822C445.237 633.277 445.071 631.624 445.297 630.002C445.524 628.38 446.136 626.836 447.082 625.499C448.028 624.162 449.281 623.072 450.736 622.319C452.191 621.566 453.805 621.174 455.442 621.173C457.843 621.166 460.168 622.016 461.999 623.569C462.391 624.65 462.588 625.792 462.582 626.942Z" fill="white"/>
<path opacity="0.82" d="M160.427 637.012C160.44 640.389 159.254 643.66 157.082 646.244C154.909 648.828 151.889 650.558 148.561 651.125C145.233 651.693 141.811 651.061 138.905 649.342C135.998 647.624 133.796 644.93 132.689 641.74C132.144 640.224 131.867 638.624 131.87 637.012C131.87 633.225 133.374 629.593 136.052 626.916C138.73 624.238 142.362 622.733 146.149 622.733C149.936 622.733 153.567 624.238 156.245 626.916C158.923 629.593 160.427 633.225 160.427 637.012Z" fill="#A869F7"/>
<path opacity="0.55" d="M156.125 630.819C156.127 632.694 155.759 634.552 155.042 636.285C154.325 638.019 153.274 639.593 151.947 640.92C150.621 642.246 149.046 643.298 147.313 644.015C145.579 644.731 143.722 645.099 141.846 645.097C138.495 645.1 135.251 643.917 132.689 641.756C132.144 640.24 131.867 638.64 131.87 637.028C131.877 634.315 132.655 631.661 134.115 629.374C135.574 627.087 137.654 625.263 140.112 624.115C142.569 622.966 145.303 622.54 147.993 622.888C150.684 623.235 153.22 624.34 155.305 626.075C155.85 627.597 156.127 629.202 156.125 630.819Z" fill="white"/>
<path opacity="0.82" d="M143.989 590.661C143.988 592.345 143.393 593.974 142.307 595.26C141.222 596.547 139.717 597.409 138.057 597.694C136.398 597.978 134.692 597.668 133.24 596.816C131.787 595.965 130.683 594.628 130.12 593.041C129.848 592.277 129.71 591.472 129.711 590.661C129.711 588.768 130.463 586.952 131.802 585.613C133.141 584.274 134.957 583.522 136.85 583.522C138.744 583.522 140.559 584.274 141.898 585.613C143.237 586.952 143.989 588.768 143.989 590.661Z" fill="#A869F7"/>
<path opacity="0.55" d="M141.846 587.651C141.839 589.007 141.447 590.333 140.716 591.474C139.985 592.616 138.944 593.526 137.715 594.099C136.487 594.672 135.12 594.885 133.776 594.711C132.431 594.538 131.164 593.986 130.12 593.12C129.848 592.356 129.71 591.551 129.711 590.74C129.711 589.382 130.099 588.052 130.829 586.906C131.559 585.76 132.601 584.847 133.832 584.273C135.064 583.698 136.433 583.487 137.78 583.664C139.127 583.841 140.395 584.399 141.436 585.271C141.71 586.035 141.848 586.84 141.846 587.651Z" fill="white"/>
<path opacity="0.82" d="M208.732 559.913C208.731 561.597 208.136 563.226 207.05 564.512C205.965 565.799 204.46 566.661 202.8 566.946C201.141 567.23 199.435 566.92 197.983 566.068C196.53 565.217 195.426 563.88 194.863 562.293C194.59 561.529 194.451 560.724 194.454 559.913C194.458 558.022 195.212 556.211 196.55 554.875C197.889 553.54 199.702 552.79 201.593 552.79C203.484 552.79 205.297 553.54 206.636 554.875C207.974 556.211 208.728 558.022 208.732 559.913Z" fill="#A869F7"/>
<path opacity="0.55" d="M206.573 556.824C206.577 558.183 206.192 559.514 205.464 560.66C204.735 561.807 203.695 562.722 202.464 563.297C201.233 563.871 199.864 564.082 198.517 563.904C197.171 563.727 195.903 563.168 194.863 562.293C194.59 561.53 194.451 560.724 194.454 559.913C194.458 558.023 195.212 556.211 196.55 554.875C197.889 553.54 199.702 552.79 201.593 552.79C203.265 552.78 204.885 553.367 206.163 554.444C206.437 555.208 206.576 556.013 206.573 556.824Z" fill="white"/>
<g opacity="0.82">
<path d="M159.293 632.694L157.795 632.158L172.311 591.402L142.508 589.905L142.587 588.329L174.517 589.937L159.293 632.694Z" fill="#A869F7"/>
</g>
<path d="M194.138 591.45H173.414V589.874H192.925L199.765 564.122L201.294 564.531L194.138 591.45Z" fill="#A869F7"/>
<path opacity="0.82" d="M418.973 719.407C419.842 718.765 420.911 718.456 421.988 718.536C423.065 718.616 424.077 719.08 424.84 719.844C425.604 720.607 426.068 721.619 426.148 722.696C426.228 723.773 425.919 724.842 425.278 725.711C424.985 726.132 424.616 726.495 424.19 726.782C423.208 727.457 421.998 727.714 420.826 727.499C419.654 727.284 418.615 726.614 417.936 725.635C417.257 724.656 416.993 723.448 417.202 722.275C417.411 721.101 418.077 720.059 419.052 719.375L418.973 719.407Z" fill="#A869F7"/>
<path opacity="0.55" d="M418.154 721.613C418.859 721.128 419.687 720.854 420.542 720.822C421.397 720.79 422.243 721.002 422.982 721.434C423.721 721.865 424.322 722.498 424.714 723.258C425.107 724.018 425.275 724.874 425.199 725.726C424.906 726.148 424.537 726.511 424.111 726.798C423.408 727.29 422.578 727.57 421.721 727.605C420.863 727.64 420.014 727.429 419.272 726.996C418.531 726.563 417.93 725.927 417.539 725.163C417.148 724.399 416.984 723.539 417.067 722.685C417.36 722.263 417.728 721.9 418.154 721.613Z" fill="white"/>
<path opacity="0.82" d="M415.79 686.263C416.659 685.662 417.713 685.387 418.765 685.487C419.817 685.586 420.801 686.053 421.543 686.806C422.284 687.559 422.737 688.55 422.82 689.603C422.904 690.657 422.613 691.706 421.999 692.567C421.706 692.988 421.338 693.352 420.912 693.639C419.929 694.255 418.746 694.469 417.609 694.235C416.472 694.001 415.47 693.338 414.81 692.383C414.15 691.429 413.883 690.257 414.066 689.111C414.248 687.965 414.866 686.933 415.79 686.231V686.263Z" fill="#A869F7"/>
<path opacity="0.55" d="M414.955 688.517C415.441 688.174 415.991 687.93 416.572 687.801C417.153 687.671 417.754 687.658 418.34 687.762C418.926 687.866 419.486 688.085 419.987 688.407C420.488 688.728 420.92 689.146 421.259 689.636C421.853 690.509 422.126 691.562 422.031 692.614C421.738 693.036 421.369 693.399 420.943 693.686C420.239 694.171 419.41 694.445 418.556 694.477C417.701 694.509 416.854 694.297 416.116 693.865C415.377 693.434 414.776 692.801 414.383 692.041C413.991 691.281 413.823 690.425 413.899 689.572C414.183 689.159 414.541 688.801 414.955 688.517Z" fill="white"/>
<g opacity="0.82">
<path d="M424.426 721.897L423.906 720.415L453.567 709.682L443.212 693.04L471.25 685.459L471.66 686.972L445.671 694.001L455.931 710.502L424.426 721.897Z" fill="#A869F7"/>
</g>
<path d="M443.796 693.97L436.909 684.041L421.29 689.683L420.754 688.186L437.507 682.149L445.088 693.071L443.796 693.97Z" fill="#A869F7"/>
<path opacity="0.82" d="M472.306 677.106C473.994 675.927 476.035 675.359 478.09 675.496C480.145 675.634 482.092 676.468 483.608 677.862C485.124 679.256 486.12 681.126 486.429 683.162C486.739 685.198 486.345 687.279 485.311 689.061C484.278 690.843 482.668 692.218 480.746 692.961C478.825 693.703 476.708 693.768 474.745 693.144C472.783 692.52 471.091 691.245 469.951 689.529C468.811 687.814 468.291 685.761 468.476 683.709C468.592 682.396 468.996 681.123 469.657 679.982C470.319 678.841 471.223 677.859 472.306 677.106Z" fill="#A869F7"/>
<path opacity="0.55" d="M470.651 681.566C472.061 680.592 473.719 680.039 475.431 679.973C477.144 679.907 478.84 680.331 480.32 681.194C481.8 682.057 483.004 683.325 483.79 684.848C484.575 686.371 484.911 688.086 484.756 689.793C483.602 691.382 481.96 692.551 480.081 693.121C478.201 693.691 476.187 693.632 474.344 692.952C472.501 692.273 470.931 691.01 469.871 689.356C468.812 687.701 468.322 685.747 468.476 683.789C469.063 682.925 469.8 682.172 470.651 681.566Z" fill="white"/>
<g opacity="0.82">
<path d="M459.524 689.651L440.675 657.296L461.699 648.281L456.451 638.715L457.822 637.958L463.906 649.053L442.945 658.037L460.896 688.863L459.524 689.651Z" fill="#A869F7"/>
</g>
<path opacity="0.82" d="M467.373 478.906C467.369 481.318 466.513 483.651 464.956 485.493C463.399 487.335 461.241 488.568 458.864 488.973C456.486 489.378 454.042 488.93 451.962 487.708C449.883 486.486 448.302 484.569 447.499 482.294C447.111 481.202 446.913 480.05 446.916 478.89C446.916 476.173 447.996 473.568 449.917 471.646C451.838 469.725 454.444 468.646 457.16 468.646C459.877 468.646 462.483 469.725 464.404 471.646C466.325 473.568 467.405 476.173 467.405 478.89L467.373 478.906Z" fill="#A869F7"/>
<path opacity="0.55" d="M464.284 474.461C464.286 475.805 464.023 477.136 463.51 478.378C462.996 479.62 462.243 480.748 461.293 481.699C460.343 482.649 459.214 483.402 457.972 483.915C456.73 484.429 455.399 484.692 454.056 484.69C451.654 484.701 449.328 483.851 447.499 482.294C447.111 481.202 446.913 480.05 446.916 478.89C446.915 476.943 447.468 475.035 448.512 473.391C449.556 471.746 451.047 470.434 452.81 469.607C454.573 468.78 456.536 468.472 458.468 468.721C460.399 468.97 462.22 469.764 463.717 471.01C464.102 472.12 464.294 473.287 464.284 474.461Z" fill="white"/>
<g opacity="0.82">
<path d="M461.226 537.171L442.377 504.8L463.401 495.801L458.153 486.235L459.524 485.478L465.608 496.557L444.631 505.557L462.582 536.383L461.226 537.171Z" fill="#A869F7"/>
</g>
<path d="M308.951 586.861C308.951 586.861 307.673 575.107 297.453 571.53C285.954 567.186 278.033 577.662 275.734 583.539C272.668 592.227 276.5 601.681 277.778 603.98C278.544 605.513 287.232 612.157 306.396 605.769C306.396 605.769 311.25 596.059 308.951 586.861Z" fill="url(#paint5_linear_1334_768)"/>
<path d="M308.958 586.865C307.936 582.777 306.148 579.2 303.082 576.389C301.804 575.111 300.015 573.834 298.227 573.323C297.46 573.067 296.438 572.556 295.416 572.556C294.905 572.301 293.883 572.045 292.861 572.045C289.028 572.045 285.707 573.578 282.896 576.133C280.085 578.688 278.041 582.01 277.019 585.587C275.997 589.165 276.253 593.253 277.019 596.83C277.53 598.619 278.041 600.663 278.808 602.451L279.063 602.962L279.319 603.218C279.574 603.473 279.83 603.729 280.341 603.984C281.107 604.495 281.874 605.007 282.64 605.262C286.218 606.795 290.05 607.306 294.139 607.306C298.227 607.306 302.315 606.54 306.403 605.518C302.571 607.306 298.482 608.328 294.394 609.095C290.306 609.606 285.707 609.606 281.618 608.073C280.596 607.817 279.574 607.306 278.552 606.54C278.041 606.284 277.53 605.773 277.019 605.518C276.764 605.518 276.764 605.262 276.508 605.007L276.253 604.751L275.997 604.495L275.486 603.729C274.464 601.685 273.697 599.641 273.186 597.597C272.164 593.508 271.909 588.909 272.931 584.565C274.208 580.222 276.764 576.389 280.085 573.323C283.407 570.512 288.006 568.468 292.606 568.979C293.628 569.234 294.905 569.234 295.927 569.745C296.949 570.001 297.971 570.512 298.993 571.023C301.038 572.045 302.571 573.578 304.104 575.111C307.17 578.689 308.703 582.777 308.958 586.865Z" fill="url(#paint6_linear_1334_768)"/>
<path d="M295.418 603.98C302.474 603.98 308.194 598.26 308.194 591.204C308.194 584.149 302.474 578.429 295.418 578.429C288.362 578.429 282.643 584.149 282.643 591.204C282.643 598.26 288.362 603.98 295.418 603.98Z" fill="#4C5359"/>
<path d="M295.409 606.55C298.514 606.55 301.03 603.69 301.03 600.162C301.03 596.634 298.514 593.774 295.409 593.774C292.305 593.774 289.788 596.634 289.788 600.162C289.788 603.69 292.305 606.55 295.409 606.55Z" fill="white"/>
<path d="M285.96 593.008C287.795 593.008 289.282 591.292 289.282 589.175C289.282 587.059 287.795 585.343 285.96 585.343C284.126 585.343 282.638 587.059 282.638 589.175C282.638 591.292 284.126 593.008 285.96 593.008Z" fill="white"/>
<path d="M543.362 600.07C542.842 602.482 542.29 604.893 541.786 607.304L459.171 777.751C455.908 784.509 450.142 789.731 443.096 792.313C410.094 804.401 309.717 834.661 222.358 793.558C218.894 791.919 215.792 789.606 213.232 786.753C210.672 783.901 208.706 780.568 207.449 776.947L131.28 559.582C147.923 548.897 165.953 539.992 178.041 524.516C192.32 506.234 195.787 481.869 206.409 461.207C225.794 423.272 271.373 400.672 313.326 408.158C323.76 410.018 334.461 405.826 345.052 405.4C383.411 405.504 421.716 408.274 459.691 413.69C489.935 417.993 523.331 426.188 539.643 452.003C548.626 466.187 550.817 483.618 551.668 500.419C553.343 533.857 550.55 567.37 543.362 600.07Z" fill="url(#paint7_linear_1334_768)"/>
</g>
<path d="M255.5 913.65H252.73L260.742 891.832H263.469L271.48 913.65H268.71L262.191 895.284H262.02L255.5 913.65ZM256.523 905.128H267.688V907.471H256.523V905.128ZM274.114 913.65V897.287H276.628V913.65H274.114ZM275.392 894.559C274.902 894.559 274.479 894.393 274.124 894.059C273.776 893.725 273.602 893.324 273.602 892.855C273.602 892.386 273.776 891.985 274.124 891.651C274.479 891.317 274.902 891.15 275.392 891.15C275.882 891.15 276.301 891.317 276.649 891.651C277.004 891.985 277.182 892.386 277.182 892.855C277.182 893.324 277.004 893.725 276.649 894.059C276.301 894.393 275.882 894.559 275.392 894.559ZM287.639 903.18H312.209V905.22H287.639V903.18ZM298.859 904.2H301.349V910.44H298.859V904.2ZM290.759 913.35H309.479V915.39H290.759V913.35ZM290.759 908.04H293.219V914.13H290.759V908.04ZM290.909 889.71H293.369V893.16H306.479V889.71H308.969V900.57H290.909V889.71ZM293.369 895.11V898.56H306.479V895.11H293.369ZM328.587 894.54H335.007V896.61H328.587V894.54ZM321.417 890.25H323.457V893.07C323.457 898.29 320.547 902.58 315.987 904.32L314.697 902.34C318.777 900.84 321.417 897.21 321.417 893.07V890.25ZM321.867 890.25H323.877V893.19C323.877 896.91 326.577 900.39 330.477 901.77L329.157 903.72C324.807 902.07 321.867 897.96 321.867 893.19V890.25ZM318.867 906.39H336.957V915.99H334.467V908.4H318.867V906.39ZM334.467 888.87H336.957V904.89H334.467V888.87ZM357.212 893.61H359.252V893.97C359.252 897.96 356.312 901.08 351.722 902.22L350.702 900.24C354.572 899.37 357.212 896.85 357.212 893.97V893.61ZM357.662 893.61H359.702V893.97C359.702 896.7 362.312 899.01 366.152 899.88L365.132 901.83C360.602 900.75 357.662 897.78 357.662 893.97V893.61ZM351.272 891.93H365.642V893.91H351.272V891.93ZM357.182 888.93H359.702V893.25H357.182V888.93ZM357.242 904.38H359.732V915.21H357.242V904.38ZM369.242 888.87H371.702V916.02H369.242V888.87ZM349.772 906.21L349.442 904.11C354.572 904.11 361.382 904.08 367.322 903.24L367.502 905.07C361.412 906.12 354.812 906.21 349.772 906.21ZM376.5 910.41H401.07V912.48H376.5V910.41ZM387.42 903.84H389.88V911.1H387.42V903.84ZM387.36 890.67H389.52V892.77C389.52 898.56 383.97 903.03 378.51 904.17L377.46 902.1C382.23 901.23 387.36 897.24 387.36 892.77V890.67ZM387.81 890.67H389.97V892.77C389.97 897.27 395.13 901.23 399.9 902.1L398.82 904.17C393.36 903.03 387.81 898.56 387.81 892.77V890.67Z" fill="#DFE5F1"/>
<line x1="240.78" y1="916.9" x2="402.78" y2="916.9" stroke="#DFE5F1" stroke-width="1.5"/>
<path d="M155.098 1067.79H158.878V1095.57H155.098V1067.79ZM151.378 1078.47H155.998V1081.68H151.378V1078.47ZM148.888 1068.27H152.578V1094.25H148.888V1068.27ZM135.808 1086.03H137.758C141.178 1086.03 144.028 1085.91 147.328 1085.31L147.628 1088.55C144.268 1089.21 141.328 1089.3 137.758 1089.3H135.808V1086.03ZM135.808 1071H146.068V1074.21H139.768V1087.59H135.808V1071ZM181.165 1067.79H185.185V1095.57H181.165V1067.79ZM172.975 1070.67H176.935C176.935 1079.16 174.055 1086.12 164.185 1090.89L162.115 1087.71C170.095 1083.87 172.975 1078.83 172.975 1071.39V1070.67ZM163.585 1070.67H174.865V1073.82H163.585V1070.67ZM195.803 1069.92H199.043V1073.97C199.043 1081.11 196.583 1087.56 191.063 1090.11L188.693 1086.81C193.523 1084.71 195.803 1079.37 195.803 1073.97V1069.92ZM196.583 1069.92H199.823V1073.97C199.823 1079.1 202.013 1084.2 206.753 1086.24L204.413 1089.45C199.043 1086.99 196.583 1080.81 196.583 1073.97V1069.92ZM208.073 1067.76H212.093V1095.63H208.073V1067.76ZM233.871 1067.79H237.891V1087.68H233.871V1067.79ZM236.751 1075.53H241.581V1078.8H236.751V1075.53ZM226.131 1069.86H230.391C230.391 1077.42 225.771 1082.61 217.491 1085.01L215.811 1081.83C222.621 1079.97 226.131 1076.25 226.131 1071.84V1069.86ZM217.011 1069.86H228.291V1073.07H217.011V1069.86ZM219.921 1091.91H238.821V1095.09H219.921V1091.91ZM219.921 1085.67H223.941V1093.32H219.921V1085.67ZM243.048 1080.84H268.188V1084.02H243.048V1080.84ZM253.638 1076.67H257.598V1082.07H253.638V1076.67ZM246.078 1075.41H265.338V1078.56H246.078V1075.41ZM246.078 1068.99H265.188V1072.11H250.038V1077.42H246.078V1068.99ZM255.528 1085.4C261.528 1085.4 265.158 1087.23 265.158 1090.5C265.158 1093.77 261.528 1095.6 255.528 1095.6C249.528 1095.6 245.868 1093.77 245.868 1090.5C245.868 1087.23 249.528 1085.4 255.528 1085.4ZM255.528 1088.4C251.808 1088.4 249.918 1089.09 249.918 1090.5C249.918 1091.94 251.808 1092.57 255.528 1092.57C259.248 1092.57 261.138 1091.94 261.138 1090.5C261.138 1089.09 259.248 1088.4 255.528 1088.4ZM287.896 1067.79H291.886V1087.98H287.896V1067.79ZM290.746 1075.74H295.576V1079.01H290.746V1075.74ZM273.976 1091.91H292.876V1095.09H273.976V1091.91ZM273.976 1085.88H277.966V1093.32H273.976V1085.88ZM277.756 1069.56C282.016 1069.56 285.316 1072.53 285.316 1076.64C285.316 1080.72 282.016 1083.69 277.756 1083.69C273.496 1083.69 270.196 1080.72 270.196 1076.64C270.196 1072.53 273.496 1069.56 277.756 1069.56ZM277.756 1073.04C275.716 1073.04 274.096 1074.36 274.096 1076.64C274.096 1078.89 275.716 1080.21 277.756 1080.21C279.826 1080.21 281.416 1078.89 281.416 1076.64C281.416 1074.36 279.826 1073.04 277.756 1073.04ZM321.735 1067.79H325.725V1084.44H321.735V1067.79ZM324.585 1074.24H329.415V1077.51H324.585V1074.24ZM304.845 1080.15H307.185C312.645 1080.15 316.005 1080.03 319.845 1079.31L320.205 1082.49C316.305 1083.24 312.795 1083.39 307.185 1083.39H304.845V1080.15ZM304.815 1069.44H317.505V1077.78H308.805V1082.1H304.845V1074.81H313.575V1072.59H304.815V1069.44ZM316.605 1085.01C322.395 1085.01 325.995 1086.99 325.995 1090.32C325.995 1093.65 322.395 1095.57 316.605 1095.57C310.815 1095.57 307.185 1093.65 307.185 1090.32C307.185 1086.99 310.815 1085.01 316.605 1085.01ZM316.605 1088.07C313.005 1088.07 311.115 1088.79 311.115 1090.32C311.115 1091.85 313.005 1092.57 316.605 1092.57C320.205 1092.57 322.095 1091.85 322.095 1090.32C322.095 1088.79 320.205 1088.07 316.605 1088.07ZM350.923 1067.79H354.733V1095.57H350.923V1067.79ZM340.363 1077.93H346.813V1081.14H340.363V1077.93ZM345.193 1068.27H348.913V1094.34H345.193V1068.27ZM331.663 1086.12H333.583C337.513 1086.12 340.123 1086.03 343.183 1085.43L343.483 1088.67C340.393 1089.3 337.633 1089.42 333.583 1089.42H331.663V1086.12ZM331.663 1070.91H342.253V1074.09H335.593V1087.5H331.663V1070.91ZM357.85 1083.78H383.02V1086.93H357.85V1083.78ZM368.35 1085.37H372.31V1095.57H368.35V1085.37ZM360.73 1068.84H364.69V1071.99H376.09V1068.84H380.05V1081.14H360.73V1068.84ZM364.69 1075.11V1077.96H376.09V1075.11H364.69ZM384.848 1080.24H410.018V1083.15H384.848V1080.24ZM387.668 1084.53H407.018V1091.13H391.688V1093.5H387.728V1088.61H403.088V1087.23H387.668V1084.53ZM387.728 1092.66H407.798V1095.36H387.728V1092.66ZM387.938 1068.27H406.958V1074.81H391.928V1077.09H387.968V1072.32H403.028V1070.94H387.938V1068.27ZM387.968 1076.25H407.468V1078.95H387.968V1076.25ZM429.247 1080.27H433.237V1085.55H429.247V1080.27ZM421.807 1074.15H440.887V1077.27H421.807V1074.15ZM421.807 1068.72H440.647V1071.87H425.767V1075.83H421.807V1068.72ZM418.687 1078.71H443.797V1081.86H418.687V1078.71ZM421.567 1083.63H440.767V1090.77H425.527V1093.2H421.597V1088.01H436.837V1086.57H421.567V1083.63ZM421.597 1092.39H441.487V1095.39H421.597V1092.39ZM464.945 1067.76H468.935V1095.63H464.945V1067.76ZM460.595 1077.78H465.755V1080.99H460.595V1077.78ZM446.645 1085.91H448.925C453.425 1085.91 456.995 1085.82 461.015 1085.13L461.375 1088.37C457.265 1089.06 453.545 1089.21 448.925 1089.21H446.645V1085.91ZM446.585 1070.13H459.095V1080.57H450.605V1086.9H446.645V1077.42H455.165V1073.31H446.585V1070.13ZM472.712 1089.12H497.852V1092.36H472.712V1089.12ZM483.242 1083.18H487.232V1089.9H483.242V1083.18ZM475.352 1069.56H479.312V1073.82H491.162V1069.56H495.122V1084.02H475.352V1069.56ZM479.312 1076.94V1080.84H491.162V1076.94H479.312ZM510.63 1077.12H515.22V1080.36H510.63V1077.12ZM504.69 1070.19H507.75V1074.87C507.75 1081.17 506.01 1087.32 501.57 1090.05L499.17 1087.05C503.25 1084.53 504.69 1079.58 504.69 1074.87V1070.19ZM505.56 1070.19H508.56V1074.69C508.56 1079.22 509.73 1083.84 513.51 1086.3L511.35 1089.42C506.94 1086.69 505.56 1080.69 505.56 1074.69V1070.19ZM519.75 1067.79H523.56V1095.57H519.75V1067.79ZM514.11 1068.21H517.83V1094.31H514.11V1068.21ZM532.228 1081.89H536.188V1089.69H532.228V1081.89ZM542.308 1081.89H546.298V1089.69H542.308V1081.89ZM526.708 1089.12H551.848V1092.36H526.708V1089.12ZM539.248 1069.14C545.218 1069.14 549.628 1072.08 549.628 1076.61C549.628 1081.14 545.218 1084.05 539.248 1084.05C533.248 1084.05 528.868 1081.14 528.868 1076.61C528.868 1072.08 533.248 1069.14 539.248 1069.14ZM539.248 1072.26C535.378 1072.26 532.798 1073.85 532.798 1076.61C532.798 1079.34 535.378 1080.96 539.248 1080.96C543.118 1080.96 545.698 1079.34 545.698 1076.61C545.698 1073.85 543.118 1072.26 539.248 1072.26ZM559.176 1071.08L558.825 1086.49H555.394L555.053 1071.08H559.176ZM557.109 1093.13C556.463 1093.13 555.909 1092.91 555.447 1092.45C554.993 1092 554.766 1091.44 554.766 1090.79C554.766 1090.15 554.993 1089.6 555.447 1089.15C555.909 1088.7 556.463 1088.47 557.109 1088.47C557.742 1088.47 558.288 1088.7 558.75 1089.15C559.219 1089.6 559.453 1090.15 559.453 1090.79C559.453 1091.22 559.343 1091.62 559.123 1091.97C558.91 1092.33 558.626 1092.61 558.271 1092.83C557.923 1093.03 557.536 1093.13 557.109 1093.13Z" fill="#DFE5F1"/>
</g>
<defs>
<linearGradient id="paint0_linear_1334_768" x1="273.56" y1="610.9" x2="300.855" y2="679.116" gradientUnits="userSpaceOnUse">
<stop stop-color="#7373F6"/>
<stop offset="0.361458" stop-color="#8B70F7"/>
<stop offset="0.634552" stop-color="#956EF6"/>
<stop offset="1" stop-color="#A869F7"/>
</linearGradient>
<linearGradient id="paint1_linear_1334_768" x1="279.604" y1="502.9" x2="291.083" y2="557.919" gradientUnits="userSpaceOnUse">
<stop stop-color="#7373F6"/>
<stop offset="0.361458" stop-color="#8B70F7"/>
<stop offset="0.634552" stop-color="#956EF6"/>
<stop offset="1" stop-color="#A869F7"/>
</linearGradient>
<linearGradient id="paint2_linear_1334_768" x1="269.964" y1="556.9" x2="271.32" y2="572.298" gradientUnits="userSpaceOnUse">
<stop stop-color="#7373F6"/>
<stop offset="0.361458" stop-color="#8B70F7"/>
<stop offset="0.634552" stop-color="#956EF6"/>
<stop offset="1" stop-color="#A869F7"/>
</linearGradient>
<linearGradient id="paint3_linear_1334_768" x1="269.177" y1="564.326" x2="283.117" y2="612.461" gradientUnits="userSpaceOnUse">
<stop stop-color="#7373F6"/>
<stop offset="0.361458" stop-color="#8B70F7"/>
<stop offset="0.634552" stop-color="#956EF6"/>
<stop offset="1" stop-color="#A869F7"/>
</linearGradient>
<linearGradient id="paint4_linear_1334_768" x1="257.684" y1="569.558" x2="376.657" y2="644.041" gradientUnits="userSpaceOnUse">
<stop offset="0.01"/>
<stop offset="0.13" stop-opacity="0.69"/>
<stop offset="0.25" stop-opacity="0.32"/>
<stop offset="1" stop-opacity="0"/>
</linearGradient>
<linearGradient id="paint5_linear_1334_768" x1="274.573" y1="570.503" x2="317.549" y2="593.725" gradientUnits="userSpaceOnUse">
<stop stop-color="#B770EB"/>
<stop offset="1" stop-color="#A8B2EA"/>
</linearGradient>
<linearGradient id="paint6_linear_1334_768" x1="272.28" y1="568.9" x2="317.665" y2="593.01" gradientUnits="userSpaceOnUse">
<stop stop-color="#B770EB"/>
<stop offset="1" stop-color="#A8B2EA"/>
</linearGradient>
<linearGradient id="paint7_linear_1334_768" x1="333.515" y1="794.141" x2="347.447" y2="366.299" gradientUnits="userSpaceOnUse">
<stop offset="0.01" stop-color="white"/>
<stop offset="0.13" stop-color="white" stop-opacity="0.69"/>
<stop offset="0.15" stop-color="white" stop-opacity="0.61"/>
<stop offset="0.2" stop-color="white" stop-opacity="0.47"/>
<stop offset="0.25" stop-color="white" stop-opacity="0.34"/>
<stop offset="0.3" stop-color="white" stop-opacity="0.23"/>
<stop offset="0.36" stop-color="white" stop-opacity="0.15"/>
<stop offset="0.44" stop-color="white" stop-opacity="0.08"/>
<stop offset="0.52" stop-color="white" stop-opacity="0.03"/>
<stop offset="0.65" stop-color="white" stop-opacity="0.01"/>
<stop offset="1" stop-color="white" stop-opacity="0"/>
</linearGradient>
<clipPath id="clip0_1334_768">
<rect width="642" height="1389" fill="white" transform="translate(0.780273 0.400391)"/>
</clipPath>
<clipPath id="clip1_1334_768">
<rect width="609" height="459" fill="white" transform="translate(17.2803 392.65)"/>
</clipPath>
</defs>
</svg>
