<svg width="155" height="15" viewBox="0 0 155 15" fill="none" xmlns="http://www.w3.org/2000/svg">
<path d="M9.92389 0.595V14.185H11.1689V0.595H9.92389ZM4.01389 1.645C2.01889 1.645 0.578885 3.49 0.578885 6.37C0.578885 9.265 2.01889 11.11 4.01389 11.11C6.02389 11.11 7.46389 9.265 7.46389 6.37C7.46389 3.49 6.02389 1.645 4.01389 1.645ZM4.01389 2.77C5.34889 2.77 6.26389 4.18 6.26389 6.37C6.26389 8.575 5.34889 10.015 4.01389 10.015C2.69389 10.015 1.76389 8.575 1.76389 6.37C1.76389 4.18 2.69389 2.77 4.01389 2.77ZM14.3477 1.93V10.765H20.5877V1.93H14.3477ZM19.3727 2.935V9.76H15.5627V2.935H19.3727ZM23.4227 0.595V14.185H24.6677V0.595H23.4227ZM36.2503 4.375V5.38H39.2653V4.375H36.2503ZM36.1453 7.78V8.785H39.2353V7.78H36.1453ZM41.3203 0.609999V14.17H42.5203V0.609999H41.3203ZM38.6053 0.955V13.48H39.7753V0.955H38.6053ZM35.5753 2.32V2.545C35.5753 5.74 34.1503 8.44 30.9853 10.36L31.7053 11.245C35.3503 9.07 36.7753 5.875 36.7753 2.32H35.5753ZM31.5853 2.32V3.34H36.0703V2.32H31.5853ZM51.7291 4.12V5.155H54.7891V4.12H51.7291ZM54.3991 0.609999V8.695H55.6441V0.609999H54.3991ZM51.1891 9.1C48.3841 9.1 46.6591 10.045 46.6591 11.635C46.6591 13.24 48.3841 14.155 51.1891 14.155C53.9791 14.155 55.7041 13.24 55.7041 11.635C55.7041 10.045 53.9791 9.1 51.1891 9.1ZM51.1891 10.075C53.2291 10.075 54.4741 10.645 54.4741 11.635C54.4741 12.61 53.2291 13.18 51.1891 13.18C49.1491 13.18 47.9041 12.61 47.9041 11.635C47.9041 10.645 49.1491 10.075 51.1891 10.075ZM47.9491 1.975V3.07C47.9491 5.02 46.5541 6.835 44.5441 7.57L45.1891 8.56C47.4391 7.72 48.9691 5.575 48.9691 3.07V1.975H47.9491ZM48.1891 1.975V3.07C48.1891 5.35 49.6441 7.39 51.8491 8.185L52.4791 7.195C50.5141 6.505 49.1941 4.825 49.1941 3.07V1.975H48.1891ZM44.9191 1.6V2.62H52.1641V1.6H44.9191ZM67.8379 0.595V14.185H69.0829V0.595H67.8379ZM61.9279 1.645C59.9329 1.645 58.4929 3.49 58.4929 6.37C58.4929 9.265 59.9329 11.11 61.9279 11.11C63.9379 11.11 65.3779 9.265 65.3779 6.37C65.3779 3.49 63.9379 1.645 61.9279 1.645ZM61.9279 2.77C63.2629 2.77 64.1779 4.18 64.1779 6.37C64.1779 8.575 63.2629 10.015 61.9279 10.015C60.6079 10.015 59.6779 8.575 59.6779 6.37C59.6779 4.18 60.6079 2.77 61.9279 2.77ZM78.7905 8.95V9.685C78.7905 10.99 77.7705 12.445 76.0605 13.06L76.6905 13.99C78.6405 13.24 79.7505 11.455 79.7505 9.685V8.95H78.7905ZM79.0605 8.95V9.685C79.0605 11.485 79.9455 13.345 81.8955 14.11L82.4205 13.165C80.8005 12.505 79.9905 11.05 79.9905 9.685V8.95H79.0605ZM83.8005 8.95V9.685C83.8005 10.855 82.9755 12.43 81.3705 13.165L81.8955 14.11C83.8305 13.285 84.7305 11.275 84.7305 9.685V8.95H83.8005ZM84.0555 8.95V9.685C84.0555 11.56 85.1355 13.27 87.1155 13.99L87.7455 13.06C86.0205 12.475 85.0155 11.08 85.0155 9.685V8.95H84.0555ZM85.2705 0.624999V8.365H86.5305V0.624999H85.2705ZM79.2555 1.405C77.2005 1.405 75.7155 2.695 75.7155 4.57C75.7155 6.445 77.2005 7.72 79.2555 7.72C81.3105 7.72 82.7805 6.445 82.7805 4.57C82.7805 2.695 81.3105 1.405 79.2555 1.405ZM79.2555 2.44C80.6055 2.44 81.5805 3.31 81.5805 4.57C81.5805 5.83 80.6055 6.685 79.2555 6.685C77.9055 6.685 76.9305 5.83 76.9305 4.57C76.9305 3.31 77.9055 2.44 79.2555 2.44ZM95.0344 1.465C92.2144 1.465 90.0994 2.965 90.0994 5.215C90.0994 7.48 92.2144 8.965 95.0344 8.965C97.8544 8.965 99.9544 7.48 99.9544 5.215C99.9544 2.965 97.8544 1.465 95.0344 1.465ZM95.0344 2.485C97.1794 2.485 98.7694 3.58 98.7694 5.215C98.7694 6.835 97.1794 7.945 95.0344 7.945C92.8894 7.945 91.2994 6.835 91.2994 5.215C91.2994 3.58 92.8894 2.485 95.0344 2.485ZM88.9144 11.335V12.385H101.199V11.335H88.9144ZM112.268 0.624999V10.555H113.528V0.624999H112.268ZM104.813 12.85V13.87H113.933V12.85H104.813ZM104.813 9.64V13.33H106.043V9.64H104.813ZM105.938 1.36V2.74C105.938 4.84 104.588 6.82 102.548 7.615L103.193 8.62C105.473 7.69 106.973 5.38 106.973 2.74V1.36H105.938ZM106.163 1.36V2.74C106.163 5.32 107.663 7.495 109.913 8.365L110.573 7.36C108.548 6.625 107.183 4.78 107.183 2.74V1.36H106.163ZM125.077 0.595V14.17H126.337V0.595H125.077ZM125.992 6.1V7.135H128.497V6.1H125.992ZM121.612 2.065V2.26C121.612 5.845 119.737 8.74 115.987 10.645L116.677 11.605C121.057 9.4 122.827 5.92 122.827 2.065H121.612ZM116.617 2.065V3.085H122.257V2.065H116.617ZM132.411 7.585V11.65H133.641V7.585H132.411ZM137.421 7.585V11.65H138.666V7.585H137.421ZM129.411 11.41V12.445H141.696V11.41H129.411ZM135.531 1.465C132.651 1.465 130.596 2.83 130.596 4.96C130.596 7.075 132.651 8.44 135.531 8.44C138.396 8.44 140.451 7.075 140.451 4.96C140.451 2.83 138.396 1.465 135.531 1.465ZM135.531 2.455C137.706 2.455 139.251 3.445 139.251 4.96C139.251 6.46 137.706 7.45 135.531 7.45C133.356 7.45 131.796 6.46 131.796 4.96C131.796 3.445 133.356 2.455 135.531 2.455ZM154.452 9.16477L147.591 12.6591V11.2955L152.854 8.75994L152.811 8.84517V8.6321L152.854 8.71733L147.591 6.18182V4.81818L154.452 8.3125V9.16477Z" fill="url(#paint0_linear_421_401)"/>
<defs>
<linearGradient id="paint0_linear_421_401" x1="-1" y1="-2.3125" x2="34.8466" y2="75.6824" gradientUnits="userSpaceOnUse">
<stop stop-color="#7373F6"/>
<stop offset="0.361458" stop-color="#8B70F7"/>
<stop offset="0.634552" stop-color="#956EF6"/>
<stop offset="1" stop-color="#A869F7"/>
</linearGradient>
</defs>
</svg>
