<svg width="149" height="15" viewBox="0 0 149 15" fill="none" xmlns="http://www.w3.org/2000/svg">
<path d="M9.87584 0.595V14.185H11.1208V0.595H9.87584ZM3.96584 1.645C1.97084 1.645 0.530843 3.49 0.530843 6.37C0.530843 9.265 1.97084 11.11 3.96584 11.11C5.97584 11.11 7.41584 9.265 7.41584 6.37C7.41584 3.49 5.97584 1.645 3.96584 1.645ZM3.96584 2.77C5.30084 2.77 6.21584 4.18 6.21584 6.37C6.21584 8.575 5.30084 10.015 3.96584 10.015C2.64584 10.015 1.71584 8.575 1.71584 6.37C1.71584 4.18 2.64584 2.77 3.96584 2.77ZM14.2997 1.93V10.765H20.5397V1.93H14.2997ZM19.3247 2.935V9.76H15.5147V2.935H19.3247ZM23.3747 0.595V14.185H24.6197V0.595H23.3747ZM36.2022 4.375V5.38H39.2172V4.375H36.2022ZM36.0972 7.78V8.785H39.1873V7.78H36.0972ZM41.2723 0.609999V14.17H42.4722V0.609999H41.2723ZM38.5573 0.955V13.48H39.7273V0.955H38.5573ZM35.5272 2.32V2.545C35.5272 5.74 34.1022 8.44 30.9372 10.36L31.6572 11.245C35.3022 9.07 36.7273 5.875 36.7273 2.32H35.5272ZM31.5372 2.32V3.34H36.0222V2.32H31.5372ZM51.6811 4.12V5.155H54.7411V4.12H51.6811ZM54.3511 0.609999V8.695H55.5961V0.609999H54.3511ZM51.1411 9.1C48.3361 9.1 46.6111 10.045 46.6111 11.635C46.6111 13.24 48.3361 14.155 51.1411 14.155C53.9311 14.155 55.6561 13.24 55.6561 11.635C55.6561 10.045 53.9311 9.1 51.1411 9.1ZM51.1411 10.075C53.1811 10.075 54.4261 10.645 54.4261 11.635C54.4261 12.61 53.1811 13.18 51.1411 13.18C49.1011 13.18 47.8561 12.61 47.8561 11.635C47.8561 10.645 49.1011 10.075 51.1411 10.075ZM47.9011 1.975V3.07C47.9011 5.02 46.5061 6.835 44.4961 7.57L45.1411 8.56C47.3911 7.72 48.9211 5.575 48.9211 3.07V1.975H47.9011ZM48.1411 1.975V3.07C48.1411 5.35 49.5961 7.39 51.8011 8.185L52.4311 7.195C50.4661 6.505 49.1461 4.825 49.1461 3.07V1.975H48.1411ZM44.8711 1.6V2.62H52.1161V1.6H44.8711ZM67.7899 0.595V14.185H69.0349V0.595H67.7899ZM61.8799 1.645C59.8849 1.645 58.4449 3.49 58.4449 6.37C58.4449 9.265 59.8849 11.11 61.8799 11.11C63.8899 11.11 65.3299 9.265 65.3299 6.37C65.3299 3.49 63.8899 1.645 61.8799 1.645ZM61.8799 2.77C63.2149 2.77 64.1299 4.18 64.1299 6.37C64.1299 8.575 63.2149 10.015 61.8799 10.015C60.5599 10.015 59.6299 8.575 59.6299 6.37C59.6299 4.18 60.5599 2.77 61.8799 2.77ZM78.7425 8.95V9.685C78.7425 10.99 77.7225 12.445 76.0125 13.06L76.6425 13.99C78.5925 13.24 79.7025 11.455 79.7025 9.685V8.95H78.7425ZM79.0125 8.95V9.685C79.0125 11.485 79.8975 13.345 81.8475 14.11L82.3725 13.165C80.7525 12.505 79.9425 11.05 79.9425 9.685V8.95H79.0125ZM83.7525 8.95V9.685C83.7525 10.855 82.9275 12.43 81.3225 13.165L81.8475 14.11C83.7825 13.285 84.6825 11.275 84.6825 9.685V8.95H83.7525ZM84.0075 8.95V9.685C84.0075 11.56 85.0875 13.27 87.0675 13.99L87.6975 13.06C85.9725 12.475 84.9675 11.08 84.9675 9.685V8.95H84.0075ZM85.2225 0.624999V8.365H86.4825V0.624999H85.2225ZM79.2075 1.405C77.1525 1.405 75.6675 2.695 75.6675 4.57C75.6675 6.445 77.1525 7.72 79.2075 7.72C81.2625 7.72 82.7325 6.445 82.7325 4.57C82.7325 2.695 81.2625 1.405 79.2075 1.405ZM79.2075 2.44C80.5575 2.44 81.5325 3.31 81.5325 4.57C81.5325 5.83 80.5575 6.685 79.2075 6.685C77.8575 6.685 76.8825 5.83 76.8825 4.57C76.8825 3.31 77.8575 2.44 79.2075 2.44ZM94.9863 1.465C92.1663 1.465 90.0513 2.965 90.0513 5.215C90.0513 7.48 92.1663 8.965 94.9863 8.965C97.8063 8.965 99.9063 7.48 99.9063 5.215C99.9063 2.965 97.8063 1.465 94.9863 1.465ZM94.9863 2.485C97.1313 2.485 98.7213 3.58 98.7213 5.215C98.7213 6.835 97.1313 7.945 94.9863 7.945C92.8413 7.945 91.2513 6.835 91.2513 5.215C91.2513 3.58 92.8413 2.485 94.9863 2.485ZM88.8663 11.335V12.385H101.151V11.335H88.8663ZM112.22 0.624999V10.555H113.48V0.624999H112.22ZM104.765 12.85V13.87H113.885V12.85H104.765ZM104.765 9.64V13.33H105.995V9.64H104.765ZM105.89 1.36V2.74C105.89 4.84 104.54 6.82 102.5 7.615L103.145 8.62C105.425 7.69 106.925 5.38 106.925 2.74V1.36H105.89ZM106.115 1.36V2.74C106.115 5.32 107.615 7.495 109.865 8.365L110.525 7.36C108.5 6.625 107.135 4.78 107.135 2.74V1.36H106.115ZM125.029 0.595V14.17H126.289V0.595H125.029ZM125.944 6.1V7.135H128.449V6.1H125.944ZM121.564 2.065V2.26C121.564 5.845 119.689 8.74 115.939 10.645L116.629 11.605C121.009 9.4 122.779 5.92 122.779 2.065H121.564ZM116.569 2.065V3.085H122.209V2.065H116.569ZM132.363 7.585V11.65H133.593V7.585H132.363ZM137.373 7.585V11.65H138.618V7.585H137.373ZM129.363 11.41V12.445H141.648V11.41H129.363ZM135.483 1.465C132.603 1.465 130.548 2.83 130.548 4.96C130.548 7.075 132.603 8.44 135.483 8.44C138.348 8.44 140.403 7.075 140.403 4.96C140.403 2.83 138.348 1.465 135.483 1.465ZM135.483 2.455C137.658 2.455 139.203 3.445 139.203 4.96C139.203 6.46 137.658 7.45 135.483 7.45C133.308 7.45 131.748 6.46 131.748 4.96C131.748 3.445 133.308 2.455 135.483 2.455ZM144.903 9.93182V9.8679C144.91 9.18963 144.981 8.64986 145.116 8.24858C145.251 7.8473 145.443 7.52237 145.691 7.27379C145.94 7.02521 146.238 6.79616 146.586 6.58665C146.796 6.45881 146.984 6.30788 147.151 6.13388C147.318 5.95632 147.449 5.75213 147.545 5.52131C147.644 5.29048 147.694 5.0348 147.694 4.75426C147.694 4.40625 147.612 4.1044 147.449 3.84872C147.286 3.59304 147.067 3.39595 146.794 3.25746C146.52 3.11896 146.217 3.04972 145.883 3.04972C145.592 3.04972 145.311 3.11008 145.041 3.23082C144.771 3.35156 144.546 3.54155 144.365 3.80078C144.184 4.06001 144.079 4.39915 144.051 4.81818H142.708C142.737 4.21449 142.893 3.6978 143.177 3.26811C143.465 2.83842 143.843 2.50994 144.312 2.28267C144.784 2.0554 145.308 1.94176 145.883 1.94176C146.508 1.94176 147.051 2.06605 147.513 2.31463C147.978 2.56321 148.337 2.90412 148.589 3.33736C148.845 3.7706 148.972 4.2642 148.972 4.81818C148.972 5.20881 148.912 5.56214 148.791 5.8782C148.674 6.19425 148.504 6.47656 148.28 6.72514C148.06 6.97372 147.793 7.19389 147.481 7.38565C147.168 7.58097 146.918 7.78693 146.73 8.00355C146.542 8.21662 146.405 8.47053 146.32 8.76527C146.234 9.06001 146.188 9.42756 146.181 9.8679V9.93182H144.903ZM145.585 13.0852C145.322 13.0852 145.096 12.9911 144.908 12.8029C144.72 12.6147 144.626 12.3892 144.626 12.1264C144.626 11.8636 144.72 11.6381 144.908 11.4499C145.096 11.2617 145.322 11.1676 145.585 11.1676C145.847 11.1676 146.073 11.2617 146.261 11.4499C146.449 11.6381 146.543 11.8636 146.543 12.1264C146.543 12.3004 146.499 12.4602 146.41 12.6058C146.325 12.7514 146.21 12.8686 146.064 12.9574C145.922 13.0426 145.762 13.0852 145.585 13.0852Z" fill="url(#paint0_linear_421_401)"/>
<defs>
<linearGradient id="paint0_linear_421_401" x1="-1" y1="-2.3125" x2="35.7515" y2="74.5953" gradientUnits="userSpaceOnUse">
<stop stop-color="#7373F6"/>
<stop offset="0.361458" stop-color="#8B70F7"/>
<stop offset="0.634552" stop-color="#956EF6"/>
<stop offset="1" stop-color="#A869F7"/>
</linearGradient>
</defs>
</svg>
