<svg width="132" height="17" viewBox="0 0 132 17" fill="none" xmlns="http://www.w3.org/2000/svg">
<path d="M10.5877 0.768V15.264H11.9157V0.768H10.5877ZM4.28375 1.888C2.15575 1.888 0.619748 3.856 0.619748 6.928C0.619748 10.016 2.15575 11.984 4.28375 11.984C6.42775 11.984 7.96375 10.016 7.96375 6.928C7.96375 3.856 6.42775 1.888 4.28375 1.888ZM4.28375 3.088C5.70775 3.088 6.68375 4.592 6.68375 6.928C6.68375 9.28 5.70775 10.816 4.28375 10.816C2.87575 10.816 1.88375 9.28 1.88375 6.928C1.88375 4.592 2.87575 3.088 4.28375 3.088ZM17.6185 5.68V8.416H18.9305V5.68H17.6185ZM22.9305 5.68V8.416H24.2425V5.68H22.9305ZM14.3865 7.936V9.008H27.4585V7.936H14.3865ZM20.9145 10.096C17.8105 10.096 15.9545 11.008 15.9545 12.656C15.9545 14.304 17.8105 15.232 20.9145 15.232C24.0185 15.232 25.8745 14.304 25.8745 12.656C25.8745 11.008 24.0185 10.096 20.9145 10.096ZM20.9145 11.12C23.1865 11.12 24.5305 11.68 24.5305 12.656C24.5305 13.648 23.1865 14.192 20.9145 14.192C18.6585 14.192 17.2985 13.648 17.2985 12.656C17.2985 11.68 18.6585 11.12 20.9145 11.12ZM20.9305 1.04C17.7785 1.04 15.8425 2.048 15.8425 3.744C15.8425 5.424 17.7785 6.416 20.9305 6.416C24.0665 6.416 26.0185 5.424 26.0185 3.744C26.0185 2.048 24.0665 1.04 20.9305 1.04ZM20.9305 2.08C23.2345 2.08 24.6585 2.688 24.6585 3.744C24.6585 4.784 23.2345 5.392 20.9305 5.392C18.6265 5.392 17.2025 4.784 17.2025 3.744C17.2025 2.688 18.6265 2.08 20.9305 2.08ZM39.5292 2.976V4.096H42.0412V2.976H39.5292ZM39.5292 6.08V7.184H42.0412V6.08H39.5292ZM38.6012 0.783999V9.376H39.9292V0.783999H38.6012ZM30.5372 10.064V11.136H38.6012V15.248H39.9292V10.064H30.5372ZM32.7452 1.632C30.5692 1.632 28.9692 3.04 28.9692 5.072C28.9692 7.088 30.5692 8.48 32.7452 8.48C34.9212 8.48 36.5212 7.088 36.5212 5.072C36.5212 3.04 34.9212 1.632 32.7452 1.632ZM32.7452 2.768C34.1852 2.768 35.2252 3.696 35.2252 5.072C35.2252 6.432 34.1852 7.376 32.7452 7.376C31.3052 7.376 30.2652 6.432 30.2652 5.072C30.2652 3.696 31.3052 2.768 32.7452 2.768ZM43.792 1.904V2.992H50.192V1.904H43.792ZM45.968 5.136V8.752H47.28V5.136H45.968ZM49.664 1.904V2.672C49.664 3.6 49.664 4.912 49.296 6.816L50.592 6.96C50.976 5.056 50.976 3.616 50.976 2.672V1.904H49.664ZM52.944 0.783999V11.68H54.272V0.783999H52.944ZM53.664 5.488V6.592H56.336V5.488H53.664ZM45.136 13.84V14.928H54.736V13.84H45.136ZM45.136 10.672V14.176H46.448V10.672H45.136ZM43.056 9.376C45.6 9.376 49.056 9.312 52.064 8.784L51.968 7.824C49.04 8.224 45.488 8.288 42.912 8.288L43.056 9.376ZM61.1611 7.904V8.992H74.2331V7.904H61.1611ZM67.0331 5.584V8.352H68.3451V5.584H67.0331ZM62.8091 5.168V6.256H72.7131V5.168H62.8091ZM62.8091 1.44V5.808H64.1211V2.512H72.6011V1.44H62.8091ZM67.6731 10.032C64.5851 10.032 62.7131 10.976 62.7131 12.624C62.7131 14.304 64.5851 15.232 67.6731 15.232C70.7611 15.232 72.6331 14.304 72.6331 12.624C72.6331 10.976 70.7611 10.032 67.6731 10.032ZM67.6731 11.056C69.9451 11.056 71.2891 11.632 71.2891 12.624C71.2891 13.632 69.9451 14.192 67.6731 14.192C65.4171 14.192 64.0571 13.632 64.0571 12.624C64.0571 11.632 65.4171 11.056 67.6731 11.056ZM80.1599 1.824C77.9039 1.824 76.2719 3.216 76.2719 5.232C76.2719 7.264 77.9039 8.656 80.1599 8.656C82.4159 8.656 84.0319 7.264 84.0319 5.232C84.0319 3.216 82.4159 1.824 80.1599 1.824ZM80.1599 2.976C81.6479 2.976 82.7359 3.888 82.7359 5.232C82.7359 6.576 81.6479 7.504 80.1599 7.504C78.6559 7.504 77.5679 6.576 77.5679 5.232C77.5679 3.888 78.6559 2.976 80.1599 2.976ZM85.9199 0.768V15.264H87.2479V0.768H85.9199ZM75.7279 12.096C78.3039 12.096 81.8399 12.08 85.0879 11.456L84.9759 10.48C81.8239 10.976 78.1759 10.992 75.5359 10.992L75.7279 12.096ZM94.4454 9.17045C94.4454 7.74621 94.6329 6.43561 95.0079 5.23864C95.3829 4.04167 95.9302 2.9375 96.6499 1.92614H98.2067C97.9264 2.30114 97.6651 2.76136 97.4226 3.30682C97.1802 3.85227 96.9681 4.45076 96.7863 5.10227C96.6045 5.75 96.4624 6.42235 96.3601 7.11932C96.2579 7.8125 96.2067 8.49621 96.2067 9.17045C96.2067 10.072 96.2957 10.9848 96.4738 11.9091C96.6518 12.8333 96.8923 13.6913 97.1954 14.483C97.4984 15.2746 97.8355 15.9205 98.2067 16.4205H96.6499C95.9302 15.4091 95.3829 14.3049 95.0079 13.108C94.6329 11.911 94.4454 10.5985 94.4454 9.17045ZM109.776 0.783999V8.272H111.12V0.783999H109.776ZM101.68 8.976V10.032H109.792V11.472H101.728V14.64H103.024V12.464H111.12V8.976H101.68ZM101.728 14.032V15.088H111.648V14.032H101.728ZM99.8879 1.76V2.816H107.648V1.76H99.8879ZM99.6319 7.792C102.176 7.776 105.536 7.68 108.416 7.248L108.336 6.272C105.52 6.624 102.064 6.688 99.4879 6.688L99.6319 7.792ZM101.312 2.24V7.168H102.592V2.24H101.312ZM104.928 2.24V7.168H106.224V2.24H104.928ZM119.399 1.296V2.096C119.399 4.16 116.855 5.888 114.215 6.288L114.743 7.36C117.751 6.848 120.567 4.864 120.567 2.096V1.296H119.399ZM119.639 1.296V2.096C119.639 4.832 122.471 6.848 125.447 7.36L125.975 6.288C123.367 5.888 120.791 4.112 120.791 2.096V1.296H119.639ZM119.399 9.744V15.248H120.711V9.744H119.399ZM113.559 8.928V10.032H126.631V8.928H113.559ZM131.478 9.17045C131.478 10.5985 131.291 11.911 130.916 13.108C130.541 14.3049 129.994 15.4091 129.274 16.4205H127.717C127.997 16.0455 128.259 15.5852 128.501 15.0398C128.744 14.4943 128.956 13.8977 129.138 13.25C129.319 12.5985 129.461 11.9242 129.564 11.2273C129.666 10.5303 129.717 9.8447 129.717 9.17045C129.717 8.27273 129.628 7.36174 129.45 6.4375C129.272 5.51326 129.031 4.6553 128.728 3.86364C128.425 3.07197 128.088 2.42614 127.717 1.92614H129.274C129.994 2.9375 130.541 4.04167 130.916 5.23864C131.291 6.43561 131.478 7.74621 131.478 9.17045Z" fill="black"/>
</svg>
