<svg width="115" height="19" viewBox="0 0 115 19" fill="none" xmlns="http://www.w3.org/2000/svg">
<path d="M14.0358 2.66V4.84H17.2358V2.66H14.0358ZM14.0358 6.68V8.86H17.2358V6.68H14.0358ZM12.1958 0.26V11.18H14.8558V0.26H12.1958ZM2.49575 11.94V14.06H12.1958V18.78H14.8558V11.94H2.49575ZM5.43575 1.26C2.57575 1.26 0.39575 3.16 0.39575 5.8C0.39575 8.44 2.57575 10.32 5.43575 10.32C8.29575 10.32 10.4758 8.44 10.4758 5.8C10.4758 3.16 8.29575 1.26 5.43575 1.26ZM5.43575 3.52C6.83575 3.52 7.87575 4.34 7.87575 5.8C7.87575 7.26 6.83575 8.1 5.43575 8.1C4.03575 8.1 2.99575 7.26 2.99575 5.8C2.99575 4.34 4.03575 3.52 5.43575 3.52ZM19.0862 1.6V3.74H27.0062V1.6H19.0862ZM21.3662 5.92V10.56H24.0062V5.92H21.3662ZM25.9662 1.6V2.76C25.9662 4.04 25.9662 5.64 25.5662 7.92L28.1462 8.2C28.5862 5.9 28.5862 4.06 28.5862 2.76V1.6H25.9662ZM30.3862 0.26V14.12H33.0662V0.26H30.3862ZM32.0062 5.9V8.08H35.2662V5.9H32.0062ZM20.7062 16.34V18.46H33.6462V16.34H20.7062ZM20.7062 12.88V17H23.3662V12.88H20.7062ZM18.2462 11.64C21.4262 11.64 25.7262 11.56 29.5462 10.84L29.3862 8.96C25.6662 9.48 21.2062 9.54 18.0062 9.54L18.2462 11.64ZM50.7296 5.04V7.18H55.0496V5.04H50.7296ZM53.6496 0.279999V13.78H56.3096V0.279999H53.6496ZM44.0896 16.34V18.46H56.7296V16.34H44.0896ZM44.0896 12.64V17.6H46.7496V12.64H44.0896ZM45.0896 2.7V3.86C45.0896 6.2 43.7696 8.62 40.7096 9.62L42.0496 11.74C45.6096 10.56 47.2496 7.34 47.2496 3.86V2.7H45.0896ZM45.6496 2.7V3.86C45.6496 7.16 47.2296 10.24 50.6696 11.38L51.9696 9.3C49.0496 8.32 47.7896 6.02 47.7896 3.86V2.7H45.6496ZM41.4296 1.52V3.62H51.3896V1.52H41.4296ZM66.34 7.28V9.42H69.28V7.28H66.34ZM62.04 5.4V5.88C62.04 8.72 61.1 11.76 58.46 13.3L59.96 15.3C62.92 13.6 64.04 9.74 64.04 5.88V5.4H62.04ZM62.56 5.4V5.88C62.56 9.68 63.7 13.3 66.7 14.86L68.14 12.9C65.52 11.5 64.56 8.68 64.56 5.88V5.4H62.56ZM59.16 3.36V5.5H67.42V3.36H59.16ZM62.04 0.879999V5.1H64.56V0.879999H62.04ZM72.18 0.26V18.78H74.7V0.26H72.18ZM68.44 0.559999V17.94H70.92V0.559999H68.44ZM81.3634 8.96V11.08H98.1234V8.96H81.3634ZM88.4234 6.18V9.78H91.0634V6.18H88.4234ZM83.3834 5.34V7.44H96.2234V5.34H83.3834ZM83.3834 1.06V6.68H86.0234V3.14H96.1234V1.06H83.3834ZM89.6834 12C85.6834 12 83.2434 13.22 83.2434 15.4C83.2434 17.58 85.6834 18.8 89.6834 18.8C93.6834 18.8 96.1034 17.58 96.1034 15.4C96.1034 13.22 93.6834 12 89.6834 12ZM89.6834 14C92.1634 14 93.4234 14.46 93.4234 15.4C93.4234 16.36 92.1634 16.78 89.6834 16.78C87.2034 16.78 85.9434 16.36 85.9434 15.4C85.9434 14.46 87.2034 14 89.6834 14ZM105.294 1.48C102.394 1.48 100.174 3.38 100.174 6.04C100.174 8.72 102.394 10.62 105.294 10.62C108.214 10.62 110.394 8.72 110.394 6.04C110.394 3.38 108.214 1.48 105.294 1.48ZM105.294 3.76C106.714 3.76 107.794 4.6 107.794 6.04C107.794 7.5 106.714 8.34 105.294 8.34C103.874 8.34 102.794 7.5 102.794 6.04C102.794 4.6 103.874 3.76 105.294 3.76ZM112.134 0.239999V18.82H114.794V0.239999H112.134ZM99.7338 15.06C102.934 15.06 107.294 15.02 111.314 14.22L111.114 12.3C107.214 12.88 102.674 12.92 99.4138 12.92L99.7338 15.06Z" fill="black"/>
</svg>
