<svg width="165" height="17" viewBox="0 0 165 17" fill="none" xmlns="http://www.w3.org/2000/svg">
<path d="M5.58781 1.456C3.44381 1.456 1.90781 2.656 1.90781 4.432C1.90781 6.192 3.44381 7.424 5.58781 7.424C7.74781 7.424 9.28381 6.192 9.28381 4.432C9.28381 2.656 7.74781 1.456 5.58781 1.456ZM5.58781 2.56C6.99581 2.56 8.00381 3.328 8.00381 4.432C8.00381 5.552 6.99581 6.304 5.58781 6.304C4.17981 6.304 3.17181 5.552 3.17181 4.432C3.17181 3.328 4.17981 2.56 5.58781 2.56ZM4.99581 9.024V14.8H6.32381V9.024H4.99581ZM11.3958 0.783999V15.264H12.7078V0.783999H11.3958ZM1.01181 9.744C3.65181 9.744 7.20381 9.696 10.4678 9.104L10.3718 8.112C7.18781 8.592 3.52381 8.624 0.83581 8.624L1.01181 9.744ZM25.6906 0.783999V15.248H27.0186V0.783999H25.6906ZM19.1786 4.224V5.456C19.1786 7.984 17.5786 10.448 15.4346 11.44L16.1866 12.464C18.5066 11.344 20.2506 8.544 20.2506 5.456V4.224H19.1786ZM19.4346 4.224V5.456C19.4346 8.448 21.2106 11.152 23.5466 12.208L24.2986 11.168C22.1386 10.224 20.4906 7.872 20.4906 5.456V4.224H19.4346ZM15.8346 3.296V4.368H23.8026V3.296H15.8346ZM19.1786 1.04V3.888H20.5066V1.04H19.1786ZM37.2013 4.528V5.632H40.4653V4.528H37.2013ZM40.0493 0.783999V9.408H41.3773V0.783999H40.0493ZM36.6253 9.84C33.6333 9.84 31.7933 10.848 31.7933 12.544C31.7933 14.256 33.6333 15.232 36.6253 15.232C39.6013 15.232 41.4413 14.256 41.4413 12.544C41.4413 10.848 39.6013 9.84 36.6253 9.84ZM36.6253 10.88C38.8013 10.88 40.1293 11.488 40.1293 12.544C40.1293 13.584 38.8013 14.192 36.6253 14.192C34.4493 14.192 33.1213 13.584 33.1213 12.544C33.1213 11.488 34.4493 10.88 36.6253 10.88ZM33.1693 2.24V3.408C33.1693 5.488 31.6813 7.424 29.5373 8.208L30.2253 9.264C32.6253 8.368 34.2573 6.08 34.2573 3.408V2.24H33.1693ZM33.4253 2.24V3.408C33.4253 5.84 34.9773 8.016 37.3293 8.864L38.0013 7.808C35.9053 7.072 34.4973 5.28 34.4973 3.408V2.24H33.4253ZM29.9373 1.84V2.928H37.6653V1.84H29.9373ZM43.8001 12.304V13.408H56.9041V12.304H43.8001ZM49.6561 8.848V12.624H50.9841V8.848H49.6561ZM45.3361 1.808V9.2H55.3361V1.808H54.0241V4.384H46.6481V1.808H45.3361ZM46.6481 5.456H54.0241V8.112H46.6481V5.456ZM72.9292 0.783999V15.248H74.2092V0.783999H72.9292ZM67.6652 5.968V7.072H70.4332V5.968H67.6652ZM70.0332 1.12V14.512H71.2812V1.12H70.0332ZM64.8812 3.024V4.864C64.8812 7.52 63.7612 10.16 61.7452 11.376L62.5612 12.368C64.6892 11.024 65.9052 8.032 65.9052 4.864V3.024H64.8812ZM65.1532 3.024V4.864C65.1532 7.888 66.3212 10.736 68.4332 12.016L69.2492 11.04C67.2652 9.888 66.1772 7.376 66.1772 4.864V3.024H65.1532ZM62.1452 2.464V3.568H68.7532V2.464H62.1452ZM82.7279 9.904C79.6399 9.904 77.6879 10.912 77.6879 12.576C77.6879 14.224 79.6399 15.216 82.7279 15.216C85.7999 15.216 87.7679 14.224 87.7679 12.576C87.7679 10.912 85.7999 9.904 82.7279 9.904ZM82.7279 10.944C84.9999 10.944 86.4399 11.568 86.4399 12.576C86.4399 13.568 84.9999 14.192 82.7279 14.192C80.4559 14.192 78.9999 13.568 78.9999 12.576C78.9999 11.568 80.4559 10.944 82.7279 10.944ZM77.7999 1.504V2.592H87.1119V1.504H77.7999ZM76.2479 7.52V8.592H89.3039V7.52H76.2479ZM81.6079 4.736V7.824H82.9199V4.736H81.6079ZM86.3439 1.504V2.736C86.3439 3.872 86.3439 4.928 85.9439 6.416L87.2559 6.576C87.6399 5.072 87.6399 3.904 87.6399 2.736V1.504H86.3439ZM94.3851 7.904V8.992H107.457V7.904H94.3851ZM100.257 5.584V8.352H101.569V5.584H100.257ZM96.0331 5.168V6.256H105.937V5.168H96.0331ZM96.0331 1.44V5.808H97.3451V2.512H105.825V1.44H96.0331ZM100.897 10.032C97.8091 10.032 95.9371 10.976 95.9371 12.624C95.9371 14.304 97.8091 15.232 100.897 15.232C103.985 15.232 105.857 14.304 105.857 12.624C105.857 10.976 103.985 10.032 100.897 10.032ZM100.897 11.056C103.169 11.056 104.513 11.632 104.513 12.624C104.513 13.632 103.169 14.192 100.897 14.192C98.6411 14.192 97.2811 13.632 97.2811 12.624C97.2811 11.632 98.6411 11.056 100.897 11.056ZM113.384 1.824C111.128 1.824 109.496 3.216 109.496 5.232C109.496 7.264 111.128 8.656 113.384 8.656C115.64 8.656 117.256 7.264 117.256 5.232C117.256 3.216 115.64 1.824 113.384 1.824ZM113.384 2.976C114.872 2.976 115.96 3.888 115.96 5.232C115.96 6.576 114.872 7.504 113.384 7.504C111.88 7.504 110.792 6.576 110.792 5.232C110.792 3.888 111.88 2.976 113.384 2.976ZM119.144 0.768V15.264H120.472V0.768H119.144ZM108.952 12.096C111.528 12.096 115.064 12.08 118.312 11.456L118.2 10.48C115.048 10.976 111.4 10.992 108.76 10.992L108.952 12.096ZM127.669 9.17045C127.669 7.74621 127.857 6.43561 128.232 5.23864C128.607 4.04167 129.154 2.9375 129.874 1.92614H131.431C131.15 2.30114 130.889 2.76136 130.647 3.30682C130.404 3.85227 130.192 4.45076 130.01 5.10227C129.828 5.75 129.686 6.42235 129.584 7.11932C129.482 7.8125 129.431 8.49621 129.431 9.17045C129.431 10.072 129.52 10.9848 129.698 11.9091C129.876 12.8333 130.116 13.6913 130.419 14.483C130.722 15.2746 131.059 15.9205 131.431 16.4205H129.874C129.154 15.4091 128.607 14.3049 128.232 13.108C127.857 11.911 127.669 10.5985 127.669 9.17045ZM143 0.783999V8.272H144.344V0.783999H143ZM134.904 8.976V10.032H143.016V11.472H134.952V14.64H136.248V12.464H144.344V8.976H134.904ZM134.952 14.032V15.088H144.872V14.032H134.952ZM133.112 1.76V2.816H140.872V1.76H133.112ZM132.856 7.792C135.4 7.776 138.76 7.68 141.64 7.248L141.56 6.272C138.744 6.624 135.288 6.688 132.712 6.688L132.856 7.792ZM134.536 2.24V7.168H135.816V2.24H134.536ZM138.152 2.24V7.168H139.448V2.24H138.152ZM152.623 1.296V2.096C152.623 4.16 150.079 5.888 147.439 6.288L147.967 7.36C150.975 6.848 153.791 4.864 153.791 2.096V1.296H152.623ZM152.863 1.296V2.096C152.863 4.832 155.695 6.848 158.671 7.36L159.199 6.288C156.591 5.888 154.015 4.112 154.015 2.096V1.296H152.863ZM152.623 9.744V15.248H153.935V9.744H152.623ZM146.783 8.928V10.032H159.855V8.928H146.783ZM164.702 9.17045C164.702 10.5985 164.515 11.911 164.14 13.108C163.765 14.3049 163.218 15.4091 162.498 16.4205H160.941C161.221 16.0455 161.483 15.5852 161.725 15.0398C161.968 14.4943 162.18 13.8977 162.361 13.25C162.543 12.5985 162.685 11.9242 162.788 11.2273C162.89 10.5303 162.941 9.8447 162.941 9.17045C162.941 8.27273 162.852 7.36174 162.674 6.4375C162.496 5.51326 162.255 4.6553 161.952 3.86364C161.649 3.07197 161.312 2.42614 160.941 1.92614H162.498C163.218 2.9375 163.765 4.04167 164.14 5.23864C164.515 6.43561 164.702 7.74621 164.702 9.17045Z" fill="black"/>
</svg>
