<svg width="211" height="17" viewBox="0 0 211 17" fill="none" xmlns="http://www.w3.org/2000/svg">
<path d="M11.2605 0.783999V15.248H12.5405V0.783999H11.2605ZM8.9245 6.592V7.68H11.6925V6.592H8.9245ZM5.1805 2.64V2.896C5.1805 6.24 3.9005 9.168 0.268497 11.2L1.0525 12.144C5.1805 9.824 6.4605 6.368 6.4605 2.64H5.1805ZM0.828497 2.64V3.744H5.6285V2.64H0.828497ZM8.0445 1.168V14.544H9.3085V1.168H8.0445ZM25.1072 0.799999V11.36H26.4512V0.799999H25.1072ZM17.1552 13.84V14.928H26.8832V13.84H17.1552ZM17.1552 10.272V14.208H18.4672V10.272H17.1552ZM18.6912 1.792C16.5312 1.792 14.9152 3.264 14.9152 5.36C14.9152 7.44 16.5312 8.928 18.6912 8.928C20.8512 8.928 22.4512 7.44 22.4512 5.36C22.4512 3.264 20.8512 1.792 18.6912 1.792ZM18.6912 2.944C20.0992 2.944 21.1712 3.936 21.1712 5.36C21.1712 6.768 20.0992 7.76 18.6912 7.76C17.2832 7.76 16.2112 6.768 16.2112 5.36C16.2112 3.936 17.2832 2.944 18.6912 2.944ZM36.618 4.528V5.632H39.882V4.528H36.618ZM39.466 0.783999V9.408H40.794V0.783999H39.466ZM36.042 9.84C33.05 9.84 31.21 10.848 31.21 12.544C31.21 14.256 33.05 15.232 36.042 15.232C39.018 15.232 40.858 14.256 40.858 12.544C40.858 10.848 39.018 9.84 36.042 9.84ZM36.042 10.88C38.218 10.88 39.546 11.488 39.546 12.544C39.546 13.584 38.218 14.192 36.042 14.192C33.866 14.192 32.538 13.584 32.538 12.544C32.538 11.488 33.866 10.88 36.042 10.88ZM32.586 2.24V3.408C32.586 5.488 31.098 7.424 28.954 8.208L29.642 9.264C32.042 8.368 33.674 6.08 33.674 3.408V2.24H32.586ZM32.842 2.24V3.408C32.842 5.84 34.394 8.016 36.746 8.864L37.418 7.808C35.322 7.072 33.914 5.28 33.914 3.408V2.24H32.842ZM29.354 1.84V2.928H37.082V1.84H29.354ZM43.2167 12.304V13.408H56.3207V12.304H43.2167ZM49.0727 8.848V12.624H50.4007V8.848H49.0727ZM44.7527 1.808V9.2H54.7527V1.808H53.4407V4.384H46.0647V1.808H44.7527ZM46.0647 5.456H53.4407V8.112H46.0647V5.456ZM67.1939 1.296V2.096C67.1939 4.16 64.6499 5.888 62.0099 6.288L62.5379 7.36C65.5459 6.848 68.3619 4.864 68.3619 2.096V1.296H67.1939ZM67.4339 1.296V2.096C67.4339 4.832 70.2659 6.848 73.2419 7.36L73.7699 6.288C71.1619 5.888 68.5859 4.112 68.5859 2.096V1.296H67.4339ZM67.1939 9.744V15.248H68.5059V9.744H67.1939ZM61.3539 8.928V10.032H74.4259V8.928H61.3539ZM79.5046 2.032V3.136C79.5046 5.104 78.0166 6.896 75.8406 7.6L76.5126 8.656C78.9446 7.824 80.6086 5.68 80.6086 3.136V2.032H79.5046ZM79.7606 2.032V3.136C79.7606 5.584 81.4566 7.616 83.8566 8.4L84.5126 7.36C82.3846 6.688 80.8646 5.008 80.8646 3.136V2.032H79.7606ZM76.2086 1.728V2.8H84.1286V1.728H76.2086ZM86.1766 0.783999V8.608H87.5206V0.783999H86.1766ZM78.1926 9.328V15.056H87.5206V9.328H86.2086V11.04H79.5046V9.328H78.1926ZM79.5046 12.112H86.2086V13.968H79.5046V12.112ZM94.5537 1.712V7.632H101.29V1.712H94.5537ZM100.01 2.784V6.576H95.8337V2.784H100.01ZM104.314 0.783999V9.088H105.642V0.783999H104.314ZM100.394 10.8V11.072C100.394 12.512 98.0897 13.888 95.5777 14.176L96.0257 15.2C98.9537 14.816 101.53 13.152 101.53 11.072V10.8H100.394ZM100.586 10.8V11.072C100.586 13.104 103.098 14.8 106.042 15.2L106.49 14.176C103.978 13.872 101.738 12.464 101.738 11.072V10.8H100.586ZM96.1537 10.064V11.104H105.978V10.064H96.1537ZM100.394 8.672V10.528H101.738V8.672H100.394ZM122.435 0.768V15.264H123.763V0.768H122.435ZM116.131 1.888C114.003 1.888 112.467 3.856 112.467 6.928C112.467 10.016 114.003 11.984 116.131 11.984C118.275 11.984 119.811 10.016 119.811 6.928C119.811 3.856 118.275 1.888 116.131 1.888ZM116.131 3.088C117.555 3.088 118.531 4.592 118.531 6.928C118.531 9.28 117.555 10.816 116.131 10.816C114.723 10.816 113.731 9.28 113.731 6.928C113.731 4.592 114.723 3.088 116.131 3.088ZM129.466 5.68V8.416H130.778V5.68H129.466ZM134.778 5.68V8.416H136.09V5.68H134.778ZM126.234 7.936V9.008H139.306V7.936H126.234ZM132.762 10.096C129.658 10.096 127.802 11.008 127.802 12.656C127.802 14.304 129.658 15.232 132.762 15.232C135.866 15.232 137.722 14.304 137.722 12.656C137.722 11.008 135.866 10.096 132.762 10.096ZM132.762 11.12C135.034 11.12 136.378 11.68 136.378 12.656C136.378 13.648 135.034 14.192 132.762 14.192C130.506 14.192 129.146 13.648 129.146 12.656C129.146 11.68 130.506 11.12 132.762 11.12ZM132.778 1.04C129.626 1.04 127.69 2.048 127.69 3.744C127.69 5.424 129.626 6.416 132.778 6.416C135.914 6.416 137.866 5.424 137.866 3.744C137.866 2.048 135.914 1.04 132.778 1.04ZM132.778 2.08C135.082 2.08 136.506 2.688 136.506 3.744C136.506 4.784 135.082 5.392 132.778 5.392C130.474 5.392 129.05 4.784 129.05 3.744C129.05 2.688 130.474 2.08 132.778 2.08ZM140.56 7.904V8.992H153.632V7.904H140.56ZM146.432 5.584V8.352H147.744V5.584H146.432ZM142.208 5.168V6.256H152.112V5.168H142.208ZM142.208 1.44V5.808H143.52V2.512H152V1.44H142.208ZM147.072 10.032C143.984 10.032 142.112 10.976 142.112 12.624C142.112 14.304 143.984 15.232 147.072 15.232C150.16 15.232 152.032 14.304 152.032 12.624C152.032 10.976 150.16 10.032 147.072 10.032ZM147.072 11.056C149.344 11.056 150.688 11.632 150.688 12.624C150.688 13.632 149.344 14.192 147.072 14.192C144.816 14.192 143.456 13.632 143.456 12.624C143.456 11.632 144.816 11.056 147.072 11.056ZM159.559 1.824C157.303 1.824 155.671 3.216 155.671 5.232C155.671 7.264 157.303 8.656 159.559 8.656C161.815 8.656 163.431 7.264 163.431 5.232C163.431 3.216 161.815 1.824 159.559 1.824ZM159.559 2.976C161.047 2.976 162.135 3.888 162.135 5.232C162.135 6.576 161.047 7.504 159.559 7.504C158.055 7.504 156.967 6.576 156.967 5.232C156.967 3.888 158.055 2.976 159.559 2.976ZM165.319 0.768V15.264H166.647V0.768H165.319ZM155.127 12.096C157.703 12.096 161.239 12.08 164.487 11.456L164.375 10.48C161.223 10.976 157.575 10.992 154.935 10.992L155.127 12.096ZM173.845 9.17045C173.845 7.74621 174.032 6.43561 174.407 5.23864C174.782 4.04167 175.329 2.9375 176.049 1.92614H177.606C177.326 2.30114 177.064 2.76136 176.822 3.30682C176.579 3.85227 176.367 4.45076 176.186 5.10227C176.004 5.75 175.862 6.42235 175.759 7.11932C175.657 7.8125 175.606 8.49621 175.606 9.17045C175.606 10.072 175.695 10.9848 175.873 11.9091C176.051 12.8333 176.292 13.6913 176.595 14.483C176.898 15.2746 177.235 15.9205 177.606 16.4205H176.049C175.329 15.4091 174.782 14.3049 174.407 13.108C174.032 11.911 173.845 10.5985 173.845 9.17045ZM189.175 0.783999V8.272H190.519V0.783999H189.175ZM181.079 8.976V10.032H189.191V11.472H181.127V14.64H182.423V12.464H190.519V8.976H181.079ZM181.127 14.032V15.088H191.047V14.032H181.127ZM179.287 1.76V2.816H187.047V1.76H179.287ZM179.031 7.792C181.575 7.776 184.935 7.68 187.815 7.248L187.735 6.272C184.919 6.624 181.463 6.688 178.887 6.688L179.031 7.792ZM180.711 2.24V7.168H181.991V2.24H180.711ZM184.327 2.24V7.168H185.623V2.24H184.327ZM198.798 1.296V2.096C198.798 4.16 196.254 5.888 193.614 6.288L194.142 7.36C197.15 6.848 199.966 4.864 199.966 2.096V1.296H198.798ZM199.038 1.296V2.096C199.038 4.832 201.87 6.848 204.846 7.36L205.374 6.288C202.766 5.888 200.19 4.112 200.19 2.096V1.296H199.038ZM198.798 9.744V15.248H200.11V9.744H198.798ZM192.958 8.928V10.032H206.03V8.928H192.958ZM210.878 9.17045C210.878 10.5985 210.69 11.911 210.315 13.108C209.94 14.3049 209.393 15.4091 208.673 16.4205H207.116C207.397 16.0455 207.658 15.5852 207.9 15.0398C208.143 14.4943 208.355 13.8977 208.537 13.25C208.719 12.5985 208.861 11.9242 208.963 11.2273C209.065 10.5303 209.116 9.8447 209.116 9.17045C209.116 8.27273 209.027 7.36174 208.849 6.4375C208.671 5.51326 208.431 4.6553 208.128 3.86364C207.825 3.07197 207.488 2.42614 207.116 1.92614H208.673C209.393 2.9375 209.94 4.04167 210.315 5.23864C210.69 6.43561 210.878 7.74621 210.878 9.17045Z" fill="black"/>
</svg>
