<svg width="287" height="22" viewBox="0 0 287 22" fill="none" xmlns="http://www.w3.org/2000/svg">
<path d="M10.589 6.944V9.298H15.957V6.944H10.589ZM5.045 2.148V5.096C5.045 8.968 3.505 12.906 0.0289976 14.512L1.855 16.866C5.683 14.952 7.421 10.222 7.421 5.096V2.148H5.045ZM5.661 2.148V5.096C5.661 10.178 7.267 14.666 11.095 16.514L12.833 14.182C9.467 12.686 7.993 8.968 7.993 5.096V2.148H5.661ZM14.505 0.563999V21.002H17.409V0.563999H14.505ZM34.1153 0.563999V21.002H37.0633V0.563999H34.1153ZM21.1573 2.192V16.25H31.1673V2.192H28.2633V7.142H24.0613V2.192H21.1573ZM24.0613 9.408H28.2633V13.896H24.0613V9.408ZM47.5436 1.752V3.226C47.5436 6.152 45.0136 9.386 40.4156 10.178L41.6696 12.598C46.9496 11.564 50.0956 7.648 50.0956 3.226V1.752H47.5436ZM48.1376 1.752V3.226C48.1376 7.714 51.2616 11.564 56.5416 12.598L57.7956 10.178C53.1756 9.386 50.6676 6.218 50.6676 3.226V1.752H48.1376ZM39.9976 16.096V18.472H58.4336V16.096H39.9976ZM78.8249 0.563999V21.002H81.7729V0.563999H78.8249ZM70.7949 1.994C67.7149 1.994 65.4489 4.81 65.4489 9.254C65.4489 13.742 67.7149 16.558 70.7949 16.558C73.8749 16.558 76.1409 13.742 76.1409 9.254C76.1409 4.81 73.8749 1.994 70.7949 1.994ZM70.7949 4.656C72.3129 4.656 73.3249 6.262 73.3249 9.254C73.3249 12.29 72.3129 13.918 70.7949 13.918C69.2769 13.918 68.2429 12.29 68.2429 9.254C68.2429 6.262 69.2769 4.656 70.7949 4.656ZM88.8212 7.406V11.146H91.7472V7.406H88.8212ZM95.9932 7.406V11.146H98.8972V7.406H95.9932ZM84.6852 10.244V12.554H103.099V10.244H84.6852ZM93.8592 13.588C89.4372 13.588 86.7752 14.908 86.7752 17.262C86.7752 19.638 89.4372 20.958 93.8592 20.958C98.2592 20.958 100.921 19.638 100.921 17.262C100.921 14.908 98.2592 13.588 93.8592 13.588ZM93.8592 15.788C96.5872 15.788 97.9732 16.25 97.9732 17.262C97.9732 18.296 96.5872 18.758 93.8592 18.758C91.1312 18.758 89.7452 18.296 89.7452 17.262C89.7452 16.25 91.1312 15.788 93.8592 15.788ZM93.9032 0.871999C89.3932 0.871999 86.5332 2.368 86.5332 4.81C86.5332 7.23 89.3932 8.682 93.9032 8.682C98.3912 8.682 101.273 7.23 101.273 4.81C101.273 2.368 98.3912 0.871999 93.9032 0.871999ZM93.9032 3.116C96.6972 3.116 98.2592 3.666 98.2592 4.81C98.2592 5.932 96.6972 6.482 93.9032 6.482C91.1092 6.482 89.5472 5.932 89.5472 4.81C89.5472 3.666 91.1092 3.116 93.9032 3.116ZM119.651 3.226V5.624H123.171V3.226H119.651ZM119.651 7.648V10.046H123.171V7.648H119.651ZM117.627 0.586V12.598H120.553V0.586H117.627ZM106.957 13.434V15.766H117.627V20.958H120.553V13.434H106.957ZM110.191 1.686C107.045 1.686 104.647 3.776 104.647 6.68C104.647 9.584 107.045 11.652 110.191 11.652C113.337 11.652 115.735 9.584 115.735 6.68C115.735 3.776 113.337 1.686 110.191 1.686ZM110.191 4.172C111.731 4.172 112.875 5.074 112.875 6.68C112.875 8.286 111.731 9.21 110.191 9.21C108.651 9.21 107.507 8.286 107.507 6.68C107.507 5.074 108.651 4.172 110.191 4.172ZM125.248 2.06V4.414H133.96V2.06H125.248ZM127.756 6.812V11.916H130.66V6.812H127.756ZM132.816 2.06V3.336C132.816 4.744 132.816 6.504 132.376 9.012L135.214 9.32C135.698 6.79 135.698 4.766 135.698 3.336V2.06H132.816ZM137.678 0.586V15.832H140.626V0.586H137.678ZM139.46 6.79V9.188H143.046V6.79H139.46ZM127.03 18.274V20.606H141.264V18.274H127.03ZM127.03 14.468V19H129.956V14.468H127.03ZM124.324 13.104C127.822 13.104 132.552 13.016 136.754 12.224L136.578 10.156C132.486 10.728 127.58 10.794 124.06 10.794L124.324 13.104ZM152.316 8.088V10.442H155.66V8.088H152.316ZM158.894 0.586V20.958H161.688V0.586H158.894ZM154.736 0.894V20.034H157.486V0.894H154.736ZM148.752 2.016C146.068 2.016 144.352 4.81 144.352 9.408C144.352 14.028 146.068 16.822 148.752 16.822C151.458 16.822 153.196 14.028 153.196 9.408C153.196 4.81 151.458 2.016 148.752 2.016ZM148.752 4.766C149.896 4.766 150.534 6.306 150.534 9.408C150.534 12.532 149.896 14.05 148.752 14.05C147.652 14.05 147.014 12.532 147.014 9.408C147.014 6.306 147.652 4.766 148.752 4.766ZM169.077 10.156V12.488H187.513V10.156H169.077ZM176.843 7.098V11.058H179.747V7.098H176.843ZM171.299 6.174V8.484H185.423V6.174H171.299ZM171.299 1.466V7.648H174.203V3.754H185.313V1.466H171.299ZM178.229 13.5C173.829 13.5 171.145 14.842 171.145 17.24C171.145 19.638 173.829 20.98 178.229 20.98C182.629 20.98 185.291 19.638 185.291 17.24C185.291 14.842 182.629 13.5 178.229 13.5ZM178.229 15.7C180.957 15.7 182.343 16.206 182.343 17.24C182.343 18.296 180.957 18.758 178.229 18.758C175.501 18.758 174.115 18.296 174.115 17.24C174.115 16.206 175.501 15.7 178.229 15.7ZM195.442 1.928C192.252 1.928 189.81 4.018 189.81 6.944C189.81 9.892 192.252 11.982 195.442 11.982C198.654 11.982 201.052 9.892 201.052 6.944C201.052 4.018 198.654 1.928 195.442 1.928ZM195.442 4.436C197.004 4.436 198.192 5.36 198.192 6.944C198.192 8.55 197.004 9.474 195.442 9.474C193.88 9.474 192.692 8.55 192.692 6.944C192.692 5.36 193.88 4.436 195.442 4.436ZM202.966 0.563999V21.002H205.892V0.563999H202.966ZM189.326 16.866C192.846 16.866 197.642 16.822 202.064 15.942L201.844 13.83C197.554 14.468 192.56 14.512 188.974 14.512L189.326 16.866ZM208.694 3.644V5.976H218.44V3.644H208.694ZM213.6 6.878C211.026 6.878 209.134 8.88 209.134 11.74C209.134 14.578 211.026 16.58 213.6 16.58C216.196 16.58 218.066 14.578 218.066 11.74C218.066 8.88 216.196 6.878 213.6 6.878ZM213.6 9.32C214.7 9.32 215.492 10.2 215.492 11.74C215.492 13.28 214.7 14.138 213.6 14.138C212.5 14.138 211.73 13.28 211.73 11.74C211.73 10.2 212.5 9.32 213.6 9.32ZM223.434 0.586V20.958H226.228V0.586H223.434ZM220.992 8.858V11.212H224.358V8.858H220.992ZM219.166 0.959999V20.1H221.894V0.959999H219.166ZM212.17 1.136V5.118H215.052V1.136H212.17ZM236.092 2.852V3.446C236.092 5.536 233.936 7.824 229.448 8.374L230.526 10.662C235.696 9.958 238.622 7.032 238.622 3.446V2.852H236.092ZM236.928 2.852V3.446C236.928 7.032 239.854 9.958 245.046 10.662L246.102 8.374C241.614 7.824 239.458 5.536 239.458 3.446V2.852H236.928ZM236.246 13.5V20.98H239.15V13.5H236.246ZM228.568 11.828V14.16H246.982V11.828H228.568ZM230.196 1.62V3.93H245.31V1.62H230.196ZM256.406 7.428V9.804H259.772V7.428H256.406ZM252.05 2.346V5.778C252.05 9.232 250.994 12.862 248.002 14.71L249.762 16.91C253.018 14.908 254.294 10.398 254.294 5.778V2.346H252.05ZM252.688 2.346V5.646C252.688 10.046 253.7 14.446 256.934 16.448L258.518 14.16C255.746 12.356 254.888 8.968 254.888 5.646V2.346H252.688ZM263.094 0.586V20.958H265.888V0.586H263.094ZM258.958 0.894V20.034H261.686V0.894H258.958ZM272.277 10.926V16.646H275.181V10.926H272.277ZM279.669 10.926V16.646H282.595V10.926H279.669ZM268.229 16.228V18.604H286.665V16.228H268.229ZM277.425 1.576C273.025 1.576 269.813 3.732 269.813 7.054C269.813 10.376 273.025 12.51 277.425 12.51C281.803 12.51 285.037 10.376 285.037 7.054C285.037 3.732 281.803 1.576 277.425 1.576ZM277.425 3.864C280.263 3.864 282.155 5.03 282.155 7.054C282.155 9.056 280.263 10.244 277.425 10.244C274.587 10.244 272.695 9.056 272.695 7.054C272.695 5.03 274.587 3.864 277.425 3.864Z" fill="url(#paint0_linear_617_394)"/>
<defs>
<linearGradient id="paint0_linear_617_394" x1="79.75" y1="-2.10909e-07" x2="80.3748" y2="22.7415" gradientUnits="userSpaceOnUse">
<stop stop-color="#7373F6"/>
<stop offset="0.361458" stop-color="#8B70F7"/>
<stop offset="0.634552" stop-color="#956EF6"/>
<stop offset="1" stop-color="#A869F7"/>
</linearGradient>
</defs>
</svg>
