<svg width="74" height="16" viewBox="0 0 74 16" fill="none" xmlns="http://www.w3.org/2000/svg">
<path d="M9.8 0.591999V15.456H11.944V0.591999H9.8ZM3.96 1.632C1.72 1.632 0.072 3.68 0.072 6.912C0.072 10.176 1.72 12.224 3.96 12.224C6.2 12.224 7.848 10.176 7.848 6.912C7.848 3.68 6.2 1.632 3.96 1.632ZM3.96 3.568C5.064 3.568 5.8 4.736 5.8 6.912C5.8 9.12 5.064 10.304 3.96 10.304C2.856 10.304 2.104 9.12 2.104 6.912C2.104 4.736 2.856 3.568 3.96 3.568ZM14.4548 2.128V11.728H20.3108V2.128H14.4548ZM18.3268 3.792V10.064H16.4388V3.792H18.3268ZM24.7428 0.608V15.424H26.7748V0.608H24.7428ZM19.2388 5.984V7.696H22.5668V5.984H19.2388ZM21.7188 0.832V14.752H23.7188V0.832H21.7188ZM32.6135 1.04C30.3575 1.04 28.6615 2.448 28.6615 4.432C28.6615 6.4 30.3575 7.808 32.6135 7.808C34.8695 7.808 36.5655 6.4 36.5655 4.432C36.5655 2.448 34.8695 1.04 32.6135 1.04ZM32.6135 2.768C33.7015 2.768 34.5015 3.376 34.5015 4.432C34.5015 5.488 33.7015 6.096 32.6135 6.096C31.5255 6.096 30.7095 5.488 30.7095 4.432C30.7095 3.376 31.5255 2.768 32.6135 2.768ZM38.6135 0.608V8.016H40.7575V0.608H38.6135ZM30.8695 8.624V10.272H38.6455V11.152H30.9015V14.48H32.9815V12.688H40.7575V8.624H30.8695ZM30.9015 13.616V15.264H41.1255V13.616H30.9015ZM56.661 0.608V8.576H58.805V0.608H56.661ZM48.949 9.216V15.264H58.805V9.216H56.693V10.592H51.045V9.216H48.949ZM51.045 12.224H56.693V13.568H51.045V12.224ZM50.741 1.216C48.437 1.216 46.709 2.672 46.709 4.72C46.709 6.768 48.437 8.224 50.741 8.224C53.045 8.224 54.757 6.768 54.757 4.72C54.757 2.672 53.045 1.216 50.741 1.216ZM50.741 2.976C51.861 2.976 52.677 3.632 52.677 4.72C52.677 5.824 51.861 6.464 50.741 6.464C49.605 6.464 48.789 5.824 48.789 4.72C48.789 3.632 49.605 2.976 50.741 2.976ZM61.4438 7.664V9.36H62.5798C65.4118 9.36 66.9318 9.312 68.6598 8.992L68.4518 7.312C66.7718 7.616 65.3318 7.664 62.5798 7.664H61.4438ZM61.4278 1.456V3.136H65.8278V4.544H61.4438V8.784H63.5558V6.128H67.9398V1.456H61.4278ZM71.1558 0.624V9.744H73.2838V0.624H71.1558ZM68.7878 2.656V4.352H71.5398V2.656H68.7878ZM68.7878 5.808V7.504H71.5398V5.808H68.7878ZM63.1398 10.416V12.112H71.1558V15.44H73.2838V10.416H63.1398Z" fill="url(#paint0_linear_421_452)" fill-opacity="0.82"/>
<defs>
<linearGradient id="paint0_linear_421_452" x1="70.6494" y1="19.6891" x2="28.3097" y2="-30.3188" gradientUnits="userSpaceOnUse">
<stop stop-color="#4255FE"/>
<stop offset="0.21875" stop-color="#394DFF"/>
<stop offset="0.583333" stop-color="#6E4FFD"/>
<stop offset="0.734375" stop-color="#8355FF"/>
</linearGradient>
</defs>
</svg>
