<svg width="202" height="22" viewBox="0 0 202 22" fill="none" xmlns="http://www.w3.org/2000/svg">
<path d="M0.584694 16.338V18.714H19.0207V16.338H0.584694ZM8.30669 12.488V17.306H11.2327V12.488H8.30669ZM2.65269 1.906V4.216H14.0487V6.394H2.69669V12.114H5.60069V8.682H16.9527V1.906H2.65269ZM2.69669 10.948V13.302H17.4147V10.948H2.69669ZM22.253 2.456V4.766H35.167V2.456H22.253ZM20.383 15.92V18.296H38.797V15.92H20.383ZM33.627 2.456V4.876C33.627 7.626 33.627 10.53 32.879 14.446L35.805 14.688C36.531 10.508 36.531 7.736 36.531 4.876V2.456H33.627ZM54.1513 0.607999V15.238H57.0993V0.607999H54.1513ZM43.5253 18.274V20.606H57.6053V18.274H43.5253ZM43.5253 13.764V19.22H46.4513V13.764H43.5253ZM46.0113 1.884C42.8873 1.884 40.4673 4.04 40.4673 7.054C40.4673 10.046 42.8873 12.224 46.0113 12.224C49.1353 12.224 51.5333 10.046 51.5333 7.054C51.5333 4.04 49.1353 1.884 46.0113 1.884ZM46.0113 4.414C47.5073 4.414 48.6733 5.382 48.6733 7.054C48.6733 8.704 47.5073 9.672 46.0113 9.672C44.4933 9.672 43.3273 8.704 43.3273 7.054C43.3273 5.382 44.4933 4.414 46.0113 4.414ZM69.1755 0.871999C64.5115 0.871999 61.8055 2.104 61.8055 4.348C61.8055 6.592 64.5115 7.824 69.1755 7.824C73.8175 7.824 76.5455 6.592 76.5455 4.348C76.5455 2.104 73.8175 0.871999 69.1755 0.871999ZM69.1755 3.006C72.1235 3.006 73.5095 3.446 73.5095 4.348C73.5095 5.294 72.1235 5.69 69.1755 5.69C66.2275 5.69 64.8415 5.294 64.8415 4.348C64.8415 3.446 66.2275 3.006 69.1755 3.006ZM59.9575 8.77V11.08H78.3715V8.77H59.9575ZM62.0695 12.224V14.402H73.2675V15.436H62.0915V19.264H64.9735V17.46H76.1495V12.224H62.0695ZM62.0915 18.626V20.826H76.6775V18.626H62.0915ZM89.3796 2.148V5.118C89.3796 9.078 87.7076 12.994 84.1656 14.534L85.9036 16.954C89.9516 15.084 91.7556 10.354 91.7556 5.118V2.148H89.3796ZM89.9516 2.148V5.118C89.9516 10.134 91.7556 14.666 95.6936 16.47L97.4096 14.116C93.9336 12.62 92.3276 8.88 92.3276 5.118V2.148H89.9516ZM98.3776 0.563999V21.002H101.326V0.563999H98.3776ZM108.738 2.676V3.952C108.738 6.504 107.308 9.144 103.898 10.244L105.416 12.51C109.31 11.256 111.136 7.802 111.136 3.952V2.676H108.738ZM109.332 2.676V3.952C109.332 7.604 111.092 10.926 114.898 12.158L116.394 9.892C113.094 8.836 111.708 6.35 111.708 3.952V2.676H109.332ZM104.69 1.774V4.106H115.69V1.774H104.69ZM117.318 0.586V12.862H120.244V0.586H117.318ZM119.43 5.514V7.912H122.95V5.514H119.43ZM106.648 13.742V16.096H117.318V20.958H120.244V13.742H106.648ZM123.982 3.644V5.976H133.728V3.644H123.982ZM128.888 6.878C126.314 6.878 124.422 8.88 124.422 11.74C124.422 14.578 126.314 16.58 128.888 16.58C131.484 16.58 133.354 14.578 133.354 11.74C133.354 8.88 131.484 6.878 128.888 6.878ZM128.888 9.32C129.988 9.32 130.78 10.2 130.78 11.74C130.78 13.28 129.988 14.138 128.888 14.138C127.788 14.138 127.018 13.28 127.018 11.74C127.018 10.2 127.788 9.32 128.888 9.32ZM138.722 0.586V20.958H141.516V0.586H138.722ZM136.28 8.858V11.212H139.646V8.858H136.28ZM134.454 0.959999V20.1H137.182V0.959999H134.454ZM127.458 1.136V5.118H130.34V1.136H127.458ZM151.348 2.852V3.446C151.348 5.536 149.192 7.824 144.704 8.374L145.782 10.662C150.952 9.958 153.878 7.032 153.878 3.446V2.852H151.348ZM152.184 2.852V3.446C152.184 7.032 155.11 9.958 160.302 10.662L161.358 8.374C156.87 7.824 154.714 5.536 154.714 3.446V2.852H152.184ZM151.502 13.5V20.98H154.406V13.5H151.502ZM143.824 11.828V14.16H162.238V11.828H143.824ZM145.452 1.62V3.93H160.566V1.62H145.452ZM171.631 7.428V9.804H174.997V7.428H171.631ZM167.275 2.346V5.778C167.275 9.232 166.219 12.862 163.227 14.71L164.987 16.91C168.243 14.908 169.519 10.398 169.519 5.778V2.346H167.275ZM167.913 2.346V5.646C167.913 10.046 168.925 14.446 172.159 16.448L173.743 14.16C170.971 12.356 170.113 8.968 170.113 5.646V2.346H167.913ZM178.319 0.586V20.958H181.113V0.586H178.319ZM174.183 0.894V20.034H176.911V0.894H174.183ZM187.469 10.926V16.646H190.373V10.926H187.469ZM194.861 10.926V16.646H197.787V10.926H194.861ZM183.421 16.228V18.604H201.857V16.228H183.421ZM192.617 1.576C188.217 1.576 185.005 3.732 185.005 7.054C185.005 10.376 188.217 12.51 192.617 12.51C196.995 12.51 200.229 10.376 200.229 7.054C200.229 3.732 196.995 1.576 192.617 1.576ZM192.617 3.864C195.455 3.864 197.347 5.03 197.347 7.054C197.347 9.056 195.455 10.244 192.617 10.244C189.779 10.244 187.887 9.056 187.887 7.054C187.887 5.03 189.779 3.864 192.617 3.864Z" fill="url(#paint0_linear_421_449)"/>
<defs>
<linearGradient id="paint0_linear_421_449" x1="-6" y1="-5.32813" x2="56.1435" y2="111.073" gradientUnits="userSpaceOnUse">
<stop stop-color="#7373F6"/>
<stop offset="0.361458" stop-color="#8B70F7"/>
<stop offset="0.634552" stop-color="#956EF6"/>
<stop offset="1" stop-color="#A869F7"/>
</linearGradient>
</defs>
</svg>
