<svg width="88" height="16" viewBox="0 0 88 16" fill="none" xmlns="http://www.w3.org/2000/svg">
<path d="M9.8 0.591999V15.456H11.944V0.591999H9.8ZM0.376 1.776V12H7.656V1.776H5.544V5.376H2.488V1.776H0.376ZM2.488 7.024H5.544V10.288H2.488V7.024ZM14.7908 1.344V7.616H21.9748V1.344H14.7908ZM19.8948 3.008V5.952H16.8708V3.008H19.8948ZM24.2148 0.608V8.08H26.3588V0.608H24.2148ZM16.4708 8.72V10.352H24.2468V11.232H16.4868V14.256H18.5828V12.752H26.3588V8.72H16.4708ZM16.4868 13.68V15.328H26.7268V13.68H16.4868ZM35.4455 4.544V6.24H39.2535V4.544H35.4455ZM38.7095 0.624V11.552H40.8375V0.624H38.7095ZM31.0295 13.472V15.168H41.1575V13.472H31.0295ZM31.0295 10.48V14.448H33.1735V10.48H31.0295ZM29.0615 1.584V9.232H36.0695V1.584H33.9895V3.84H31.1735V1.584H29.0615ZM31.1735 5.456H33.9895V7.552H31.1735V5.456ZM43.4123 2.448V4.144H55.6363V2.448H43.4123ZM42.8523 12.224V13.936H56.2603V12.224H42.8523ZM48.4683 10.272V12.896H50.5803V10.272H48.4683ZM49.5083 4.784C46.4203 4.784 44.4843 5.856 44.4843 7.68C44.4843 9.504 46.4203 10.576 49.5083 10.576C52.5963 10.576 54.5323 9.504 54.5323 7.68C54.5323 5.856 52.5963 4.784 49.5083 4.784ZM49.5083 6.432C51.3643 6.432 52.3563 6.832 52.3563 7.68C52.3563 8.528 51.3643 8.912 49.5083 8.912C47.6523 8.912 46.6603 8.528 46.6603 7.68C46.6603 6.832 47.6523 6.432 49.5083 6.432ZM48.4683 0.768V3.504H50.5803V0.768H48.4683ZM71.0598 0.608V8.576H73.2038V0.608H71.0598ZM63.3478 9.216V15.264H73.2038V9.216H71.0918V10.592H65.4438V9.216H63.3478ZM65.4438 12.224H71.0918V13.568H65.4438V12.224ZM65.1398 1.216C62.8358 1.216 61.1078 2.672 61.1078 4.72C61.1078 6.768 62.8358 8.224 65.1398 8.224C67.4438 8.224 69.1558 6.768 69.1558 4.72C69.1558 2.672 67.4438 1.216 65.1398 1.216ZM65.1398 2.976C66.2598 2.976 67.0758 3.632 67.0758 4.72C67.0758 5.824 66.2598 6.464 65.1398 6.464C64.0038 6.464 63.1878 5.824 63.1878 4.72C63.1878 3.632 64.0038 2.976 65.1398 2.976ZM75.8425 7.664V9.36H76.9785C79.8105 9.36 81.3305 9.312 83.0585 8.992L82.8505 7.312C81.1705 7.616 79.7305 7.664 76.9785 7.664H75.8425ZM75.8265 1.456V3.136H80.2265V4.544H75.8425V8.784H77.9545V6.128H82.3385V1.456H75.8265ZM85.5545 0.624V9.744H87.6825V0.624H85.5545ZM83.1865 2.656V4.352H85.9385V2.656H83.1865ZM83.1865 5.808V7.504H85.9385V5.808H83.1865ZM77.5385 10.416V12.112H85.5545V15.44H87.6825V10.416H77.5385Z" fill="url(#paint0_linear_421_453)" fill-opacity="0.82"/>
<defs>
<linearGradient id="paint0_linear_421_453" x1="84.7907" y1="19.6891" x2="44.3183" y2="-37.548" gradientUnits="userSpaceOnUse">
<stop stop-color="#4255FE"/>
<stop offset="0.21875" stop-color="#394DFF"/>
<stop offset="0.583333" stop-color="#6E4FFD"/>
<stop offset="0.734375" stop-color="#8355FF"/>
</linearGradient>
</defs>
</svg>
