<svg width="92" height="33" viewBox="0 0 92 33" fill="none" xmlns="http://www.w3.org/2000/svg">
<rect x="4.36377" width="81.8182" height="32.7273" rx="16.3636" fill="url(#paint0_linear_434_90)"/>
<path d="M29.8022 11.0909V22H27.4957V11.0909H29.8022ZM32.6836 20.7322C32.332 20.7322 32.0302 20.608 31.778 20.3594C31.5294 20.1108 31.4052 19.8089 31.4052 19.4538C31.4052 19.1058 31.5294 18.8075 31.778 18.5589C32.0302 18.3104 32.332 18.1861 32.6836 18.1861C33.0245 18.1861 33.3228 18.3104 33.5785 18.5589C33.8341 18.8075 33.962 19.1058 33.962 19.4538C33.962 19.6882 33.9016 19.9031 33.7809 20.0984C33.6637 20.2901 33.5092 20.4446 33.3174 20.5618C33.1257 20.6754 32.9144 20.7322 32.6836 20.7322ZM32.6836 15.3789C32.332 15.3789 32.0302 15.2546 31.778 15.006C31.5294 14.7575 31.4052 14.4556 31.4052 14.1005C31.4052 13.7525 31.5294 13.456 31.778 13.2109C32.0302 12.9624 32.332 12.8381 32.6836 12.8381C33.0245 12.8381 33.3228 12.9624 33.5785 13.2109C33.8341 13.456 33.962 13.7525 33.962 14.1005C33.962 14.3384 33.9016 14.555 33.7809 14.7504C33.6637 14.9421 33.5092 15.0948 33.3174 15.2085C33.1257 15.3221 32.9144 15.3789 32.6836 15.3789ZM48.3811 9.445V23.335H50.2861V9.445H48.3811ZM46.5661 14.8V16.39H48.8761V14.8H46.5661ZM45.2761 9.685V22.675H47.1361V9.685H45.2761ZM38.9311 10.975V19H40.9261V10.975H38.9311ZM38.9311 18.25V19.96H39.8911C41.3011 19.96 42.8911 19.885 44.7061 19.555L44.5111 17.845C42.7861 18.175 41.2261 18.25 39.8911 18.25H38.9311ZM62.21 11.44V13.06H64.61V11.44H62.21ZM62.21 14.455V16.075H64.61V14.455H62.21ZM60.83 9.445V18.25H62.825V9.445H60.83ZM58.31 18.4C55.445 18.4 53.645 19.315 53.645 20.875C53.645 22.42 55.445 23.335 58.31 23.335C61.175 23.335 62.975 22.42 62.975 20.875C62.975 19.315 61.175 18.4 58.31 18.4ZM58.31 19.9C60.065 19.9 60.995 20.215 60.995 20.875C60.995 21.535 60.065 21.85 58.31 21.85C56.555 21.85 55.625 21.535 55.625 20.875C55.625 20.215 56.555 19.9 58.31 19.9ZM51.89 10.765V12.31H60.065V10.765H51.89ZM55.985 12.775C53.96 12.775 52.565 13.78 52.565 15.265C52.565 16.765 53.96 17.755 55.985 17.755C57.995 17.755 59.39 16.765 59.39 15.265C59.39 13.78 57.995 12.775 55.985 12.775ZM55.985 14.23C56.87 14.23 57.485 14.59 57.485 15.265C57.485 15.94 56.87 16.3 55.985 16.3C55.085 16.3 54.485 15.94 54.485 15.265C54.485 14.59 55.085 14.23 55.985 14.23ZM54.98 9.355V11.59H56.975V9.355H54.98Z" fill="white"/>
<defs>
<linearGradient id="paint0_linear_434_90" x1="4.36377" y1="2.30114" x2="67.6941" y2="54.9612" gradientUnits="userSpaceOnUse">
<stop stop-color="#7373F6"/>
<stop offset="0.361458" stop-color="#8B70F7"/>
<stop offset="0.634552" stop-color="#956EF6"/>
<stop offset="1" stop-color="#A869F7"/>
</linearGradient>
</defs>
</svg>
