<svg width="92" height="33" viewBox="0 0 92 33" fill="none" xmlns="http://www.w3.org/2000/svg">
<rect x="5" width="81.8182" height="32.7273" rx="16.3636" fill="url(#paint0_linear_434_99)"/>
<path d="M33.2073 11.0909V22H31.2151L26.469 15.1339H26.3891V22H24.0826V11.0909H26.1068L30.8156 17.9517H30.9115V11.0909H33.2073ZM36.0967 20.7322C35.7451 20.7322 35.4432 20.608 35.1911 20.3594C34.9425 20.1108 34.8182 19.8089 34.8182 19.4538C34.8182 19.1058 34.9425 18.8075 35.1911 18.5589C35.4432 18.3104 35.7451 18.1861 36.0967 18.1861C36.4376 18.1861 36.7359 18.3104 36.9915 18.5589C37.2472 18.8075 37.3751 19.1058 37.3751 19.4538C37.3751 19.6882 37.3147 19.9031 37.194 20.0984C37.0768 20.2901 36.9223 20.4446 36.7305 20.5618C36.5388 20.6754 36.3275 20.7322 36.0967 20.7322ZM36.0967 15.3789C35.7451 15.3789 35.4432 15.2546 35.1911 15.006C34.9425 14.7575 34.8182 14.4556 34.8182 14.1005C34.8182 13.7525 34.9425 13.456 35.1911 13.2109C35.4432 12.9624 35.7451 12.8381 36.0967 12.8381C36.4376 12.8381 36.7359 12.9624 36.9915 13.2109C37.2472 13.456 37.3751 13.7525 37.3751 14.1005C37.3751 14.3384 37.3147 14.555 37.194 14.7504C37.0768 14.9421 36.9223 15.0948 36.7305 15.2085C36.5388 15.3221 36.3275 15.3789 36.0967 15.3789ZM45.1792 10.87V11.74C45.1792 13.48 44.1742 15.295 41.8642 16.045L42.8842 17.59C45.5542 16.735 46.8292 14.365 46.8292 11.74V10.87H45.1792ZM45.5842 10.87V11.74C45.5842 14.245 46.8442 16.525 49.4542 17.35L50.4742 15.805C48.2092 15.085 47.2192 13.39 47.2192 11.74V10.87H45.5842ZM51.3442 9.445V17.815H53.3542V9.445H51.3442ZM43.8742 18.43V20.02H51.3442V23.335H53.3542V18.43H43.8742ZM42.3892 10.255V11.83H49.9492V10.255H42.3892ZM55.918 10.45V12.055H61.858V10.45H55.918ZM57.628 13.69V17.17H59.608V13.69H57.628ZM61.078 10.45V11.32C61.078 12.28 61.078 13.48 60.778 15.19L62.713 15.4C63.043 13.675 63.043 12.295 63.043 11.32V10.45H61.078ZM64.393 9.445V19.84H66.403V9.445H64.393ZM65.608 13.675V15.31H68.053V13.675H65.608ZM57.133 21.505V23.095H66.838V21.505H57.133ZM57.133 18.91V22H59.128V18.91H57.133ZM55.288 17.98C57.673 17.98 60.898 17.92 63.763 17.38L63.643 15.97C60.853 16.36 57.508 16.405 55.108 16.405L55.288 17.98Z" fill="white"/>
<defs>
<linearGradient id="paint0_linear_434_99" x1="5" y1="2.30114" x2="68.3304" y2="54.9612" gradientUnits="userSpaceOnUse">
<stop stop-color="#7373F6"/>
<stop offset="0.361458" stop-color="#8B70F7"/>
<stop offset="0.634552" stop-color="#956EF6"/>
<stop offset="1" stop-color="#A869F7"/>
</linearGradient>
</defs>
</svg>
