<svg width="92" height="33" viewBox="0 0 92 33" fill="none" xmlns="http://www.w3.org/2000/svg">
<rect x="5" width="81.8182" height="32.7273" rx="16.3636" fill="url(#paint0_linear_421_722)"/>
<path d="M29.6883 11.0909H31.9682V18.6974C31.9682 19.4006 31.8101 20.0114 31.4941 20.5298C31.1816 21.0483 30.7466 21.4478 30.189 21.7283C29.6315 22.0089 28.9834 22.1491 28.2448 22.1491C27.5878 22.1491 26.9912 22.0337 26.455 21.8029C25.9224 21.5685 25.4998 21.2134 25.1873 20.7376C24.8748 20.2582 24.7203 19.6562 24.7238 18.9318H27.0197C27.0268 19.2195 27.0854 19.4663 27.1954 19.6722C27.3091 19.8746 27.4635 20.0309 27.6589 20.141C27.8577 20.2475 28.0921 20.3008 28.362 20.3008C28.6461 20.3008 28.8858 20.2404 29.0811 20.1197C29.28 19.9954 29.4309 19.8143 29.5339 19.5763C29.6368 19.3384 29.6883 19.0455 29.6883 18.6974V11.0909ZM34.8589 20.7322C34.5073 20.7322 34.2054 20.608 33.9533 20.3594C33.7047 20.1108 33.5804 19.8089 33.5804 19.4538C33.5804 19.1058 33.7047 18.8075 33.9533 18.5589C34.2054 18.3104 34.5073 18.1861 34.8589 18.1861C35.1998 18.1861 35.4981 18.3104 35.7537 18.5589C36.0094 18.8075 36.1373 19.1058 36.1373 19.4538C36.1373 19.6882 36.0769 19.9031 35.9562 20.0984C35.839 20.2901 35.6845 20.4446 35.4927 20.5618C35.301 20.6754 35.0897 20.7322 34.8589 20.7322ZM34.8589 15.3789C34.5073 15.3789 34.2054 15.2546 33.9533 15.006C33.7047 14.7575 33.5804 14.4556 33.5804 14.1005C33.5804 13.7525 33.7047 13.456 33.9533 13.2109C34.2054 12.9624 34.5073 12.8381 34.8589 12.8381C35.1998 12.8381 35.4981 12.9624 35.7537 13.2109C36.0094 13.456 36.1373 13.7525 36.1373 14.1005C36.1373 14.3384 36.0769 14.555 35.9562 14.7504C35.839 14.9421 35.6845 15.0948 35.4927 15.2085C35.301 15.3221 35.0897 15.3789 34.8589 15.3789ZM40.8514 10.57V12.175H48.2614V10.57H40.8514ZM40.7014 17.83C42.9964 17.83 46.1464 17.77 48.8764 17.29L48.7414 15.835C46.0714 16.18 42.8464 16.21 40.4914 16.225L40.7014 17.83ZM41.9464 11.8V16.525H43.8664V11.8H41.9464ZM45.2614 11.8V16.525H47.1664V11.8H45.2614ZM49.5064 9.46V19.69H51.5014V9.46H49.5064ZM50.9314 13.36V15.01H53.3464V13.36H50.9314ZM42.5464 21.505V23.095H51.9964V21.505H42.5464ZM42.5464 18.73V21.925H44.5414V18.73H42.5464ZM63.0052 9.445V19.48H65.0002V9.445H63.0052ZM64.4302 13.225V14.86H66.8452V13.225H64.4302ZM54.5902 15.61V17.215H55.7452C58.8352 17.215 60.4252 17.14 62.1202 16.765L61.9252 15.19C60.2602 15.55 58.7602 15.61 55.7452 15.61H54.5902ZM54.5902 10.54V16.465H56.5702V12.145H60.8002V10.54H54.5902ZM56.0452 21.505V23.095H65.4952V21.505H56.0452ZM56.0452 18.43V22.315H58.0402V18.43H56.0452Z" fill="white"/>
<defs>
<linearGradient id="paint0_linear_421_722" x1="5" y1="2.30114" x2="68.3304" y2="54.9612" gradientUnits="userSpaceOnUse">
<stop stop-color="#7373F6"/>
<stop offset="0.361458" stop-color="#8B70F7"/>
<stop offset="0.634552" stop-color="#956EF6"/>
<stop offset="1" stop-color="#A869F7"/>
</linearGradient>
</defs>
</svg>
