<svg width="92" height="33" viewBox="0 0 92 33" fill="none" xmlns="http://www.w3.org/2000/svg">
<rect x="5" width="81.8182" height="32.7273" rx="16.3636" fill="url(#paint0_linear_434_96)"/>
<path d="M26.3277 22V11.0909H30.6316C31.4591 11.0909 32.164 11.2489 32.7463 11.565C33.3287 11.8775 33.7726 12.3125 34.078 12.87C34.387 13.424 34.5414 14.0632 34.5414 14.7876C34.5414 15.5121 34.3852 16.1513 34.0727 16.7053C33.7602 17.2592 33.3074 17.6907 32.7144 17.9996C32.1249 18.3086 31.4111 18.4631 30.573 18.4631H27.8298V16.6147H30.2002C30.6441 16.6147 31.0098 16.5384 31.2975 16.3857C31.5887 16.2294 31.8053 16.0146 31.9473 15.7411C32.0929 15.4641 32.1657 15.1463 32.1657 14.7876C32.1657 14.4254 32.0929 14.1094 31.9473 13.8395C31.8053 13.5661 31.5887 13.3548 31.2975 13.2056C31.0063 13.0529 30.637 12.9766 30.1895 12.9766H28.6341V22H26.3277ZM37.0233 20.7322C36.6718 20.7322 36.3699 20.608 36.1178 20.3594C35.8692 20.1108 35.7449 19.8089 35.7449 19.4538C35.7449 19.1058 35.8692 18.8075 36.1178 18.5589C36.3699 18.3104 36.6718 18.1861 37.0233 18.1861C37.3642 18.1861 37.6625 18.3104 37.9182 18.5589C38.1739 18.8075 38.3017 19.1058 38.3017 19.4538C38.3017 19.6882 38.2414 19.9031 38.1206 20.0984C38.0034 20.2901 37.849 20.4446 37.6572 20.5618C37.4654 20.6754 37.2541 20.7322 37.0233 20.7322ZM37.0233 15.3789C36.6718 15.3789 36.3699 15.2546 36.1178 15.006C35.8692 14.7575 35.7449 14.4556 35.7449 14.1005C35.7449 13.7525 35.8692 13.456 36.1178 13.2109C36.3699 12.9624 36.6718 12.8381 37.0233 12.8381C37.3642 12.8381 37.6625 12.9624 37.9182 13.2109C38.1739 13.456 38.3017 13.7525 38.3017 14.1005C38.3017 14.3384 38.2414 14.555 38.1206 14.7504C38.0034 14.9421 37.849 15.0948 37.6572 15.2085C37.4654 15.3221 37.2541 15.3789 37.0233 15.3789ZM49.0992 9.46V19.435H51.1092V9.46H49.0992ZM41.8542 21.505V23.095H51.4542V21.505H41.8542ZM41.8542 18.43V22.15H43.8492V18.43H41.8542ZM43.5492 10.33C41.4192 10.33 39.7692 11.8 39.7692 13.855C39.7692 15.895 41.4192 17.38 43.5492 17.38C45.6792 17.38 47.3142 15.895 47.3142 13.855C47.3142 11.8 45.6792 10.33 43.5492 10.33ZM43.5492 12.055C44.5692 12.055 45.3642 12.715 45.3642 13.855C45.3642 14.98 44.5692 15.64 43.5492 15.64C42.5142 15.64 41.7192 14.98 41.7192 13.855C41.7192 12.715 42.5142 12.055 43.5492 12.055ZM56.313 10.075V11.41C56.313 13.165 55.338 14.965 52.998 15.715L53.973 17.29C56.688 16.42 57.963 14.035 57.963 11.41V10.075H56.313ZM56.718 10.075V11.41C56.718 13.99 57.948 16.21 60.603 17.05L61.578 15.49C59.313 14.8 58.353 13.12 58.353 11.41V10.075H56.718ZM55.128 18.34V19.93H62.598V23.335H64.608V18.34H55.128ZM62.598 9.445V17.725H64.608V9.445H62.598Z" fill="white"/>
<defs>
<linearGradient id="paint0_linear_434_96" x1="5" y1="2.30114" x2="68.3304" y2="54.9612" gradientUnits="userSpaceOnUse">
<stop stop-color="#7373F6"/>
<stop offset="0.361458" stop-color="#8B70F7"/>
<stop offset="0.634552" stop-color="#956EF6"/>
<stop offset="1" stop-color="#A869F7"/>
</linearGradient>
</defs>
</svg>
