<svg width="93" height="33" viewBox="0 0 93 33" fill="none" xmlns="http://www.w3.org/2000/svg">
<rect x="7.00049" width="81.8182" height="32.7273" rx="16.3636" fill="url(#paint0_linear_434_93)"/>
<path d="M25.6657 22V11.0909H32.8887V12.9925H27.9721V15.592H32.4093V17.4936H27.9721V22H25.6657ZM35.4238 20.7322C35.0722 20.7322 34.7704 20.608 34.5183 20.3594C34.2697 20.1108 34.1454 19.8089 34.1454 19.4538C34.1454 19.1058 34.2697 18.8075 34.5183 18.5589C34.7704 18.3104 35.0722 18.1861 35.4238 18.1861C35.7647 18.1861 36.063 18.3104 36.3187 18.5589C36.5744 18.8075 36.7022 19.1058 36.7022 19.4538C36.7022 19.6882 36.6418 19.9031 36.5211 20.0984C36.4039 20.2901 36.2494 20.4446 36.0577 20.5618C35.8659 20.6754 35.6546 20.7322 35.4238 20.7322ZM35.4238 15.3789C35.0722 15.3789 34.7704 15.2546 34.5183 15.006C34.2697 14.7575 34.1454 14.4556 34.1454 14.1005C34.1454 13.7525 34.2697 13.456 34.5183 13.2109C34.7704 12.9624 35.0722 12.8381 35.4238 12.8381C35.7647 12.8381 36.063 12.9624 36.3187 13.2109C36.5744 13.456 36.7022 13.7525 36.7022 14.1005C36.7022 14.3384 36.6418 14.555 36.5211 14.7504C36.4039 14.9421 36.2494 15.0948 36.0577 15.2085C35.8659 15.3221 35.6546 15.3789 35.4238 15.3789ZM50.0714 9.445V17.185H52.0664V9.445H50.0714ZM51.5114 12.46V14.095H53.9114V12.46H51.5114ZM46.0814 10.24V11.23C46.0814 13.315 44.3864 15.085 40.9814 15.94L41.7614 17.515C45.9014 16.435 48.2114 13.93 48.2114 10.24H46.0814ZM41.6414 10.24V11.815H47.2814V10.24H41.6414ZM43.0514 17.74V23.185H52.0664V17.74H43.0514ZM50.1014 19.315V21.61H45.0164V19.315H50.1014ZM62.1602 12.805V14.425H64.8002V12.805H62.1602ZM64.2602 9.445V17.695H66.2552V9.445H64.2602ZM61.5452 17.995C58.6052 17.995 56.7902 19 56.7902 20.68C56.7902 22.375 58.6052 23.35 61.5452 23.35C64.4852 23.35 66.3002 22.375 66.3002 20.68C66.3002 19 64.4852 17.995 61.5452 17.995ZM61.5452 19.51C63.3602 19.51 64.3202 19.885 64.3202 20.68C64.3202 21.46 63.3602 21.835 61.5452 21.835C59.7452 21.835 58.7852 21.46 58.7852 20.68C58.7852 19.885 59.7452 19.51 61.5452 19.51ZM57.8402 10.84V11.71C57.8402 13.495 56.8502 15.34 54.5552 16.12L55.5752 17.695C58.2302 16.795 59.4602 14.365 59.4602 11.71V10.84H57.8402ZM58.2602 10.84V11.71C58.2602 14.185 59.4452 16.495 62.0252 17.35L63.0002 15.775C60.8102 15.04 59.8652 13.345 59.8652 11.71V10.84H58.2602ZM55.0952 10.285V11.875H62.5652V10.285H55.0952Z" fill="white"/>
<defs>
<linearGradient id="paint0_linear_434_93" x1="7.00049" y1="2.30114" x2="70.3309" y2="54.9612" gradientUnits="userSpaceOnUse">
<stop stop-color="#7373F6"/>
<stop offset="0.361458" stop-color="#8B70F7"/>
<stop offset="0.634552" stop-color="#956EF6"/>
<stop offset="1" stop-color="#A869F7"/>
</linearGradient>
</defs>
</svg>
