<svg width="92" height="33" viewBox="0 0 92 33" fill="none" xmlns="http://www.w3.org/2000/svg">
<rect x="4.36377" width="81.8182" height="32.7273" rx="16.3636" fill="url(#paint0_linear_421_704)"/>
<path d="M25.0055 22V11.0909H32.3563V12.9925H27.312V15.592H31.9782V17.4936H27.312V20.0984H32.3777V22H25.0055ZM35.1738 20.7322C34.8222 20.7322 34.5204 20.608 34.2683 20.3594C34.0197 20.1108 33.8954 19.8089 33.8954 19.4538C33.8954 19.1058 34.0197 18.8075 34.2683 18.5589C34.5204 18.3104 34.8222 18.1861 35.1738 18.1861C35.5147 18.1861 35.813 18.3104 36.0687 18.5589C36.3244 18.8075 36.4522 19.1058 36.4522 19.4538C36.4522 19.6882 36.3918 19.9031 36.2711 20.0984C36.1539 20.2901 35.9994 20.4446 35.8077 20.5618C35.6159 20.6754 35.4046 20.7322 35.1738 20.7322ZM35.1738 15.3789C34.8222 15.3789 34.5204 15.2546 34.2683 15.006C34.0197 14.7575 33.8954 14.4556 33.8954 14.1005C33.8954 13.7525 34.0197 13.456 34.2683 13.2109C34.5204 12.9624 34.8222 12.8381 35.1738 12.8381C35.5147 12.8381 35.813 12.9624 36.0687 13.2109C36.3244 13.456 36.4522 13.7525 36.4522 14.1005C36.4522 14.3384 36.3918 14.555 36.2711 14.7504C36.1539 14.9421 35.9994 15.0948 35.8077 15.2085C35.6159 15.3221 35.4046 15.3789 35.1738 15.3789ZM44.3314 16.39V19.315H46.3414V16.39H44.3314ZM45.3514 10.255C43.1764 10.255 41.5114 11.68 41.5114 13.675C41.5114 15.67 43.1764 17.095 45.3514 17.095C47.5414 17.095 49.1764 15.67 49.1764 13.675C49.1764 11.68 47.5414 10.255 45.3514 10.255ZM45.3514 11.965C46.4164 11.965 47.2264 12.58 47.2264 13.675C47.2264 14.755 46.4164 15.4 45.3514 15.4C44.2864 15.4 43.4764 14.755 43.4764 13.675C43.4764 12.58 44.2864 11.965 45.3514 11.965ZM50.4814 9.43V23.365H52.4764V9.43H50.4814ZM41.1814 20.575C43.5814 20.575 46.8514 20.545 49.8664 19.945L49.7164 18.505C46.7914 18.94 43.3864 18.97 40.9414 18.97L41.1814 20.575ZM64.7002 11.44V13.06H67.1002V11.44H64.7002ZM64.7002 14.455V16.075H67.1002V14.455H64.7002ZM63.3202 9.445V18.25H65.3152V9.445H63.3202ZM60.8002 18.4C57.9352 18.4 56.1352 19.315 56.1352 20.875C56.1352 22.42 57.9352 23.335 60.8002 23.335C63.6652 23.335 65.4652 22.42 65.4652 20.875C65.4652 19.315 63.6652 18.4 60.8002 18.4ZM60.8002 19.9C62.5552 19.9 63.4852 20.215 63.4852 20.875C63.4852 21.535 62.5552 21.85 60.8002 21.85C59.0452 21.85 58.1152 21.535 58.1152 20.875C58.1152 20.215 59.0452 19.9 60.8002 19.9ZM54.3802 10.765V12.31H62.5552V10.765H54.3802ZM58.4752 12.775C56.4502 12.775 55.0552 13.78 55.0552 15.265C55.0552 16.765 56.4502 17.755 58.4752 17.755C60.4852 17.755 61.8802 16.765 61.8802 15.265C61.8802 13.78 60.4852 12.775 58.4752 12.775ZM58.4752 14.23C59.3602 14.23 59.9752 14.59 59.9752 15.265C59.9752 15.94 59.3602 16.3 58.4752 16.3C57.5752 16.3 56.9752 15.94 56.9752 15.265C56.9752 14.59 57.5752 14.23 58.4752 14.23ZM57.4702 9.355V11.59H59.4652V9.355H57.4702Z" fill="white"/>
<defs>
<linearGradient id="paint0_linear_421_704" x1="4.36377" y1="2.30114" x2="67.6941" y2="54.9612" gradientUnits="userSpaceOnUse">
<stop stop-color="#7373F6"/>
<stop offset="0.361458" stop-color="#8B70F7"/>
<stop offset="0.634552" stop-color="#956EF6"/>
<stop offset="1" stop-color="#A869F7"/>
</linearGradient>
</defs>
</svg>
