<svg width="93" height="33" viewBox="0 0 93 33" fill="none" xmlns="http://www.w3.org/2000/svg">
<rect x="5.3186" y="0.772461" width="80.8182" height="31.7273" rx="15.8636" fill="white" stroke="url(#paint0_linear_421_762)"/>
<path d="M25.6657 22.4543V11.5453H32.8887V13.4469H27.9721V16.0463H32.4093V17.948H27.9721V22.4543H25.6657ZM35.4238 21.1866C35.0722 21.1866 34.7704 21.0623 34.5183 20.8137C34.2697 20.5651 34.1454 20.2633 34.1454 19.9082C34.1454 19.5602 34.2697 19.2619 34.5183 19.0133C34.7704 18.7647 35.0722 18.6404 35.4238 18.6404C35.7647 18.6404 36.063 18.7647 36.3187 19.0133C36.5744 19.2619 36.7022 19.5602 36.7022 19.9082C36.7022 20.1426 36.6418 20.3574 36.5211 20.5527C36.4039 20.7445 36.2494 20.8989 36.0577 21.0161C35.8659 21.1298 35.6546 21.1866 35.4238 21.1866ZM35.4238 15.8333C35.0722 15.8333 34.7704 15.709 34.5183 15.4604C34.2697 15.2118 34.1454 14.91 34.1454 14.5548C34.1454 14.2068 34.2697 13.9103 34.5183 13.6653C34.7704 13.4167 35.0722 13.2924 35.4238 13.2924C35.7647 13.2924 36.063 13.4167 36.3187 13.6653C36.5744 13.9103 36.7022 14.2068 36.7022 14.5548C36.7022 14.7928 36.6418 15.0094 36.5211 15.2047C36.4039 15.3965 36.2494 15.5492 36.0577 15.6628C35.8659 15.7764 35.6546 15.8333 35.4238 15.8333ZM50.0714 9.89935V17.6393H52.0664V9.89935H50.0714ZM51.5114 12.9143V14.5493H53.9114V12.9143H51.5114ZM46.0814 10.6943V11.6843C46.0814 13.7693 44.3864 15.5393 40.9814 16.3943L41.7614 17.9693C45.9014 16.8893 48.2114 14.3843 48.2114 10.6943H46.0814ZM41.6414 10.6943V12.2693H47.2814V10.6943H41.6414ZM43.0514 18.1943V23.6393H52.0664V18.1943H43.0514ZM50.1014 19.7693V22.0643H45.0164V19.7693H50.1014ZM62.1602 13.2593V14.8793H64.8002V13.2593H62.1602ZM64.2602 9.89935V18.1493H66.2552V9.89935H64.2602ZM61.5452 18.4493C58.6052 18.4493 56.7902 19.4543 56.7902 21.1343C56.7902 22.8293 58.6052 23.8043 61.5452 23.8043C64.4852 23.8043 66.3002 22.8293 66.3002 21.1343C66.3002 19.4543 64.4852 18.4493 61.5452 18.4493ZM61.5452 19.9643C63.3602 19.9643 64.3202 20.3393 64.3202 21.1343C64.3202 21.9143 63.3602 22.2893 61.5452 22.2893C59.7452 22.2893 58.7852 21.9143 58.7852 21.1343C58.7852 20.3393 59.7452 19.9643 61.5452 19.9643ZM57.8402 11.2943V12.1643C57.8402 13.9493 56.8502 15.7943 54.5552 16.5743L55.5752 18.1493C58.2302 17.2493 59.4602 14.8193 59.4602 12.1643V11.2943H57.8402ZM58.2602 11.2943V12.1643C58.2602 14.6393 59.4452 16.9493 62.0252 17.8043L63.0002 16.2293C60.8102 15.4943 59.8652 13.7993 59.8652 12.1643V11.2943H58.2602ZM55.0952 10.7393V12.3293H62.5652V10.7393H55.0952Z" fill="#37375B"/>
<defs>
<linearGradient id="paint0_linear_421_762" x1="4.8186" y1="19.7395" x2="61.9995" y2="-17.7942" gradientUnits="userSpaceOnUse">
<stop stop-color="#7373F6"/>
<stop offset="0.361458" stop-color="#8B70F7"/>
<stop offset="0.634552" stop-color="#956EF6"/>
<stop offset="1" stop-color="#A869F7"/>
</linearGradient>
</defs>
</svg>
