<svg width="92" height="33" viewBox="0 0 92 33" fill="none" xmlns="http://www.w3.org/2000/svg">
<rect x="4.86353" y="0.772461" width="80.8182" height="31.7273" rx="15.8636" fill="white" stroke="url(#paint0_linear_421_753)"/>
<path d="M29.8022 11.5453V22.4543H27.4957V11.5453H29.8022ZM32.6836 21.1866C32.332 21.1866 32.0302 21.0623 31.778 20.8137C31.5294 20.5651 31.4052 20.2633 31.4052 19.9082C31.4052 19.5602 31.5294 19.2619 31.778 19.0133C32.0302 18.7647 32.332 18.6404 32.6836 18.6404C33.0245 18.6404 33.3228 18.7647 33.5785 19.0133C33.8341 19.2619 33.962 19.5602 33.962 19.9082C33.962 20.1426 33.9016 20.3574 33.7809 20.5527C33.6637 20.7445 33.5092 20.8989 33.3174 21.0161C33.1257 21.1298 32.9144 21.1866 32.6836 21.1866ZM32.6836 15.8333C32.332 15.8333 32.0302 15.709 31.778 15.4604C31.5294 15.2118 31.4052 14.91 31.4052 14.5548C31.4052 14.2068 31.5294 13.9103 31.778 13.6653C32.0302 13.4167 32.332 13.2924 32.6836 13.2924C33.0245 13.2924 33.3228 13.4167 33.5785 13.6653C33.8341 13.9103 33.962 14.2068 33.962 14.5548C33.962 14.7928 33.9016 15.0094 33.7809 15.2047C33.6637 15.3965 33.5092 15.5492 33.3174 15.6628C33.1257 15.7764 32.9144 15.8333 32.6836 15.8333ZM48.3811 9.89935V23.7893H50.2861V9.89935H48.3811ZM46.5661 15.2543V16.8443H48.8761V15.2543H46.5661ZM45.2761 10.1393V23.1293H47.1361V10.1393H45.2761ZM38.9311 11.4293V19.4543H40.9261V11.4293H38.9311ZM38.9311 18.7043V20.4143H39.8911C41.3011 20.4143 42.8911 20.3393 44.7061 20.0093L44.5111 18.2993C42.7861 18.6293 41.2261 18.7043 39.8911 18.7043H38.9311ZM62.21 11.8943V13.5143H64.61V11.8943H62.21ZM62.21 14.9093V16.5293H64.61V14.9093H62.21ZM60.83 9.89935V18.7043H62.825V9.89935H60.83ZM58.31 18.8543C55.445 18.8543 53.645 19.7693 53.645 21.3293C53.645 22.8743 55.445 23.7893 58.31 23.7893C61.175 23.7893 62.975 22.8743 62.975 21.3293C62.975 19.7693 61.175 18.8543 58.31 18.8543ZM58.31 20.3543C60.065 20.3543 60.995 20.6693 60.995 21.3293C60.995 21.9893 60.065 22.3043 58.31 22.3043C56.555 22.3043 55.625 21.9893 55.625 21.3293C55.625 20.6693 56.555 20.3543 58.31 20.3543ZM51.89 11.2193V12.7643H60.065V11.2193H51.89ZM55.985 13.2293C53.96 13.2293 52.565 14.2343 52.565 15.7193C52.565 17.2193 53.96 18.2093 55.985 18.2093C57.995 18.2093 59.39 17.2193 59.39 15.7193C59.39 14.2343 57.995 13.2293 55.985 13.2293ZM55.985 14.6843C56.87 14.6843 57.485 15.0443 57.485 15.7193C57.485 16.3943 56.87 16.7543 55.985 16.7543C55.085 16.7543 54.485 16.3943 54.485 15.7193C54.485 15.0443 55.085 14.6843 55.985 14.6843ZM54.98 9.80934V12.0443H56.975V9.80934H54.98Z" fill="#37375B"/>
<defs>
<linearGradient id="paint0_linear_421_753" x1="4.36352" y1="19.7395" x2="61.5444" y2="-17.7942" gradientUnits="userSpaceOnUse">
<stop stop-color="#7373F6"/>
<stop offset="0.361458" stop-color="#8B70F7"/>
<stop offset="0.634552" stop-color="#956EF6"/>
<stop offset="1" stop-color="#A869F7"/>
</linearGradient>
</defs>
</svg>
