<svg width="129" height="14" viewBox="0 0 129 14" fill="none" xmlns="http://www.w3.org/2000/svg">
<path d="M0.594931 1.794V9.214H1.74293V1.794H0.594931ZM0.594931 8.878V9.886H1.40693C2.93293 9.886 4.34693 9.816 5.99893 9.48L5.84493 8.486C4.24893 8.808 2.87693 8.878 1.40693 8.878H0.594931ZM9.62493 0.436V13.092H10.7449V0.436H9.62493ZM4.10893 4.678V5.644H7.27293V4.678H4.10893ZM6.95093 0.729999V12.448H8.04293V0.729999H6.95093ZM21.1458 0.422V13.092H22.3218V0.422H21.1458ZM21.9998 5.56V6.526H24.3378V5.56H21.9998ZM17.9118 1.794V1.976C17.9118 5.322 16.1618 8.024 12.6618 9.802L13.3058 10.698C17.3938 8.64 19.0458 5.392 19.0458 1.794H17.9118ZM13.2498 1.794V2.746H18.5138V1.794H13.2498ZM28.5367 2.242V4.3C28.5367 6.484 27.0107 8.864 25.1767 9.732L25.8487 10.656C27.8647 9.662 29.4747 6.974 29.4747 4.3V2.242H28.5367ZM28.7607 2.242V4.3C28.7607 6.932 30.3847 9.396 32.4287 10.348L33.0867 9.424C31.2247 8.626 29.6987 6.442 29.6987 4.3V2.242H28.7607ZM25.5967 1.724V2.704H32.6667V1.724H25.5967ZM34.3747 0.436V13.092H35.5367V0.436H34.3747ZM37.7756 6.316V7.198H49.2556V6.316H37.7756ZM39.1336 8.22V9.046H46.6797V10.124H39.1756V12.406H40.3236V10.922H47.8136V8.22H39.1336ZM39.1756 12.098V12.938H48.2196V12.098H39.1756ZM39.2316 0.8V1.626H46.6376V2.648H39.2596V4.804H40.4076V3.432H47.7716V0.8H39.2316ZM39.2596 4.524V5.364H48.0096V4.524H39.2596ZM60.2956 3.418V4.384H63.4876V3.418H60.2956ZM56.9776 1.206V2.76C56.9776 4.692 55.7036 6.484 53.8276 7.184L54.4296 8.108C56.5436 7.254 57.9156 5.21 57.9156 2.76V1.206H56.9776ZM57.2016 1.206V2.802C57.2016 5.056 58.5596 7.016 60.5756 7.8L61.2056 6.904C59.3716 6.232 58.1396 4.566 58.1396 2.802V1.206H57.2016ZM63.0536 0.449999V9.914H64.2156V0.449999H63.0536ZM56.0816 11.86V12.812H64.5236V11.86H56.0816ZM56.0816 8.864V12.308H57.2436V8.864H56.0816ZM66.9445 6.484V7.45H67.7565C69.7865 7.45 70.9905 7.394 72.4465 7.114L72.3345 6.162C70.9205 6.442 69.7445 6.484 67.7565 6.484H66.9445ZM66.9445 1.36V7.002H68.0645V2.312H71.8445V1.36H66.9445ZM67.7145 3.88V4.79H71.6905V3.88H67.7145ZM75.9605 0.436V8.108H77.0665V0.436H75.9605ZM73.9165 3.74V4.692H76.3105V3.74H73.9165ZM73.1745 0.674V8.038H74.2665V0.674H73.1745ZM68.5825 8.78V9.732H75.9185V13.092H77.0665V8.78H68.5825ZM78.9834 2.592V3.544H85.2554V2.592H78.9834ZM82.1194 4.384C80.5514 4.384 79.4034 5.574 79.4034 7.282C79.4034 8.976 80.5514 10.166 82.1194 10.166C83.7014 10.166 84.8494 8.976 84.8494 7.282C84.8494 5.574 83.7014 4.384 82.1194 4.384ZM82.1194 5.378C83.0994 5.378 83.8134 6.162 83.8134 7.282C83.8134 8.402 83.0994 9.186 82.1194 9.186C81.1534 9.186 80.4534 8.402 80.4534 7.282C80.4534 6.162 81.1534 5.378 82.1194 5.378ZM88.6014 0.436V13.092H89.7214V0.436H88.6014ZM86.5854 5.756V6.722H88.9794V5.756H86.5854ZM85.8994 0.715999V12.476H86.9914V0.715999H85.8994ZM81.5594 0.8V3.18H82.7074V0.8H81.5594ZM96.6784 1.682V2.214C96.6784 3.88 94.5084 5.336 92.2824 5.658L92.7304 6.582C95.2784 6.148 97.6864 4.482 97.6864 2.214V1.682H96.6784ZM96.9724 1.682V2.214C96.9724 4.482 99.3664 6.148 101.928 6.582L102.362 5.658C100.15 5.336 97.9664 3.88 97.9664 2.214V1.682H96.9724ZM96.7204 8.262V13.092H97.8684V8.262H96.7204ZM91.6104 7.646V8.598H103.048V7.646H91.6104ZM92.6744 1.22V2.158H101.942V1.22H92.6744ZM109.193 4.958V5.924H111.615V4.958H109.193ZM106.827 1.626V4.034C106.827 6.204 105.791 8.472 104.055 9.494L104.783 10.376C106.631 9.242 107.737 6.68 107.737 4.034V1.626H106.827ZM107.051 1.626V3.992C107.051 6.456 108.073 8.976 109.893 10.096L110.565 9.186C108.899 8.178 107.947 6.022 107.947 3.992V1.626H107.051ZM113.841 0.436V13.092H114.961V0.436H113.841ZM111.279 0.701999V12.462H112.371V0.701999H111.279ZM119.608 6.946V10.74H120.756V6.946H119.608ZM124.284 6.946V10.74H125.446V6.946H124.284ZM116.808 10.516V11.482H128.274V10.516H116.808ZM122.52 1.234C119.832 1.234 117.914 2.508 117.914 4.496C117.914 6.47 119.832 7.744 122.52 7.744C125.194 7.744 127.112 6.47 127.112 4.496C127.112 2.508 125.194 1.234 122.52 1.234ZM122.52 2.158C124.55 2.158 125.992 3.082 125.992 4.496C125.992 5.896 124.55 6.82 122.52 6.82C120.49 6.82 119.034 5.896 119.034 4.496C119.034 3.082 120.49 2.158 122.52 2.158Z" fill="url(#paint0_linear_421_749)" fill-opacity="0.6"/>
<defs>
<linearGradient id="paint0_linear_421_749" x1="137.497" y1="18.6891" x2="108.565" y2="-55.9511" gradientUnits="userSpaceOnUse">
<stop stop-color="#4255FE"/>
<stop offset="0.21875" stop-color="#394DFF"/>
<stop offset="0.583333" stop-color="#6E4FFD"/>
<stop offset="0.734375" stop-color="#8355FF"/>
</linearGradient>
</defs>
</svg>
