<svg width="201" height="21" viewBox="0 0 201 21" fill="none" xmlns="http://www.w3.org/2000/svg">
<path d="M0.662188 3H4.83406L9.24031 13.75H9.42781L13.8341 3H18.0059V19H14.7247V8.58594H14.5919L10.4513 18.9219H8.21688L4.07625 8.54687H3.94344V19H0.662188V3ZM20.353 19V3H26.7593C27.9364 3 28.9182 3.17448 29.7046 3.52344C30.4911 3.8724 31.0822 4.35677 31.478 4.97656C31.8739 5.59115 32.0718 6.29948 32.0718 7.10156C32.0718 7.72656 31.9468 8.27604 31.6968 8.75C31.4468 9.21875 31.103 9.60417 30.6655 9.90625C30.2333 10.2031 29.7385 10.4141 29.1812 10.5391V10.6953C29.7905 10.7214 30.3609 10.8932 30.8921 11.2109C31.4286 11.5286 31.8635 11.974 32.1968 12.5469C32.5301 13.1146 32.6968 13.7917 32.6968 14.5781C32.6968 15.4271 32.4859 16.1849 32.064 16.8516C31.6473 17.513 31.0301 18.0365 30.2124 18.4219C29.3947 18.8073 28.3869 19 27.189 19H20.353ZM23.7359 16.2344H26.4937C27.4364 16.2344 28.1239 16.0547 28.5562 15.6953C28.9885 15.3307 29.2046 14.8464 29.2046 14.2422C29.2046 13.7995 29.0978 13.4089 28.8843 13.0703C28.6708 12.7318 28.3661 12.4661 27.9702 12.2734C27.5796 12.0807 27.1135 11.9844 26.5718 11.9844H23.7359V16.2344ZM23.7359 9.69531H26.2437C26.7072 9.69531 27.1187 9.61458 27.478 9.45312C27.8426 9.28646 28.1291 9.05208 28.3374 8.75C28.551 8.44792 28.6577 8.08594 28.6577 7.66406C28.6577 7.08594 28.452 6.61979 28.0405 6.26562C27.6343 5.91146 27.0562 5.73437 26.3062 5.73437H23.7359V9.69531ZM33.8486 5.78906V3H46.9892V5.78906H42.0908V19H38.747V5.78906H33.8486ZM52.0961 3V19H48.7133V3H52.0961ZM58.5805 9.716V11.85H77.0385V9.716H58.5805ZM60.6485 12.862V14.842H71.9565V15.854H60.6925V19.44H63.5965V17.702H74.8385V12.862H60.6485ZM60.6925 18.824V20.804H75.4105V18.824H60.6925ZM60.8465 0.937999V2.896H71.9125V3.908H60.8685V7.406H63.7725V5.734H74.7945V0.937999H60.8465ZM60.8685 6.79V8.77H75.1685V6.79H60.8685ZM93.4366 4.92V7.274H98.1666V4.92H93.4366ZM87.6946 1.84V4.04C87.6946 6.922 86.2866 9.738 82.9206 10.86L84.4606 13.148C88.3106 11.74 90.0486 8.198 90.0486 4.04V1.84H87.6946ZM88.3326 1.84V4.062C88.3326 7.912 90.0046 11.322 93.6566 12.642L95.2186 10.398C92.0066 9.298 90.6646 6.68 90.6646 4.062V1.84H88.3326ZM97.1546 0.607999V15.634H100.081V0.607999H97.1546ZM86.5946 18.274V20.606H100.521V18.274H86.5946ZM86.5946 14.116V19.572H89.5426V14.116H86.5946ZM103.511 9.87V12.246H104.919C107.955 12.246 109.935 12.18 112.267 11.784L112.003 9.452C109.759 9.826 107.867 9.87 104.919 9.87H103.511ZM103.511 1.95V11.168H106.327V4.282H111.541V1.95H103.511ZM105.491 5.932V8.132H111.321V5.932H105.491ZM117.415 0.586V13.016H120.187V0.586H117.415ZM114.973 5.58V7.912H118.207V5.58H114.973ZM113.059 0.959999V12.884H115.787V0.959999H113.059ZM106.195 13.896V16.228H117.283V20.958H120.187V13.896H106.195ZM122.605 3.644V5.976H132.351V3.644H122.605ZM127.511 6.878C124.937 6.878 123.045 8.88 123.045 11.74C123.045 14.578 124.937 16.58 127.511 16.58C130.107 16.58 131.977 14.578 131.977 11.74C131.977 8.88 130.107 6.878 127.511 6.878ZM127.511 9.32C128.611 9.32 129.403 10.2 129.403 11.74C129.403 13.28 128.611 14.138 127.511 14.138C126.411 14.138 125.641 13.28 125.641 11.74C125.641 10.2 126.411 9.32 127.511 9.32ZM137.345 0.586V20.958H140.139V0.586H137.345ZM134.903 8.858V11.212H138.269V8.858H134.903ZM133.077 0.959999V20.1H135.805V0.959999H133.077ZM126.081 1.136V5.118H128.963V1.136H126.081ZM149.971 2.852V3.446C149.971 5.536 147.815 7.824 143.327 8.374L144.405 10.662C149.575 9.958 152.501 7.032 152.501 3.446V2.852H149.971ZM150.807 2.852V3.446C150.807 7.032 153.733 9.958 158.925 10.662L159.981 8.374C155.493 7.824 153.337 5.536 153.337 3.446V2.852H150.807ZM150.125 13.5V20.98H153.029V13.5H150.125ZM142.447 11.828V14.16H160.861V11.828H142.447ZM144.075 1.62V3.93H159.189V1.62H144.075ZM170.254 7.428V9.804H173.62V7.428H170.254ZM165.898 2.346V5.778C165.898 9.232 164.842 12.862 161.85 14.71L163.61 16.91C166.866 14.908 168.142 10.398 168.142 5.778V2.346H165.898ZM166.536 2.346V5.646C166.536 10.046 167.548 14.446 170.782 16.448L172.366 14.16C169.594 12.356 168.736 8.968 168.736 5.646V2.346H166.536ZM176.942 0.586V20.958H179.736V0.586H176.942ZM172.806 0.894V20.034H175.534V0.894H172.806ZM186.092 10.926V16.646H188.996V10.926H186.092ZM193.484 10.926V16.646H196.41V10.926H193.484ZM182.044 16.228V18.604H200.48V16.228H182.044ZM191.24 1.576C186.84 1.576 183.628 3.732 183.628 7.054C183.628 10.376 186.84 12.51 191.24 12.51C195.618 12.51 198.852 10.376 198.852 7.054C198.852 3.732 195.618 1.576 191.24 1.576ZM191.24 3.864C194.078 3.864 195.97 5.03 195.97 7.054C195.97 9.056 194.078 10.244 191.24 10.244C188.402 10.244 186.51 9.056 186.51 7.054C186.51 5.03 188.402 3.864 191.24 3.864Z" fill="url(#paint0_linear_421_748)"/>
<defs>
<linearGradient id="paint0_linear_421_748" x1="-9" y1="-5.32813" x2="53.1435" y2="111.073" gradientUnits="userSpaceOnUse">
<stop stop-color="#7373F6"/>
<stop offset="0.361458" stop-color="#8B70F7"/>
<stop offset="0.634552" stop-color="#956EF6"/>
<stop offset="1" stop-color="#A869F7"/>
</linearGradient>
</defs>
</svg>
