<svg width="92" height="33" viewBox="0 0 92 33" fill="none" xmlns="http://www.w3.org/2000/svg">
<rect x="5.13696" y="0.772461" width="80.8182" height="31.7273" rx="15.8636" fill="white" stroke="url(#paint0_linear_421_756)"/>
<path d="M33.4807 11.5453V22.4543H31.4885L26.7424 15.5882H26.6625V22.4543H24.3561V11.5453H26.3802L31.089 18.4061H31.1849V11.5453H33.4807ZM36.3701 21.1866C36.0185 21.1866 35.7167 21.0623 35.4645 20.8137C35.216 20.5651 35.0917 20.2633 35.0917 19.9082C35.0917 19.5602 35.216 19.2619 35.4645 19.0133C35.7167 18.7647 36.0185 18.6404 36.3701 18.6404C36.711 18.6404 37.0093 18.7647 37.265 19.0133C37.5207 19.2619 37.6485 19.5602 37.6485 19.9082C37.6485 20.1426 37.5881 20.3574 37.4674 20.5527C37.3502 20.7445 37.1957 20.8989 37.004 21.0161C36.8122 21.1298 36.6009 21.1866 36.3701 21.1866ZM36.3701 15.8333C36.0185 15.8333 35.7167 15.709 35.4645 15.4604C35.216 15.2118 35.0917 14.91 35.0917 14.5548C35.0917 14.2068 35.216 13.9103 35.4645 13.6653C35.7167 13.4167 36.0185 13.2924 36.3701 13.2924C36.711 13.2924 37.0093 13.4167 37.265 13.6653C37.5207 13.9103 37.6485 14.2068 37.6485 14.5548C37.6485 14.7928 37.5881 15.0094 37.4674 15.2047C37.3502 15.3965 37.1957 15.5492 37.004 15.6628C36.8122 15.7764 36.6009 15.8333 36.3701 15.8333ZM45.4527 11.3243V12.1943C45.4527 13.9343 44.4477 15.7493 42.1377 16.4993L43.1577 18.0443C45.8277 17.1893 47.1027 14.8193 47.1027 12.1943V11.3243H45.4527ZM45.8577 11.3243V12.1943C45.8577 14.6993 47.1177 16.9793 49.7277 17.8043L50.7477 16.2593C48.4827 15.5393 47.4927 13.8443 47.4927 12.1943V11.3243H45.8577ZM51.6177 9.89935V18.2693H53.6277V9.89935H51.6177ZM44.1477 18.8843V20.4743H51.6177V23.7893H53.6277V18.8843H44.1477ZM42.6627 10.7093V12.2843H50.2227V10.7093H42.6627ZM56.1915 10.9043V12.5093H62.1315V10.9043H56.1915ZM57.9015 14.1443V17.6243H59.8815V14.1443H57.9015ZM61.3515 10.9043V11.7743C61.3515 12.7343 61.3515 13.9343 61.0515 15.6443L62.9865 15.8543C63.3165 14.1293 63.3165 12.7493 63.3165 11.7743V10.9043H61.3515ZM64.6665 9.89935V20.2943H66.6765V9.89935H64.6665ZM65.8815 14.1293V15.7643H68.3265V14.1293H65.8815ZM57.4065 21.9593V23.5493H67.1115V21.9593H57.4065ZM57.4065 19.3643V22.4543H59.4015V19.3643H57.4065ZM55.5615 18.4343C57.9465 18.4343 61.1715 18.3743 64.0365 17.8343L63.9165 16.4243C61.1265 16.8143 57.7815 16.8593 55.3815 16.8593L55.5615 18.4343Z" fill="#37375B"/>
<defs>
<linearGradient id="paint0_linear_421_756" x1="4.63696" y1="19.7395" x2="61.8179" y2="-17.7942" gradientUnits="userSpaceOnUse">
<stop stop-color="#7373F6"/>
<stop offset="0.361458" stop-color="#8B70F7"/>
<stop offset="0.634552" stop-color="#956EF6"/>
<stop offset="1" stop-color="#A869F7"/>
</linearGradient>
</defs>
</svg>
