<svg width="92" height="33" viewBox="0 0 92 33" fill="none" xmlns="http://www.w3.org/2000/svg">
<rect x="4.86353" y="0.772461" width="80.8182" height="31.7273" rx="15.8636" fill="white" stroke="url(#paint0_linear_421_765)"/>
<path d="M24.7418 22.4543V11.5453H29.0458C29.8732 11.5453 30.5781 11.7033 31.1605 12.0193C31.7429 12.3318 32.1868 12.7668 32.4922 13.3244C32.8011 13.8784 32.9556 14.5176 32.9556 15.242C32.9556 15.9664 32.7994 16.6056 32.4869 17.1596C32.1744 17.7136 31.7216 18.145 31.1285 18.454C30.5391 18.7629 29.8253 18.9174 28.9872 18.9174H26.244V17.069H28.6143C29.0582 17.069 29.424 16.9927 29.7116 16.84C30.0028 16.6837 30.2195 16.4689 30.3615 16.1955C30.5071 15.9185 30.5799 15.6007 30.5799 15.242C30.5799 14.8798 30.5071 14.5637 30.3615 14.2938C30.2195 14.0204 30.0028 13.8091 29.7116 13.66C29.4204 13.5073 29.0511 13.4309 28.6037 13.4309H27.0483V22.4543H24.7418ZM35.4375 21.1866C35.0859 21.1866 34.7841 21.0623 34.5319 20.8137C34.2834 20.5651 34.1591 20.2633 34.1591 19.9082C34.1591 19.5602 34.2834 19.2619 34.5319 19.0133C34.7841 18.7647 35.0859 18.6404 35.4375 18.6404C35.7784 18.6404 36.0767 18.7647 36.3324 19.0133C36.588 19.2619 36.7159 19.5602 36.7159 19.9082C36.7159 20.1426 36.6555 20.3574 36.5348 20.5527C36.4176 20.7445 36.2631 20.8989 36.0713 21.0161C35.8796 21.1298 35.6683 21.1866 35.4375 21.1866ZM35.4375 15.8333C35.0859 15.8333 34.7841 15.709 34.5319 15.4604C34.2834 15.2118 34.1591 14.91 34.1591 14.5548C34.1591 14.2068 34.2834 13.9103 34.5319 13.6653C34.7841 13.4167 35.0859 13.2924 35.4375 13.2924C35.7784 13.2924 36.0767 13.4167 36.3324 13.6653C36.588 13.9103 36.7159 14.2068 36.7159 14.5548C36.7159 14.7928 36.6555 15.0094 36.5348 15.2047C36.4176 15.3965 36.2631 15.5492 36.0713 15.6628C35.8796 15.7764 35.6683 15.8333 35.4375 15.8333ZM50.685 9.91435V19.8893H52.695V9.91435H50.685ZM43.44 21.9593V23.5493H53.04V21.9593H43.44ZM43.44 18.8843V22.6043H45.435V18.8843H43.44ZM45.135 10.7843C43.005 10.7843 41.355 12.2543 41.355 14.3093C41.355 16.3493 43.005 17.8343 45.135 17.8343C47.265 17.8343 48.9 16.3493 48.9 14.3093C48.9 12.2543 47.265 10.7843 45.135 10.7843ZM45.135 12.5093C46.155 12.5093 46.95 13.1693 46.95 14.3093C46.95 15.4343 46.155 16.0943 45.135 16.0943C44.1 16.0943 43.305 15.4343 43.305 14.3093C43.305 13.1693 44.1 12.5093 45.135 12.5093ZM57.8989 10.5293V11.8643C57.8989 13.6193 56.9239 15.4193 54.5839 16.1693L55.5589 17.7443C58.2739 16.8743 59.5489 14.4893 59.5489 11.8643V10.5293H57.8989ZM58.3039 10.5293V11.8643C58.3039 14.4443 59.5339 16.6643 62.1889 17.5043L63.1639 15.9443C60.8989 15.2543 59.9389 13.5743 59.9389 11.8643V10.5293H58.3039ZM56.7139 18.7943V20.3843H64.1839V23.7893H66.1939V18.7943H56.7139ZM64.1839 9.89935V18.1793H66.1939V9.89935H64.1839Z" fill="#37375B"/>
<defs>
<linearGradient id="paint0_linear_421_765" x1="4.36352" y1="19.7395" x2="61.5444" y2="-17.7942" gradientUnits="userSpaceOnUse">
<stop stop-color="#7373F6"/>
<stop offset="0.361458" stop-color="#8B70F7"/>
<stop offset="0.634552" stop-color="#956EF6"/>
<stop offset="1" stop-color="#A869F7"/>
</linearGradient>
</defs>
</svg>
