<svg width="92" height="33" viewBox="0 0 92 33" fill="none" xmlns="http://www.w3.org/2000/svg">
<rect x="5.5" y="0.5" width="80.8182" height="31.7273" rx="15.8636" stroke="url(#paint0_linear_421_771)"/>
<path d="M30.6012 14.2283C30.5586 13.7987 30.3757 13.4648 30.0525 13.2269C29.7294 12.989 29.2908 12.87 28.7369 12.87C28.3604 12.87 28.0426 12.9233 27.7834 13.0298C27.5241 13.1328 27.3253 13.2766 27.1868 13.4613C27.0518 13.646 26.9844 13.8555 26.9844 14.0898C26.9773 14.2852 27.0181 14.4556 27.1069 14.6012C27.1992 14.7468 27.3253 14.8729 27.4851 14.9794C27.6449 15.0824 27.8295 15.1729 28.0391 15.2511C28.2486 15.3256 28.4723 15.3896 28.7102 15.4428L29.6903 15.6772C30.1662 15.7837 30.603 15.9258 31.0007 16.1033C31.3984 16.2809 31.7429 16.4993 32.0341 16.7585C32.3253 17.0178 32.5508 17.3232 32.7106 17.6747C32.8739 18.0263 32.9574 18.4293 32.9609 18.8839C32.9574 19.5515 32.7869 20.1303 32.4496 20.6204C32.1158 21.1069 31.6328 21.4851 31.0007 21.755C30.3721 22.0213 29.614 22.1545 28.7262 22.1545C27.8455 22.1545 27.0785 22.0195 26.4251 21.7496C25.7752 21.4798 25.2674 21.0803 24.9016 20.5511C24.5394 20.0185 24.3494 19.3597 24.3317 18.5749H26.5636C26.5884 18.9407 26.6932 19.2461 26.8778 19.4911C27.066 19.7326 27.3164 19.9155 27.6289 20.0398C27.9449 20.1605 28.3018 20.2209 28.6996 20.2209C29.0902 20.2209 29.4293 20.1641 29.717 20.0504C30.0082 19.9368 30.2337 19.7788 30.3935 19.5763C30.5533 19.3739 30.6332 19.1413 30.6332 18.8786C30.6332 18.6335 30.5604 18.4276 30.4148 18.2607C30.2727 18.0937 30.0632 17.9517 29.7862 17.8345C29.5128 17.7173 29.1772 17.6108 28.7795 17.5149L27.5916 17.2166C26.6719 16.9929 25.9457 16.6431 25.413 16.1673C24.8803 15.6914 24.6158 15.0504 24.6193 14.2443C24.6158 13.5838 24.7915 13.0067 25.1467 12.5131C25.5053 12.0195 25.9971 11.6342 26.6221 11.3572C27.2471 11.0803 27.9574 10.9418 28.7528 10.9418C29.5625 10.9418 30.2692 11.0803 30.8729 11.3572C31.4801 11.6342 31.9524 12.0195 32.2898 12.5131C32.6271 13.0067 32.8011 13.5785 32.8118 14.2283H30.6012ZM35.4961 20.7322C35.1445 20.7322 34.8427 20.608 34.5905 20.3594C34.3419 20.1108 34.2177 19.8089 34.2177 19.4538C34.2177 19.1058 34.3419 18.8075 34.5905 18.5589C34.8427 18.3104 35.1445 18.1861 35.4961 18.1861C35.837 18.1861 36.1353 18.3104 36.391 18.5589C36.6466 18.8075 36.7745 19.1058 36.7745 19.4538C36.7745 19.6882 36.7141 19.9031 36.5934 20.0984C36.4762 20.2901 36.3217 20.4446 36.1299 20.5618C35.9382 20.6754 35.7269 20.7322 35.4961 20.7322ZM35.4961 15.3789C35.1445 15.3789 34.8427 15.2546 34.5905 15.006C34.3419 14.7575 34.2177 14.4556 34.2177 14.1005C34.2177 13.7525 34.3419 13.456 34.5905 13.2109C34.8427 12.9624 35.1445 12.8381 35.4961 12.8381C35.837 12.8381 36.1353 12.9624 36.391 13.2109C36.6466 13.456 36.7745 13.7525 36.7745 14.1005C36.7745 14.3384 36.7141 14.555 36.5934 14.7504C36.4762 14.9421 36.3217 15.0948 36.1299 15.2085C35.9382 15.3221 35.7269 15.3789 35.4961 15.3789ZM50.1436 9.445V17.185H52.1386V9.445H50.1436ZM51.5836 12.46V14.095H53.9836V12.46H51.5836ZM46.1536 10.24V11.23C46.1536 13.315 44.4586 15.085 41.0536 15.94L41.8336 17.515C45.9736 16.435 48.2836 13.93 48.2836 10.24H46.1536ZM41.7136 10.24V11.815H47.3536V10.24H41.7136ZM43.1236 17.74V23.185H52.1386V17.74H43.1236ZM50.1736 19.315V21.61H45.0886V19.315H50.1736ZM63.6425 9.445V17.5H65.6375V9.445H63.6425ZM65.0825 12.67V14.32H67.4825V12.67H65.0825ZM59.6525 10.225V11.215C59.6525 13.315 57.9425 15.1 54.5225 15.97L55.3325 17.5C59.4575 16.435 61.7675 13.93 61.7675 10.225H59.6525ZM55.2125 10.225V11.8H60.8525V10.225H55.2125ZM56.3675 18.085V19.66H63.6425V23.335H65.6375V18.085H56.3675Z" fill="#37375B"/>
<defs>
<linearGradient id="paint0_linear_421_771" x1="5" y1="19.4671" x2="62.1809" y2="-18.0667" gradientUnits="userSpaceOnUse">
<stop stop-color="#7373F6"/>
<stop offset="0.361458" stop-color="#8B70F7"/>
<stop offset="0.634552" stop-color="#956EF6"/>
<stop offset="1" stop-color="#A869F7"/>
</linearGradient>
</defs>
</svg>
