<svg width="93" height="33" viewBox="0 0 93 33" fill="none" xmlns="http://www.w3.org/2000/svg">
<rect x="7.50049" y="0.5" width="80.8182" height="31.7273" rx="15.8636" stroke="url(#paint0_linear_421_759)"/>
<path d="M24.9279 12.9925V11.0909H33.8874V12.9925H30.5476V22H28.2677V12.9925H24.9279ZM35.7461 20.7322C35.3945 20.7322 35.0927 20.608 34.8405 20.3594C34.5919 20.1108 34.4677 19.8089 34.4677 19.4538C34.4677 19.1058 34.5919 18.8075 34.8405 18.5589C35.0927 18.3104 35.3945 18.1861 35.7461 18.1861C36.087 18.1861 36.3853 18.3104 36.641 18.5589C36.8966 18.8075 37.0245 19.1058 37.0245 19.4538C37.0245 19.6882 36.9641 19.9031 36.8434 20.0984C36.7262 20.2901 36.5717 20.4446 36.3799 20.5618C36.1882 20.6754 35.9769 20.7322 35.7461 20.7322ZM35.7461 15.3789C35.3945 15.3789 35.0927 15.2546 34.8405 15.006C34.5919 14.7575 34.4677 14.4556 34.4677 14.1005C34.4677 13.7525 34.5919 13.456 34.8405 13.2109C35.0927 12.9624 35.3945 12.8381 35.7461 12.8381C36.087 12.8381 36.3853 12.9624 36.641 13.2109C36.8966 13.456 37.0245 13.7525 37.0245 14.1005C37.0245 14.3384 36.9641 14.555 36.8434 14.7504C36.7262 14.9421 36.5717 15.0948 36.3799 15.2085C36.1882 15.3221 35.9769 15.3789 35.7461 15.3789ZM44.5736 10.51V12.535C44.5736 15.115 43.5086 17.785 41.1686 18.88L42.3686 20.485C44.9936 19.195 46.1936 15.97 46.1936 12.535V10.51H44.5736ZM44.9786 10.51V12.535C44.9786 15.865 46.0736 18.955 48.5786 20.23L49.7786 18.64C47.5586 17.56 46.5686 15.025 46.5686 12.535V10.51H44.9786ZM50.3336 9.445V23.335H52.3436V9.445H50.3336ZM51.8936 14.785V16.45H54.3536V14.785H51.8936ZM56.2425 10.615V12.22H65.0475V10.615H56.2425ZM54.9675 20.05V21.67H67.5225V20.05H54.9675ZM59.4075 15.28V20.845H61.4025V15.28H59.4075ZM64.3275 10.615V11.95C64.3275 13.615 64.3275 15.625 63.7725 18.385L65.7675 18.61C66.3225 15.64 66.3225 13.69 66.3225 11.95V10.615H64.3275Z" fill="#37375B"/>
<defs>
<linearGradient id="paint0_linear_421_759" x1="7.00049" y1="19.4671" x2="64.1814" y2="-18.0667" gradientUnits="userSpaceOnUse">
<stop stop-color="#7373F6"/>
<stop offset="0.361458" stop-color="#8B70F7"/>
<stop offset="0.634552" stop-color="#956EF6"/>
<stop offset="1" stop-color="#A869F7"/>
</linearGradient>
</defs>
</svg>
