<svg width="43" height="43" viewBox="0 0 43 43" fill="none" xmlns="http://www.w3.org/2000/svg">
<g filter="url(#filter0_d_527_224)">
<path d="M21.5 4C14.0345 4 8 10.0345 8 17.5C8 24.9655 14.0345 31 21.5 31C28.9655 31 35 24.9655 35 17.5C35 10.0345 28.9655 4 21.5 4ZM25.685 10.8445C25.874 10.8445 26.063 10.912 26.225 11.0605L27.9395 12.775C28.25 13.072 28.25 13.5445 27.9395 13.828L26.5895 15.178L23.822 12.4105L25.172 11.0605C25.307 10.912 25.496 10.8445 25.685 10.8445ZM23.0255 13.1935L25.8065 15.9745L17.6255 24.1555H14.8445V21.3745L23.0255 13.1935Z" fill="url(#paint0_linear_527_224)"/>
</g>
<defs>
<filter id="filter0_d_527_224" x="0" y="0" width="43" height="43" filterUnits="userSpaceOnUse" color-interpolation-filters="sRGB">
<feFlood flood-opacity="0" result="BackgroundImageFix"/>
<feColorMatrix in="SourceAlpha" type="matrix" values="0 0 0 0 0 0 0 0 0 0 0 0 0 0 0 0 0 0 127 0" result="hardAlpha"/>
<feOffset dy="4"/>
<feGaussianBlur stdDeviation="4"/>
<feComposite in2="hardAlpha" operator="out"/>
<feColorMatrix type="matrix" values="0 0 0 0 0.12549 0 0 0 0 0.129412 0 0 0 0 0.141176 0 0 0 0.5 0"/>
<feBlend mode="normal" in2="BackgroundImageFix" result="effect1_dropShadow_527_224"/>
<feBlend mode="normal" in="SourceGraphic" in2="effect1_dropShadow_527_224" result="shape"/>
</filter>
<linearGradient id="paint0_linear_527_224" x1="21.5" y1="4" x2="21.5" y2="31" gradientUnits="userSpaceOnUse">
<stop stop-color="#5B5AF3"/>
<stop offset="0.260417" stop-color="#5B59F3"/>
<stop offset="0.557292" stop-color="#835CF0"/>
<stop offset="1" stop-color="#B567DB"/>
</linearGradient>
</defs>
</svg>
