<svg width="42" height="42" viewBox="0 0 42 42" fill="none" xmlns="http://www.w3.org/2000/svg">
<circle cx="21" cy="21" r="20.5" fill="#2E323E" stroke="url(#paint0_linear_215_1001)"/>
<mask id="path-2-outside-1_215_1001" maskUnits="userSpaceOnUse" x="19.9648" y="18.3863" width="8.48471" height="8.48471" fill="black">
<rect fill="white" x="19.9648" y="18.3863" width="8.48471" height="8.48471"/>
<path fill-rule="evenodd" clip-rule="evenodd" d="M22.0346 23.2668L23.8095 25.0835L25.1517 23.7722L25.151 23.7716L25.7001 23.2351C26.0622 22.8813 26.069 22.301 25.7152 21.9389C25.3615 21.5767 24.7811 21.57 24.419 21.9238L23.8699 22.4603L23.3768 21.9555C23.0147 21.5849 22.4207 21.5779 22.05 21.9401C21.6794 22.3022 21.6725 22.8962 22.0346 23.2668Z"/>
</mask>
<path d="M23.8095 25.0835L23.0942 25.7824L23.793 26.4977L24.5083 25.7988L23.8095 25.0835ZM22.0346 23.2668L22.7499 22.568L22.0346 23.2668ZM25.1517 23.7722L25.8505 24.4875L26.5658 23.7887L25.867 23.0734L25.1517 23.7722ZM25.151 23.7716L24.4522 23.0563L23.7369 23.7551L24.4357 24.4704L25.151 23.7716ZM23.8699 22.4603L23.1546 23.1591L23.8534 23.8744L24.5687 23.1756L23.8699 22.4603ZM23.3768 21.9555L24.0921 21.2567L24.0921 21.2567L23.3768 21.9555ZM22.05 21.9401L22.7488 22.6553L22.05 21.9401ZM24.5248 24.3847L22.7499 22.568L21.3193 23.9656L23.0942 25.7824L24.5248 24.3847ZM24.4528 23.0569L23.1106 24.3682L24.5083 25.7988L25.8505 24.4875L24.4528 23.0569ZM24.4357 24.4704L24.4364 24.4711L25.867 23.0734L25.8663 23.0727L24.4357 24.4704ZM25.0013 22.5198L24.4522 23.0563L25.8498 24.4869L26.399 23.9503L25.0013 22.5198ZM24.9999 22.6377C24.9678 22.6047 24.9684 22.5519 25.0013 22.5198L26.399 23.9503C27.1561 23.2106 27.1703 21.9972 26.4305 21.24L24.9999 22.6377ZM25.1179 22.6391C25.0849 22.6712 25.0321 22.6706 24.9999 22.6377L26.4305 21.24C25.6908 20.4829 24.4774 20.4687 23.7202 21.2085L25.1179 22.6391ZM24.5687 23.1756L25.1179 22.6391L23.7202 21.2085L23.1711 21.745L24.5687 23.1756ZM22.6615 22.6543L23.1546 23.1591L24.5852 21.7614L24.0921 21.2567L22.6615 22.6543ZM22.7488 22.6553C22.7244 22.6792 22.6853 22.6787 22.6615 22.6543L24.0921 21.2567C23.344 20.491 22.1169 20.4767 21.3512 21.2248L22.7488 22.6553ZM22.7499 22.568C22.7737 22.5924 22.7732 22.6315 22.7488 22.6553L21.3512 21.2248C20.5855 21.9728 20.5712 23.1999 21.3193 23.9656L22.7499 22.568Z" fill="url(#paint1_linear_215_1001)" mask="url(#path-2-outside-1_215_1001)"/>
<path d="M23.8665 19.0216V16.6602C23.8665 16.1079 23.4187 15.6602 22.8665 15.6602H13.1016C12.5493 15.6602 12.1016 16.1079 12.1016 16.6602V22.2233C12.1016 22.7756 12.5493 23.2233 13.1016 23.2233H13.2966C13.7969 23.2233 14.2024 23.6289 14.2024 24.1292V24.1292C14.2024 24.8366 14.977 25.271 15.5807 24.9021L17.984 23.4334M25.1919 27.4717L26.4184 28.6164C26.9728 29.1338 27.8702 28.6709 27.77 27.9192V27.9192C27.7054 27.4351 28.082 27.0049 28.5705 27.0049H28.959C29.5113 27.0049 29.959 26.5572 29.959 26.0049V20.2316C29.959 19.6794 29.5113 19.2316 28.959 19.2316H19.1941C18.6418 19.2316 18.1941 19.6794 18.1941 20.2316V26.0356C18.1941 26.5758 18.623 27.0183 19.1629 27.0352L24.5409 27.2032C24.7833 27.2108 25.0146 27.3062 25.1919 27.4717Z" stroke="url(#paint2_linear_215_1001)" stroke-linecap="round"/>
<defs>
<linearGradient id="paint0_linear_215_1001" x1="21" y1="0" x2="21" y2="42" gradientUnits="userSpaceOnUse">
<stop stop-color="#BF55F7"/>
<stop offset="0.21875" stop-color="#764FDB"/>
<stop offset="0.479167" stop-color="#8B69F1"/>
<stop offset="1" stop-color="#734FDA"/>
</linearGradient>
<linearGradient id="paint1_linear_215_1001" x1="22.6524" y1="21.3516" x2="25.0829" y2="23.8394" gradientUnits="userSpaceOnUse">
<stop stop-color="#A965E1"/>
<stop offset="0.354167" stop-color="#805CF1"/>
<stop offset="0.703125" stop-color="#6E5BF2"/>
<stop offset="1" stop-color="#585AF2"/>
</linearGradient>
<linearGradient id="paint2_linear_215_1001" x1="21.0303" y1="15.6602" x2="21.0303" y2="30.1562" gradientUnits="userSpaceOnUse">
<stop stop-color="#8C72F7"/>
<stop offset="0.380208" stop-color="#9D64F7"/>
<stop offset="0.645833" stop-color="#AE56F4"/>
<stop offset="1" stop-color="#C14CF4"/>
</linearGradient>
</defs>
</svg>
