<svg width="22" height="22" viewBox="0 0 22 22" fill="none" xmlns="http://www.w3.org/2000/svg">
<path d="M11 0C4.928 0 0 4.928 0 11C0 17.072 4.928 22 11 22C17.072 22 22 17.072 22 11C22 4.928 17.072 0 11 0ZM11 19.8C6.149 19.8 2.2 15.851 2.2 11C2.2 6.149 6.149 2.2 11 2.2C15.851 2.2 19.8 6.149 19.8 11C19.8 15.851 15.851 19.8 11 19.8ZM15.268 6.919L8.8 13.387L6.732 11.319C6.52632 11.1133 6.24737 10.9978 5.9565 10.9978C5.66563 10.9978 5.38668 11.1133 5.181 11.319C4.97532 11.5247 4.85978 11.8036 4.85978 12.0945C4.85978 12.3854 4.97532 12.6643 5.181 12.87L8.03 15.719C8.459 16.148 9.152 16.148 9.581 15.719L16.83 8.47C16.932 8.36823 17.0129 8.24736 17.0681 8.11429C17.1233 7.98122 17.1517 7.83857 17.1517 7.6945C17.1517 7.55043 17.1233 7.40778 17.0681 7.27471C17.0129 7.14164 16.932 7.02077 16.83 6.919C16.401 6.49 15.697 6.49 15.268 6.919Z" fill="#DFE5F1"/>
</svg>
