<svg width="21" height="16" viewBox="0 0 21 16" fill="none" xmlns="http://www.w3.org/2000/svg">
<path d="M9.44283 15.0684C9.44283 15.0684 8.18146 15.0684 8.18146 13.8771C8.18146 12.6858 9.44283 9.11196 14.4883 9.11196C19.5337 9.11196 20.7951 12.6858 20.7951 13.8771C20.7951 15.0684 19.5337 15.0684 19.5337 15.0684H9.44283ZM14.4883 7.92068C15.4919 7.92068 16.4544 7.54415 17.164 6.87392C17.8737 6.20369 18.2724 5.29466 18.2724 4.34681C18.2724 3.39897 17.8737 2.48994 17.164 1.81971C16.4544 1.14948 15.4919 0.772949 14.4883 0.772949C13.4847 0.772949 12.5222 1.14948 11.8125 1.81971C11.1029 2.48994 10.7042 3.39897 10.7042 4.34681C10.7042 5.29466 11.1029 6.20369 11.8125 6.87392C12.5222 7.54415 13.4847 7.92068 14.4883 7.92068ZM7.19255 15.0684C7.00556 14.6965 6.91231 14.2888 6.9201 13.8771C6.9201 12.2629 7.77783 10.6011 9.3621 9.44552C8.57134 9.21541 7.74749 9.10288 6.9201 9.11196C1.87464 9.11196 0.613281 12.6858 0.613281 13.8771C0.613281 15.0684 1.87464 15.0684 1.87464 15.0684H7.19255ZM6.28942 7.92068C7.12575 7.92068 7.92783 7.6069 8.51921 7.04838C9.11059 6.48985 9.44283 5.73233 9.44283 4.94246C9.44283 4.15258 9.11059 3.39506 8.51921 2.83654C7.92783 2.27801 7.12575 1.96424 6.28942 1.96424C5.45308 1.96424 4.651 2.27801 4.05962 2.83654C3.46824 3.39506 3.13601 4.15258 3.13601 4.94246C3.13601 5.73233 3.46824 6.48985 4.05962 7.04838C4.651 7.6069 5.45308 7.92068 6.28942 7.92068Z" fill="url(#paint0_linear_541_297)"/>
<defs>
<linearGradient id="paint0_linear_541_297" x1="0.613281" y1="9.27628" x2="18.3571" y2="2.69909" gradientUnits="userSpaceOnUse">
<stop stop-color="#7373F6"/>
<stop offset="0.361458" stop-color="#8B70F7"/>
<stop offset="0.634552" stop-color="#956EF6"/>
<stop offset="1" stop-color="#A869F7"/>
</linearGradient>
</defs>
</svg>
