<svg width="163" height="47" viewBox="0 0 163 47" fill="none" xmlns="http://www.w3.org/2000/svg">
<rect x="0.820312" width="161.821" height="46.7483" rx="9.74575" fill="url(#paint0_linear_522_2222)"/>
<path d="M70.4275 21.4106V23.7724H71.8584V21.4106H70.4275ZM71.0999 15.6527C68.8588 15.6527 67.2728 16.894 67.2728 18.7386C67.2728 20.5832 68.8588 21.8071 71.0999 21.8071C73.3582 21.8071 74.9442 20.5832 74.9442 18.7386C74.9442 16.894 73.3582 15.6527 71.0999 15.6527ZM71.0999 16.7561C72.5824 16.7561 73.5996 17.5663 73.5996 18.7386C73.5996 19.9281 72.5824 20.7211 71.0999 20.7211C69.6345 20.7211 68.6174 19.9281 68.6174 18.7386C68.6174 17.5663 69.6345 16.7561 71.0999 16.7561ZM77.0474 14.9632V26.8755H78.4783V14.9632H77.0474ZM77.8749 20.2211V21.4106H80.7538V20.2211H77.8749ZM68.6174 28.9959V30.1854H79.0299V28.9959H68.6174ZM68.6174 25.8584V29.5131H70.0483V25.8584H68.6174ZM66.5659 24.5654C69.238 24.5654 72.9272 24.531 76.1854 23.9276L76.082 22.876C72.91 23.3587 69.1174 23.3932 66.3763 23.3932L66.5659 24.5654ZM85.8553 24.0827V27.9098H87.2689V24.0827H85.8553ZM90.8375 24.0483V27.8926H92.2338V24.0483H90.8375ZM81.9248 27.4271V28.6167H96.0437V27.4271H81.9248ZM83.6314 16.101V17.256H92.8889V19.6695H83.6832V23.9448H85.0968V20.8073H94.3025V16.101H83.6314ZM83.6832 23.307V24.4792H94.6646V23.307H83.6832Z" fill="#37375B"/>
<defs>
<linearGradient id="paint0_linear_522_2222" x1="46.0351" y1="-4.48167e-07" x2="51.0229" y2="47.8403" gradientUnits="userSpaceOnUse">
<stop stop-color="#7373F6"/>
<stop offset="0.361458" stop-color="#8B70F7"/>
<stop offset="0.634552" stop-color="#956EF6"/>
<stop offset="1" stop-color="#A869F7"/>
</linearGradient>
</defs>
</svg>
