<svg width="421" height="352" viewBox="0 0 421 352" fill="none" xmlns="http://www.w3.org/2000/svg">
<g filter="url(#filter0_d_1582_12992)">
<rect x="21" y="17" width="379" height="310" rx="20" fill="white"/>
<path d="M105.082 206.36H107.222V207.04C107.222 210.22 105.562 213.02 102.022 214L100.782 211.94C103.782 211.12 105.082 209.08 105.082 207.04V206.36ZM105.582 206.36H107.742V207.04C107.742 208.92 109.022 210.84 112.002 211.62L110.802 213.7C107.242 212.76 105.582 210.06 105.582 207.04V206.36ZM101.442 205.1H111.382V207.18H101.442V205.1ZM105.082 203.2H107.742V206H105.082V203.2ZM112.842 203.26H115.502V214.1H112.842V203.26ZM114.762 207.58H117.962V209.76H114.762V207.58ZM103.462 214.88H115.502V221.58H103.462V214.88ZM112.902 216.96H106.082V219.48H112.902V216.96ZM130.753 203.24H133.433V221.76H130.753V203.24ZM132.733 210.32H135.993V212.5H132.733V210.32ZM125.893 205.16H128.493C128.493 210.72 126.373 215.48 120.213 218.58L118.733 216.56C123.593 214.04 125.893 210.64 125.893 205.62V205.16ZM119.753 205.16H127.253V207.3H119.753V205.16ZM154.176 203.28H156.856V216.78H154.176V203.28ZM144.516 219.34H157.316V221.46H144.516V219.34ZM144.516 215.48H147.176V220.44H144.516V215.48ZM145.796 204.28H147.996V206.08C147.996 209.7 146.336 213.04 142.736 214.3L141.396 212.18C144.496 211.12 145.796 208.54 145.796 206.08V204.28ZM146.336 204.28H148.516V206.08C148.516 208.5 149.776 210.88 152.816 211.86L151.456 213.98C147.956 212.8 146.336 209.66 146.336 206.08V204.28ZM163.607 206.5H165.747V207.18C165.747 210.4 164.107 213.3 160.567 214.32L159.327 212.24C162.307 211.4 163.607 209.28 163.607 207.18V206.5ZM164.107 206.5H166.267V207.18C166.267 209.08 167.587 211.02 170.567 211.8L169.367 213.86C165.807 212.92 164.107 210.22 164.107 207.18V206.5ZM159.967 205.18H169.907V207.26H159.967V205.18ZM163.607 203.2H166.267V206H163.607V203.2ZM169.387 208.2H172.927V210.34H169.387V208.2ZM172.287 203.26H174.947V214.44H172.287V203.26ZM168.667 214.76C172.587 214.76 175.007 216.04 175.007 218.26C175.007 220.48 172.587 221.78 168.667 221.78C164.747 221.78 162.327 220.48 162.327 218.26C162.327 216.04 164.747 214.76 168.667 214.76ZM168.667 216.78C166.247 216.78 164.987 217.26 164.987 218.26C164.987 219.26 166.247 219.76 168.667 219.76C171.107 219.76 172.367 219.26 172.367 218.26C172.367 217.26 171.107 216.78 168.667 216.78ZM190.137 203.24H192.817V221.82H190.137V203.24ZM182.837 204.54C185.637 204.54 187.697 207.1 187.697 211.14C187.697 215.22 185.637 217.78 182.837 217.78C180.037 217.78 177.977 215.22 177.977 211.14C177.977 207.1 180.037 204.54 182.837 204.54ZM182.837 206.96C181.457 206.96 180.517 208.42 180.517 211.14C180.517 213.9 181.457 215.38 182.837 215.38C184.217 215.38 185.137 213.9 185.137 211.14C185.137 208.42 184.217 206.96 182.837 206.96ZM204.201 210.76H206.861V213.56H204.201V210.76ZM205.501 204C208.181 204 210.121 205.54 210.121 207.78C210.121 209.98 208.181 211.52 205.501 211.52C202.821 211.52 200.881 209.98 200.881 207.78C200.881 205.54 202.821 204 205.501 204ZM205.501 206C204.241 206 203.361 206.64 203.361 207.78C203.361 208.9 204.241 209.54 205.501 209.54C206.781 209.54 207.641 208.9 207.641 207.78C207.641 206.64 206.781 206 205.501 206ZM212.021 203.28H214.681V217.4H212.021V203.28ZM213.741 209.08H217.001V211.26H213.741V209.08ZM202.321 219.32H215.301V221.46H202.321V219.32ZM202.321 216.18H205.001V220.24H202.321V216.18ZM200.221 215L199.921 212.88C203.061 212.88 207.401 212.86 211.041 212.34L211.221 214.24C207.481 214.94 203.281 215 200.221 215ZM222.231 214.06H224.831V218.42H222.231V214.06ZM228.091 214.04H230.691V218.42H228.091V214.04ZM217.991 217.58H234.751V219.74H217.991V217.58ZM219.871 204.46H232.871V210.6H222.551V213.74H219.911V208.52H230.231V206.56H219.871V204.46ZM219.911 212.62H233.291V214.76H219.911V212.62ZM237.221 210.76H246.901V212.88H237.221V210.76ZM240.701 212.48H243.381V216.38H240.701V212.48ZM237.221 204.9H246.781V207H239.881V211.42H237.221V204.9ZM248.761 203.24H251.421V221.82H248.761V203.24ZM236.361 218.16L236.041 216.02C239.581 216.02 243.941 216 247.741 215.58L247.941 217.52C243.941 218.14 239.801 218.18 236.361 218.16ZM258.332 214.34H260.352V215.04C260.352 217.88 259.112 220.48 256.212 221.54L254.912 219.6C257.332 218.76 258.332 216.88 258.332 215.04V214.34ZM259.012 214.34H260.932V215.04C260.932 216.88 261.812 218.82 264.112 219.78L263.012 221.72C260.072 220.62 259.012 217.8 259.012 215.04V214.34ZM265.092 214.34H266.992V215.04C266.992 217.62 265.912 220.56 263.012 221.72L261.912 219.78C264.192 218.72 265.092 216.7 265.092 215.04V214.34ZM265.712 214.34H267.712V215.04C267.712 217 268.692 218.82 271.172 219.6L269.832 221.54C266.912 220.52 265.712 218 265.712 215.04V214.34ZM262.972 207.54H267.352V209.7H262.972V207.54ZM259.072 204.2C261.832 204.2 263.952 206.06 263.952 208.64C263.952 211.22 261.832 213.08 259.072 213.08C256.292 213.08 254.192 211.22 254.192 208.64C254.192 206.06 256.292 204.2 259.072 204.2ZM259.072 206.4C257.712 206.4 256.732 207.24 256.732 208.64C256.732 210.04 257.712 210.88 259.072 210.88C260.412 210.88 261.412 210.04 261.412 208.64C261.412 207.24 260.412 206.4 259.072 206.4ZM266.792 203.26H269.452V213.62H266.792V203.26ZM273.902 214.36H276.522V215.92H283.942V214.36H286.582V221.58H273.902V214.36ZM276.522 217.9V219.5H283.942V217.9H276.522ZM271.942 211.34H288.682V213.44H271.942V211.34ZM278.962 203.46H281.242V204.02C281.242 207.24 278.482 209.9 273.702 210.52L272.762 208.46C276.942 207.96 278.962 205.9 278.962 204.02V203.46ZM279.402 203.46H281.682V204.02C281.682 205.88 283.702 207.96 287.862 208.46L286.922 210.52C282.142 209.9 279.402 207.22 279.402 204.02V203.46ZM302.753 203.26H305.413V221.78H302.753V203.26ZM290.913 205.02H293.553V216.52H290.913V205.02ZM290.913 214.96H292.553C295.253 214.96 298.253 214.76 301.313 214.16L301.613 216.36C298.433 217.02 295.373 217.22 292.553 217.22H290.913V214.96ZM319.763 203.24H322.443V221.82H319.763V203.24ZM321.843 210.1H325.123V212.28H321.843V210.1ZM308.643 215.16H310.203C313.323 215.16 315.783 215.06 318.503 214.58L318.763 216.78C315.963 217.28 313.423 217.36 310.203 217.36H308.643V215.16ZM308.643 204.96H317.283V207.1H311.283V216.22H308.643V204.96ZM329.581 205.455L329.347 215.724H327.06L326.832 205.455H329.581ZM328.203 220.156C327.772 220.156 327.403 220.005 327.095 219.702C326.792 219.399 326.641 219.029 326.641 218.594C326.641 218.168 326.792 217.803 327.095 217.5C327.403 217.197 327.772 217.045 328.203 217.045C328.625 217.045 328.989 217.197 329.297 217.5C329.609 217.803 329.766 218.168 329.766 218.594C329.766 218.883 329.692 219.145 329.545 219.382C329.403 219.619 329.214 219.808 328.977 219.95C328.745 220.088 328.487 220.156 328.203 220.156Z" fill="url(#paint0_linear_1582_12992)"/>
<path d="M78.5653 233.132H79.9873V243.428H78.5653V233.132ZM75.9193 237.542H78.9973V238.784H75.9193V237.542ZM75.0913 233.456H76.4953V242.852H75.0913V233.456ZM66.1993 235.076H74.4433V236.264H66.1993V235.076ZM70.3393 237.092C72.3733 237.092 73.7953 238.208 73.7953 239.882C73.7953 241.574 72.3733 242.672 70.3393 242.672C68.2873 242.672 66.8653 241.574 66.8653 239.882C66.8653 238.208 68.2873 237.092 70.3393 237.092ZM70.3393 238.208C69.0613 238.208 68.1973 238.874 68.1973 239.882C68.1973 240.908 69.0613 241.556 70.3393 241.556C71.5993 241.556 72.4633 240.908 72.4633 239.882C72.4633 238.874 71.5993 238.208 70.3393 238.208ZM69.6013 233.258H71.0593V235.742H69.6013V233.258ZM74.6593 243.716C78.0433 243.716 80.0773 244.724 80.0773 246.542C80.0773 248.342 78.0433 249.368 74.6593 249.368C71.2393 249.368 69.2233 248.342 69.2233 246.542C69.2233 244.724 71.2393 243.716 74.6593 243.716ZM74.6593 244.868C72.1573 244.868 70.6993 245.462 70.6993 246.542C70.6993 247.622 72.1573 248.234 74.6593 248.234C77.1253 248.234 78.6013 247.622 78.6013 246.542C78.6013 245.462 77.1253 244.868 74.6593 244.868ZM86.4179 234.536H87.6419V237.452C87.6419 241.052 85.6979 244.562 83.1239 245.93L82.2059 244.742C84.5639 243.554 86.4179 240.422 86.4179 237.452V234.536ZM86.6879 234.536H87.8939V237.452C87.8939 240.314 89.7119 243.284 92.0159 244.436L91.0979 245.624C88.5779 244.274 86.6879 240.944 86.6879 237.452V234.536ZM93.4379 233.132H94.9499V249.404H93.4379V233.132ZM94.5899 239.72H97.6139V240.98H94.5899V239.72ZM109.552 242.186H111.028V244.742H109.552V242.186ZM102.928 241.322H117.634V242.528H102.928V241.322ZM104.566 244.364H115.816V249.35H114.322V245.588H104.566V244.364ZM109.552 233.042H111.028V235.31H109.552V233.042ZM109.48 235.508H110.794V235.778C110.794 238.46 107.824 240.026 104.278 240.404L103.81 239.27C106.96 238.982 109.48 237.65 109.48 235.778V235.508ZM109.786 235.508H111.1V235.778C111.1 237.65 113.62 238.982 116.77 239.27L116.302 240.404C112.738 240.026 109.786 238.46 109.786 235.778V235.508ZM104.44 234.716H116.14V235.922H104.44V234.716ZM131.463 233.132H132.903V249.404H131.463V233.132ZM125.541 238.964H128.655V240.206H125.541V238.964ZM128.205 233.51H129.609V248.576H128.205V233.51ZM122.409 235.652H123.561V237.722C123.561 241.286 122.193 244.652 119.799 246.164L118.881 245.048C121.149 243.68 122.409 240.71 122.409 237.722V235.652ZM122.715 235.652H123.867V237.722C123.867 240.548 125.091 243.374 127.323 244.67L126.405 245.768C124.029 244.328 122.715 241.124 122.715 237.722V235.652ZM119.331 235.022H126.765V236.264H119.331V235.022ZM135.229 240.692H149.989V241.826H135.229V240.692ZM136.975 243.14H148.135V246.614H138.505V248.522H137.029V245.588H146.677V244.202H136.975V243.14ZM137.029 248.126H148.657V249.206H137.029V248.126ZM137.101 233.6H148.081V236.984H138.613V238.748H137.137V235.976H146.623V234.662H137.101V233.6ZM137.137 238.388H148.387V239.468H137.137V238.388ZM155.736 241.754H170.442V242.96H155.736V241.754ZM162.342 239.648H163.818V242.258H162.342V239.648ZM157.68 238.982H168.714V240.152H157.68V238.982ZM157.68 233.6H168.642V234.77H159.156V239.612H157.68V233.6ZM158.724 236.264H168.21V237.416H158.724V236.264ZM163.08 244.166C166.626 244.166 168.66 245.066 168.66 246.776C168.66 248.468 166.626 249.368 163.08 249.368C159.534 249.368 157.5 248.468 157.5 246.776C157.5 245.066 159.534 244.166 163.08 244.166ZM163.08 245.3C160.47 245.3 159.012 245.822 159.012 246.776C159.012 247.748 160.47 248.252 163.08 248.252C165.69 248.252 167.148 247.748 167.148 246.776C167.148 245.822 165.69 245.3 163.08 245.3ZM171.868 235.904H179.932V237.128H171.868V235.904ZM175.9 238.208C177.934 238.208 179.41 239.738 179.41 241.934C179.41 244.112 177.934 245.642 175.9 245.642C173.884 245.642 172.408 244.112 172.408 241.934C172.408 239.738 173.884 238.208 175.9 238.208ZM175.9 239.486C174.658 239.486 173.758 240.494 173.758 241.934C173.758 243.374 174.658 244.382 175.9 244.382C177.16 244.382 178.078 243.374 178.078 241.934C178.078 240.494 177.16 239.486 175.9 239.486ZM184.234 233.132H185.674V249.404H184.234V233.132ZM181.642 239.972H184.72V241.214H181.642V239.972ZM180.76 233.492H182.164V248.612H180.76V233.492ZM175.18 233.6H176.656V236.66H175.18V233.6ZM198.998 237.956H200.474V240.44H198.998V237.956ZM198.782 234.122H200.096V234.626C200.096 237.074 197.072 238.64 193.652 238.964L193.166 237.83C196.1 237.596 198.782 236.336 198.782 234.626V234.122ZM199.43 234.122H200.726V234.626C200.726 236.318 203.408 237.596 206.342 237.83L205.856 238.964C202.454 238.64 199.43 237.074 199.43 234.626V234.122ZM193.742 233.636H205.784V234.806H193.742V233.636ZM193.76 243.23H205.748V244.418H193.76V243.23ZM192.392 239.882H207.152V241.088H192.392V239.882ZM199.754 245.21C202.886 245.21 204.632 245.948 204.632 247.352C204.632 248.774 202.886 249.494 199.754 249.494C196.622 249.494 194.858 248.774 194.858 247.352C194.858 245.948 196.622 245.21 199.754 245.21ZM199.754 246.236C197.594 246.236 196.388 246.614 196.388 247.352C196.388 248.09 197.594 248.468 199.754 248.468C201.896 248.468 203.12 248.09 203.12 247.352C203.12 246.614 201.896 246.236 199.754 246.236ZM199.016 241.736H200.492V243.986H199.016V241.736ZM208.543 241.682H223.249V242.906H208.543V241.682ZM210.451 247.82H221.629V249.044H210.451V247.82ZM210.451 244.328H211.945V248.198H210.451V244.328ZM215.905 233.672C219.379 233.672 221.629 234.896 221.629 236.93C221.629 238.946 219.379 240.17 215.905 240.17C212.413 240.17 210.181 238.946 210.181 236.93C210.181 234.896 212.413 233.672 215.905 233.672ZM215.905 234.896C213.349 234.896 211.711 235.652 211.711 236.93C211.711 238.208 213.349 238.964 215.905 238.964C218.461 238.964 220.099 238.208 220.099 236.93C220.099 235.652 218.461 234.896 215.905 234.896ZM240.893 233.15H242.405V245.03H240.893V233.15ZM231.947 247.82H242.891V249.044H231.947V247.82ZM231.947 243.806H233.423V248.234H231.947V243.806ZM233.675 234.266C236.105 234.266 237.905 235.922 237.905 238.28C237.905 240.62 236.105 242.294 233.675 242.294C231.245 242.294 229.427 240.62 229.427 238.28C229.427 235.922 231.245 234.266 233.675 234.266ZM233.675 235.562C232.091 235.562 230.885 236.678 230.885 238.28C230.885 239.864 232.091 240.98 233.675 240.98C235.259 240.98 236.465 239.864 236.465 238.28C236.465 236.678 235.259 235.562 233.675 235.562ZM252.742 235.67H257.638V236.894H252.742V235.67ZM252.742 239.576H257.638V240.8H252.742V239.576ZM257.098 233.15H258.592V245.174H257.098V233.15ZM248.206 247.82H259.042V249.044H248.206V247.82ZM248.206 243.932H249.7V248.36H248.206V243.932ZM249.646 234.176C252.04 234.176 253.84 235.85 253.84 238.244C253.84 240.638 252.04 242.312 249.646 242.312C247.252 242.312 245.452 240.638 245.452 238.244C245.452 235.85 247.252 234.176 249.646 234.176ZM249.646 235.49C248.062 235.49 246.892 236.642 246.892 238.244C246.892 239.864 248.062 241.016 249.646 241.016C251.23 241.016 252.418 239.864 252.418 238.244C252.418 236.642 251.23 235.49 249.646 235.49ZM268.712 233.402C272.294 233.402 274.436 234.41 274.436 236.228C274.436 238.046 272.294 239.054 268.712 239.054C265.112 239.054 262.988 238.046 262.988 236.228C262.988 234.41 265.112 233.402 268.712 233.402ZM268.712 234.536C266.048 234.536 264.518 235.148 264.518 236.228C264.518 237.308 266.048 237.92 268.712 237.92C271.358 237.92 272.888 237.308 272.888 236.228C272.888 235.148 271.358 234.536 268.712 234.536ZM261.35 240.134H276.056V241.34H261.35V240.134ZM263.132 242.726H274.184V246.398H264.644V248.378H263.168V245.318H272.708V243.878H263.132V242.726ZM263.168 248.054H274.67V249.224H263.168V248.054ZM282.541 234.59H290.011V242.132H282.541V234.59ZM288.553 235.796H283.999V240.926H288.553V235.796ZM292.999 233.114H294.493V245.048H292.999V233.114ZM294.025 238.082H296.905V239.324H294.025V238.082ZM284.359 247.82H295.231V249.044H284.359V247.82ZM284.359 243.914H285.853V248.342H284.359V243.914ZM310.121 239.612H313.127V240.872H310.121V239.612ZM309.023 233.114H310.535V249.404H309.023V233.114ZM298.655 234.716H300.149V244.796H298.655V234.716ZM298.655 244.022H299.951C302.363 244.022 304.829 243.86 307.511 243.302L307.691 244.544C304.919 245.12 302.417 245.282 299.951 245.282H298.655V244.022ZM314.176 246.092H328.918V247.334H314.176V246.092ZM320.764 242.204H322.258V246.452H320.764V242.204ZM315.904 234.284H317.38V237.182H325.678V234.284H327.154V242.6H315.904V234.284ZM317.38 238.388V241.376H325.678V238.388H317.38ZM336.735 238.946H339.849V240.188H336.735V238.946ZM333.693 234.662H334.863V237.758C334.863 241.16 333.441 244.454 331.065 245.912L330.129 244.778C332.361 243.464 333.693 240.548 333.693 237.758V234.662ZM333.981 234.662H335.133V237.704C335.133 240.314 336.357 243.086 338.499 244.382L337.635 245.552C335.295 244.112 333.981 240.872 333.981 237.704V234.662ZM342.711 233.132H344.151V249.404H342.711V233.132ZM339.417 233.474H340.821V248.594H339.417V233.474ZM350.077 241.502H351.553V246.38H350.077V241.502ZM356.089 241.502H357.583V246.38H356.089V241.502ZM346.477 246.092H361.219V247.334H346.477V246.092ZM353.821 234.158C357.259 234.158 359.725 235.796 359.725 238.352C359.725 240.89 357.259 242.528 353.821 242.528C350.365 242.528 347.899 240.89 347.899 238.352C347.899 235.796 350.365 234.158 353.821 234.158ZM353.821 235.346C351.211 235.346 349.339 236.534 349.339 238.352C349.339 240.152 351.211 241.34 353.821 241.34C356.431 241.34 358.285 240.152 358.285 238.352C358.285 236.534 356.431 235.346 353.821 235.346ZM365.422 234.909L365.256 244.235H363.486L363.319 234.909H365.422ZM364.374 248.121C364.02 248.121 363.718 247.998 363.466 247.751C363.215 247.499 363.091 247.197 363.096 246.843C363.091 246.494 363.215 246.195 363.466 245.948C363.718 245.697 364.02 245.571 364.374 245.571C364.719 245.571 365.017 245.697 365.269 245.948C365.52 246.195 365.648 246.494 365.652 246.843C365.648 247.077 365.586 247.293 365.467 247.489C365.352 247.68 365.199 247.834 365.007 247.949C364.815 248.064 364.604 248.121 364.374 248.121Z" fill="#313A5B"/>
</g>
<path d="M21 37C21 25.9543 29.9543 17 41 17H380C391.046 17 400 25.9543 400 37V156H21V37Z" fill="url(#paint1_linear_1582_12992)"/>
<path d="M72 56.1418C72 56.1418 70.8016 48.6364 70.8016 48.1135C70.8016 47.5906 71.3392 47.1657 72 47.1657C72.6608 47.1657 73.1984 47.5899 73.1984 48.1135C73.1984 48.6371 72 56.1418 72 56.1418ZM72 57.8939C72 57.8939 73.1984 65.3986 73.1984 65.9222C73.1984 66.4458 72.6608 66.87 72 66.87C71.3392 66.87 70.8016 66.4465 70.8016 65.9222C70.8016 65.3979 72 57.8939 72 57.8939ZM71.1236 57.0175C71.1236 57.0175 63.6189 58.2159 63.096 58.2159C62.5724 58.2159 62.1482 57.679 62.1482 57.0175C62.1482 56.3567 62.5724 55.8198 63.096 55.8198C63.6189 55.8198 71.1236 57.0175 71.1236 57.0175ZM72.8764 57.0175C72.8764 57.0175 80.3811 55.8198 80.9047 55.8198C81.4276 55.8198 81.8525 56.3567 81.8525 57.0175C81.8525 57.679 81.4283 58.2159 80.9047 58.2159C80.3811 58.2159 72.8764 57.0175 72.8764 57.0175ZM71.3798 56.3987C71.3798 56.3987 65.2261 51.9397 64.8572 51.5694C64.4869 51.1998 64.566 50.5201 65.0343 50.0525C65.5019 49.5849 66.1809 49.5058 66.5512 49.8754C66.9201 50.245 71.3798 56.3987 71.3798 56.3987ZM72.6202 57.6377C72.6202 57.6377 78.7739 62.0967 79.1428 62.467C79.5131 62.8373 79.434 63.5163 78.9657 63.9846C78.4981 64.4522 77.8191 64.5313 77.4488 64.161C77.0799 63.7907 72.6202 57.6377 72.6202 57.6377ZM71.3798 57.6377C71.3798 57.6377 66.9201 63.7907 66.5512 64.161C66.1809 64.5313 65.5019 64.4522 65.0343 63.9846C64.566 63.5163 64.4869 62.8373 64.8572 62.467C65.2261 62.0967 71.3798 57.6377 71.3798 57.6377ZM72.6202 56.3987C72.6202 56.3987 77.0799 50.245 77.4488 49.8754C77.8191 49.5058 78.4981 49.5849 78.9657 50.0525C79.434 50.5201 79.5131 51.1998 79.1428 51.5694C78.7739 51.9397 72.6202 56.3987 72.6202 56.3987ZM71.4092 55.5566C71.4092 55.5566 65.2387 43.4802 64.8859 42.6066C64.5331 41.733 64.7438 40.8244 65.357 40.5766C65.9709 40.3288 66.7535 40.8363 67.1063 41.7099C67.4591 42.5821 71.4092 55.5566 71.4092 55.5566ZM72.5908 58.4805C72.5908 58.4805 78.7613 70.5562 79.1141 71.4305C79.4669 72.3034 79.2562 73.212 78.643 73.4591C78.0291 73.7076 77.2465 73.2008 76.8937 72.3272C76.5409 71.4536 72.5908 58.4805 72.5908 58.4805ZM70.5377 57.609C70.5377 57.609 58.4613 63.7795 57.5877 64.1323C56.7141 64.4858 55.8055 64.2744 55.5577 63.6605C55.3099 63.048 55.8174 62.264 56.691 61.9112C57.5639 61.5584 70.5377 57.609 70.5377 57.609ZM73.4623 56.4274C73.4623 56.4274 85.5387 50.2569 86.4123 49.9041C87.2859 49.5506 88.1945 49.7627 88.4423 50.3759C88.6901 50.9891 88.1826 51.7724 87.309 52.1252C86.4361 52.4773 73.4623 56.4274 73.4623 56.4274ZM70.5482 56.4022C70.5482 56.4022 57.6451 52.2267 56.7785 51.8585C55.9119 51.491 55.4184 50.6993 55.6767 50.0896C55.935 49.4813 56.8485 49.286 57.7151 49.6542C58.5817 50.021 70.5482 56.4022 70.5482 56.4022ZM73.4518 57.6342C73.4518 57.6342 86.3549 61.8097 87.2215 62.1772C88.0881 62.5454 88.5816 63.3378 88.3233 63.9461C88.065 64.5558 87.1515 64.7511 86.2849 64.3822C85.4183 64.0147 73.4518 57.6342 73.4518 57.6342ZM71.384 58.47C71.384 58.47 67.2085 71.3731 66.8403 72.2404C66.4721 73.107 65.6804 73.6005 65.0714 73.3422C64.4624 73.0832 64.2678 72.1704 64.6346 71.3038C65.0035 70.4365 71.384 58.47 71.384 58.47ZM72.616 55.5664C72.616 55.5664 76.7915 42.6633 77.1597 41.7967C77.5279 40.9294 78.3196 40.4366 78.9286 40.6949C79.5376 40.9532 79.7329 41.8653 79.3654 42.7326C78.9965 43.5999 72.616 55.5664 72.616 55.5664ZM72.0042 67.5476C72.0042 67.5476 73.204 76.2864 73.204 76.8954C73.204 77.5044 72.6678 78 72.0063 78C71.3448 78 70.8086 77.5065 70.8086 76.8968C70.8086 76.2871 72.0042 67.5476 72.0042 67.5476ZM71.9965 45.7685C71.9965 45.7685 70.796 37.6009 70.796 37.0318C70.796 36.4627 71.3322 36 71.9937 36C72.6552 36 73.1914 36.4613 73.1914 37.0311C73.1914 37.6009 71.9965 45.7685 71.9965 45.7685ZM79.4613 64.455C79.4613 64.455 86.4893 69.7862 86.9191 70.2167C87.351 70.6479 87.3209 71.3759 86.8533 71.8442C86.3857 72.3118 85.657 72.3419 85.2265 71.9114C84.7953 71.4816 79.4613 64.455 79.4613 64.455ZM64.0557 49.0606C64.0557 49.0606 57.4316 44.134 57.0284 43.7315C56.6259 43.3283 56.6784 42.6227 57.146 42.1551C57.6136 41.6868 58.3199 41.6343 58.7224 42.0375C59.1256 42.4393 64.0557 49.0606 64.0557 49.0606ZM79.4613 49.5443C79.4613 49.5443 84.7953 42.5191 85.2265 42.0886C85.657 41.6574 86.3857 41.6875 86.8533 42.1558C87.3209 42.6234 87.351 43.3521 86.9191 43.7826C86.4893 44.2124 79.4613 49.5443 79.4613 49.5443ZM64.0557 64.9387C64.0557 64.9387 59.1256 71.5607 58.7224 71.9625C58.3199 72.3657 57.6136 72.3125 57.146 71.8449C56.6784 71.3766 56.6259 70.671 57.0284 70.2685C57.4316 69.866 64.0557 64.9387 64.0557 64.9387ZM82.5476 56.9958C82.5476 56.9958 91.2864 55.796 91.8961 55.796C92.5058 55.7953 93 56.3322 93 56.993C93.0007 57.6545 92.5072 58.1914 91.8975 58.1914C91.2878 58.1921 82.5476 56.9958 82.5476 56.9958ZM60.7692 57.0042C60.7692 57.0042 52.6002 58.2033 52.0318 58.204C51.4613 58.204 51 57.6671 51 57.0063C51 56.3448 51.4613 55.8079 52.0318 55.8079C52.6002 55.8079 60.7692 57.0042 60.7692 57.0042Z" fill="#CFC894"/>
<path d="M371.5 69.8257C371.5 69.8257 370.558 63.9286 370.558 63.5178C370.558 63.1069 370.981 62.7731 371.5 62.7731C372.019 62.7731 372.442 63.1064 372.442 63.5178C372.442 63.9292 371.5 69.8257 371.5 69.8257ZM371.5 71.2024C371.5 71.2024 372.442 77.0989 372.442 77.5103C372.442 77.9217 372.019 78.255 371.5 78.255C370.981 78.255 370.558 77.9222 370.558 77.5103C370.558 77.0983 371.5 71.2024 371.5 71.2024ZM370.811 70.5138C370.811 70.5138 364.915 71.4554 364.504 71.4554C364.093 71.4554 363.759 71.0335 363.759 70.5138C363.759 69.9946 364.093 69.5727 364.504 69.5727C364.915 69.5727 370.811 70.5138 370.811 70.5138ZM372.189 70.5138C372.189 70.5138 378.085 69.5727 378.497 69.5727C378.907 69.5727 379.241 69.9946 379.241 70.5138C379.241 71.0335 378.908 71.4554 378.497 71.4554C378.085 71.4554 372.189 70.5138 372.189 70.5138ZM371.013 70.0276C371.013 70.0276 366.178 66.5241 365.888 66.2331C365.597 65.9427 365.659 65.4087 366.027 65.0413C366.394 64.6739 366.928 64.6117 367.219 64.9021C367.509 65.1925 371.013 70.0276 371.013 70.0276ZM371.987 71.001C371.987 71.001 376.822 74.5046 377.112 74.7955C377.403 75.0865 377.341 75.62 376.973 75.9879C376.606 76.3553 376.072 76.4175 375.781 76.1265C375.491 75.8356 371.987 71.001 371.987 71.001ZM371.013 71.001C371.013 71.001 367.509 75.8356 367.219 76.1265C366.928 76.4175 366.394 76.3553 366.027 75.9879C365.659 75.62 365.597 75.0865 365.888 74.7955C366.178 74.5046 371.013 71.001 371.013 71.001ZM371.987 70.0276C371.987 70.0276 375.491 65.1925 375.781 64.9021C376.072 64.6117 376.606 64.6739 376.973 65.0413C377.341 65.4087 377.403 65.9427 377.112 66.2331C376.822 66.5241 371.987 70.0276 371.987 70.0276ZM371.036 69.3659C371.036 69.3659 366.188 59.8773 365.91 59.1909C365.633 58.5045 365.799 57.7906 366.281 57.5959C366.763 57.4012 367.378 57.7999 367.655 58.4863C367.932 59.1716 371.036 69.3659 371.036 69.3659ZM371.964 71.6633C371.964 71.6633 376.812 81.1513 377.09 81.8383C377.367 82.5241 377.201 83.238 376.72 83.4322C376.237 83.6274 375.622 83.2292 375.345 82.5428C375.068 81.8564 371.964 71.6633 371.964 71.6633ZM370.351 70.9785C370.351 70.9785 360.862 75.8268 360.176 76.104C359.49 76.3817 358.776 76.2156 358.581 75.7333C358.386 75.252 358.785 74.636 359.472 74.3588C360.157 74.0816 370.351 70.9785 370.351 70.9785ZM372.649 70.0501C372.649 70.0501 382.138 65.2019 382.824 64.9247C383.51 64.6469 384.224 64.8136 384.419 65.2954C384.614 65.7772 384.215 66.3926 383.529 66.6698C382.843 66.9464 372.649 70.0501 372.649 70.0501ZM370.359 70.0303C370.359 70.0303 360.221 66.7496 359.54 66.4603C358.859 66.1715 358.472 65.5495 358.675 65.0704C358.877 64.5925 359.595 64.439 360.276 64.7283C360.957 65.0165 370.359 70.0303 370.359 70.0303ZM372.641 70.9983C372.641 70.9983 382.779 74.2791 383.46 74.5678C384.141 74.8571 384.528 75.4797 384.325 75.9577C384.123 76.4367 383.405 76.5902 382.724 76.3003C382.043 76.0116 372.641 70.9983 372.641 70.9983ZM371.016 71.655C371.016 71.655 367.735 81.7932 367.446 82.4746C367.157 83.1555 366.535 83.5433 366.056 83.3403C365.578 83.1368 365.425 82.4196 365.713 81.7387C366.003 81.0572 371.016 71.655 371.016 71.655ZM371.984 69.3736C371.984 69.3736 375.265 59.2355 375.554 58.5546C375.843 57.8731 376.465 57.4859 376.944 57.6888C377.422 57.8918 377.576 58.6085 377.287 59.2899C376.997 59.9714 371.984 69.3736 371.984 69.3736ZM371.503 78.7874C371.503 78.7874 372.446 85.6536 372.446 86.1321C372.446 86.6106 372.025 87 371.505 87C370.985 87 370.564 86.6123 370.564 86.1332C370.564 85.6542 371.503 78.7874 371.503 78.7874ZM371.497 61.6753C371.497 61.6753 370.554 55.2579 370.554 54.8107C370.554 54.3635 370.975 54 371.495 54C372.015 54 372.436 54.3625 372.436 54.8102C372.436 55.2579 371.497 61.6753 371.497 61.6753ZM377.362 76.3575C377.362 76.3575 382.884 80.5463 383.222 80.8846C383.562 81.2234 383.538 81.7954 383.17 82.1633C382.803 82.5307 382.231 82.5543 381.892 82.2161C381.553 81.8784 377.362 76.3575 377.362 76.3575ZM365.258 64.2619C365.258 64.2619 360.053 60.391 359.737 60.0748C359.42 59.758 359.462 59.2036 359.829 58.8362C360.196 58.4682 360.751 58.427 361.068 58.7438C361.384 59.0595 365.258 64.2619 365.258 64.2619ZM377.362 64.642C377.362 64.642 381.553 59.1222 381.892 58.7839C382.231 58.4451 382.803 58.4687 383.17 58.8367C383.538 59.2041 383.562 59.7767 383.222 60.1149C382.884 60.4526 377.362 64.642 377.362 64.642ZM365.258 76.7376C365.258 76.7376 361.384 81.9406 361.068 82.2563C360.751 82.5731 360.196 82.5313 359.829 82.1639C359.462 81.7959 359.42 81.2415 359.737 80.9253C360.053 80.609 365.258 76.7376 365.258 76.7376ZM379.787 70.4967C379.787 70.4967 386.654 69.554 387.133 69.554C387.612 69.5535 388 69.9753 388 70.4945C388.001 71.0143 387.613 71.4361 387.134 71.4361C386.655 71.4367 379.787 70.4967 379.787 70.4967ZM362.676 70.5033C362.676 70.5033 356.257 71.4455 355.811 71.446C355.362 71.446 355 71.0241 355 70.5049C355 69.9852 355.362 69.5634 355.811 69.5634C356.257 69.5634 362.676 70.5033 362.676 70.5033Z" fill="#C574B1"/>
<rect x="273" y="90.5391" width="8" height="8" transform="rotate(-18.5034 273 90.5391)" fill="#EAD959"/>
<rect x="120.525" y="128" width="8" height="8" transform="rotate(18.4045 120.525 128)" fill="#E6D778"/>
<rect x="130" y="91.2568" width="5.53337" height="5.53337" transform="rotate(-36.0572 130 91.2568)" fill="#DCCBF2"/>
<path d="M298.998 137.465L293 133.997L299.002 130.537L298.998 137.465Z" fill="#BB77B6"/>
<path d="M321.164 86.82L316.097 82.0952L322.722 80.0693L321.164 86.82Z" fill="#FFE940"/>
<path d="M122.164 49.82L117.097 45.0952L123.722 43.0693L122.164 49.82Z" fill="#FFE940"/>
<path d="M74.5844 125.665L69.0209 121.536L75.3783 118.782L74.5844 125.665Z" fill="#FFE940"/>
<circle cx="267.5" cy="44.5" r="3.5" stroke="#D5B8EF" stroke-width="1.90909"/>
<circle cx="339.5" cy="112.5" r="3.5" stroke="#D5B8EF" stroke-width="1.90909"/>
<circle cx="189" cy="54" r="3" stroke="#FECB5B" stroke-width="1.90909"/>
<line x1="22" y1="273.75" x2="401" y2="273.75" stroke="#37375B" stroke-opacity="0.15" stroke-width="0.5"/>
<path d="M201.061 303.568H202.389V305.424H201.061V303.568ZM207.157 296.8H208.485V306.496H207.157V296.8ZM207.925 301.168H210.597V302.272H207.925V301.168ZM197.365 306.08L197.189 304.992C199.781 304.992 203.301 304.992 206.293 304.56L206.405 305.504C203.317 306.048 199.893 306.064 197.365 306.08ZM198.981 307.216H208.485V311.248H207.157V308.272H198.981V307.216ZM197.557 298.096H205.861V299.088H197.557V298.096ZM201.717 299.648C203.749 299.648 205.077 300.464 205.077 301.792C205.077 303.12 203.749 303.936 201.717 303.936C199.669 303.936 198.341 303.12 198.341 301.792C198.341 300.464 199.669 299.648 201.717 299.648ZM201.717 300.56C200.421 300.56 199.589 301.024 199.589 301.792C199.589 302.528 200.421 303.008 201.717 303.008C202.997 303.008 203.829 302.528 203.829 301.792C203.829 301.024 202.997 300.56 201.717 300.56ZM201.061 296.672H202.389V298.576H201.061V296.672ZM222.108 296.8H223.452V307.36H222.108V296.8ZM214.156 309.84H223.884V310.928H214.156V309.84ZM214.156 306.272H215.468V310.208H214.156V306.272ZM215.692 297.792C217.852 297.792 219.452 299.264 219.452 301.36C219.452 303.44 217.852 304.928 215.692 304.928C213.532 304.928 211.916 303.44 211.916 301.36C211.916 299.264 213.532 297.792 215.692 297.792ZM215.692 298.944C214.284 298.944 213.212 299.936 213.212 301.36C213.212 302.768 214.284 303.76 215.692 303.76C217.1 303.76 218.172 302.768 218.172 301.36C218.172 299.936 217.1 298.944 215.692 298.944Z" fill="#37375B"/>
<defs>
<filter id="filter0_d_1582_12992" x="0" y="0" width="421" height="352" filterUnits="userSpaceOnUse" color-interpolation-filters="sRGB">
<feFlood flood-opacity="0" result="BackgroundImageFix"/>
<feColorMatrix in="SourceAlpha" type="matrix" values="0 0 0 0 0 0 0 0 0 0 0 0 0 0 0 0 0 0 127 0" result="hardAlpha"/>
<feOffset dy="4"/>
<feGaussianBlur stdDeviation="10.5"/>
<feComposite in2="hardAlpha" operator="out"/>
<feColorMatrix type="matrix" values="0 0 0 0 0.732537 0 0 0 0 0.625 0 0 0 0 1 0 0 0 0.3 0"/>
<feBlend mode="normal" in2="BackgroundImageFix" result="effect1_dropShadow_1582_12992"/>
<feBlend mode="normal" in="SourceGraphic" in2="effect1_dropShadow_1582_12992" result="shape"/>
</filter>
<linearGradient id="paint0_linear_1582_12992" x1="157.044" y1="176" x2="160.144" y2="224.422" gradientUnits="userSpaceOnUse">
<stop stop-color="#7373F6"/>
<stop offset="0.361458" stop-color="#8B70F7"/>
<stop offset="0.634552" stop-color="#956EF6"/>
<stop offset="1" stop-color="#A869F7"/>
</linearGradient>
<linearGradient id="paint1_linear_1582_12992" x1="27.5" y1="17" x2="400" y2="17" gradientUnits="userSpaceOnUse">
<stop stop-color="#3929A9"/>
<stop offset="1" stop-color="#9059BF"/>
</linearGradient>
</defs>
</svg>
