<svg width="103" height="103" viewBox="0 0 103 103" fill="none" xmlns="http://www.w3.org/2000/svg">
<g filter="url(#filter0_d_510_175)">
<circle cx="51.5" cy="47.5" r="46.4821" fill="black" stroke="url(#paint0_linear_510_175)" stroke-width="2.03571"/>
<mask id="path-2-outside-1_510_175" maskUnits="userSpaceOnUse" x="51.4048" y="43.092" width="16.9694" height="16.9694" fill="black">
<rect fill="white" x="51.4048" y="43.092" width="16.9694" height="16.9694"/>
<path fill-rule="evenodd" clip-rule="evenodd" d="M54.5666 53.2833L59.2978 58.126L62.8756 54.6306L62.8738 54.6288L64.3377 53.1986C65.303 52.2556 65.321 50.7087 64.378 49.7434C63.435 48.7782 61.888 48.7602 60.9228 49.7032L59.4589 51.1334L58.1444 49.7879C57.1792 48.7999 55.5958 48.7814 54.6078 49.7467C53.6198 50.7119 53.6014 52.2953 54.5666 53.2833Z"/>
</mask>
<path d="M59.2978 58.126L58.6183 58.7899L59.2821 59.4694L59.9617 58.8055L59.2978 58.126ZM62.8756 54.6306L63.5395 55.3101L64.219 54.6462L63.5551 53.9667L62.8756 54.6306ZM62.8738 54.6288L62.21 53.9493L61.5304 54.6131L62.1943 55.2927L62.8738 54.6288ZM64.3377 53.1986L65.0016 53.8782L64.3377 53.1986ZM60.9228 49.7032L60.2589 49.0237L60.9228 49.7032ZM59.4589 51.1334L58.7794 51.7973L59.4433 52.4768L60.1228 51.8129L59.4589 51.1334ZM58.1444 49.7879L57.4649 50.4518L58.1444 49.7879ZM59.9773 57.4621L55.2461 52.6194L53.8871 53.9472L58.6183 58.7899L59.9773 57.4621ZM62.2117 53.9511L58.6339 57.4465L59.9617 58.8055L63.5395 55.3101L62.2117 53.9511ZM62.1943 55.2927L62.1961 55.2945L63.5551 53.9667L63.5534 53.9649L62.1943 55.2927ZM63.6738 52.5191L62.21 53.9493L63.5377 55.3083L65.0016 53.8782L63.6738 52.5191ZM63.6984 50.4073C64.2748 50.9973 64.2638 51.9427 63.6738 52.5191L65.0016 53.8782C66.3421 52.5685 66.3672 50.4201 65.0575 49.0796L63.6984 50.4073ZM61.5867 50.3827C62.1766 49.8064 63.1221 49.8174 63.6984 50.4073L65.0575 49.0796C63.7478 47.739 61.5994 47.714 60.2589 49.0237L61.5867 50.3827ZM60.1228 51.8129L61.5867 50.3827L60.2589 49.0237L58.795 50.4538L60.1228 51.8129ZM57.4649 50.4518L58.7794 51.7973L60.1384 50.4695L58.8239 49.124L57.4649 50.4518ZM55.2717 50.4262C55.8844 49.8276 56.8663 49.8391 57.4649 50.4518L58.8239 49.124C57.492 47.7607 55.3072 47.7353 53.9439 49.0671L55.2717 50.4262ZM55.2461 52.6194C54.6475 52.0067 54.659 51.0248 55.2717 50.4262L53.9439 49.0671C52.5806 50.399 52.5552 52.5839 53.8871 53.9472L55.2461 52.6194Z" fill="url(#paint1_linear_510_175)" mask="url(#path-2-outside-1_510_175)"/>
<path d="M59.1107 41.9463V35.0218C59.1107 33.8975 58.1993 32.9861 57.075 32.9861H29.7857C28.6614 32.9861 27.75 33.8975 27.75 35.0218V51.1108C27.75 52.2351 28.6614 53.1465 29.7857 53.1465H31.3144C32.4387 53.1465 33.3501 54.058 33.3501 55.1822V56.2369C33.3501 57.8266 35.0909 58.8029 36.4474 57.9739L43.4303 53.7065M62.4707 64.3093L66.1523 67.7455C67.5497 69.0498 69.8118 67.883 69.5591 65.9882L69.4982 65.5315C69.3355 64.3111 70.2849 63.2268 71.5161 63.2268H73.3153C74.4396 63.2268 75.3511 62.3153 75.3511 61.191V44.542C75.3511 43.4177 74.4396 42.5063 73.3153 42.5063H46.0261C44.9018 42.5063 43.9904 43.4177 43.9904 44.542V61.2537C43.9904 62.3532 44.8635 63.254 45.9625 63.2884L61.1452 63.7628C61.6387 63.7783 62.1097 63.9725 62.4707 64.3093Z" stroke="url(#paint2_linear_510_175)" stroke-width="2.1375" stroke-linecap="square"/>
</g>
<defs>
<filter id="filter0_d_510_175" x="0" y="0" width="103" height="103" filterUnits="userSpaceOnUse" color-interpolation-filters="sRGB">
<feFlood flood-opacity="0" result="BackgroundImageFix"/>
<feColorMatrix in="SourceAlpha" type="matrix" values="0 0 0 0 0 0 0 0 0 0 0 0 0 0 0 0 0 0 127 0" result="hardAlpha"/>
<feOffset dy="4"/>
<feGaussianBlur stdDeviation="2"/>
<feComposite in2="hardAlpha" operator="out"/>
<feColorMatrix type="matrix" values="0 0 0 0 0 0 0 0 0 0 0 0 0 0 0 0 0 0 0.25 0"/>
<feBlend mode="normal" in2="BackgroundImageFix" result="effect1_dropShadow_510_175"/>
<feBlend mode="normal" in="SourceGraphic" in2="effect1_dropShadow_510_175" result="shape"/>
</filter>
<linearGradient id="paint0_linear_510_175" x1="51.5" y1="0" x2="51.5" y2="95" gradientUnits="userSpaceOnUse">
<stop stop-color="#BF55F7"/>
<stop offset="0.21875" stop-color="#764FDB"/>
<stop offset="0.479167" stop-color="#8B69F1"/>
<stop offset="1" stop-color="#734FDA"/>
</linearGradient>
<linearGradient id="paint1_linear_510_175" x1="56.2136" y1="48.1779" x2="62.6925" y2="54.8095" gradientUnits="userSpaceOnUse">
<stop stop-color="#A965E1"/>
<stop offset="0.354167" stop-color="#805CF1"/>
<stop offset="0.703125" stop-color="#6E5BF2"/>
<stop offset="1" stop-color="#585AF2"/>
</linearGradient>
<linearGradient id="paint2_linear_510_175" x1="51.5505" y1="32.9861" x2="51.5505" y2="71.6269" gradientUnits="userSpaceOnUse">
<stop stop-color="#8C72F7"/>
<stop offset="0.380208" stop-color="#9D64F7"/>
<stop offset="0.645833" stop-color="#AE56F4"/>
<stop offset="1" stop-color="#C14CF4"/>
</linearGradient>
</defs>
</svg>
