<svg width="32" height="32" viewBox="0 0 32 32" fill="none" xmlns="http://www.w3.org/2000/svg">
<path d="M17.2124 1.21247C25.3794 1.88209 31.4572 9.04553 30.7876 17.2125C30.1179 25.3794 22.9545 31.4572 14.7876 30.7876C6.62061 30.118 0.542831 22.9545 1.21245 14.7876C1.88206 6.62064 9.04551 0.542858 17.2124 1.21247ZM15.1785 26.0189C20.7118 26.4726 25.5652 22.3547 26.0188 16.8215C26.4725 11.2882 22.3547 6.43486 16.8215 5.98118C11.2882 5.5275 6.43483 9.64531 5.98115 15.1786C5.52747 20.7118 9.64529 25.5652 15.1785 26.0189Z" fill="#DFE5F1"/>
<path d="M12.051 19.1115C11.5329 19.1115 11.0808 18.9928 10.6946 18.7553C10.3084 18.5179 10.0086 18.1857 9.79514 17.7587C9.58166 17.3318 9.47492 16.8329 9.47492 16.262C9.47492 15.6887 9.58166 15.1874 9.79514 14.7581C10.0086 14.3287 10.3084 13.9953 10.6946 13.7579C11.0808 13.5204 11.5329 13.4017 12.051 13.4017C12.5691 13.4017 13.0213 13.5204 13.4074 13.7579C13.7936 13.9953 14.0934 14.3287 14.3069 14.7581C14.5204 15.1874 14.6271 15.6887 14.6271 16.262C14.6271 16.8329 14.5204 17.3318 14.3069 17.7587C14.0934 18.1857 13.7936 18.5179 13.4074 18.7553C13.0213 18.9928 12.5691 19.1115 12.051 19.1115ZM12.0546 18.2085C12.3904 18.2085 12.6687 18.1197 12.8893 17.9422C13.11 17.7647 13.2731 17.5285 13.3787 17.2334C13.4866 16.9384 13.5406 16.6134 13.5406 16.2584C13.5406 15.9058 13.4866 15.582 13.3787 15.287C13.2731 14.9895 13.11 14.7509 12.8893 14.571C12.6687 14.3911 12.3904 14.3011 12.0546 14.3011C11.7164 14.3011 11.4358 14.3911 11.2127 14.571C10.992 14.7509 10.8277 14.9895 10.7198 15.287C10.6143 15.582 10.5615 15.9058 10.5615 16.2584C10.5615 16.6134 10.6143 16.9384 10.7198 17.2334C10.8277 17.5285 10.992 17.7647 11.2127 17.9422C11.4358 18.1197 11.7164 18.2085 12.0546 18.2085ZM18.2554 13.4736V14.3371H15.1324V13.4736H18.2554ZM15.9887 19V12.8332C15.9887 12.4878 16.0642 12.2012 16.2153 11.9733C16.3665 11.743 16.5667 11.5715 16.8162 11.4588C17.0657 11.3437 17.3367 11.2861 17.6293 11.2861C17.8452 11.2861 18.0299 11.3041 18.1834 11.3401C18.3369 11.3736 18.4508 11.4048 18.5252 11.4336L18.2734 12.3043C18.223 12.2899 18.1582 12.2731 18.0791 12.2539C17.9999 12.2323 17.904 12.2215 17.7912 12.2215C17.5298 12.2215 17.3427 12.2863 17.23 12.4158C17.1196 12.5454 17.0645 12.7324 17.0645 12.9771V19H15.9887ZM21.7928 13.4736V14.3371H18.6698V13.4736H21.7928ZM19.5261 19V12.8332C19.5261 12.4878 19.6016 12.2012 19.7527 11.9733C19.9038 11.743 20.1041 11.5715 20.3536 11.4588C20.603 11.3437 20.8741 11.2861 21.1667 11.2861C21.3826 11.2861 21.5673 11.3041 21.7208 11.3401C21.8743 11.3736 21.9882 11.4048 22.0626 11.4336L21.8107 12.3043C21.7604 12.2899 21.6956 12.2731 21.6165 12.2539C21.5373 12.2323 21.4414 12.2215 21.3286 12.2215C21.0672 12.2215 20.8801 12.2863 20.7673 12.4158C20.657 12.5454 20.6018 12.7324 20.6018 12.9771V19H19.5261Z" fill="#DFE5F1"/>
</svg>
