<svg width="32" height="32" viewBox="0 0 32 32" fill="none" xmlns="http://www.w3.org/2000/svg">
<path d="M17.2124 1.21247C25.3794 1.88209 31.4572 9.04553 30.7876 17.2125C30.1179 25.3794 22.9545 31.4572 14.7876 30.7876C6.62061 30.118 0.542831 22.9545 1.21245 14.7876C1.88206 6.62064 9.04551 0.542858 17.2124 1.21247ZM15.1785 26.0189C20.7118 26.4726 25.5652 22.3547 26.0188 16.8215C26.4725 11.2882 22.3547 6.43486 16.8215 5.98118C11.2882 5.5275 6.43483 9.64531 5.98115 15.1786C5.52747 20.7118 9.64529 25.5652 15.1785 26.0189Z" fill="url(#paint0_linear_833_767)"/>
<path d="M13.1838 18.5686C12.6657 18.5686 12.2136 18.4498 11.8274 18.2124C11.4413 17.9749 11.1414 17.6427 10.9279 17.2158C10.7145 16.7888 10.6077 16.2899 10.6077 15.719C10.6077 15.1458 10.7145 14.6444 10.9279 14.2151C11.1414 13.7857 11.4413 13.4523 11.8274 13.2149C12.2136 12.9774 12.6657 12.8587 13.1838 12.8587C13.7019 12.8587 14.1541 12.9774 14.5402 13.2149C14.9264 13.4523 15.2262 13.7857 15.4397 14.2151C15.6532 14.6444 15.7599 15.1458 15.7599 15.719C15.7599 16.2899 15.6532 16.7888 15.4397 17.2158C15.2262 17.6427 14.9264 17.9749 14.5402 18.2124C14.1541 18.4498 13.7019 18.5686 13.1838 18.5686ZM13.1874 17.6655C13.5232 17.6655 13.8015 17.5767 14.0221 17.3992C14.2428 17.2218 14.4059 16.9855 14.5115 16.6905C14.6194 16.3954 14.6734 16.0704 14.6734 15.7154C14.6734 15.3628 14.6194 15.039 14.5115 14.744C14.4059 14.4466 14.2428 14.2079 14.0221 14.028C13.8015 13.8481 13.5232 13.7582 13.1874 13.7582C12.8492 13.7582 12.5686 13.8481 12.3455 14.028C12.1249 14.2079 11.9605 14.4466 11.8526 14.744C11.7471 15.039 11.6943 15.3628 11.6943 15.7154C11.6943 16.0704 11.7471 16.3954 11.8526 16.6905C11.9605 16.9855 12.1249 17.2218 12.3455 17.3992C12.5686 17.5767 12.8492 17.6655 13.1874 17.6655ZM17.8339 15.1757V18.457H16.7581V12.9306H17.7907V13.8301H17.8591C17.9862 13.5375 18.1853 13.3024 18.4563 13.1249C18.7298 12.9474 19.074 12.8587 19.4889 12.8587C19.8655 12.8587 20.1953 12.9378 20.4783 13.0962C20.7614 13.2521 20.9808 13.4847 21.1368 13.7941C21.2927 14.1036 21.3706 14.4861 21.3706 14.9419V18.457H20.2948V15.0714C20.2948 14.6708 20.1905 14.3578 19.9818 14.1323C19.7731 13.9045 19.4865 13.7905 19.1219 13.7905C18.8725 13.7905 18.6506 13.8445 18.4563 13.9525C18.2644 14.0604 18.1121 14.2187 17.9994 14.4274C17.889 14.6337 17.8339 14.8831 17.8339 15.1757Z" fill="white"/>
<defs>
<linearGradient id="paint0_linear_833_767" x1="26.3424" y1="9.11846" x2="16.2193" y2="7.65619" gradientUnits="userSpaceOnUse">
<stop stop-color="#7373F6"/>
<stop offset="0.361458" stop-color="#8B70F7"/>
<stop offset="0.634552" stop-color="#956EF6"/>
<stop offset="1" stop-color="#A869F7"/>
</linearGradient>
</defs>
</svg>
