<svg width="23" height="23" viewBox="0 0 23 23" fill="none" xmlns="http://www.w3.org/2000/svg">
<path d="M5.28961 18.1909C5.7943 18.5726 6.19162 18.9783 6.5916 19.387C7.11781 19.9262 7.65 20.4696 8.44138 20.9713C8.64055 21.0965 8.8311 21.2247 9.01635 21.3485C9.68561 21.7956 10.2798 22.1922 10.886 22.2652C11.66 22.3581 16.3011 22.4066 17.0028 22.1441C17.7051 21.8817 18.0954 20.3768 16.5222 19.8603C15.7459 19.6064 14.7485 19.5278 13.8432 19.4562C12.9141 19.3825 12.0825 19.3172 11.6895 19.0769C10.9134 18.6026 8.98347 17.0734 8.98347 17.0734L11.3983 18.3905C11.3983 18.3905 11.7329 18.592 12.3666 18.4844C13.0003 18.3767 13.8853 17.5764 13.1797 17.2038C12.4748 16.8298 11.8383 16.1761 11.8383 16.1761L9.15492 13.867C9.15492 13.867 8.2132 13.115 7.69728 13.096C7.33057 13.0824 6.01136 12.9157 5.27913 12.8213L4.33822 12.8235L4.3487 18.193L5.28961 18.1909ZM1.01886 10.8084C0.843001 10.8088 0.674492 10.8853 0.550405 11.0211C0.426317 11.1569 0.356816 11.3408 0.357189 11.5324L0.368469 17.3115C0.368843 17.5031 0.439062 17.6867 0.563679 17.8219C0.688295 17.9571 0.857101 18.0328 1.03296 18.0324L2.35913 18.0293C2.53499 18.0289 2.7035 17.9524 2.82758 17.8166C2.95167 17.6809 3.02117 17.497 3.0208 17.3054L3.00952 11.5262C3.00914 11.3346 2.93893 11.151 2.81431 11.0158C2.68969 10.8807 2.52089 10.8049 2.34503 10.8054L1.01886 10.8084Z" fill="url(#paint0_linear_537_298)"/>
<path d="M12.1596 1H16.8452C17.218 1 17.5756 1.16135 17.8392 1.44854C18.1028 1.73574 18.2509 2.12527 18.2509 2.53143C18.2509 3.47913 17.9053 4.38802 17.2902 5.05815C16.6751 5.72828 15.8408 6.10475 14.971 6.10475H14.0338C13.1639 6.10475 12.3297 5.72828 11.7146 5.05815C11.0995 4.38802 10.7539 3.47913 10.7539 2.53143C10.7539 2.12527 10.902 1.73574 11.1656 1.44854C11.4292 1.16135 11.7868 1 12.1596 1Z" stroke="url(#paint1_linear_537_298)" stroke-width="1.17718" stroke-linecap="round" stroke-linejoin="round"/>
<path d="M7.00586 15.2935V14.2726C7.00586 12.1064 7.79572 10.0289 9.20167 8.49722C10.6076 6.96549 12.5145 6.10498 14.5028 6.10498C16.4912 6.10498 18.398 6.96549 19.804 8.49722C21.21 10.0289 21.9998 12.1064 21.9998 14.2726V15.2935C21.9998 16.3766 21.6049 17.4154 20.9019 18.1812C20.1989 18.9471 19.2455 19.3773 18.2513 19.3773H10.7543C9.76019 19.3773 8.80674 18.9471 8.10377 18.1812C7.40079 17.4154 7.00586 16.3766 7.00586 15.2935Z" stroke="url(#paint2_linear_537_298)" stroke-width="1.17718" stroke-linecap="round" stroke-linejoin="round"/>
<path d="M14.4802 15.5293L14.4467 15.5654L14.4099 15.5293C12.8192 13.9741 11.7677 12.9458 11.7677 11.903C11.7677 11.1813 12.27 10.6401 12.9398 10.6401C13.4555 10.6401 13.9578 11.0009 14.1353 11.4917H14.7582C14.9357 11.0009 15.438 10.6401 15.9537 10.6401C16.6235 10.6401 17.1258 11.1813 17.1258 11.903C17.1258 12.9458 16.0743 13.9741 14.4802 15.5293ZM15.9537 9.91846C15.371 9.91846 14.8118 10.2107 14.4467 10.669C14.0817 10.2107 13.5225 9.91846 12.9398 9.91846C11.9083 9.91846 11.0979 10.788 11.0979 11.903C11.0979 13.2633 12.2365 14.3783 13.9612 16.0633L14.4467 16.5396L14.9323 16.0633C16.657 14.3783 17.7956 13.2633 17.7956 11.903C17.7956 10.788 16.9851 9.91846 15.9537 9.91846Z" fill="url(#paint3_linear_537_298)"/>
<defs>
<linearGradient id="paint0_linear_537_298" x1="7.34102" y1="10.7938" x2="9.34076" y2="22.001" gradientUnits="userSpaceOnUse">
<stop stop-color="#7373F6"/>
<stop offset="0.361458" stop-color="#8B70F7"/>
<stop offset="0.634552" stop-color="#956EF6"/>
<stop offset="1" stop-color="#A869F7"/>
</linearGradient>
<linearGradient id="paint1_linear_537_298" x1="10.7539" y1="4.03645" x2="17.2804" y2="1.51979" gradientUnits="userSpaceOnUse">
<stop stop-color="#7373F6"/>
<stop offset="0.361458" stop-color="#8B70F7"/>
<stop offset="0.634552" stop-color="#956EF6"/>
<stop offset="1" stop-color="#A869F7"/>
</linearGradient>
<linearGradient id="paint2_linear_537_298" x1="7.00586" y1="13.9997" x2="20.7873" y2="9.91192" gradientUnits="userSpaceOnUse">
<stop stop-color="#7373F6"/>
<stop offset="0.361458" stop-color="#8B70F7"/>
<stop offset="0.634552" stop-color="#956EF6"/>
<stop offset="1" stop-color="#A869F7"/>
</linearGradient>
<linearGradient id="paint3_linear_537_298" x1="11.0979" y1="13.8569" x2="17.3542" y2="12.1953" gradientUnits="userSpaceOnUse">
<stop stop-color="#7373F6"/>
<stop offset="0.361458" stop-color="#8B70F7"/>
<stop offset="0.634552" stop-color="#956EF6"/>
<stop offset="1" stop-color="#A869F7"/>
</linearGradient>
</defs>
</svg>
