<svg width="19" height="20" viewBox="0 0 19 20" fill="none" xmlns="http://www.w3.org/2000/svg">
<g clip-path="url(#clip0_430_4964)">
<path d="M8.08326 16.9941C8.08326 16.9941 6.92837 16.9941 6.92837 15.8392C6.92837 14.6843 8.08326 11.2196 12.7028 11.2196C17.3224 11.2196 18.4773 14.6843 18.4773 15.8392C18.4773 16.9941 17.3224 16.9941 17.3224 16.9941H8.08326ZM12.7028 10.0647C13.6217 10.0647 14.503 9.6997 15.1527 9.04994C15.8025 8.40019 16.1675 7.51894 16.1675 6.60005C16.1675 5.68116 15.8025 4.79991 15.1527 4.15016C14.503 3.5004 13.6217 3.13538 12.7028 3.13538C11.7839 3.13538 10.9027 3.5004 10.2529 4.15016C9.60318 4.79991 9.23815 5.68116 9.23815 6.60005C9.23815 7.51894 9.60318 8.40019 10.2529 9.04994C10.9027 9.6997 11.7839 10.0647 12.7028 10.0647ZM6.02294 16.9941C5.85173 16.6335 5.76635 16.2382 5.77348 15.8392C5.77348 14.2743 6.55881 12.6632 8.00935 11.543C7.28534 11.3199 6.53103 11.2108 5.77348 11.2196C1.15391 11.2196 -0.000976562 14.6843 -0.000976562 15.8392C-0.000976562 16.9941 1.15391 16.9941 1.15391 16.9941H6.02294ZM5.19603 10.0647C5.96177 10.0647 6.69615 9.76053 7.23761 9.21907C7.77907 8.67761 8.08326 7.94324 8.08326 7.1775C8.08326 6.41175 7.77907 5.67738 7.23761 5.13592C6.69615 4.59446 5.96177 4.29027 5.19603 4.29027C4.43029 4.29027 3.69592 4.59446 3.15446 5.13592C2.613 5.67738 2.30881 6.41175 2.30881 7.1775C2.30881 7.94324 2.613 8.67761 3.15446 9.21907C3.69592 9.76053 4.43029 10.0647 5.19603 10.0647Z" fill="#37375B"/>
</g>
<defs>
<clipPath id="clip0_430_4964">
<rect width="18.4783" height="18.4783" fill="white" transform="translate(0 0.826172)"/>
</clipPath>
</defs>
</svg>
