<svg width="20" height="20" viewBox="0 0 20 20" fill="none" xmlns="http://www.w3.org/2000/svg">
<mask id="mask0_498_920" style="mask-type:alpha" maskUnits="userSpaceOnUse" x="0" y="1" width="20" height="18">
<path d="M7.91602 8.33333C8.29904 8.33333 8.67831 8.25789 9.03218 8.11132C9.38604 7.96474 9.70757 7.7499 9.97841 7.47906C10.2492 7.20822 10.4641 6.88669 10.6107 6.53283C10.7572 6.17896 10.8327 5.79969 10.8327 5.41667C10.8327 5.03364 10.7572 4.65437 10.6107 4.30051C10.4641 3.94664 10.2492 3.62511 9.97841 3.35427C9.70757 3.08343 9.38604 2.86859 9.03218 2.72202C8.67831 2.57544 8.29904 2.5 7.91602 2.5C7.14247 2.5 6.4006 2.80729 5.85362 3.35427C5.30664 3.90125 4.99935 4.64312 4.99935 5.41667C4.99935 6.19021 5.30664 6.93208 5.85362 7.47906C6.4006 8.02604 7.14247 8.33333 7.91602 8.33333ZM1.66602 17V17.5H14.166V17C14.166 15.1333 14.166 14.2 13.8027 13.4867C13.4831 12.8595 12.9732 12.3496 12.346 12.03C11.6327 11.6667 10.6993 11.6667 8.83268 11.6667H6.99935C5.13268 11.6667 4.19935 11.6667 3.48602 12.03C2.85884 12.3496 2.34892 12.8595 2.02935 13.4867C1.66602 14.2 1.66602 15.1333 1.66602 17Z" fill="white" stroke="white" stroke-width="1.66667" stroke-linecap="round" stroke-linejoin="round"/>
<path fill-rule="evenodd" clip-rule="evenodd" d="M15.832 5.41629V10.4163V5.41629ZM13.332 7.91629H18.332H13.332Z" fill="white"/>
<path d="M15.832 5.41629V10.4163M13.332 7.91629H18.332" stroke="white" stroke-width="1.66667" stroke-linecap="round" stroke-linejoin="round"/>
</mask>
<g mask="url(#mask0_498_920)">
<path d="M0 0H20V20H0V0Z" fill="#37375B"/>
</g>
</svg>
