<svg width="428" height="926" viewBox="0 0 428 926" fill="none" xmlns="http://www.w3.org/2000/svg">
<rect width="428" height="926" fill="url(#paint0_linear_421_774)"/>
<path d="M186.545 273.52V295.72H191.865V273.52H186.545ZM190.345 282.12V286.48H196.785V282.12H190.345ZM164.025 290V294.32H167.145C174.625 294.32 179.305 294.12 184.505 293.12L184.025 288.88C178.905 289.84 174.425 290 167.145 290H164.025ZM163.985 275.72V279.92H175.665V282.88H164.025V292.6H169.305V286.84H180.905V275.72H163.985ZM179.705 296.48C171.985 296.48 167.145 299.12 167.145 303.56C167.145 308 171.985 310.56 179.705 310.56C187.425 310.56 192.225 308 192.225 303.56C192.225 299.12 187.425 296.48 179.705 296.48ZM179.705 300.56C184.505 300.56 187.025 301.52 187.025 303.56C187.025 305.6 184.505 306.56 179.705 306.56C174.905 306.56 172.385 305.6 172.385 303.56C172.385 301.52 174.905 300.56 179.705 300.56ZM225.462 273.52V310.56H230.542V273.52H225.462ZM211.382 287.04V291.32H219.982V287.04H211.382ZM217.822 274.16V308.92H222.782V274.16H217.822ZM199.782 297.96V302.36H202.342C207.742 302.36 211.422 302.2 215.542 301.36L215.142 297.04C211.062 297.84 207.582 297.96 202.342 297.96H199.782ZM199.782 277.68V299.8H205.022V281.92H213.902V277.68H199.782ZM234.698 294.84V299.04H268.258V294.84H234.698ZM248.698 296.96V310.56H253.978V296.96H248.698ZM238.538 274.92V291.32H264.298V274.92H259.018V279.12H243.818V274.92H238.538ZM243.818 283.28H259.018V287.08H243.818V283.28Z" fill="white"/>
<rect x="125" y="762" width="180" height="57" rx="28.5" fill="white"/>
<path d="M184.623 783.68V786.38C184.623 789.98 183.103 793.54 179.883 794.94L181.463 797.14C185.143 795.44 186.783 791.14 186.783 786.38V783.68H184.623ZM185.143 783.68V786.38C185.143 790.94 186.783 795.06 190.363 796.7L191.923 794.56C188.763 793.2 187.303 789.8 187.303 786.38V783.68H185.143ZM192.803 782.24V800.82H195.483V782.24H192.803ZM202.222 784.16V785.32C202.222 787.64 200.922 790.04 197.822 791.04L199.202 793.1C202.742 791.96 204.402 788.82 204.402 785.32V784.16H202.222ZM202.762 784.16V785.32C202.762 788.64 204.362 791.66 207.822 792.78L209.182 790.72C206.182 789.76 204.922 787.5 204.922 785.32V784.16H202.762ZM198.542 783.34V785.46H208.542V783.34H198.542ZM210.022 782.26V793.42H212.682V782.26H210.022ZM211.942 786.74V788.92H215.142V786.74H211.942ZM200.322 794.22V796.36H210.022V800.78H212.682V794.22H200.322ZM227.98 782.26V800.78H230.62V782.26H227.98ZM230.02 789.48V791.7H233.3V789.48H230.02ZM216.02 785V787.12H226.8V785H216.02ZM221.44 788.16C218.74 788.16 216.74 790 216.74 792.58C216.74 795.16 218.74 797 221.44 797C224.14 797 226.14 795.16 226.14 792.58C226.14 790 224.14 788.16 221.44 788.16ZM221.44 790.32C222.7 790.32 223.6 791.16 223.6 792.58C223.6 794 222.7 794.84 221.44 794.84C220.18 794.84 219.28 794 219.28 792.58C219.28 791.16 220.18 790.32 221.44 790.32ZM220.1 782.56V785.8H222.76V782.56H220.1ZM246.858 782.26V800.78H249.538V782.26H246.858ZM241.398 784.18V784.66C241.398 789.62 239.478 792.98 234.158 795.54L235.538 797.66C242.118 794.48 244.038 789.84 244.038 784.18H241.398ZM235.138 784.18V786.28H242.658V784.18H235.138Z" fill="url(#paint1_linear_421_774)"/>
<path d="M152.038 369.256V373.336H154.006V369.256H152.038ZM148.918 372.712V380.584H163.174V372.712H161.206V375.04H150.91V372.712H148.918ZM150.91 376.6H161.206V378.976H150.91V376.6ZM161.182 359.176V371.632H163.174V359.176H161.182ZM145.822 370.312C149.782 370.312 155.038 370.288 159.886 369.472L159.742 368.032C155.014 368.656 149.614 368.68 145.558 368.68L145.822 370.312ZM151.774 359.704V360.784C151.774 363.064 149.662 365.032 146.494 365.8L147.382 367.312C151.006 366.4 153.382 363.928 153.382 360.784V359.704H151.774ZM152.206 359.704V360.784C152.206 363.832 154.63 366.16 158.23 367L159.07 365.464C155.974 364.816 153.838 362.992 153.838 360.784V359.704H152.206ZM169.196 361.336V362.992H183.164V361.336H169.196ZM167.132 376.192V377.848H186.74V376.192H167.132ZM174.74 368.44V377.008H176.732V368.44H174.74ZM182.42 361.336V363.496C182.42 366.088 182.42 369.136 181.604 373.288L183.596 373.552C184.388 369.16 184.388 366.184 184.388 363.496V361.336H182.42ZM209.89 359.176V380.872H211.858V359.176H209.89ZM210.73 367.648V369.304H214.738V367.648H210.73ZM194.986 361.192V375.616H200.986V361.192H199.33V366.76H196.69V361.192H194.986ZM196.69 368.344H199.33V373.984H196.69V368.344ZM202.138 361.192V375.616H208.066V361.192H206.386V366.76H203.818V361.192H202.138ZM203.818 368.344H206.386V373.984H203.818V368.344ZM216.176 371.2V372.808H235.856V371.2H216.176ZM218.768 378.76V380.392H233.792V378.76H218.768ZM218.768 374.512V379.384H220.76V374.512H218.768ZM218.672 359.896V361.456H231.368V363.808H218.72V368.2H220.688V365.272H233.312V359.896H218.672ZM218.72 367.672V369.232H233.792V367.672H218.72ZM244.558 361.12V371.176H254.518V361.12H244.558ZM252.574 362.728V369.568H246.502V362.728H252.574ZM258.502 359.152V375.064H260.494V359.152H258.502ZM259.87 365.776V367.432H263.71V365.776H259.87ZM246.982 378.76V380.392H261.478V378.76H246.982ZM246.982 373.552V379.456H248.974V373.552H246.982ZM280.1 359.176V371.44H282.092V359.176H280.1ZM281.564 364.144V365.8H285.308V364.144H281.564ZM268.412 372.616V380.584H282.092V372.616H268.412ZM280.148 374.224V378.952H270.38V374.224H280.148ZM266.3 360.256V368.944H268.292V360.256H266.3ZM266.3 368.128V369.808H268.004C271.244 369.808 274.484 369.592 278.156 368.824L277.916 367.192C274.364 367.912 271.124 368.128 268.004 368.128H266.3Z" fill="white"/>
<defs>
<linearGradient id="paint0_linear_421_774" x1="9.84059e-07" y1="65.1094" x2="547.409" y2="149.263" gradientUnits="userSpaceOnUse">
<stop stop-color="#7373F6"/>
<stop offset="0.361458" stop-color="#8B70F7"/>
<stop offset="0.634552" stop-color="#956EF6"/>
<stop offset="1" stop-color="#A869F7"/>
</linearGradient>
<linearGradient id="paint1_linear_421_774" x1="179" y1="781.687" x2="226.232" y2="829.471" gradientUnits="userSpaceOnUse">
<stop stop-color="#7373F6"/>
<stop offset="0.361458" stop-color="#8B70F7"/>
<stop offset="0.634552" stop-color="#956EF6"/>
<stop offset="1" stop-color="#A869F7"/>
</linearGradient>
</defs>
</svg>
