<svg width="27" height="32" viewBox="0 0 27 32" fill="none" xmlns="http://www.w3.org/2000/svg">
<g filter="url(#filter0_d_533_617)">
<path d="M22.7463 4.41514C22.6616 4.31582 22.5579 4.23553 22.4417 4.17927C22.3254 4.12302 22.1991 4.09202 22.0706 4.08821C20.075 4.03461 17.5498 1.84259 15.8803 0.982393C14.849 0.452698 14.1682 0.103439 13.6569 0.0114348C13.5531 -0.00410535 13.4476 -0.00380435 13.3438 0.0123281C12.8325 0.104332 12.1517 0.453591 11.1213 0.983286C9.45173 1.84259 6.92656 4.03461 4.93094 4.08821C4.8024 4.09221 4.67602 4.1233 4.55965 4.17953C4.44328 4.23577 4.3394 4.31596 4.25443 4.41514C4.07833 4.61981 3.98746 4.88731 4.00139 5.1601C4.43008 14.1131 7.55611 19.6539 13.0412 22.8741C13.1838 22.9571 13.3421 23 13.4995 23C13.6569 23 13.8151 22.9571 13.9586 22.8741C19.4437 19.6539 22.5689 14.1131 22.9984 5.1601C23.0132 4.88735 22.9226 4.61965 22.7463 4.41514ZM18.3846 7.93631L13.756 14.9528C13.5899 15.2046 13.3291 15.3717 13.0708 15.3717C12.8117 15.3717 12.5239 15.2261 12.3421 15.0394L9.07956 11.687C8.97305 11.5772 8.91324 11.4285 8.91324 11.2735C8.91324 11.1184 8.97305 10.9697 9.07956 10.8599L9.88564 10.0301C9.99277 9.92109 10.1375 9.85995 10.2882 9.85995C10.439 9.85995 10.5837 9.92109 10.6908 10.0301L12.8125 12.2096L16.4986 6.62056C16.5838 6.49266 16.7149 6.40462 16.8632 6.37567C17.0114 6.34672 17.1648 6.3792 17.2899 6.46603L18.2333 7.12346C18.358 7.21093 18.4438 7.34552 18.4722 7.49782C18.5005 7.65013 18.4691 7.80777 18.3846 7.93631Z" fill="#313A5B"/>
</g>
<defs>
<filter id="filter0_d_533_617" x="0" y="0" width="27" height="31.8333" filterUnits="userSpaceOnUse" color-interpolation-filters="sRGB">
<feFlood flood-opacity="0" result="BackgroundImageFix"/>
<feColorMatrix in="SourceAlpha" type="matrix" values="0 0 0 0 0 0 0 0 0 0 0 0 0 0 0 0 0 0 127 0" result="hardAlpha"/>
<feOffset dy="4.83333"/>
<feGaussianBlur stdDeviation="2"/>
<feComposite in2="hardAlpha" operator="out"/>
<feColorMatrix type="matrix" values="0 0 0 0 0 0 0 0 0 0 0 0 0 0 0 0 0 0 0.1 0"/>
<feBlend mode="normal" in2="BackgroundImageFix" result="effect1_dropShadow_533_617"/>
<feBlend mode="normal" in="SourceGraphic" in2="effect1_dropShadow_533_617" result="shape"/>
</filter>
</defs>
</svg>
