<svg width="57" height="59" viewBox="0 0 57 59" fill="none" xmlns="http://www.w3.org/2000/svg">
<circle cx="28.5" cy="28.5" r="28" fill="black" stroke="url(#paint0_linear_765_2299)"/>
<g filter="url(#filter0_d_765_2299)">
<path d="M20.9927 17.5974L23.6042 16.4222L26.2157 15.247" stroke="url(#paint1_linear_765_2299)" stroke-linecap="round"/>
<path d="M15.1625 26.0649L16.5008 23.5331L17.8391 21.0014" stroke="url(#paint2_linear_765_2299)" stroke-linecap="round"/>
<path d="M17.2139 36.0463L16.2477 33.3505L15.2815 30.6547" stroke="url(#paint3_linear_765_2299)" stroke-linecap="round"/>
<path d="M31.1775 41.8025L33.789 40.6273L36.4005 39.4521" stroke="url(#paint4_linear_765_2299)" stroke-linecap="round"/>
<path d="M39.9579 36.0285L40.9492 33.3419L41.9406 30.6552" stroke="url(#paint5_linear_765_2299)" stroke-linecap="round"/>
<path d="M42.1528 25.8947L40.9129 23.3133L39.6731 20.7319" stroke="url(#paint6_linear_765_2299)" stroke-linecap="round"/>
<path d="M20.8099 39.3349L23.4359 40.4774L26.0618 41.6199" stroke="url(#paint7_linear_765_2299)" stroke-linecap="round"/>
<path d="M31.0671 15.248L33.7338 16.2926L36.4004 17.3372" stroke="url(#paint8_linear_765_2299)" stroke-linecap="round"/>
<path d="M26.2145 15.1159V14.2018C26.2145 12.9038 27.2668 11.8515 28.5648 11.8515V11.8515C29.8629 11.8515 30.9152 12.9038 30.9152 14.2018V15.1159" stroke="url(#paint9_linear_765_2299)" stroke-linecap="round"/>
<path d="M17.5996 20.8256L16.951 20.1816C16.0297 19.2671 16.0243 17.779 16.9388 16.8578V16.8578C17.8534 15.9366 19.3415 15.9311 20.2627 16.8457L20.9114 17.4896" stroke="url(#paint10_linear_765_2299)" stroke-linecap="round"/>
<path d="M15.1157 30.6783L14.2017 30.6717C12.9037 30.6623 11.859 29.6025 11.8684 28.3044V28.3044C11.8778 27.0064 12.9377 25.9618 14.2357 25.9712L15.1497 25.9778" stroke="url(#paint11_linear_765_2299)" stroke-linecap="round"/>
<path d="M20.4933 39.5446L19.8441 40.188C18.9221 41.1017 17.434 41.095 16.5202 40.173V40.173C15.6065 39.251 15.6132 37.7629 16.5352 36.8492L17.1844 36.2058" stroke="url(#paint12_linear_765_2299)" stroke-linecap="round"/>
<path d="M30.9155 41.8841L30.9155 42.7982C30.9155 44.0962 29.8632 45.1485 28.5652 45.1485V45.1485C27.2671 45.1485 26.2148 44.0962 26.2148 42.7982L26.2148 41.8841" stroke="url(#paint13_linear_765_2299)" stroke-linecap="round"/>
<path d="M39.849 36.1392L40.5207 36.7592C41.4745 37.6396 41.5339 39.1266 40.6535 40.0804V40.0804C39.773 41.0342 38.286 41.0937 37.3322 40.2132L36.6606 39.5933" stroke="url(#paint14_linear_765_2299)" stroke-linecap="round"/>
<path d="M42.1449 25.9546L43.059 25.9546C44.357 25.9546 45.4093 27.0069 45.4093 28.3049V28.3049C45.4093 29.603 44.357 30.6553 43.059 30.6553L42.1449 30.6553" stroke="url(#paint15_linear_765_2299)" stroke-linecap="round"/>
<path d="M36.3997 17.3969L37.0157 16.7217C37.8905 15.7626 39.3771 15.6943 40.3361 16.5691V16.5691C41.2951 17.4439 41.3634 18.9305 40.4886 19.8895L39.8727 20.5648" stroke="url(#paint16_linear_765_2299)" stroke-linecap="round"/>
<circle cx="28.7292" cy="28.7273" r="5.62556" fill="url(#paint17_linear_765_2299)"/>
<path d="M32.1254 37.2616C33.8814 36.5728 35.3793 35.3544 36.4112 33.7755C37.4431 32.1965 37.9577 30.3355 37.8835 28.4507C37.8094 26.5659 37.1502 24.751 35.9974 23.258C34.8447 21.765 33.2557 20.668 31.451 20.1194C29.6463 19.5707 27.7156 19.5977 25.927 20.1965C24.1383 20.7952 22.5805 21.9361 21.4698 23.4607C20.3592 24.9853 19.7509 26.8179 19.7294 28.704C19.7078 30.5901 20.2741 32.4361 21.3497 33.9856L22.3202 33.3119C21.3846 31.964 20.892 30.3582 20.9107 28.7175C20.9294 27.0767 21.4586 25.4826 22.4248 24.1563C23.3909 22.8301 24.746 21.8376 26.302 21.3168C27.8579 20.7959 29.5375 20.7725 31.1074 21.2497C32.6772 21.727 34.0595 22.6813 35.0623 23.98C36.0651 25.2788 36.6385 26.8576 36.703 28.4971C36.7675 30.1367 36.3199 31.7556 35.4222 33.1292C34.5246 34.5027 33.2215 35.5626 31.694 36.1617L32.1254 37.2616Z" fill="#7330EF"/>
<path d="M21.1589 33.6993C22.3202 35.5156 24.0898 36.8595 26.1511 37.4907C28.2125 38.1218 30.4311 37.999 32.4102 37.1442C34.3893 36.2895 35.9998 34.7585 36.9535 32.8251C37.9073 30.8918 38.1421 28.6822 37.616 26.5916L36.4703 26.8799C36.9279 28.6985 36.7237 30.6206 35.894 32.3025C35.0643 33.9843 33.6634 35.3161 31.9418 36.0596C30.2202 36.8032 28.2901 36.91 26.497 36.361C24.7038 35.812 23.1645 34.6429 22.1543 33.0629L21.1589 33.6993Z" fill="#BB3BFB"/>
</g>
<defs>
<filter id="filter0_d_765_2299" x="2.36841" y="6.35149" width="52.5409" height="52.297" filterUnits="userSpaceOnUse" color-interpolation-filters="sRGB">
<feFlood flood-opacity="0" result="BackgroundImageFix"/>
<feColorMatrix in="SourceAlpha" type="matrix" values="0 0 0 0 0 0 0 0 0 0 0 0 0 0 0 0 0 0 127 0" result="hardAlpha"/>
<feOffset dy="4"/>
<feGaussianBlur stdDeviation="4.5"/>
<feComposite in2="hardAlpha" operator="out"/>
<feColorMatrix type="matrix" values="0 0 0 0 0.0166146 0 0 0 0 0.00286458 0 0 0 0 0.0458333 0 0 0 0.49 0"/>
<feBlend mode="normal" in2="BackgroundImageFix" result="effect1_dropShadow_765_2299"/>
<feBlend mode="normal" in="SourceGraphic" in2="effect1_dropShadow_765_2299" result="shape"/>
</filter>
<linearGradient id="paint0_linear_765_2299" x1="28.5" y1="0" x2="28.5" y2="57" gradientUnits="userSpaceOnUse">
<stop stop-color="#BF55F7"/>
<stop offset="0.21875" stop-color="#764FDB"/>
<stop offset="0.479167" stop-color="#8B69F1"/>
<stop offset="1" stop-color="#734FDA"/>
</linearGradient>
<linearGradient id="paint1_linear_765_2299" x1="22.8299" y1="15.6802" x2="24.3784" y2="17.1642" gradientUnits="userSpaceOnUse">
<stop stop-color="#8C75F3"/>
<stop offset="0.416667" stop-color="#946BF6"/>
<stop offset="0.807292" stop-color="#A361F6"/>
<stop offset="1" stop-color="#BF53F6"/>
</linearGradient>
<linearGradient id="paint2_linear_765_2299" x1="15.4341" y1="23.4235" x2="17.5676" y2="23.6428" gradientUnits="userSpaceOnUse">
<stop stop-color="#8C75F3"/>
<stop offset="0.416667" stop-color="#946BF6"/>
<stop offset="0.807292" stop-color="#A361F6"/>
<stop offset="1" stop-color="#BF53F6"/>
</linearGradient>
<linearGradient id="paint3_linear_765_2299" x1="15.4471" y1="34.064" x2="17.0482" y2="32.637" gradientUnits="userSpaceOnUse">
<stop stop-color="#8C75F3"/>
<stop offset="0.416667" stop-color="#946BF6"/>
<stop offset="0.807292" stop-color="#A361F6"/>
<stop offset="1" stop-color="#BF53F6"/>
</linearGradient>
<linearGradient id="paint4_linear_765_2299" x1="33.0147" y1="39.8853" x2="34.5632" y2="41.3693" gradientUnits="userSpaceOnUse">
<stop stop-color="#8C75F3"/>
<stop offset="0.416667" stop-color="#946BF6"/>
<stop offset="0.807292" stop-color="#A361F6"/>
<stop offset="1" stop-color="#BF53F6"/>
</linearGradient>
<linearGradient id="paint5_linear_765_2299" x1="39.8774" y1="33.3744" x2="42.0211" y2="33.3093" gradientUnits="userSpaceOnUse">
<stop stop-color="#8C75F3"/>
<stop offset="0.416667" stop-color="#946BF6"/>
<stop offset="0.807292" stop-color="#A361F6"/>
<stop offset="1" stop-color="#BF53F6"/>
</linearGradient>
<linearGradient id="paint6_linear_765_2299" x1="40.1905" y1="24.1058" x2="41.6354" y2="22.5208" gradientUnits="userSpaceOnUse">
<stop stop-color="#8C75F3"/>
<stop offset="0.416667" stop-color="#946BF6"/>
<stop offset="0.807292" stop-color="#A361F6"/>
<stop offset="1" stop-color="#BF53F6"/>
</linearGradient>
<linearGradient id="paint7_linear_765_2299" x1="23.4644" y1="39.4054" x2="23.4074" y2="41.5494" gradientUnits="userSpaceOnUse">
<stop stop-color="#8C75F3"/>
<stop offset="0.416667" stop-color="#946BF6"/>
<stop offset="0.807292" stop-color="#A361F6"/>
<stop offset="1" stop-color="#BF53F6"/>
</linearGradient>
<linearGradient id="paint8_linear_765_2299" x1="33.7939" y1="15.4402" x2="33.6737" y2="17.1449" gradientUnits="userSpaceOnUse">
<stop stop-color="#8C75F3"/>
<stop offset="0.416667" stop-color="#946BF6"/>
<stop offset="0.807292" stop-color="#A361F6"/>
<stop offset="1" stop-color="#BF53F6"/>
</linearGradient>
<linearGradient id="paint9_linear_765_2299" x1="28.5648" y1="11.8515" x2="28.5648" y2="15.1159" gradientUnits="userSpaceOnUse">
<stop stop-color="#8C75F3"/>
<stop offset="0.416667" stop-color="#946BF6"/>
<stop offset="0.807292" stop-color="#A361F6"/>
<stop offset="1" stop-color="#BF53F6"/>
</linearGradient>
<linearGradient id="paint10_linear_765_2299" x1="16.9388" y1="16.8578" x2="19.2555" y2="19.1576" gradientUnits="userSpaceOnUse">
<stop stop-color="#8C75F3"/>
<stop offset="0.416667" stop-color="#946BF6"/>
<stop offset="0.807292" stop-color="#A361F6"/>
<stop offset="1" stop-color="#BF53F6"/>
</linearGradient>
<linearGradient id="paint11_linear_765_2299" x1="11.8684" y1="28.3044" x2="15.1327" y2="28.3281" gradientUnits="userSpaceOnUse">
<stop stop-color="#8C75F3"/>
<stop offset="0.416667" stop-color="#946BF6"/>
<stop offset="0.807292" stop-color="#A361F6"/>
<stop offset="1" stop-color="#BF53F6"/>
</linearGradient>
<linearGradient id="paint12_linear_765_2299" x1="16.5202" y1="40.173" x2="18.8389" y2="37.8752" gradientUnits="userSpaceOnUse">
<stop stop-color="#8C75F3"/>
<stop offset="0.416667" stop-color="#946BF6"/>
<stop offset="0.807292" stop-color="#A361F6"/>
<stop offset="1" stop-color="#BF53F6"/>
</linearGradient>
<linearGradient id="paint13_linear_765_2299" x1="28.5652" y1="45.1485" x2="28.5652" y2="41.8841" gradientUnits="userSpaceOnUse">
<stop stop-color="#8C75F3"/>
<stop offset="0.416667" stop-color="#946BF6"/>
<stop offset="0.807292" stop-color="#A361F6"/>
<stop offset="1" stop-color="#BF53F6"/>
</linearGradient>
<linearGradient id="paint14_linear_765_2299" x1="40.6535" y1="40.0804" x2="38.2548" y2="37.8662" gradientUnits="userSpaceOnUse">
<stop stop-color="#8C75F3"/>
<stop offset="0.416667" stop-color="#946BF6"/>
<stop offset="0.807292" stop-color="#A361F6"/>
<stop offset="1" stop-color="#BF53F6"/>
</linearGradient>
<linearGradient id="paint15_linear_765_2299" x1="45.4093" y1="28.3049" x2="42.1449" y2="28.3049" gradientUnits="userSpaceOnUse">
<stop stop-color="#8C75F3"/>
<stop offset="0.416667" stop-color="#946BF6"/>
<stop offset="0.807292" stop-color="#A361F6"/>
<stop offset="1" stop-color="#BF53F6"/>
</linearGradient>
<linearGradient id="paint16_linear_765_2299" x1="40.3361" y1="16.5691" x2="38.1362" y2="18.9809" gradientUnits="userSpaceOnUse">
<stop stop-color="#8C75F3"/>
<stop offset="0.416667" stop-color="#946BF6"/>
<stop offset="0.807292" stop-color="#A361F6"/>
<stop offset="1" stop-color="#BF53F6"/>
</linearGradient>
<linearGradient id="paint17_linear_765_2299" x1="28.7292" y1="23.1017" x2="28.7292" y2="34.3528" gradientUnits="userSpaceOnUse">
<stop stop-color="#906FF7"/>
<stop offset="0.296875" stop-color="#7750E4" stop-opacity="0.932292"/>
<stop offset="0.677083" stop-color="#BF56F7"/>
<stop offset="1" stop-color="#BD4FF2"/>
</linearGradient>
</defs>
</svg>
