<svg width="42" height="42" viewBox="0 0 42 42" fill="none" xmlns="http://www.w3.org/2000/svg">
<circle cx="21" cy="21" r="20.5" fill="#2E323E" stroke="url(#paint0_linear_215_1002)"/>
<path d="M16.4316 15.2715L17.872 14.6233L19.3123 13.9752" stroke="url(#paint1_linear_215_1002)" stroke-linecap="round"/>
<path d="M13.2148 19.9414L13.953 18.545L14.6911 17.1487" stroke="url(#paint2_linear_215_1002)" stroke-linecap="round"/>
<path d="M14.3477 25.4473L13.8148 23.9604L13.2819 22.4736" stroke="url(#paint3_linear_215_1002)" stroke-linecap="round"/>
<path d="M22.0488 28.6211L23.4892 27.9729L24.9295 27.3248" stroke="url(#paint4_linear_215_1002)" stroke-linecap="round"/>
<path d="M26.8906 25.4375L27.4374 23.9557L27.9842 22.4739" stroke="url(#paint5_linear_215_1002)" stroke-linecap="round"/>
<path d="M28.1035 19.8477L27.4197 18.4239L26.7358 17.0001" stroke="url(#paint6_linear_215_1002)" stroke-linecap="round"/>
<path d="M16.332 27.2598L17.7804 27.8899L19.2287 28.5201" stroke="url(#paint7_linear_215_1002)" stroke-linecap="round"/>
<path d="M21.9883 13.9746L23.4591 14.5508L24.9298 15.1269" stroke="url(#paint8_linear_215_1002)" stroke-linecap="round"/>
<path d="M19.3125 13.902V13.3979C19.3125 12.6819 19.8929 12.1016 20.6088 12.1016V12.1016C21.3248 12.1016 21.9051 12.6819 21.9051 13.3979V13.902" stroke="url(#paint9_linear_215_1002)" stroke-linecap="round"/>
<path d="M14.5609 17.0517L14.2032 16.6965C13.6951 16.1921 13.6921 15.3713 14.1965 14.8632V14.8632C14.7009 14.3551 15.5217 14.3522 16.0297 14.8565L16.3875 15.2117" stroke="url(#paint10_linear_215_1002)" stroke-linecap="round"/>
<path d="M13.191 22.4857L12.6869 22.482C11.971 22.4769 11.3948 21.8923 11.4 21.1764V21.1764C11.4052 20.4605 11.9897 19.8843 12.7057 19.8895L13.2098 19.8931" stroke="url(#paint11_linear_215_1002)" stroke-linecap="round"/>
<path d="M16.1577 27.3752L15.7997 27.7301C15.2911 28.234 14.4704 28.2303 13.9664 27.7218V27.7218C13.4625 27.2133 13.4661 26.3925 13.9747 25.8886L14.3327 25.5337" stroke="url(#paint12_linear_215_1002)" stroke-linecap="round"/>
<path d="M21.9062 28.6664L21.9062 29.1705C21.9062 29.8864 21.3259 30.4668 20.6099 30.4668V30.4668C19.894 30.4668 19.3136 29.8864 19.3136 29.1705L19.3136 28.6664" stroke="url(#paint13_linear_215_1002)" stroke-linecap="round"/>
<path d="M26.8333 25.4975L27.2037 25.8395C27.7298 26.3251 27.7626 27.1452 27.277 27.6713V27.6713C26.7914 28.1973 25.9712 28.2301 25.4452 27.7445L25.0747 27.4026" stroke="url(#paint14_linear_215_1002)" stroke-linecap="round"/>
<path d="M28.098 19.8809L28.6021 19.8809C29.3181 19.8809 29.8984 20.4612 29.8984 21.1772V21.1772C29.8984 21.8931 29.3181 22.4735 28.6021 22.4735L28.098 22.4735" stroke="url(#paint15_linear_215_1002)" stroke-linecap="round"/>
<path d="M24.9292 15.1603L25.269 14.7878C25.7515 14.2589 26.5714 14.2212 27.1003 14.7037V14.7037C27.6293 15.1862 27.6669 16.0061 27.1845 16.535L26.8447 16.9075" stroke="url(#paint16_linear_215_1002)" stroke-linecap="round"/>
<circle cx="20.6984" cy="21.4094" r="3.10274" fill="url(#paint17_linear_215_1002)"/>
<path d="M22.5716 26.1165C23.5401 25.7367 24.3663 25.0646 24.9355 24.1938C25.5046 23.3229 25.7884 22.2965 25.7475 21.2569C25.7066 20.2174 25.343 19.2164 24.7073 18.393C24.0715 17.5695 23.195 16.9645 22.1997 16.6619C21.2043 16.3593 20.1395 16.3741 19.1529 16.7044C18.1664 17.0346 17.3072 17.6639 16.6947 18.5047C16.0821 19.3456 15.7466 20.3564 15.7347 21.3966C15.7228 22.4369 16.0352 23.455 16.6284 24.3097L17.1637 23.9381C16.6476 23.1947 16.3759 22.309 16.3863 21.4041C16.3966 20.4991 16.6885 19.6199 17.2213 18.8884C17.7542 18.1569 18.5016 17.6096 19.3598 17.3223C20.218 17.035 21.1443 17.0221 22.0102 17.2853C22.876 17.5485 23.6384 18.0749 24.1915 18.7912C24.7446 19.5075 25.0608 20.3783 25.0964 21.2826C25.132 22.1868 24.8851 23.0798 24.39 23.8373C23.8949 24.5949 23.1762 25.1795 22.3337 25.5099L22.5716 26.1165Z" fill="#7330EF"/>
<path d="M16.5232 24.1518C17.1637 25.1536 18.1397 25.8948 19.2766 26.2429C20.4135 26.591 21.6372 26.5232 22.7287 26.0518C23.8203 25.5804 24.7085 24.736 25.2346 23.6696C25.7606 22.6033 25.8901 21.3846 25.5999 20.2315L24.968 20.3906C25.2205 21.3936 25.1078 22.4538 24.6502 23.3814C24.1926 24.3089 23.4199 25.0435 22.4704 25.4536C21.5208 25.8637 20.4563 25.9226 19.4673 25.6198C18.4783 25.317 17.6293 24.6722 17.0721 23.8008L16.5232 24.1518Z" fill="#BB3BFB"/>
<defs>
<linearGradient id="paint0_linear_215_1002" x1="21" y1="0" x2="21" y2="42" gradientUnits="userSpaceOnUse">
<stop stop-color="#BF55F7"/>
<stop offset="0.21875" stop-color="#764FDB"/>
<stop offset="0.479167" stop-color="#8B69F1"/>
<stop offset="1" stop-color="#734FDA"/>
</linearGradient>
<linearGradient id="paint1_linear_215_1002" x1="17.445" y1="14.2141" x2="18.299" y2="15.0326" gradientUnits="userSpaceOnUse">
<stop stop-color="#8C75F3"/>
<stop offset="0.416667" stop-color="#946BF6"/>
<stop offset="0.807292" stop-color="#A361F6"/>
<stop offset="1" stop-color="#BF53F6"/>
</linearGradient>
<linearGradient id="paint2_linear_215_1002" x1="13.3646" y1="18.4845" x2="14.5413" y2="18.6055" gradientUnits="userSpaceOnUse">
<stop stop-color="#8C75F3"/>
<stop offset="0.416667" stop-color="#946BF6"/>
<stop offset="0.807292" stop-color="#A361F6"/>
<stop offset="1" stop-color="#BF53F6"/>
</linearGradient>
<linearGradient id="paint3_linear_215_1002" x1="13.3732" y1="24.3539" x2="14.2563" y2="23.5669" gradientUnits="userSpaceOnUse">
<stop stop-color="#8C75F3"/>
<stop offset="0.416667" stop-color="#946BF6"/>
<stop offset="0.807292" stop-color="#A361F6"/>
<stop offset="1" stop-color="#BF53F6"/>
</linearGradient>
<linearGradient id="paint4_linear_215_1002" x1="23.0622" y1="27.5637" x2="23.9162" y2="28.3822" gradientUnits="userSpaceOnUse">
<stop stop-color="#8C75F3"/>
<stop offset="0.416667" stop-color="#946BF6"/>
<stop offset="0.807292" stop-color="#A361F6"/>
<stop offset="1" stop-color="#BF53F6"/>
</linearGradient>
<linearGradient id="paint5_linear_215_1002" x1="26.8462" y1="23.9736" x2="28.0286" y2="23.9377" gradientUnits="userSpaceOnUse">
<stop stop-color="#8C75F3"/>
<stop offset="0.416667" stop-color="#946BF6"/>
<stop offset="0.807292" stop-color="#A361F6"/>
<stop offset="1" stop-color="#BF53F6"/>
</linearGradient>
<linearGradient id="paint6_linear_215_1002" x1="27.0212" y1="18.861" x2="27.8181" y2="17.9868" gradientUnits="userSpaceOnUse">
<stop stop-color="#8C75F3"/>
<stop offset="0.416667" stop-color="#946BF6"/>
<stop offset="0.807292" stop-color="#A361F6"/>
<stop offset="1" stop-color="#BF53F6"/>
</linearGradient>
<linearGradient id="paint7_linear_215_1002" x1="17.7961" y1="27.2987" x2="17.7646" y2="28.4812" gradientUnits="userSpaceOnUse">
<stop stop-color="#8C75F3"/>
<stop offset="0.416667" stop-color="#946BF6"/>
<stop offset="0.807292" stop-color="#A361F6"/>
<stop offset="1" stop-color="#BF53F6"/>
</linearGradient>
<linearGradient id="paint8_linear_215_1002" x1="23.4922" y1="14.0807" x2="23.4259" y2="15.0208" gradientUnits="userSpaceOnUse">
<stop stop-color="#8C75F3"/>
<stop offset="0.416667" stop-color="#946BF6"/>
<stop offset="0.807292" stop-color="#A361F6"/>
<stop offset="1" stop-color="#BF53F6"/>
</linearGradient>
<linearGradient id="paint9_linear_215_1002" x1="20.6088" y1="12.1016" x2="20.6088" y2="13.902" gradientUnits="userSpaceOnUse">
<stop stop-color="#8C75F3"/>
<stop offset="0.416667" stop-color="#946BF6"/>
<stop offset="0.807292" stop-color="#A361F6"/>
<stop offset="1" stop-color="#BF53F6"/>
</linearGradient>
<linearGradient id="paint10_linear_215_1002" x1="14.1965" y1="14.8632" x2="15.4742" y2="16.1317" gradientUnits="userSpaceOnUse">
<stop stop-color="#8C75F3"/>
<stop offset="0.416667" stop-color="#946BF6"/>
<stop offset="0.807292" stop-color="#A361F6"/>
<stop offset="1" stop-color="#BF53F6"/>
</linearGradient>
<linearGradient id="paint11_linear_215_1002" x1="11.4" y1="21.1764" x2="13.2004" y2="21.1894" gradientUnits="userSpaceOnUse">
<stop stop-color="#8C75F3"/>
<stop offset="0.416667" stop-color="#946BF6"/>
<stop offset="0.807292" stop-color="#A361F6"/>
<stop offset="1" stop-color="#BF53F6"/>
</linearGradient>
<linearGradient id="paint12_linear_215_1002" x1="13.9664" y1="27.7218" x2="15.2452" y2="26.4545" gradientUnits="userSpaceOnUse">
<stop stop-color="#8C75F3"/>
<stop offset="0.416667" stop-color="#946BF6"/>
<stop offset="0.807292" stop-color="#A361F6"/>
<stop offset="1" stop-color="#BF53F6"/>
</linearGradient>
<linearGradient id="paint13_linear_215_1002" x1="20.6099" y1="30.4668" x2="20.6099" y2="28.6664" gradientUnits="userSpaceOnUse">
<stop stop-color="#8C75F3"/>
<stop offset="0.416667" stop-color="#946BF6"/>
<stop offset="0.807292" stop-color="#A361F6"/>
<stop offset="1" stop-color="#BF53F6"/>
</linearGradient>
<linearGradient id="paint14_linear_215_1002" x1="27.277" y1="27.6713" x2="25.954" y2="26.4501" gradientUnits="userSpaceOnUse">
<stop stop-color="#8C75F3"/>
<stop offset="0.416667" stop-color="#946BF6"/>
<stop offset="0.807292" stop-color="#A361F6"/>
<stop offset="1" stop-color="#BF53F6"/>
</linearGradient>
<linearGradient id="paint15_linear_215_1002" x1="29.8984" y1="21.1772" x2="28.098" y2="21.1772" gradientUnits="userSpaceOnUse">
<stop stop-color="#8C75F3"/>
<stop offset="0.416667" stop-color="#946BF6"/>
<stop offset="0.807292" stop-color="#A361F6"/>
<stop offset="1" stop-color="#BF53F6"/>
</linearGradient>
<linearGradient id="paint16_linear_215_1002" x1="27.1003" y1="14.7037" x2="25.887" y2="16.0339" gradientUnits="userSpaceOnUse">
<stop stop-color="#8C75F3"/>
<stop offset="0.416667" stop-color="#946BF6"/>
<stop offset="0.807292" stop-color="#A361F6"/>
<stop offset="1" stop-color="#BF53F6"/>
</linearGradient>
<linearGradient id="paint17_linear_215_1002" x1="20.6984" y1="18.3066" x2="20.6984" y2="24.5121" gradientUnits="userSpaceOnUse">
<stop stop-color="#906FF7"/>
<stop offset="0.296875" stop-color="#7750E4" stop-opacity="0.932292"/>
<stop offset="0.677083" stop-color="#BF56F7"/>
<stop offset="1" stop-color="#BD4FF2"/>
</linearGradient>
</defs>
</svg>
