<svg width="26" height="13" viewBox="0 0 26 13" fill="none" xmlns="http://www.w3.org/2000/svg">
<path d="M4.20818 5.686V7.604H5.37018V5.686H4.20818ZM4.75418 1.01C2.93418 1.01 1.64618 2.018 1.64618 3.516C1.64618 5.014 2.93418 6.008 4.75418 6.008C6.58818 6.008 7.87618 5.014 7.87618 3.516C7.87618 2.018 6.58818 1.01 4.75418 1.01ZM4.75418 1.906C5.95818 1.906 6.78418 2.564 6.78418 3.516C6.78418 4.482 5.95818 5.126 4.75418 5.126C3.56418 5.126 2.73818 4.482 2.73818 3.516C2.73818 2.564 3.56418 1.906 4.75418 1.906ZM9.58418 0.449999V10.124H10.7462V0.449999H9.58418ZM10.2562 4.72V5.686H12.5942V4.72H10.2562ZM2.73818 11.846V12.812H11.1942V11.846H2.73818ZM2.73818 9.298V12.266H3.90018V9.298H2.73818ZM1.07218 8.248C3.24218 8.248 6.23818 8.22 8.88418 7.73L8.80018 6.876C6.22418 7.268 3.14418 7.296 0.918181 7.296L1.07218 8.248ZM16.7669 7.856V10.964H17.9149V7.856H16.7669ZM20.8129 7.828V10.95H21.9469V7.828H20.8129ZM13.5749 10.572V11.538H25.0409V10.572H13.5749ZM14.9609 1.374V2.312H22.4789V4.272H15.0029V7.744H16.1509V5.196H23.6269V1.374H14.9609ZM15.0029 7.226V8.178H23.9209V7.226H15.0029Z" fill="url(#paint0_linear_672_636)"/>
<defs>
<linearGradient id="paint0_linear_672_636" x1="7.2647" y1="-1.34215e-07" x2="9.97676" y2="13.9557" gradientUnits="userSpaceOnUse">
<stop stop-color="#7373F6"/>
<stop offset="0.361458" stop-color="#8B70F7"/>
<stop offset="0.634552" stop-color="#956EF6"/>
<stop offset="1" stop-color="#A869F7"/>
</linearGradient>
</defs>
</svg>
