<svg width="46" height="52" viewBox="0 0 46 52" fill="none" xmlns="http://www.w3.org/2000/svg">
<g filter="url(#filter0_d_551_486)">
<path d="M41.4926 8.44635C41.3232 8.25635 41.1158 8.10275 40.8833 7.99513C40.6508 7.88751 40.3982 7.82821 40.1413 7.82092C36.15 7.71839 31.0997 3.52495 27.7606 1.87936C25.6981 0.866031 24.3363 0.197884 23.3137 0.0218753C23.1061 -0.00785372 22.8951 -0.00727789 22.6877 0.0235841C21.6651 0.199592 20.3034 0.86774 18.2425 1.88107C14.9035 3.52495 9.85312 7.71839 5.86189 7.82092C5.6048 7.82858 5.35205 7.88805 5.11931 7.99563C4.88657 8.10322 4.67879 8.25662 4.50887 8.44635C4.15665 8.83789 3.97493 9.34964 4.00279 9.8715C4.86017 26.999 11.1122 37.5988 22.0825 43.7591C22.3677 43.918 22.6842 44 22.999 44C23.3137 44 23.6303 43.918 23.9172 43.7591C34.8875 37.5988 41.1378 26.999 41.9969 9.8715C42.0264 9.34972 41.8451 8.83759 41.4926 8.44635ZM32.7692 15.1825L23.512 28.6053C23.1798 29.0872 22.6581 29.4067 22.1416 29.4067C21.6233 29.4067 21.0477 29.1282 20.6842 28.771L14.1591 22.3578C13.9461 22.1477 13.8265 21.8632 13.8265 21.5666C13.8265 21.2701 13.9461 20.9856 14.1591 20.7755L15.7713 19.188C15.9855 18.9795 16.2749 18.8625 16.5765 18.8625C16.878 18.8625 17.1674 18.9795 17.3817 19.188L21.6251 23.3575L28.9971 12.6654C29.1677 12.4207 29.4299 12.2523 29.7264 12.1969C30.0229 12.1415 30.3297 12.2037 30.5797 12.3698L32.4666 13.6275C32.7159 13.7948 32.8877 14.0523 32.9444 14.3437C33.0011 14.635 32.9381 14.9366 32.7692 15.1825Z" fill="url(#paint0_linear_551_486)"/>
</g>
<defs>
<filter id="filter0_d_551_486" x="0" y="0" width="46" height="52" filterUnits="userSpaceOnUse" color-interpolation-filters="sRGB">
<feFlood flood-opacity="0" result="BackgroundImageFix"/>
<feColorMatrix in="SourceAlpha" type="matrix" values="0 0 0 0 0 0 0 0 0 0 0 0 0 0 0 0 0 0 127 0" result="hardAlpha"/>
<feOffset dy="4"/>
<feGaussianBlur stdDeviation="2"/>
<feComposite in2="hardAlpha" operator="out"/>
<feColorMatrix type="matrix" values="0 0 0 0 0 0 0 0 0 0 0 0 0 0 0 0 0 0 0.25 0"/>
<feBlend mode="normal" in2="BackgroundImageFix" result="effect1_dropShadow_551_486"/>
<feBlend mode="normal" in="SourceGraphic" in2="effect1_dropShadow_551_486" result="shape"/>
</filter>
<linearGradient id="paint0_linear_551_486" x1="4" y1="26.1724" x2="40.1416" y2="17.977" gradientUnits="userSpaceOnUse">
<stop stop-color="#7373F6"/>
<stop offset="0.361458" stop-color="#8B70F7"/>
<stop offset="0.634552" stop-color="#956EF6"/>
<stop offset="1" stop-color="#A869F7"/>
</linearGradient>
</defs>
</svg>
