<svg width="53" height="15" viewBox="0 0 53 15" fill="none" xmlns="http://www.w3.org/2000/svg">
<path d="M4.61934 2.98V3.16C4.61934 4.6 3.29934 5.86 1.36434 6.295L1.87434 7.285C4.16934 6.715 5.63934 5.155 5.63934 3.16V2.98H4.61934ZM4.84434 2.98V3.16C4.84434 5.065 6.31434 6.55 8.57934 7.09L9.08934 6.115C7.16934 5.68 5.86434 4.525 5.86434 3.16V2.98H4.84434ZM1.64934 2.14V3.13H8.83434V2.14H1.64934ZM4.60434 0.639999V2.8H5.86434V0.639999H4.60434ZM4.63434 8.365V13.78H5.87934V8.365H4.63434ZM10.6343 0.609999V14.185H11.8643V0.609999H10.6343ZM0.899343 9.28C3.41934 9.28 6.71934 9.235 9.76434 8.71L9.67434 7.795C6.70434 8.215 3.29934 8.23 0.734343 8.23L0.899343 9.28ZM14.1552 11.38V12.415H26.4402V11.38H14.1552ZM19.6152 8.095V11.725H20.8452V8.095H19.6152ZM19.5852 1.51V2.56C19.5852 4.795 17.0202 6.79 14.6352 7.225L15.1602 8.26C17.8902 7.69 20.6652 5.455 20.6652 2.56V1.51H19.5852ZM19.8102 1.51V2.56C19.8102 5.455 22.5852 7.69 25.3152 8.26L25.8552 7.225C23.4702 6.79 20.8902 4.81 20.8902 2.56V1.51H19.8102ZM36.726 0.609999V14.17H37.971V0.609999H36.726ZM37.671 6.175V7.225H40.191V6.175H37.671ZM27.471 2.77V3.79H35.466V2.77H27.471ZM31.521 4.915C29.616 4.915 28.221 6.205 28.221 8.035C28.221 9.865 29.616 11.155 31.521 11.155C33.441 11.155 34.821 9.865 34.821 8.035C34.821 6.205 33.441 4.915 31.521 4.915ZM31.521 5.95C32.751 5.95 33.636 6.805 33.636 8.035C33.636 9.25 32.751 10.12 31.521 10.12C30.291 10.12 29.406 9.25 29.406 8.035C29.406 6.805 30.291 5.95 31.521 5.95ZM30.876 0.774999V3.235H32.121V0.774999H30.876ZM50.8068 0.609999V14.17H52.0518V0.609999H50.8068ZM46.8318 2.065V2.275C46.8318 5.875 45.0168 8.755 41.1018 10.645L41.7618 11.65C46.2918 9.43 48.0618 5.995 48.0618 2.065H46.8318ZM41.7168 2.065V3.085H47.3718V2.065H41.7168Z" fill="url(#paint0_linear_551_476)"/>
<defs>
<linearGradient id="paint0_linear_551_476" x1="-7.65143e-07" y1="10.0862" x2="38.1534" y2="-14.5024" gradientUnits="userSpaceOnUse">
<stop stop-color="#7373F6"/>
<stop offset="0.361458" stop-color="#8B70F7"/>
<stop offset="0.634552" stop-color="#956EF6"/>
<stop offset="1" stop-color="#A869F7"/>
</linearGradient>
</defs>
</svg>
