<svg width="75" height="19" viewBox="0 0 75 19" fill="none" xmlns="http://www.w3.org/2000/svg">
<path d="M5.53866 11.52V14.52H8.19866V11.52H5.53866ZM13.6387 0.26V18.78H16.2987V0.26H13.6387ZM1.25866 15.7C4.53866 15.7 8.83866 15.68 12.8587 14.94L12.6787 13.02C8.77866 13.54 4.29866 13.54 0.938658 13.56L1.25866 15.7ZM1.29866 2.3V4.38H12.4387V2.3H1.29866ZM6.85866 5.12C4.15866 5.12 2.25866 6.52 2.25866 8.58C2.25866 10.66 4.15866 12.06 6.85866 12.06C9.59866 12.06 11.4987 10.66 11.4987 8.58C11.4987 6.52 9.59866 5.12 6.85866 5.12ZM6.85866 7.12C8.09866 7.12 8.95866 7.64 8.95866 8.58C8.95866 9.54 8.09866 10.06 6.85866 10.06C5.65866 10.06 4.79866 9.54 4.79866 8.58C4.79866 7.64 5.65866 7.12 6.85866 7.12ZM5.53866 0.339999V3.5H8.19866V0.339999H5.53866ZM23.6491 9.76V13.82H26.3091V9.76H23.6491ZM31.7691 0.26V14.28H34.4291V0.26H31.7691ZM21.0891 16.34V18.46H34.8291V16.34H21.0891ZM21.0891 12.96V16.9H23.7491V12.96H21.0891ZM19.0891 10.56C22.4291 10.56 26.7691 10.46 30.7091 9.8L30.5491 7.9C26.6691 8.4 22.1491 8.44 18.7691 8.44L19.0891 10.56ZM28.2691 11.02V12.84H32.3491V11.02H28.2691ZM24.7291 0.899999C22.0091 0.899999 20.1091 2.24 20.1091 4.2C20.1091 6.18 22.0091 7.5 24.7291 7.5C27.4291 7.5 29.3291 6.18 29.3291 4.2C29.3291 2.24 27.4291 0.899999 24.7291 0.899999ZM24.7291 2.84C25.9491 2.84 26.8091 3.3 26.8091 4.2C26.8091 5.1 25.9491 5.56 24.7291 5.56C23.4891 5.56 22.6291 5.1 22.6291 4.2C22.6291 3.3 23.4891 2.84 24.7291 2.84ZM42.0525 7.42V9.48H43.5925C47.3725 9.48 49.5725 9.44 52.0725 9.06L51.8525 7C49.3725 7.38 47.3125 7.42 43.5925 7.42H42.0525ZM42.0525 1V8.68H44.7125V3.06H50.7525V1H42.0525ZM43.8925 4.2V6.18H50.3525V4.2H43.8925ZM53.2925 0.26V9.76H55.9525V0.26H53.2925ZM54.8725 3.88V6.02H58.3925V3.88H54.8725ZM43.7125 10.54V12.56H53.3325V13.6H43.7525V17.7H46.3925V15.48H55.9525V10.54H43.7125ZM43.7525 16.64V18.66H56.4925V16.64H43.7525ZM64.1029 10.14V13.76H66.7629V10.14H64.1029ZM60.7229 8.74V10.84H70.3429V8.74H60.7229ZM60.7229 1.78V9.52H63.3829V3.88H70.3029V1.78H60.7229ZM62.6429 5.28V7.32H69.9429V5.28H62.6429ZM72.1629 0.239999V18.82H74.8229V0.239999H72.1629ZM59.7629 15.46C62.9629 15.44 67.3229 15.42 71.3429 14.62L71.1429 12.68C67.2429 13.26 62.6829 13.3 59.4429 13.3L59.7629 15.46Z" fill="url(#paint0_linear_698_2210)"/>
<defs>
<linearGradient id="paint0_linear_698_2210" x1="-1.09104e-06" y1="12.0862" x2="41.7458" y2="-26.2767" gradientUnits="userSpaceOnUse">
<stop stop-color="#7373F6"/>
<stop offset="0.361458" stop-color="#8B70F7"/>
<stop offset="0.634552" stop-color="#956EF6"/>
<stop offset="1" stop-color="#A869F7"/>
</linearGradient>
</defs>
</svg>

