<svg width="115" height="115" viewBox="0 0 115 115" fill="none" xmlns="http://www.w3.org/2000/svg">
<path d="M109.43 3.59375C112.664 27.6719 112.125 47.0781 107.273 59.4766L62.7109 26.4141C71.5156 17.25 89.4844 6.28906 109.43 3.59375Z" fill="url(#paint0_linear_698_2212)"/>
<path d="M103.68 57.8594L85.3516 33.9609C85.3516 33.9609 88.7656 20.8438 106.195 11.6797C111.406 32.5234 103.68 57.8594 103.68 57.8594Z" fill="url(#paint1_linear_698_2212)"/>
<path d="M96.6719 52.4688L85.3516 37.7344C85.3516 37.7344 90.0234 28.75 100.805 23C94.5156 36.4766 96.6719 52.4688 96.6719 52.4688Z" fill="#F2F3F7"/>
<path d="M5.57038 3.59375C2.33601 27.6719 2.87507 47.0781 7.72663 59.4766L52.2891 26.2344C43.4844 17.25 25.5157 6.28906 5.57038 3.59375Z" fill="url(#paint2_linear_698_2212)"/>
<path d="M11.3201 57.8594L29.8279 33.9609C29.8279 33.9609 26.4138 20.8438 8.98416 11.6797C3.59353 32.5234 11.3201 57.8594 11.3201 57.8594Z" fill="url(#paint3_linear_698_2212)"/>
<path d="M18.3281 52.4688L29.8281 37.7344C29.8281 37.7344 25.1562 28.75 14.375 23C20.4844 36.4766 18.3281 52.4688 18.3281 52.4688Z" fill="#F2F3F7"/>
<path d="M104.578 91.2812C106.016 89.6641 107.094 88.4062 107.633 87.3281C110.508 82.6562 111.406 77.8047 111.406 77.8047L107.812 78.5234C107.812 78.5234 111.945 74.0313 110.867 64.5078L107.273 68.2812C107.273 68.2812 110.688 58.5781 107.812 49.5938L103.859 52.4688C103.859 52.4688 105.117 48.875 104.039 46.3594L102.422 47.6172C102.422 47.6172 105.477 39.1719 102.781 35.7578C101.164 40.7891 99.3672 40.7891 99.3672 40.7891C99.3672 40.7891 101.523 37.0156 99.9062 35.3984C98.1094 38.2734 96.6719 36.4766 96.6719 35.5781C96.8516 34.5 96.3125 32.8828 101.523 31.9844C97.3906 29.4687 92.3594 31.2656 92.3594 31.2656C92.3594 31.2656 92.5391 28.5703 96.1328 28.75C92.7188 25.875 88.0469 27.6719 88.0469 27.6719C80.6797 22.1016 70.7969 18.8672 57.3203 18.8672C44.0234 18.8672 34.1406 22.1016 26.5938 27.6719C26.5938 27.6719 21.9219 26.0547 18.5078 28.75C22.1016 28.5703 22.2812 31.2656 22.2812 31.2656C22.2812 31.2656 17.4297 29.4687 13.1172 31.9844C18.3281 32.7031 17.9688 34.3203 17.9688 35.5781C17.9688 36.4766 16.5312 38.2734 14.7344 35.3984C12.9375 37.0156 15.2734 40.7891 15.2734 40.7891C15.2734 40.7891 13.4766 40.7891 11.8594 35.7578C9.16406 39.3516 12.2188 47.6172 12.2188 47.6172L10.6016 46.3594C9.52344 48.875 10.7812 52.4688 10.7812 52.4688L7.1875 49.5938C4.13281 58.5781 7.72656 68.2812 7.72656 68.2812L4.3125 64.5078C3.05469 74.0313 7.1875 78.5234 7.1875 78.5234L3.59375 77.8047C3.59375 77.8047 4.49219 82.6562 7.36719 87.3281C7.72656 88.2266 8.80469 89.6641 10.4219 91.2812L10.6016 91.4609C17.9688 98.8281 36.1172 111.406 57.5 111.406C78.8828 111.406 97.0312 98.8281 104.398 91.4609C104.398 91.2812 104.578 91.2812 104.578 91.2812Z" fill="url(#paint4_linear_698_2212)"/>
<path d="M67.7422 19.4063C64.5078 18.8672 61.0937 18.6875 57.5 18.6875C53.9062 18.6875 50.4922 18.8672 47.2578 19.4063C48.5156 26.4141 52.2891 31.2656 57.5 40.25C62.8906 31.0859 66.4844 26.2344 67.7422 19.4063ZM84.0937 24.7969C80.6797 22.8203 76.7266 21.3828 72.4141 20.3047C73.4922 24.4375 75.8281 27.3125 78.8828 32.7031C81.2188 28.9297 82.8359 27.8516 84.0937 24.7969ZM42.5859 20.3047C38.0938 21.3828 34.3203 22.8203 30.9062 24.7969C32.1641 28.0313 33.9609 28.9297 36.1172 32.7031C39.3516 27.1328 41.5078 24.2578 42.5859 20.3047Z" fill="url(#paint5_linear_698_2212)"/>
<path d="M64.6874 69.7188C63.2499 68.1016 58.7578 67.9219 57.4999 67.9219C56.2421 67.9219 51.7499 68.1016 50.3124 69.7188C49.2343 70.9766 50.1328 73.8516 52.8281 76.5469C54.6249 78.1641 56.2421 78.7031 57.4999 78.7031C58.7578 78.7031 60.5546 78.1641 62.1718 76.5469C65.0468 73.8516 65.7656 70.7969 64.6874 69.7188Z" fill="#525271"/>
<path d="M43.6642 55.3433C43.6642 55.3433 42.7657 47.0777 35.5782 44.5621C27.4923 41.5074 21.922 48.8746 20.3048 53.0074C18.1485 59.1168 20.8438 65.7652 21.7423 67.3824C22.2813 68.4605 28.3907 73.1324 41.8673 68.6402C41.8673 68.6402 45.2813 61.8121 43.6642 55.3433Z" fill="url(#paint6_linear_698_2212)"/>
<path d="M43.6641 55.3433C42.9453 52.4683 41.6875 49.9527 39.5313 47.9761C38.6328 47.0777 37.375 46.1793 36.1172 45.8199C35.5782 45.6402 34.8594 45.2808 34.1407 45.2808C33.7813 45.1011 33.0625 44.9214 32.3438 44.9214C29.6485 44.9214 27.3125 45.9996 25.336 47.7964C23.3594 49.5933 21.9219 51.9293 21.2032 54.4449C20.4844 56.9605 20.6641 59.8355 21.2032 62.3511C21.5625 63.6089 21.9219 65.0464 22.461 66.3043L22.6407 66.6636L22.8203 66.8433C23 67.023 23.1797 67.2027 23.5391 67.3824C24.0782 67.7418 24.6172 68.1011 25.1563 68.2808C27.6719 69.3589 30.3672 69.7183 33.2422 69.7183C36.1172 69.7183 38.9922 69.1793 41.8672 68.4605C39.1719 69.7183 36.2969 70.4371 33.4219 70.9761C30.5469 71.3355 27.3125 71.3355 24.4375 70.2574C23.7188 70.0777 23 69.7183 22.2813 69.1793C21.9219 68.9996 21.5625 68.6402 21.2032 68.4605C21.0235 68.4605 21.0235 68.2808 20.8438 68.1011L20.6641 67.9214L20.4844 67.7418L20.125 67.2027C19.4063 65.7652 18.8672 64.3277 18.5078 62.8902C17.7891 60.0152 17.6094 56.7808 18.3282 53.7261C19.2266 50.6714 21.0235 47.9761 23.3594 45.8199C25.6953 43.8433 28.9297 42.4058 32.1641 42.7652C32.8828 42.9449 33.7813 42.9449 34.5 43.3043C35.2188 43.4839 35.9375 43.8433 36.6563 44.2027C38.0938 44.9214 39.1719 45.9996 40.25 47.0777C42.4063 49.5933 43.4844 52.4683 43.6641 55.3433Z" fill="url(#paint7_linear_698_2212)"/>
<path d="M71.3357 55.3433C71.3357 55.3433 72.2342 47.0777 79.4217 44.5621C87.5076 41.5074 93.0779 48.8746 94.6951 53.0074C96.8514 59.1168 94.1561 65.7652 93.2576 67.3824C92.7186 68.4605 86.6092 73.1324 73.1326 68.6402C73.1326 68.6402 69.7186 61.8121 71.3357 55.3433Z" fill="url(#paint8_linear_698_2212)"/>
<path d="M71.3359 55.3433C71.5156 52.4683 72.5938 49.5933 74.3906 47.0777C75.2891 45.8199 76.5469 44.9214 77.9844 44.2027C78.7031 43.8433 79.4219 43.4839 80.1406 43.3043C80.8594 43.1246 81.7578 42.9449 82.4766 42.7652C85.7109 42.4058 88.9453 43.8433 91.2812 45.8199C93.6172 47.9761 95.4141 50.4918 96.3125 53.7261C97.0312 56.7808 96.8516 60.0152 96.1328 63.0699C95.7734 64.5074 95.2344 65.9449 94.5156 67.3824L94.1563 67.9214L93.9766 68.1011V68.2808L93.6172 68.6402C93.2578 68.9996 92.8984 69.1793 92.5391 69.3589L90.3828 70.4371C87.3281 71.5152 84.2734 71.5152 81.3984 71.1558C78.5234 70.6168 75.6484 69.898 72.9531 68.6402C75.8281 69.1793 78.7031 69.7183 81.5781 69.898C84.4531 69.898 87.3281 69.5386 89.6641 68.4605C90.2031 68.2808 90.9219 67.9214 91.2812 67.5621C91.4609 67.3824 91.8203 67.2027 92 67.023L92.1797 66.8433L92.3594 66.4839C92.8984 65.2261 93.2578 63.9683 93.6172 62.5308C94.1562 59.8355 94.3359 57.1402 93.6172 54.6246C92.8984 52.1089 91.4609 49.773 89.4844 47.9761C87.5078 46.1793 85.1719 45.1011 82.4766 45.1011C81.7578 45.1011 81.2187 45.2808 80.5 45.2808C79.7812 45.4605 79.2422 45.6402 78.5234 45.8199C77.2656 46.3589 76.1875 47.0777 75.1094 47.9761C73.3125 49.9527 72.0547 52.648 71.3359 55.3433Z" fill="url(#paint9_linear_698_2212)"/>
<path d="M80.8594 67.3828C85.8213 67.3828 89.8438 63.3604 89.8438 58.3984C89.8438 53.4365 85.8213 49.4141 80.8594 49.4141C75.8974 49.4141 71.875 53.4365 71.875 58.3984C71.875 63.3604 75.8974 67.3828 80.8594 67.3828Z" fill="#4C5359"/>
<path d="M34.1406 67.3828C39.1026 67.3828 43.125 63.3604 43.125 58.3984C43.125 53.4365 39.1026 49.4141 34.1406 49.4141C29.1787 49.4141 25.1562 53.4365 25.1562 58.3984C25.1562 63.3604 29.1787 67.3828 34.1406 67.3828Z" fill="#4C5359"/>
<path d="M34.1406 69.1797C36.3239 69.1797 38.0938 67.1685 38.0938 64.6875C38.0938 62.2065 36.3239 60.1953 34.1406 60.1953C31.9574 60.1953 30.1875 62.2065 30.1875 64.6875C30.1875 67.1685 31.9574 69.1797 34.1406 69.1797Z" fill="white"/>
<path d="M27.4922 59.6562C28.7823 59.6562 29.8281 58.4495 29.8281 56.9609C29.8281 55.4724 28.7823 54.2656 27.4922 54.2656C26.2021 54.2656 25.1562 55.4724 25.1562 56.9609C25.1562 58.4495 26.2021 59.6562 27.4922 59.6562Z" fill="white"/>
<path d="M80.8594 69.1797C83.0426 69.1797 84.8125 67.1685 84.8125 64.6875C84.8125 62.2065 83.0426 60.1953 80.8594 60.1953C78.6761 60.1953 76.9062 62.2065 76.9062 64.6875C76.9062 67.1685 78.6761 69.1797 80.8594 69.1797Z" fill="white"/>
<path d="M74.2109 59.6562C75.501 59.6562 76.5469 58.4495 76.5469 56.9609C76.5469 55.4724 75.501 54.2656 74.2109 54.2656C72.9208 54.2656 71.875 55.4724 71.875 56.9609C71.875 58.4495 72.9208 59.6562 74.2109 59.6562Z" fill="white"/>
<path d="M72.953 88.5859C63.2499 84.0938 51.7499 84.0938 42.0468 88.5859C39.7108 89.6641 42.5858 96.1328 45.1014 94.875C51.5702 91.8203 61.0936 90.7422 70.078 94.875C72.4139 95.9531 75.4686 89.8438 72.953 88.5859Z" fill="#525271"/>
<path d="M84.4531 66.4844C75.8281 78.1641 70.9766 88.9453 70.9766 97.75C70.9766 105.297 77.0859 111.406 84.4531 111.406C91.8203 111.406 97.9297 105.297 97.9297 97.75C97.9297 88.9453 92.8984 77.9844 84.4531 66.4844Z" fill="url(#paint10_linear_698_2212)"/>
<defs>
<linearGradient id="paint0_linear_698_2212" x1="87.0896" y1="3.59375" x2="87.0896" y2="59.4766" gradientUnits="userSpaceOnUse">
<stop stop-color="#BF55F7"/>
<stop offset="0.21875" stop-color="#764FDB"/>
<stop offset="0.479167" stop-color="#8B69F1"/>
<stop offset="1" stop-color="#734FDA"/>
</linearGradient>
<linearGradient id="paint1_linear_698_2212" x1="96.6274" y1="13.6038" x2="96.8316" y2="57.8587" gradientUnits="userSpaceOnUse">
<stop offset="0.0376576" stop-color="#BF55F7"/>
<stop offset="0.395833" stop-color="#764FDB"/>
<stop offset="0.647338" stop-color="#8B69F1"/>
<stop offset="1" stop-color="#734FDA"/>
</linearGradient>
<linearGradient id="paint2_linear_698_2212" x1="27.9104" y1="3.59375" x2="27.9104" y2="59.4766" gradientUnits="userSpaceOnUse">
<stop stop-color="#BF55F7"/>
<stop offset="0.21875" stop-color="#764FDB"/>
<stop offset="0.479167" stop-color="#8B69F1"/>
<stop offset="1" stop-color="#734FDA"/>
</linearGradient>
<linearGradient id="paint3_linear_698_2212" x1="18.4017" y1="13.6038" x2="18.6049" y2="57.8587" gradientUnits="userSpaceOnUse">
<stop offset="0.0376576" stop-color="#BF55F7"/>
<stop offset="0.395833" stop-color="#764FDB"/>
<stop offset="0.647338" stop-color="#8B69F1"/>
<stop offset="1" stop-color="#734FDA"/>
</linearGradient>
<linearGradient id="paint4_linear_698_2212" x1="33.7178" y1="18.8672" x2="60.7762" y2="106.215" gradientUnits="userSpaceOnUse">
<stop stop-color="#7373F6"/>
<stop offset="0.361458" stop-color="#8B70F7"/>
<stop offset="0.634552" stop-color="#956EF6"/>
<stop offset="1" stop-color="#A869F7"/>
</linearGradient>
<linearGradient id="paint5_linear_698_2212" x1="57.5" y1="18.6875" x2="57.5" y2="40.25" gradientUnits="userSpaceOnUse">
<stop stop-color="#BF55F7"/>
<stop offset="0.21875" stop-color="#764FDB"/>
<stop offset="0.479167" stop-color="#8B69F1"/>
<stop offset="1" stop-color="#734FDA"/>
</linearGradient>
<linearGradient id="paint6_linear_698_2212" x1="19.4883" y1="43.8398" x2="49.7109" y2="60.1706" gradientUnits="userSpaceOnUse">
<stop stop-color="#B770EB"/>
<stop offset="1" stop-color="#A8B2EA"/>
</linearGradient>
<linearGradient id="paint7_linear_698_2212" x1="17.8706" y1="42.71" x2="49.7871" y2="59.6648" gradientUnits="userSpaceOnUse">
<stop stop-color="#B770EB"/>
<stop offset="1" stop-color="#A8B2EA"/>
</linearGradient>
<linearGradient id="paint8_linear_698_2212" x1="70.9009" y1="43.8398" x2="101.123" y2="60.1706" gradientUnits="userSpaceOnUse">
<stop stop-color="#B770EB"/>
<stop offset="1" stop-color="#A8B2EA"/>
</linearGradient>
<linearGradient id="paint9_linear_698_2212" x1="71.3359" y1="42.71" x2="103.086" y2="59.2372" gradientUnits="userSpaceOnUse">
<stop stop-color="#B770EB"/>
<stop offset="1" stop-color="#A8B2EA"/>
</linearGradient>
<linearGradient id="paint10_linear_698_2212" x1="70.9766" y1="93.2393" x2="98.0146" y2="92.613" gradientUnits="userSpaceOnUse">
<stop stop-color="#DF8BF3"/>
<stop offset="0.3125" stop-color="#CB8AF1"/>
<stop offset="0.606814" stop-color="#B489EF"/>
<stop offset="0.994792" stop-color="#9B87F0"/>
</linearGradient>
</defs>
</svg>
