<svg width="56" height="16" viewBox="0 0 56 16" fill="none" xmlns="http://www.w3.org/2000/svg">
<path d="M0.8585 6.336V7.984H2.0905C5.1145 7.984 6.8745 7.952 8.8745 7.648L8.6985 6C6.7145 6.304 5.0665 6.336 2.0905 6.336H0.8585ZM0.8585 1.2V7.344H2.9865V2.848H7.8185V1.2H0.8585ZM2.3305 3.76V5.344H7.4985V3.76H2.3305ZM9.8505 0.608V8.208H11.9785V0.608H9.8505ZM11.1145 3.504V5.216H13.9305V3.504H11.1145ZM2.1865 8.832V10.448H9.8825V11.28H2.2185V14.56H4.3305V12.784H11.9785V8.832H2.1865ZM2.2185 13.712V15.328H12.4105V13.712H2.2185ZM18.4172 8.512V11.408H20.5452V8.512H18.4172ZM15.7132 7.392V9.072H23.4092V7.392H15.7132ZM15.7132 1.824V8.016H17.8412V3.504H23.3772V1.824H15.7132ZM17.2492 4.624V6.256H23.0892V4.624H17.2492ZM24.8652 0.591999V15.456H26.9932V0.591999H24.8652ZM14.9452 12.768C17.5052 12.752 20.9932 12.736 24.2092 12.096L24.0492 10.544C20.9292 11.008 17.2812 11.04 14.6892 11.04L14.9452 12.768ZM38.44 0.608V15.424H40.552V0.608H38.44ZM40.072 6.384V8.16H42.696V6.384H40.072ZM28.872 2.8V4.496H37.496V2.8H28.872ZM33.208 5.328C31.048 5.328 29.448 6.8 29.448 8.864C29.448 10.928 31.048 12.4 33.208 12.4C35.368 12.4 36.968 10.928 36.968 8.864C36.968 6.8 35.368 5.328 33.208 5.328ZM33.208 7.056C34.216 7.056 34.936 7.728 34.936 8.864C34.936 10 34.216 10.672 33.208 10.672C32.2 10.672 31.48 10 31.48 8.864C31.48 7.728 32.2 7.056 33.208 7.056ZM32.136 0.848V3.44H34.264V0.848H32.136ZM53.4548 0.608V15.424H55.5988V0.608H53.4548ZM49.0868 2.144V2.528C49.0868 6.496 47.5508 9.184 43.2948 11.232L44.3988 12.928C49.6628 10.384 51.1988 6.672 51.1988 2.144H49.0868ZM44.0788 2.144V3.824H50.0948V2.144H44.0788Z" fill="url(#paint0_linear_765_2266)"/>
<defs>
<linearGradient id="paint0_linear_765_2266" x1="14.1618" y1="-3" x2="18.8703" y2="26.2418" gradientUnits="userSpaceOnUse">
<stop stop-color="#7373F6"/>
<stop offset="0.361458" stop-color="#8B70F7"/>
<stop offset="0.634552" stop-color="#956EF6"/>
<stop offset="1" stop-color="#A869F7"/>
</linearGradient>
</defs>
</svg>
