<svg width="125" height="15" viewBox="0 0 125 15" fill="none" xmlns="http://www.w3.org/2000/svg">
<path d="M9.9459 0.609999V10.66H11.1909V0.609999H9.9459ZM6.1209 2.38V3.385H10.4109V2.38H6.1209ZM2.5209 12.85V13.87H11.5509V12.85H2.5209ZM2.5209 9.79V13.315H3.7659V9.79H2.5209ZM0.825899 1.6V7.99H2.0709V1.6H0.825899ZM0.825899 7.6V8.635H1.8459C3.8409 8.635 5.6559 8.545 7.8309 8.155L7.7109 7.12C5.5959 7.495 3.7809 7.6 1.8459 7.6H0.825899ZM6.1209 4.96V5.98H10.4109V4.96H6.1209ZM15.0897 6.94V7.96H24.4047V6.94H15.0897ZM13.5447 11.425V12.475H25.8297V11.425H13.5447ZM19.0347 7.375V11.845H20.2797V7.375H19.0347ZM15.0897 1.69V7.39H16.3347V2.71H24.2697V1.69H15.0897ZM27.0286 6.91V7.855H39.3286V6.91H27.0286ZM28.4836 8.95V9.835H36.5686V10.99H28.5286V13.435H29.7586V11.845H37.7836V8.95H28.4836ZM28.5286 13.105V14.005H38.2186V13.105H28.5286ZM28.5886 1V1.885H36.5236V2.98H28.6186V5.29H29.8486V3.82H37.7386V1H28.5886ZM28.6186 4.99V5.89H37.9936V4.99H28.6186ZM54.3161 0.609999V7.885H55.5761V0.609999H54.3161ZM46.8311 8.56V13.99H55.5761V8.56H54.3461V10.21H48.0611V8.56H46.8311ZM48.0611 11.2H54.3461V12.985H48.0611V11.2ZM48.3011 1.255C46.2461 1.255 44.7611 2.53 44.7611 4.375C44.7611 6.235 46.2461 7.51 48.3011 7.51C50.3561 7.51 51.8261 6.235 51.8261 4.375C51.8261 2.53 50.3561 1.255 48.3011 1.255ZM48.3011 2.29C49.6511 2.29 50.6261 3.145 50.6261 4.375C50.6261 5.605 49.6511 6.46 48.3011 6.46C46.9511 6.46 45.9761 5.605 45.9761 4.375C45.9761 3.145 46.9511 2.29 48.3011 2.29ZM58.515 7.33V8.35H59.49C62.205 8.35 63.555 8.305 65.235 8.005L65.1 7C63.48 7.285 62.16 7.33 59.49 7.33H58.515ZM58.485 1.42V2.44H63.105V4.3H58.515V7.945H59.745V5.275H64.335V1.42H58.485ZM67.86 0.624999V8.95H69.105V0.624999H67.86ZM65.235 2.62V3.64H68.145V2.62H65.235ZM65.235 5.425V6.445H68.145V5.425H65.235ZM60.03 9.685V10.705H67.86V14.2H69.105V9.685H60.03ZM71.4288 2.92V3.94H78.1488V2.92H71.4288ZM74.7888 4.84C73.1088 4.84 71.8788 6.115 71.8788 7.945C71.8788 9.76 73.1088 11.035 74.7888 11.035C76.4838 11.035 77.7138 9.76 77.7138 7.945C77.7138 6.115 76.4838 4.84 74.7888 4.84ZM74.7888 5.905C75.8388 5.905 76.6038 6.745 76.6038 7.945C76.6038 9.145 75.8388 9.985 74.7888 9.985C73.7538 9.985 73.0038 9.145 73.0038 7.945C73.0038 6.745 73.7538 5.905 74.7888 5.905ZM81.7338 0.609999V14.17H82.9338V0.609999H81.7338ZM79.5738 6.31V7.345H82.1388V6.31H79.5738ZM78.8388 0.909999V13.51H80.0088V0.909999H78.8388ZM74.1888 1V3.55H75.4188V1H74.1888ZM90.3876 1.945V2.515C90.3876 4.3 88.0626 5.86 85.6776 6.205L86.1576 7.195C88.8876 6.73 91.4676 4.945 91.4676 2.515V1.945H90.3876ZM90.7026 1.945V2.515C90.7026 4.945 93.2676 6.73 96.0126 7.195L96.4776 6.205C94.1076 5.86 91.7676 4.3 91.7676 2.515V1.945H90.7026ZM90.4326 8.995V14.17H91.6626V8.995H90.4326ZM84.9576 8.335V9.355H97.2126V8.335H84.9576ZM86.0976 1.45V2.455H96.0276V1.45H86.0976ZM103.796 5.455V6.49H106.391V5.455H103.796ZM101.261 1.885V4.465C101.261 6.79 100.151 9.22 98.2914 10.315L99.0714 11.26C101.051 10.045 102.236 7.3 102.236 4.465V1.885H101.261ZM101.501 1.885V4.42C101.501 7.06 102.596 9.76 104.546 10.96L105.266 9.985C103.481 8.905 102.461 6.595 102.461 4.42V1.885H101.501ZM108.776 0.609999V14.17H109.976V0.609999H108.776ZM106.031 0.894999V13.495H107.201V0.894999H106.031ZM114.955 7.585V11.65H116.185V7.585H114.955ZM119.965 7.585V11.65H121.21V7.585H119.965ZM111.955 11.41V12.445H124.24V11.41H111.955ZM118.075 1.465C115.195 1.465 113.14 2.83 113.14 4.96C113.14 7.075 115.195 8.44 118.075 8.44C120.94 8.44 122.995 7.075 122.995 4.96C122.995 2.83 120.94 1.465 118.075 1.465ZM118.075 2.455C120.25 2.455 121.795 3.445 121.795 4.96C121.795 6.46 120.25 7.45 118.075 7.45C115.9 7.45 114.34 6.46 114.34 4.96C114.34 3.445 115.9 2.455 118.075 2.455Z" fill="url(#paint0_linear_421_685)" fill-opacity="0.6"/>
<defs>
<linearGradient id="paint0_linear_421_685" x1="2.5" y1="8" x2="33.7173" y2="60.3483" gradientUnits="userSpaceOnUse">
<stop stop-color="#7373F6"/>
<stop offset="0.361458" stop-color="#8B70F7"/>
<stop offset="0.634552" stop-color="#956EF6"/>
<stop offset="1" stop-color="#A869F7"/>
</linearGradient>
</defs>
</svg>
