<svg width="182" height="22" viewBox="0 0 182 22" fill="none" xmlns="http://www.w3.org/2000/svg">
<path d="M15.4438 8.286V10.684H19.0298V8.286H15.4438ZM13.2658 0.563999V20.936H16.2138V0.563999H13.2658ZM0.857839 2.522V15.172H3.78384V2.522H0.857839ZM0.857839 13.544V15.964H2.61784C5.60984 15.964 8.88784 15.788 12.2538 15.084L11.9458 12.686C8.66784 13.346 5.52184 13.544 2.61784 13.544H0.857839ZM34.0101 0.563999V21.002H36.9581V0.563999H34.0101ZM25.9801 1.994C22.9001 1.994 20.6341 4.81 20.6341 9.254C20.6341 13.742 22.9001 16.558 25.9801 16.558C29.0601 16.558 31.3261 13.742 31.3261 9.254C31.3261 4.81 29.0601 1.994 25.9801 1.994ZM25.9801 4.656C27.4981 4.656 28.5101 6.262 28.5101 9.254C28.5101 12.29 27.4981 13.918 25.9801 13.918C24.4621 13.918 23.4281 12.29 23.4281 9.254C23.4281 6.262 24.4621 4.656 25.9801 4.656ZM39.8384 9.716V11.85H58.2964V9.716H39.8384ZM41.9064 12.862V14.842H53.2144V15.854H41.9504V19.44H44.8544V17.702H56.0964V12.862H41.9064ZM41.9504 18.824V20.804H56.6684V18.824H41.9504ZM42.1044 0.937999V2.896H53.1704V3.908H42.1264V7.406H45.0304V5.734H56.0524V0.937999H42.1044ZM42.1264 6.79V8.77H56.4264V6.79H42.1264ZM78.2805 0.586V11.542H81.2285V0.586H78.2805ZM67.6765 12.422V20.738H81.2285V12.422H78.3245V14.314H70.5585V12.422H67.6765ZM70.5585 16.558H78.3245V18.406H70.5585V16.558ZM70.1405 1.422C66.9725 1.422 64.5965 3.424 64.5965 6.24C64.5965 9.056 66.9725 11.058 70.1405 11.058C73.3085 11.058 75.6625 9.056 75.6625 6.24C75.6625 3.424 73.3085 1.422 70.1405 1.422ZM70.1405 3.842C71.6805 3.842 72.8025 4.744 72.8025 6.24C72.8025 7.758 71.6805 8.638 70.1405 8.638C68.5785 8.638 67.4565 7.758 67.4565 6.24C67.4565 4.744 68.5785 3.842 70.1405 3.842ZM84.8568 10.288V12.62H86.4188C90.3128 12.62 92.4028 12.554 94.7788 12.114L94.4928 9.804C92.1828 10.222 90.2028 10.288 86.4188 10.288H84.8568ZM84.8348 1.752V4.062H90.8848V5.998H84.8568V11.828H87.7608V8.176H93.7888V1.752H84.8348ZM98.2108 0.607999V13.148H101.137V0.607999H98.2108ZM94.9548 3.402V5.734H98.7388V3.402H94.9548ZM94.9548 7.736V10.068H98.7388V7.736H94.9548ZM87.1888 14.072V16.404H98.2108V20.98H101.137V14.072H87.1888ZM103.863 3.644V5.976H113.609V3.644H103.863ZM108.769 6.878C106.195 6.878 104.303 8.88 104.303 11.74C104.303 14.578 106.195 16.58 108.769 16.58C111.365 16.58 113.235 14.578 113.235 11.74C113.235 8.88 111.365 6.878 108.769 6.878ZM108.769 9.32C109.869 9.32 110.661 10.2 110.661 11.74C110.661 13.28 109.869 14.138 108.769 14.138C107.669 14.138 106.899 13.28 106.899 11.74C106.899 10.2 107.669 9.32 108.769 9.32ZM118.603 0.586V20.958H121.397V0.586H118.603ZM116.161 8.858V11.212H119.527V8.858H116.161ZM114.335 0.959999V20.1H117.063V0.959999H114.335ZM107.339 1.136V5.118H110.221V1.136H107.339ZM131.229 2.852V3.446C131.229 5.536 129.073 7.824 124.585 8.374L125.663 10.662C130.833 9.958 133.759 7.032 133.759 3.446V2.852H131.229ZM132.065 2.852V3.446C132.065 7.032 134.991 9.958 140.183 10.662L141.239 8.374C136.751 7.824 134.595 5.536 134.595 3.446V2.852H132.065ZM131.383 13.5V20.98H134.287V13.5H131.383ZM123.705 11.828V14.16H142.119V11.828H123.705ZM125.333 1.62V3.93H140.447V1.62H125.333ZM151.512 7.428V9.804H154.878V7.428H151.512ZM147.156 2.346V5.778C147.156 9.232 146.1 12.862 143.108 14.71L144.868 16.91C148.124 14.908 149.4 10.398 149.4 5.778V2.346H147.156ZM147.794 2.346V5.646C147.794 10.046 148.806 14.446 152.04 16.448L153.624 14.16C150.852 12.356 149.994 8.968 149.994 5.646V2.346H147.794ZM158.2 0.586V20.958H160.994V0.586H158.2ZM154.064 0.894V20.034H156.792V0.894H154.064ZM167.35 10.926V16.646H170.254V10.926H167.35ZM174.742 10.926V16.646H177.668V10.926H174.742ZM163.302 16.228V18.604H181.738V16.228H163.302ZM172.498 1.576C168.098 1.576 164.886 3.732 164.886 7.054C164.886 10.376 168.098 12.51 172.498 12.51C176.876 12.51 180.11 10.376 180.11 7.054C180.11 3.732 176.876 1.576 172.498 1.576ZM172.498 3.864C175.336 3.864 177.228 5.03 177.228 7.054C177.228 9.056 175.336 10.244 172.498 10.244C169.66 10.244 167.768 9.056 167.768 7.054C167.768 5.03 169.66 3.864 172.498 3.864Z" fill="url(#paint0_linear_421_676)"/>
<defs>
<linearGradient id="paint0_linear_421_676" x1="-16" y1="-5.32813" x2="46.1435" y2="111.073" gradientUnits="userSpaceOnUse">
<stop stop-color="#7373F6"/>
<stop offset="0.361458" stop-color="#8B70F7"/>
<stop offset="0.634552" stop-color="#956EF6"/>
<stop offset="1" stop-color="#A869F7"/>
</linearGradient>
</defs>
</svg>
